<?xml version="1.0" ?>
<svg xmlns="http://www.w3.org/2000/svg" height="500" width="300" viewBox="-1.0 -0.5773502691896257 7.0 9.814954576223638">
  <rect x="-1.0" y="-0.5773502691896257" width="7.0" height="9.814954576223638" fill="#8881"/>
  <g>
    <g>
      <polygon points="-0.3333333333333335,-0.5773502691896257 -0.6666666666666667,-1.1102230246251565e-16 -1.333333333333333,0.0 -1.6666666666666665,-0.5773502691896256 -1.3333333333333335,-1.1547005383792512 -0.6666666666666672,-1.1547005383792517 -0.3333333333333335,-0.5773502691896257" fill="None" stroke="#ccc" stroke-width="0.01"/>
      <text x="-1.0" y="-0.5773502691896257" fill="#ccc" font-size="0.3" font-family="P22 Johnston Underground Regular" text-anchor="middle" dominant-baseline="middle">-1.0,-0.5</text>
    </g>
    <g>
      <polygon points="-0.3333333333333335,0.5773502691896257 -0.6666666666666667,1.1547005383792515 -1.333333333333333,1.1547005383792515 -1.6666666666666665,0.5773502691896258 -1.3333333333333335,2.220446049250313e-16 -0.6666666666666672,-2.220446049250313e-16 -0.3333333333333335,0.5773502691896257" fill="None" stroke="#ccc" stroke-width="0.01"/>
      <text x="-1.0" y="0.5773502691896257" fill="#ccc" font-size="0.3" font-family="P22 Johnston Underground Regular" text-anchor="middle" dominant-baseline="middle">-1.0,0.5</text>
    </g>
    <g>
      <polygon points="-0.3333333333333335,1.7320508075688772 -0.6666666666666667,2.309401076758503 -1.333333333333333,2.309401076758503 -1.6666666666666665,1.7320508075688772 -1.3333333333333335,1.1547005383792517 -0.6666666666666672,1.1547005383792512 -0.3333333333333335,1.7320508075688772" fill="None" stroke="#ccc" stroke-width="0.01"/>
      <text x="-1.0" y="1.7320508075688772" fill="#ccc" font-size="0.3" font-family="P22 Johnston Underground Regular" text-anchor="middle" dominant-baseline="middle">-1.0,1.5</text>
    </g>
    <g>
      <polygon points="-0.3333333333333335,2.8867513459481287 -0.6666666666666667,3.4641016151377544 -1.333333333333333,3.4641016151377544 -1.6666666666666665,2.8867513459481287 -1.3333333333333335,2.309401076758503 -0.6666666666666672,2.309401076758503 -0.3333333333333335,2.8867513459481287" fill="None" stroke="#ccc" stroke-width="0.01"/>
      <text x="-1.0" y="2.8867513459481287" fill="#ccc" font-size="0.3" font-family="P22 Johnston Underground Regular" text-anchor="middle" dominant-baseline="middle">-1.0,2.5</text>
    </g>
    <g>
      <polygon points="-0.3333333333333335,4.04145188432738 -0.6666666666666667,4.618802153517005 -1.333333333333333,4.618802153517006 -1.6666666666666665,4.04145188432738 -1.3333333333333335,3.4641016151377544 -0.6666666666666672,3.4641016151377535 -0.3333333333333335,4.04145188432738" fill="None" stroke="#ccc" stroke-width="0.01"/>
      <text x="-1.0" y="4.04145188432738" fill="#ccc" font-size="0.3" font-family="P22 Johnston Underground Regular" text-anchor="middle" dominant-baseline="middle">-1.0,3.5</text>
    </g>
    <g>
      <polygon points="-0.3333333333333335,5.196152422706631 -0.6666666666666667,5.773502691896256 -1.333333333333333,5.773502691896256 -1.6666666666666665,5.196152422706631 -1.3333333333333335,4.618802153517006 -0.6666666666666672,4.618802153517005 -0.3333333333333335,5.196152422706631" fill="None" stroke="#ccc" stroke-width="0.01"/>
      <text x="-1.0" y="5.196152422706631" fill="#ccc" font-size="0.3" font-family="P22 Johnston Underground Regular" text-anchor="middle" dominant-baseline="middle">-1.0,4.5</text>
    </g>
    <g>
      <polygon points="-0.3333333333333335,6.350852961085883 -0.6666666666666667,6.928203230275508 -1.333333333333333,6.928203230275509 -1.6666666666666665,6.350852961085883 -1.3333333333333335,5.773502691896257 -0.6666666666666672,5.773502691896256 -0.3333333333333335,6.350852961085883" fill="None" stroke="#ccc" stroke-width="0.01"/>
      <text x="-1.0" y="6.350852961085883" fill="#ccc" font-size="0.3" font-family="P22 Johnston Underground Regular" text-anchor="middle" dominant-baseline="middle">-1.0,5.5</text>
    </g>
    <g>
      <polygon points="-0.3333333333333335,7.505553499465134 -0.6666666666666667,8.08290376865476 -1.333333333333333,8.08290376865476 -1.6666666666666665,7.505553499465134 -1.3333333333333335,6.928203230275509 -0.6666666666666672,6.928203230275508 -0.3333333333333335,7.505553499465134" fill="None" stroke="#ccc" stroke-width="0.01"/>
      <text x="-1.0" y="7.505553499465134" fill="#ccc" font-size="0.3" font-family="P22 Johnston Underground Regular" text-anchor="middle" dominant-baseline="middle">-1.0,6.5</text>
    </g>
    <g>
      <polygon points="-0.3333333333333335,8.660254037844386 -0.6666666666666667,9.237604307034012 -1.333333333333333,9.237604307034012 -1.6666666666666665,8.660254037844386 -1.3333333333333335,8.08290376865476 -0.6666666666666672,8.08290376865476 -0.3333333333333335,8.660254037844386" fill="None" stroke="#ccc" stroke-width="0.01"/>
      <text x="-1.0" y="8.660254037844386" fill="#ccc" font-size="0.3" font-family="P22 Johnston Underground Regular" text-anchor="middle" dominant-baseline="middle">-1.0,7.5</text>
    </g>
    <g>
      <polygon points="0.6666666666666665,-1.1547005383792515 0.3333333333333333,-0.5773502691896258 -0.3333333333333331,-0.5773502691896257 -0.6666666666666665,-1.1547005383792515 -0.33333333333333354,-1.732050807568877 0.3333333333333328,-1.7320508075688774 0.6666666666666665,-1.1547005383792515" fill="None" stroke="#ccc" stroke-width="0.01"/>
      <text x="0.0" y="-1.1547005383792515" fill="#ccc" font-size="0.3" font-family="P22 Johnston Underground Regular" text-anchor="middle" dominant-baseline="middle">0.0,-1.0</text>
    </g>
    <g>
      <polygon points="0.6666666666666665,0.0 0.3333333333333333,0.5773502691896256 -0.3333333333333331,0.5773502691896257 -0.6666666666666665,8.164311994315686e-17 -0.33333333333333354,-0.5773502691896255 0.3333333333333328,-0.577350269189626 0.6666666666666665,0.0" fill="None" stroke="#ccc" stroke-width="0.01"/>
      <text x="0.0" y="0.0" fill="#ccc" font-size="0.3" font-family="P22 Johnston Underground Regular" text-anchor="middle" dominant-baseline="middle">0.0,0.0</text>
    </g>
    <g>
      <polygon points="0.6666666666666665,1.1547005383792515 0.3333333333333333,1.7320508075688772 -0.3333333333333331,1.7320508075688772 -0.6666666666666665,1.1547005383792515 -0.33333333333333354,0.577350269189626 0.3333333333333328,0.5773502691896255 0.6666666666666665,1.1547005383792515" fill="None" stroke="#ccc" stroke-width="0.01"/>
      <text x="0.0" y="1.1547005383792515" fill="#ccc" font-size="0.3" font-family="P22 Johnston Underground Regular" text-anchor="middle" dominant-baseline="middle">0.0,1.0</text>
    </g>
    <g>
      <polygon points="0.6666666666666665,2.309401076758503 0.3333333333333333,2.8867513459481287 -0.3333333333333331,2.8867513459481287 -0.6666666666666665,2.309401076758503 -0.33333333333333354,1.7320508075688774 0.3333333333333328,1.732050807568877 0.6666666666666665,2.309401076758503" fill="None" stroke="#ccc" stroke-width="0.01"/>
      <text x="0.0" y="2.309401076758503" fill="#ccc" font-size="0.3" font-family="P22 Johnston Underground Regular" text-anchor="middle" dominant-baseline="middle">0.0,2.0</text>
    </g>
    <g>
      <polygon points="0.6666666666666665,3.4641016151377544 0.3333333333333333,4.04145188432738 -0.3333333333333331,4.04145188432738 -0.6666666666666665,3.4641016151377544 -0.33333333333333354,2.886751345948129 0.3333333333333328,2.886751345948128 0.6666666666666665,3.4641016151377544" fill="None" stroke="#ccc" stroke-width="0.01"/>
      <text x="0.0" y="3.4641016151377544" fill="#ccc" font-size="0.3" font-family="P22 Johnston Underground Regular" text-anchor="middle" dominant-baseline="middle">0.0,3.0</text>
    </g>
    <g>
      <polygon points="0.6666666666666665,4.618802153517006 0.3333333333333333,5.196152422706631 -0.3333333333333331,5.196152422706632 -0.6666666666666665,4.618802153517006 -0.33333333333333354,4.041451884327381 0.3333333333333328,4.04145188432738 0.6666666666666665,4.618802153517006" fill="None" stroke="#ccc" stroke-width="0.01"/>
      <text x="0.0" y="4.618802153517006" fill="#ccc" font-size="0.3" font-family="P22 Johnston Underground Regular" text-anchor="middle" dominant-baseline="middle">0.0,4.0</text>
    </g>
    <g>
      <polygon points="0.6666666666666665,5.773502691896257 0.3333333333333333,6.350852961085883 -0.3333333333333331,6.350852961085883 -0.6666666666666665,5.773502691896257 -0.33333333333333354,5.196152422706632 0.3333333333333328,5.196152422706631 0.6666666666666665,5.773502691896257" fill="None" stroke="#ccc" stroke-width="0.01"/>
      <text x="0.0" y="5.773502691896257" fill="#ccc" font-size="0.3" font-family="P22 Johnston Underground Regular" text-anchor="middle" dominant-baseline="middle">0.0,5.0</text>
    </g>
    <g>
      <polygon points="0.6666666666666665,6.928203230275509 0.3333333333333333,7.505553499465134 -0.3333333333333331,7.505553499465135 -0.6666666666666665,6.928203230275509 -0.33333333333333354,6.3508529610858835 0.3333333333333328,6.350852961085883 0.6666666666666665,6.928203230275509" fill="None" stroke="#ccc" stroke-width="0.01"/>
      <text x="0.0" y="6.928203230275509" fill="#ccc" font-size="0.3" font-family="P22 Johnston Underground Regular" text-anchor="middle" dominant-baseline="middle">0.0,6.0</text>
    </g>
    <g>
      <polygon points="0.6666666666666665,8.08290376865476 0.3333333333333333,8.660254037844386 -0.3333333333333331,8.660254037844386 -0.6666666666666665,8.08290376865476 -0.33333333333333354,7.505553499465134 0.3333333333333328,7.505553499465133 0.6666666666666665,8.08290376865476" fill="None" stroke="#ccc" stroke-width="0.01"/>
      <text x="0.0" y="8.08290376865476" fill="#ccc" font-size="0.3" font-family="P22 Johnston Underground Regular" text-anchor="middle" dominant-baseline="middle">0.0,7.0</text>
    </g>
    <g>
      <polygon points="0.6666666666666665,9.237604307034012 0.3333333333333333,9.814954576223638 -0.3333333333333331,9.814954576223638 -0.6666666666666665,9.237604307034012 -0.33333333333333354,8.660254037844386 0.3333333333333328,8.660254037844386 0.6666666666666665,9.237604307034012" fill="None" stroke="#ccc" stroke-width="0.01"/>
      <text x="0.0" y="9.237604307034012" fill="#ccc" font-size="0.3" font-family="P22 Johnston Underground Regular" text-anchor="middle" dominant-baseline="middle">0.0,8.0</text>
    </g>
    <g>
      <polygon points="1.6666666666666665,-0.5773502691896257 1.3333333333333333,-1.1102230246251565e-16 0.666666666666667,0.0 0.3333333333333335,-0.5773502691896256 0.6666666666666665,-1.1547005383792512 1.3333333333333328,-1.1547005383792517 1.6666666666666665,-0.5773502691896257" fill="None" stroke="#ccc" stroke-width="0.01"/>
      <text x="1.0" y="-0.5773502691896257" fill="#ccc" font-size="0.3" font-family="P22 Johnston Underground Regular" text-anchor="middle" dominant-baseline="middle">1.0,-0.5</text>
    </g>
    <g>
      <polygon points="1.6666666666666665,0.5773502691896257 1.3333333333333333,1.1547005383792515 0.666666666666667,1.1547005383792515 0.3333333333333335,0.5773502691896258 0.6666666666666665,2.220446049250313e-16 1.3333333333333328,-2.220446049250313e-16 1.6666666666666665,0.5773502691896257" fill="None" stroke="#ccc" stroke-width="0.01"/>
      <text x="1.0" y="0.5773502691896257" fill="#ccc" font-size="0.3" font-family="P22 Johnston Underground Regular" text-anchor="middle" dominant-baseline="middle">1.0,0.5</text>
    </g>
    <g>
      <polygon points="1.6666666666666665,1.7320508075688772 1.3333333333333333,2.309401076758503 0.666666666666667,2.309401076758503 0.3333333333333335,1.7320508075688772 0.6666666666666665,1.1547005383792517 1.3333333333333328,1.1547005383792512 1.6666666666666665,1.7320508075688772" fill="None" stroke="#ccc" stroke-width="0.01"/>
      <text x="1.0" y="1.7320508075688772" fill="#ccc" font-size="0.3" font-family="P22 Johnston Underground Regular" text-anchor="middle" dominant-baseline="middle">1.0,1.5</text>
    </g>
    <g>
      <polygon points="1.6666666666666665,2.8867513459481287 1.3333333333333333,3.4641016151377544 0.666666666666667,3.4641016151377544 0.3333333333333335,2.8867513459481287 0.6666666666666665,2.309401076758503 1.3333333333333328,2.309401076758503 1.6666666666666665,2.8867513459481287" fill="None" stroke="#ccc" stroke-width="0.01"/>
      <text x="1.0" y="2.8867513459481287" fill="#ccc" font-size="0.3" font-family="P22 Johnston Underground Regular" text-anchor="middle" dominant-baseline="middle">1.0,2.5</text>
    </g>
    <g>
      <polygon points="1.6666666666666665,4.04145188432738 1.3333333333333333,4.618802153517005 0.666666666666667,4.618802153517006 0.3333333333333335,4.04145188432738 0.6666666666666665,3.4641016151377544 1.3333333333333328,3.4641016151377535 1.6666666666666665,4.04145188432738" fill="None" stroke="#ccc" stroke-width="0.01"/>
      <text x="1.0" y="4.04145188432738" fill="#ccc" font-size="0.3" font-family="P22 Johnston Underground Regular" text-anchor="middle" dominant-baseline="middle">1.0,3.5</text>
    </g>
    <g>
      <polygon points="1.6666666666666665,5.196152422706631 1.3333333333333333,5.773502691896256 0.666666666666667,5.773502691896256 0.3333333333333335,5.196152422706631 0.6666666666666665,4.618802153517006 1.3333333333333328,4.618802153517005 1.6666666666666665,5.196152422706631" fill="None" stroke="#ccc" stroke-width="0.01"/>
      <text x="1.0" y="5.196152422706631" fill="#ccc" font-size="0.3" font-family="P22 Johnston Underground Regular" text-anchor="middle" dominant-baseline="middle">1.0,4.5</text>
    </g>
    <g>
      <polygon points="1.6666666666666665,6.350852961085883 1.3333333333333333,6.928203230275508 0.666666666666667,6.928203230275509 0.3333333333333335,6.350852961085883 0.6666666666666665,5.773502691896257 1.3333333333333328,5.773502691896256 1.6666666666666665,6.350852961085883" fill="None" stroke="#ccc" stroke-width="0.01"/>
      <text x="1.0" y="6.350852961085883" fill="#ccc" font-size="0.3" font-family="P22 Johnston Underground Regular" text-anchor="middle" dominant-baseline="middle">1.0,5.5</text>
    </g>
    <g>
      <polygon points="1.6666666666666665,7.505553499465134 1.3333333333333333,8.08290376865476 0.666666666666667,8.08290376865476 0.3333333333333335,7.505553499465134 0.6666666666666665,6.928203230275509 1.3333333333333328,6.928203230275508 1.6666666666666665,7.505553499465134" fill="None" stroke="#ccc" stroke-width="0.01"/>
      <text x="1.0" y="7.505553499465134" fill="#ccc" font-size="0.3" font-family="P22 Johnston Underground Regular" text-anchor="middle" dominant-baseline="middle">1.0,6.5</text>
    </g>
    <g>
      <polygon points="1.6666666666666665,8.660254037844386 1.3333333333333333,9.237604307034012 0.666666666666667,9.237604307034012 0.3333333333333335,8.660254037844386 0.6666666666666665,8.08290376865476 1.3333333333333328,8.08290376865476 1.6666666666666665,8.660254037844386" fill="None" stroke="#ccc" stroke-width="0.01"/>
      <text x="1.0" y="8.660254037844386" fill="#ccc" font-size="0.3" font-family="P22 Johnston Underground Regular" text-anchor="middle" dominant-baseline="middle">1.0,7.5</text>
    </g>
    <g>
      <polygon points="2.6666666666666665,-1.1547005383792515 2.3333333333333335,-0.5773502691896258 1.666666666666667,-0.5773502691896257 1.3333333333333335,-1.1547005383792515 1.6666666666666665,-1.732050807568877 2.333333333333333,-1.7320508075688774 2.6666666666666665,-1.1547005383792515" fill="None" stroke="#ccc" stroke-width="0.01"/>
      <text x="2.0" y="-1.1547005383792515" fill="#ccc" font-size="0.3" font-family="P22 Johnston Underground Regular" text-anchor="middle" dominant-baseline="middle">2.0,-1.0</text>
    </g>
    <g>
      <polygon points="2.6666666666666665,0.0 2.3333333333333335,0.5773502691896256 1.666666666666667,0.5773502691896257 1.3333333333333335,8.164311994315686e-17 1.6666666666666665,-0.5773502691896255 2.333333333333333,-0.577350269189626 2.6666666666666665,0.0" fill="None" stroke="#ccc" stroke-width="0.01"/>
      <text x="2.0" y="0.0" fill="#ccc" font-size="0.3" font-family="P22 Johnston Underground Regular" text-anchor="middle" dominant-baseline="middle">2.0,0.0</text>
    </g>
    <g>
      <polygon points="2.6666666666666665,1.1547005383792515 2.3333333333333335,1.7320508075688772 1.666666666666667,1.7320508075688772 1.3333333333333335,1.1547005383792515 1.6666666666666665,0.577350269189626 2.333333333333333,0.5773502691896255 2.6666666666666665,1.1547005383792515" fill="None" stroke="#ccc" stroke-width="0.01"/>
      <text x="2.0" y="1.1547005383792515" fill="#ccc" font-size="0.3" font-family="P22 Johnston Underground Regular" text-anchor="middle" dominant-baseline="middle">2.0,1.0</text>
    </g>
    <g>
      <polygon points="2.6666666666666665,2.309401076758503 2.3333333333333335,2.8867513459481287 1.666666666666667,2.8867513459481287 1.3333333333333335,2.309401076758503 1.6666666666666665,1.7320508075688774 2.333333333333333,1.732050807568877 2.6666666666666665,2.309401076758503" fill="None" stroke="#ccc" stroke-width="0.01"/>
      <text x="2.0" y="2.309401076758503" fill="#ccc" font-size="0.3" font-family="P22 Johnston Underground Regular" text-anchor="middle" dominant-baseline="middle">2.0,2.0</text>
    </g>
    <g>
      <polygon points="2.6666666666666665,3.4641016151377544 2.3333333333333335,4.04145188432738 1.666666666666667,4.04145188432738 1.3333333333333335,3.4641016151377544 1.6666666666666665,2.886751345948129 2.333333333333333,2.886751345948128 2.6666666666666665,3.4641016151377544" fill="None" stroke="#ccc" stroke-width="0.01"/>
      <text x="2.0" y="3.4641016151377544" fill="#ccc" font-size="0.3" font-family="P22 Johnston Underground Regular" text-anchor="middle" dominant-baseline="middle">2.0,3.0</text>
    </g>
    <g>
      <polygon points="2.6666666666666665,4.618802153517006 2.3333333333333335,5.196152422706631 1.666666666666667,5.196152422706632 1.3333333333333335,4.618802153517006 1.6666666666666665,4.041451884327381 2.333333333333333,4.04145188432738 2.6666666666666665,4.618802153517006" fill="None" stroke="#ccc" stroke-width="0.01"/>
      <text x="2.0" y="4.618802153517006" fill="#ccc" font-size="0.3" font-family="P22 Johnston Underground Regular" text-anchor="middle" dominant-baseline="middle">2.0,4.0</text>
    </g>
    <g>
      <polygon points="2.6666666666666665,5.773502691896257 2.3333333333333335,6.350852961085883 1.666666666666667,6.350852961085883 1.3333333333333335,5.773502691896257 1.6666666666666665,5.196152422706632 2.333333333333333,5.196152422706631 2.6666666666666665,5.773502691896257" fill="None" stroke="#ccc" stroke-width="0.01"/>
      <text x="2.0" y="5.773502691896257" fill="#ccc" font-size="0.3" font-family="P22 Johnston Underground Regular" text-anchor="middle" dominant-baseline="middle">2.0,5.0</text>
    </g>
    <g>
      <polygon points="2.6666666666666665,6.928203230275509 2.3333333333333335,7.505553499465134 1.666666666666667,7.505553499465135 1.3333333333333335,6.928203230275509 1.6666666666666665,6.3508529610858835 2.333333333333333,6.350852961085883 2.6666666666666665,6.928203230275509" fill="None" stroke="#ccc" stroke-width="0.01"/>
      <text x="2.0" y="6.928203230275509" fill="#ccc" font-size="0.3" font-family="P22 Johnston Underground Regular" text-anchor="middle" dominant-baseline="middle">2.0,6.0</text>
    </g>
    <g>
      <polygon points="2.6666666666666665,8.08290376865476 2.3333333333333335,8.660254037844386 1.666666666666667,8.660254037844386 1.3333333333333335,8.08290376865476 1.6666666666666665,7.505553499465134 2.333333333333333,7.505553499465133 2.6666666666666665,8.08290376865476" fill="None" stroke="#ccc" stroke-width="0.01"/>
      <text x="2.0" y="8.08290376865476" fill="#ccc" font-size="0.3" font-family="P22 Johnston Underground Regular" text-anchor="middle" dominant-baseline="middle">2.0,7.0</text>
    </g>
    <g>
      <polygon points="2.6666666666666665,9.237604307034012 2.3333333333333335,9.814954576223638 1.666666666666667,9.814954576223638 1.3333333333333335,9.237604307034012 1.6666666666666665,8.660254037844386 2.333333333333333,8.660254037844386 2.6666666666666665,9.237604307034012" fill="None" stroke="#ccc" stroke-width="0.01"/>
      <text x="2.0" y="9.237604307034012" fill="#ccc" font-size="0.3" font-family="P22 Johnston Underground Regular" text-anchor="middle" dominant-baseline="middle">2.0,8.0</text>
    </g>
    <g>
      <polygon points="3.6666666666666665,-0.5773502691896257 3.3333333333333335,-1.1102230246251565e-16 2.666666666666667,0.0 2.3333333333333335,-0.5773502691896256 2.6666666666666665,-1.1547005383792512 3.333333333333333,-1.1547005383792517 3.6666666666666665,-0.5773502691896257" fill="None" stroke="#ccc" stroke-width="0.01"/>
      <text x="3.0" y="-0.5773502691896257" fill="#ccc" font-size="0.3" font-family="P22 Johnston Underground Regular" text-anchor="middle" dominant-baseline="middle">3.0,-0.5</text>
    </g>
    <g>
      <polygon points="3.6666666666666665,0.5773502691896257 3.3333333333333335,1.1547005383792515 2.666666666666667,1.1547005383792515 2.3333333333333335,0.5773502691896258 2.6666666666666665,2.220446049250313e-16 3.333333333333333,-2.220446049250313e-16 3.6666666666666665,0.5773502691896257" fill="None" stroke="#ccc" stroke-width="0.01"/>
      <text x="3.0" y="0.5773502691896257" fill="#ccc" font-size="0.3" font-family="P22 Johnston Underground Regular" text-anchor="middle" dominant-baseline="middle">3.0,0.5</text>
    </g>
    <g>
      <polygon points="3.6666666666666665,1.7320508075688772 3.3333333333333335,2.309401076758503 2.666666666666667,2.309401076758503 2.3333333333333335,1.7320508075688772 2.6666666666666665,1.1547005383792517 3.333333333333333,1.1547005383792512 3.6666666666666665,1.7320508075688772" fill="None" stroke="#ccc" stroke-width="0.01"/>
      <text x="3.0" y="1.7320508075688772" fill="#ccc" font-size="0.3" font-family="P22 Johnston Underground Regular" text-anchor="middle" dominant-baseline="middle">3.0,1.5</text>
    </g>
    <g>
      <polygon points="3.6666666666666665,2.8867513459481287 3.3333333333333335,3.4641016151377544 2.666666666666667,3.4641016151377544 2.3333333333333335,2.8867513459481287 2.6666666666666665,2.309401076758503 3.333333333333333,2.309401076758503 3.6666666666666665,2.8867513459481287" fill="None" stroke="#ccc" stroke-width="0.01"/>
      <text x="3.0" y="2.8867513459481287" fill="#ccc" font-size="0.3" font-family="P22 Johnston Underground Regular" text-anchor="middle" dominant-baseline="middle">3.0,2.5</text>
    </g>
    <g>
      <polygon points="3.6666666666666665,4.04145188432738 3.3333333333333335,4.618802153517005 2.666666666666667,4.618802153517006 2.3333333333333335,4.04145188432738 2.6666666666666665,3.4641016151377544 3.333333333333333,3.4641016151377535 3.6666666666666665,4.04145188432738" fill="None" stroke="#ccc" stroke-width="0.01"/>
      <text x="3.0" y="4.04145188432738" fill="#ccc" font-size="0.3" font-family="P22 Johnston Underground Regular" text-anchor="middle" dominant-baseline="middle">3.0,3.5</text>
    </g>
    <g>
      <polygon points="3.6666666666666665,5.196152422706631 3.3333333333333335,5.773502691896256 2.666666666666667,5.773502691896256 2.3333333333333335,5.196152422706631 2.6666666666666665,4.618802153517006 3.333333333333333,4.618802153517005 3.6666666666666665,5.196152422706631" fill="None" stroke="#ccc" stroke-width="0.01"/>
      <text x="3.0" y="5.196152422706631" fill="#ccc" font-size="0.3" font-family="P22 Johnston Underground Regular" text-anchor="middle" dominant-baseline="middle">3.0,4.5</text>
    </g>
    <g>
      <polygon points="3.6666666666666665,6.350852961085883 3.3333333333333335,6.928203230275508 2.666666666666667,6.928203230275509 2.3333333333333335,6.350852961085883 2.6666666666666665,5.773502691896257 3.333333333333333,5.773502691896256 3.6666666666666665,6.350852961085883" fill="None" stroke="#ccc" stroke-width="0.01"/>
      <text x="3.0" y="6.350852961085883" fill="#ccc" font-size="0.3" font-family="P22 Johnston Underground Regular" text-anchor="middle" dominant-baseline="middle">3.0,5.5</text>
    </g>
    <g>
      <polygon points="3.6666666666666665,7.505553499465134 3.3333333333333335,8.08290376865476 2.666666666666667,8.08290376865476 2.3333333333333335,7.505553499465134 2.6666666666666665,6.928203230275509 3.333333333333333,6.928203230275508 3.6666666666666665,7.505553499465134" fill="None" stroke="#ccc" stroke-width="0.01"/>
      <text x="3.0" y="7.505553499465134" fill="#ccc" font-size="0.3" font-family="P22 Johnston Underground Regular" text-anchor="middle" dominant-baseline="middle">3.0,6.5</text>
    </g>
    <g>
      <polygon points="3.6666666666666665,8.660254037844386 3.3333333333333335,9.237604307034012 2.666666666666667,9.237604307034012 2.3333333333333335,8.660254037844386 2.6666666666666665,8.08290376865476 3.333333333333333,8.08290376865476 3.6666666666666665,8.660254037844386" fill="None" stroke="#ccc" stroke-width="0.01"/>
      <text x="3.0" y="8.660254037844386" fill="#ccc" font-size="0.3" font-family="P22 Johnston Underground Regular" text-anchor="middle" dominant-baseline="middle">3.0,7.5</text>
    </g>
    <g>
      <polygon points="4.666666666666666,-1.1547005383792515 4.333333333333333,-0.5773502691896258 3.666666666666667,-0.5773502691896257 3.3333333333333335,-1.1547005383792515 3.6666666666666665,-1.732050807568877 4.333333333333333,-1.7320508075688774 4.666666666666666,-1.1547005383792515" fill="None" stroke="#ccc" stroke-width="0.01"/>
      <text x="4.0" y="-1.1547005383792515" fill="#ccc" font-size="0.3" font-family="P22 Johnston Underground Regular" text-anchor="middle" dominant-baseline="middle">4.0,-1.0</text>
    </g>
    <g>
      <polygon points="4.666666666666666,0.0 4.333333333333333,0.5773502691896256 3.666666666666667,0.5773502691896257 3.3333333333333335,8.164311994315686e-17 3.6666666666666665,-0.5773502691896255 4.333333333333333,-0.577350269189626 4.666666666666666,0.0" fill="None" stroke="#ccc" stroke-width="0.01"/>
      <text x="4.0" y="0.0" fill="#ccc" font-size="0.3" font-family="P22 Johnston Underground Regular" text-anchor="middle" dominant-baseline="middle">4.0,0.0</text>
    </g>
    <g>
      <polygon points="4.666666666666666,1.1547005383792515 4.333333333333333,1.7320508075688772 3.666666666666667,1.7320508075688772 3.3333333333333335,1.1547005383792515 3.6666666666666665,0.577350269189626 4.333333333333333,0.5773502691896255 4.666666666666666,1.1547005383792515" fill="None" stroke="#ccc" stroke-width="0.01"/>
      <text x="4.0" y="1.1547005383792515" fill="#ccc" font-size="0.3" font-family="P22 Johnston Underground Regular" text-anchor="middle" dominant-baseline="middle">4.0,1.0</text>
    </g>
    <g>
      <polygon points="4.666666666666666,2.309401076758503 4.333333333333333,2.8867513459481287 3.666666666666667,2.8867513459481287 3.3333333333333335,2.309401076758503 3.6666666666666665,1.7320508075688774 4.333333333333333,1.732050807568877 4.666666666666666,2.309401076758503" fill="None" stroke="#ccc" stroke-width="0.01"/>
      <text x="4.0" y="2.309401076758503" fill="#ccc" font-size="0.3" font-family="P22 Johnston Underground Regular" text-anchor="middle" dominant-baseline="middle">4.0,2.0</text>
    </g>
    <g>
      <polygon points="4.666666666666666,3.4641016151377544 4.333333333333333,4.04145188432738 3.666666666666667,4.04145188432738 3.3333333333333335,3.4641016151377544 3.6666666666666665,2.886751345948129 4.333333333333333,2.886751345948128 4.666666666666666,3.4641016151377544" fill="None" stroke="#ccc" stroke-width="0.01"/>
      <text x="4.0" y="3.4641016151377544" fill="#ccc" font-size="0.3" font-family="P22 Johnston Underground Regular" text-anchor="middle" dominant-baseline="middle">4.0,3.0</text>
    </g>
    <g>
      <polygon points="4.666666666666666,4.618802153517006 4.333333333333333,5.196152422706631 3.666666666666667,5.196152422706632 3.3333333333333335,4.618802153517006 3.6666666666666665,4.041451884327381 4.333333333333333,4.04145188432738 4.666666666666666,4.618802153517006" fill="None" stroke="#ccc" stroke-width="0.01"/>
      <text x="4.0" y="4.618802153517006" fill="#ccc" font-size="0.3" font-family="P22 Johnston Underground Regular" text-anchor="middle" dominant-baseline="middle">4.0,4.0</text>
    </g>
    <g>
      <polygon points="4.666666666666666,5.773502691896257 4.333333333333333,6.350852961085883 3.666666666666667,6.350852961085883 3.3333333333333335,5.773502691896257 3.6666666666666665,5.196152422706632 4.333333333333333,5.196152422706631 4.666666666666666,5.773502691896257" fill="None" stroke="#ccc" stroke-width="0.01"/>
      <text x="4.0" y="5.773502691896257" fill="#ccc" font-size="0.3" font-family="P22 Johnston Underground Regular" text-anchor="middle" dominant-baseline="middle">4.0,5.0</text>
    </g>
    <g>
      <polygon points="4.666666666666666,6.928203230275509 4.333333333333333,7.505553499465134 3.666666666666667,7.505553499465135 3.3333333333333335,6.928203230275509 3.6666666666666665,6.3508529610858835 4.333333333333333,6.350852961085883 4.666666666666666,6.928203230275509" fill="None" stroke="#ccc" stroke-width="0.01"/>
      <text x="4.0" y="6.928203230275509" fill="#ccc" font-size="0.3" font-family="P22 Johnston Underground Regular" text-anchor="middle" dominant-baseline="middle">4.0,6.0</text>
    </g>
    <g>
      <polygon points="4.666666666666666,8.08290376865476 4.333333333333333,8.660254037844386 3.666666666666667,8.660254037844386 3.3333333333333335,8.08290376865476 3.6666666666666665,7.505553499465134 4.333333333333333,7.505553499465133 4.666666666666666,8.08290376865476" fill="None" stroke="#ccc" stroke-width="0.01"/>
      <text x="4.0" y="8.08290376865476" fill="#ccc" font-size="0.3" font-family="P22 Johnston Underground Regular" text-anchor="middle" dominant-baseline="middle">4.0,7.0</text>
    </g>
    <g>
      <polygon points="4.666666666666666,9.237604307034012 4.333333333333333,9.814954576223638 3.666666666666667,9.814954576223638 3.3333333333333335,9.237604307034012 3.6666666666666665,8.660254037844386 4.333333333333333,8.660254037844386 4.666666666666666,9.237604307034012" fill="None" stroke="#ccc" stroke-width="0.01"/>
      <text x="4.0" y="9.237604307034012" fill="#ccc" font-size="0.3" font-family="P22 Johnston Underground Regular" text-anchor="middle" dominant-baseline="middle">4.0,8.0</text>
    </g>
    <g>
      <polygon points="5.666666666666666,-0.5773502691896257 5.333333333333333,-1.1102230246251565e-16 4.666666666666667,0.0 4.333333333333334,-0.5773502691896256 4.666666666666666,-1.1547005383792512 5.333333333333333,-1.1547005383792517 5.666666666666666,-0.5773502691896257" fill="None" stroke="#ccc" stroke-width="0.01"/>
      <text x="5.0" y="-0.5773502691896257" fill="#ccc" font-size="0.3" font-family="P22 Johnston Underground Regular" text-anchor="middle" dominant-baseline="middle">5.0,-0.5</text>
    </g>
    <g>
      <polygon points="5.666666666666666,0.5773502691896257 5.333333333333333,1.1547005383792515 4.666666666666667,1.1547005383792515 4.333333333333334,0.5773502691896258 4.666666666666666,2.220446049250313e-16 5.333333333333333,-2.220446049250313e-16 5.666666666666666,0.5773502691896257" fill="None" stroke="#ccc" stroke-width="0.01"/>
      <text x="5.0" y="0.5773502691896257" fill="#ccc" font-size="0.3" font-family="P22 Johnston Underground Regular" text-anchor="middle" dominant-baseline="middle">5.0,0.5</text>
    </g>
    <g>
      <polygon points="5.666666666666666,1.7320508075688772 5.333333333333333,2.309401076758503 4.666666666666667,2.309401076758503 4.333333333333334,1.7320508075688772 4.666666666666666,1.1547005383792517 5.333333333333333,1.1547005383792512 5.666666666666666,1.7320508075688772" fill="None" stroke="#ccc" stroke-width="0.01"/>
      <text x="5.0" y="1.7320508075688772" fill="#ccc" font-size="0.3" font-family="P22 Johnston Underground Regular" text-anchor="middle" dominant-baseline="middle">5.0,1.5</text>
    </g>
    <g>
      <polygon points="5.666666666666666,2.8867513459481287 5.333333333333333,3.4641016151377544 4.666666666666667,3.4641016151377544 4.333333333333334,2.8867513459481287 4.666666666666666,2.309401076758503 5.333333333333333,2.309401076758503 5.666666666666666,2.8867513459481287" fill="None" stroke="#ccc" stroke-width="0.01"/>
      <text x="5.0" y="2.8867513459481287" fill="#ccc" font-size="0.3" font-family="P22 Johnston Underground Regular" text-anchor="middle" dominant-baseline="middle">5.0,2.5</text>
    </g>
    <g>
      <polygon points="5.666666666666666,4.04145188432738 5.333333333333333,4.618802153517005 4.666666666666667,4.618802153517006 4.333333333333334,4.04145188432738 4.666666666666666,3.4641016151377544 5.333333333333333,3.4641016151377535 5.666666666666666,4.04145188432738" fill="None" stroke="#ccc" stroke-width="0.01"/>
      <text x="5.0" y="4.04145188432738" fill="#ccc" font-size="0.3" font-family="P22 Johnston Underground Regular" text-anchor="middle" dominant-baseline="middle">5.0,3.5</text>
    </g>
    <g>
      <polygon points="5.666666666666666,5.196152422706631 5.333333333333333,5.773502691896256 4.666666666666667,5.773502691896256 4.333333333333334,5.196152422706631 4.666666666666666,4.618802153517006 5.333333333333333,4.618802153517005 5.666666666666666,5.196152422706631" fill="None" stroke="#ccc" stroke-width="0.01"/>
      <text x="5.0" y="5.196152422706631" fill="#ccc" font-size="0.3" font-family="P22 Johnston Underground Regular" text-anchor="middle" dominant-baseline="middle">5.0,4.5</text>
    </g>
    <g>
      <polygon points="5.666666666666666,6.350852961085883 5.333333333333333,6.928203230275508 4.666666666666667,6.928203230275509 4.333333333333334,6.350852961085883 4.666666666666666,5.773502691896257 5.333333333333333,5.773502691896256 5.666666666666666,6.350852961085883" fill="None" stroke="#ccc" stroke-width="0.01"/>
      <text x="5.0" y="6.350852961085883" fill="#ccc" font-size="0.3" font-family="P22 Johnston Underground Regular" text-anchor="middle" dominant-baseline="middle">5.0,5.5</text>
    </g>
    <g>
      <polygon points="5.666666666666666,7.505553499465134 5.333333333333333,8.08290376865476 4.666666666666667,8.08290376865476 4.333333333333334,7.505553499465134 4.666666666666666,6.928203230275509 5.333333333333333,6.928203230275508 5.666666666666666,7.505553499465134" fill="None" stroke="#ccc" stroke-width="0.01"/>
      <text x="5.0" y="7.505553499465134" fill="#ccc" font-size="0.3" font-family="P22 Johnston Underground Regular" text-anchor="middle" dominant-baseline="middle">5.0,6.5</text>
    </g>
    <g>
      <polygon points="5.666666666666666,8.660254037844386 5.333333333333333,9.237604307034012 4.666666666666667,9.237604307034012 4.333333333333334,8.660254037844386 4.666666666666666,8.08290376865476 5.333333333333333,8.08290376865476 5.666666666666666,8.660254037844386" fill="None" stroke="#ccc" stroke-width="0.01"/>
      <text x="5.0" y="8.660254037844386" fill="#ccc" font-size="0.3" font-family="P22 Johnston Underground Regular" text-anchor="middle" dominant-baseline="middle">5.0,7.5</text>
    </g>
    <g>
      <polygon points="6.666666666666666,-1.1547005383792515 6.333333333333333,-0.5773502691896258 5.666666666666667,-0.5773502691896257 5.333333333333334,-1.1547005383792515 5.666666666666666,-1.732050807568877 6.333333333333333,-1.7320508075688774 6.666666666666666,-1.1547005383792515" fill="None" stroke="#ccc" stroke-width="0.01"/>
      <text x="6.0" y="-1.1547005383792515" fill="#ccc" font-size="0.3" font-family="P22 Johnston Underground Regular" text-anchor="middle" dominant-baseline="middle">6.0,-1.0</text>
    </g>
    <g>
      <polygon points="6.666666666666666,0.0 6.333333333333333,0.5773502691896256 5.666666666666667,0.5773502691896257 5.333333333333334,8.164311994315686e-17 5.666666666666666,-0.5773502691896255 6.333333333333333,-0.577350269189626 6.666666666666666,0.0" fill="None" stroke="#ccc" stroke-width="0.01"/>
      <text x="6.0" y="0.0" fill="#ccc" font-size="0.3" font-family="P22 Johnston Underground Regular" text-anchor="middle" dominant-baseline="middle">6.0,0.0</text>
    </g>
    <g>
      <polygon points="6.666666666666666,1.1547005383792515 6.333333333333333,1.7320508075688772 5.666666666666667,1.7320508075688772 5.333333333333334,1.1547005383792515 5.666666666666666,0.577350269189626 6.333333333333333,0.5773502691896255 6.666666666666666,1.1547005383792515" fill="None" stroke="#ccc" stroke-width="0.01"/>
      <text x="6.0" y="1.1547005383792515" fill="#ccc" font-size="0.3" font-family="P22 Johnston Underground Regular" text-anchor="middle" dominant-baseline="middle">6.0,1.0</text>
    </g>
    <g>
      <polygon points="6.666666666666666,2.309401076758503 6.333333333333333,2.8867513459481287 5.666666666666667,2.8867513459481287 5.333333333333334,2.309401076758503 5.666666666666666,1.7320508075688774 6.333333333333333,1.732050807568877 6.666666666666666,2.309401076758503" fill="None" stroke="#ccc" stroke-width="0.01"/>
      <text x="6.0" y="2.309401076758503" fill="#ccc" font-size="0.3" font-family="P22 Johnston Underground Regular" text-anchor="middle" dominant-baseline="middle">6.0,2.0</text>
    </g>
    <g>
      <polygon points="6.666666666666666,3.4641016151377544 6.333333333333333,4.04145188432738 5.666666666666667,4.04145188432738 5.333333333333334,3.4641016151377544 5.666666666666666,2.886751345948129 6.333333333333333,2.886751345948128 6.666666666666666,3.4641016151377544" fill="None" stroke="#ccc" stroke-width="0.01"/>
      <text x="6.0" y="3.4641016151377544" fill="#ccc" font-size="0.3" font-family="P22 Johnston Underground Regular" text-anchor="middle" dominant-baseline="middle">6.0,3.0</text>
    </g>
    <g>
      <polygon points="6.666666666666666,4.618802153517006 6.333333333333333,5.196152422706631 5.666666666666667,5.196152422706632 5.333333333333334,4.618802153517006 5.666666666666666,4.041451884327381 6.333333333333333,4.04145188432738 6.666666666666666,4.618802153517006" fill="None" stroke="#ccc" stroke-width="0.01"/>
      <text x="6.0" y="4.618802153517006" fill="#ccc" font-size="0.3" font-family="P22 Johnston Underground Regular" text-anchor="middle" dominant-baseline="middle">6.0,4.0</text>
    </g>
    <g>
      <polygon points="6.666666666666666,5.773502691896257 6.333333333333333,6.350852961085883 5.666666666666667,6.350852961085883 5.333333333333334,5.773502691896257 5.666666666666666,5.196152422706632 6.333333333333333,5.196152422706631 6.666666666666666,5.773502691896257" fill="None" stroke="#ccc" stroke-width="0.01"/>
      <text x="6.0" y="5.773502691896257" fill="#ccc" font-size="0.3" font-family="P22 Johnston Underground Regular" text-anchor="middle" dominant-baseline="middle">6.0,5.0</text>
    </g>
    <g>
      <polygon points="6.666666666666666,6.928203230275509 6.333333333333333,7.505553499465134 5.666666666666667,7.505553499465135 5.333333333333334,6.928203230275509 5.666666666666666,6.3508529610858835 6.333333333333333,6.350852961085883 6.666666666666666,6.928203230275509" fill="None" stroke="#ccc" stroke-width="0.01"/>
      <text x="6.0" y="6.928203230275509" fill="#ccc" font-size="0.3" font-family="P22 Johnston Underground Regular" text-anchor="middle" dominant-baseline="middle">6.0,6.0</text>
    </g>
    <g>
      <polygon points="6.666666666666666,8.08290376865476 6.333333333333333,8.660254037844386 5.666666666666667,8.660254037844386 5.333333333333334,8.08290376865476 5.666666666666666,7.505553499465134 6.333333333333333,7.505553499465133 6.666666666666666,8.08290376865476" fill="None" stroke="#ccc" stroke-width="0.01"/>
      <text x="6.0" y="8.08290376865476" fill="#ccc" font-size="0.3" font-family="P22 Johnston Underground Regular" text-anchor="middle" dominant-baseline="middle">6.0,7.0</text>
    </g>
    <g>
      <polygon points="6.666666666666666,9.237604307034012 6.333333333333333,9.814954576223638 5.666666666666667,9.814954576223638 5.333333333333334,9.237604307034012 5.666666666666666,8.660254037844386 6.333333333333333,8.660254037844386 6.666666666666666,9.237604307034012" fill="None" stroke="#ccc" stroke-width="0.01"/>
      <text x="6.0" y="9.237604307034012" fill="#ccc" font-size="0.3" font-family="P22 Johnston Underground Regular" text-anchor="middle" dominant-baseline="middle">6.0,8.0</text>
    </g>
  </g>
  <g>
    <polygon points="0.6666666666666665,5.773502691896257 0.3333333333333333,6.350852961085883 -0.3333333333333331,6.350852961085883 -0.6666666666666665,5.773502691896257 -0.33333333333333354,5.196152422706632 0.3333333333333328,5.196152422706631 0.6666666666666665,5.773502691896257" fill="#f808" stroke="#444" stroke-width="0.01"/>
    <g>
      <text x="0.0" y="5.773502691896257" fill="white" font-size="0.4" font-family="P22 Johnston Underground Regular" text-anchor="middle" dominant-baseline="middle"/>
    </g>
  </g>
  <g>
    <polygon points="1.6666666666666665,6.350852961085883 1.3333333333333333,6.928203230275508 0.666666666666667,6.928203230275509 0.3333333333333335,6.350852961085883 0.6666666666666665,5.773502691896257 1.3333333333333328,5.773502691896256 1.6666666666666665,6.350852961085883" fill="#f808" stroke="#444" stroke-width="0.01"/>
    <g>
      <text x="1.0" y="6.350852961085883" fill="white" font-size="0.4" font-family="P22 Johnston Underground Regular" text-anchor="middle" dominant-baseline="middle">CLM</text>
    </g>
  </g>
  <g>
    <polygon points="2.6666666666666665,5.773502691896257 2.3333333333333335,6.350852961085883 1.666666666666667,6.350852961085883 1.3333333333333335,5.773502691896257 1.6666666666666665,5.196152422706632 2.333333333333333,5.196152422706631 2.6666666666666665,5.773502691896257" fill="#f808" stroke="#444" stroke-width="0.01"/>
    <g>
      <text x="2.0" y="5.773502691896257" fill="white" font-size="0.4" font-family="P22 Johnston Underground Regular" text-anchor="middle" dominant-baseline="middle"/>
    </g>
  </g>
  <g>
    <polygon points="1.6666666666666665,4.04145188432738 1.3333333333333333,4.618802153517005 0.666666666666667,4.618802153517006 0.3333333333333335,4.04145188432738 0.6666666666666665,3.4641016151377544 1.3333333333333328,3.4641016151377535 1.6666666666666665,4.04145188432738" fill="#f808" stroke="#444" stroke-width="0.01"/>
    <g>
      <text x="1.0" y="4.04145188432738" fill="white" font-size="0.4" font-family="P22 Johnston Underground Regular" text-anchor="middle" dominant-baseline="middle"/>
    </g>
  </g>
  <g>
    <polygon points="1.6666666666666665,5.196152422706631 1.3333333333333333,5.773502691896256 0.666666666666667,5.773502691896256 0.3333333333333335,5.196152422706631 0.6666666666666665,4.618802153517006 1.3333333333333328,4.618802153517005 1.6666666666666665,5.196152422706631" fill="#f808" stroke="#444" stroke-width="0.01"/>
    <g>
      <text x="1.0" y="5.196152422706631" fill="white" font-size="0.4" font-family="P22 Johnston Underground Regular" text-anchor="middle" dominant-baseline="middle">GMP</text>
    </g>
  </g>
  <g>
    <polygon points="2.6666666666666665,4.618802153517006 2.3333333333333335,5.196152422706631 1.666666666666667,5.196152422706632 1.3333333333333335,4.618802153517006 1.6666666666666665,4.041451884327381 2.333333333333333,4.04145188432738 2.6666666666666665,4.618802153517006" fill="#f808" stroke="#444" stroke-width="0.01"/>
    <g>
      <text x="2.0" y="4.618802153517006" fill="white" font-size="0.4" font-family="P22 Johnston Underground Regular" text-anchor="middle" dominant-baseline="middle"/>
    </g>
  </g>
  <g>
    <polygon points="1.6666666666666665,7.505553499465134 1.3333333333333333,8.08290376865476 0.666666666666667,8.08290376865476 0.3333333333333335,7.505553499465134 0.6666666666666665,6.928203230275509 1.3333333333333328,6.928203230275508 1.6666666666666665,7.505553499465134" fill="#8008" stroke="#444" stroke-width="0.01"/>
    <g>
      <text x="1.0" y="7.505553499465134" fill="white" font-size="0.4" font-family="P22 Johnston Underground Regular" text-anchor="middle" dominant-baseline="middle">KLT</text>
    </g>
  </g>
  <g>
    <polygon points="2.6666666666666665,6.928203230275509 2.3333333333333335,7.505553499465134 1.666666666666667,7.505553499465135 1.3333333333333335,6.928203230275509 1.6666666666666665,6.3508529610858835 2.333333333333333,6.350852961085883 2.6666666666666665,6.928203230275509" fill="#8008" stroke="#444" stroke-width="0.01"/>
    <g>
      <text x="2.0" y="6.928203230275509" fill="white" font-size="0.4" font-family="P22 Johnston Underground Regular" text-anchor="middle" dominant-baseline="middle"/>
    </g>
  </g>
  <g>
    <polygon points="3.6666666666666665,4.04145188432738 3.3333333333333335,4.618802153517005 2.666666666666667,4.618802153517006 2.3333333333333335,4.04145188432738 2.6666666666666665,3.4641016151377544 3.333333333333333,3.4641016151377535 3.6666666666666665,4.04145188432738" fill="#f808" stroke="#444" stroke-width="0.01"/>
    <g>
      <text x="3.0" y="4.04145188432738" fill="white" font-size="0.4" font-family="P22 Johnston Underground Regular" text-anchor="middle" dominant-baseline="middle">KND</text>
    </g>
  </g>
  <g>
    <polygon points="4.666666666666666,4.618802153517006 4.333333333333333,5.196152422706631 3.666666666666667,5.196152422706632 3.3333333333333335,4.618802153517006 3.6666666666666665,4.041451884327381 4.333333333333333,4.04145188432738 4.666666666666666,4.618802153517006" fill="#f808" stroke="#444" stroke-width="0.01"/>
    <g>
      <text x="4.0" y="4.618802153517006" fill="white" font-size="0.4" font-family="P22 Johnston Underground Regular" text-anchor="middle" dominant-baseline="middle"/>
    </g>
  </g>
  <g>
    <polygon points="3.6666666666666665,2.8867513459481287 3.3333333333333335,3.4641016151377544 2.666666666666667,3.4641016151377544 2.3333333333333335,2.8867513459481287 2.6666666666666665,2.309401076758503 3.333333333333333,2.309401076758503 3.6666666666666665,2.8867513459481287" fill="#8008" stroke="#444" stroke-width="0.01"/>
    <g>
      <text x="3.0" y="2.8867513459481287" fill="white" font-size="0.4" font-family="P22 Johnston Underground Regular" text-anchor="middle" dominant-baseline="middle">MTL</text>
    </g>
  </g>
  <g>
    <polygon points="4.666666666666666,5.773502691896257 4.333333333333333,6.350852961085883 3.666666666666667,6.350852961085883 3.3333333333333335,5.773502691896257 3.6666666666666665,5.196152422706632 4.333333333333333,5.196152422706631 4.666666666666666,5.773502691896257" fill="#0c08" stroke="#444" stroke-width="0.01"/>
    <g>
      <text x="4.0" y="5.773502691896257" fill="white" font-size="0.4" font-family="P22 Johnston Underground Regular" text-anchor="middle" dominant-baseline="middle">NWR</text>
    </g>
  </g>
  <g>
    <polygon points="2.6666666666666665,8.08290376865476 2.3333333333333335,8.660254037844386 1.666666666666667,8.660254037844386 1.3333333333333335,8.08290376865476 1.6666666666666665,7.505553499465134 2.333333333333333,7.505553499465133 2.6666666666666665,8.08290376865476" fill="#8008" stroke="#444" stroke-width="0.01"/>
    <g>
      <text x="2.0" y="8.08290376865476" fill="white" font-size="0.4" font-family="P22 Johnston Underground Regular" text-anchor="middle" dominant-baseline="middle">GLL</text>
    </g>
  </g>
  <g>
    <polygon points="3.6666666666666665,7.505553499465134 3.3333333333333335,8.08290376865476 2.666666666666667,8.08290376865476 2.3333333333333335,7.505553499465134 2.6666666666666665,6.928203230275509 3.333333333333333,6.928203230275508 3.6666666666666665,7.505553499465134" fill="#8008" stroke="#444" stroke-width="0.01"/>
    <g>
      <text x="3.0" y="7.505553499465134" fill="white" font-size="0.4" font-family="P22 Johnston Underground Regular" text-anchor="middle" dominant-baseline="middle"/>
    </g>
  </g>
  <g>
    <polygon points="4.666666666666666,8.08290376865476 4.333333333333333,8.660254037844386 3.666666666666667,8.660254037844386 3.3333333333333335,8.08290376865476 3.6666666666666665,7.505553499465134 4.333333333333333,7.505553499465133 4.666666666666666,8.08290376865476" fill="#8008" stroke="#444" stroke-width="0.01"/>
    <g>
      <text x="4.0" y="8.08290376865476" fill="white" font-size="0.4" font-family="P22 Johnston Underground Regular" text-anchor="middle" dominant-baseline="middle">MTR</text>
    </g>
  </g>
  <g>
    <polygon points="5.666666666666666,7.505553499465134 5.333333333333333,8.08290376865476 4.666666666666667,8.08290376865476 4.333333333333334,7.505553499465134 4.666666666666666,6.928203230275509 5.333333333333333,6.928203230275508 5.666666666666666,7.505553499465134" fill="#8008" stroke="#444" stroke-width="0.01"/>
    <g>
      <text x="5.0" y="7.505553499465134" fill="white" font-size="0.4" font-family="P22 Johnston Underground Regular" text-anchor="middle" dominant-baseline="middle">HMB</text>
    </g>
  </g>
  <g>
    <polygon points="1.6666666666666665,0.5773502691896257 1.3333333333333333,1.1547005383792515 0.666666666666667,1.1547005383792515 0.3333333333333335,0.5773502691896258 0.6666666666666665,2.220446049250313e-16 1.3333333333333328,-2.220446049250313e-16 1.6666666666666665,0.5773502691896257" fill="#0c08" stroke="#444" stroke-width="0.01"/>
    <g>
      <text x="1.0" y="0.5773502691896257" fill="white" font-size="0.4" font-family="P22 Johnston Underground Regular" text-anchor="middle" dominant-baseline="middle">JFF</text>
    </g>
  </g>
  <g>
    <polygon points="2.6666666666666665,1.1547005383792515 2.3333333333333335,1.7320508075688772 1.666666666666667,1.7320508075688772 1.3333333333333335,1.1547005383792515 1.6666666666666665,0.577350269189626 2.333333333333333,0.5773502691896255 2.6666666666666665,1.1547005383792515" fill="#0c08" stroke="#444" stroke-width="0.01"/>
    <g>
      <text x="2.0" y="1.1547005383792515" fill="white" font-size="0.4" font-family="P22 Johnston Underground Regular" text-anchor="middle" dominant-baseline="middle">VNN</text>
    </g>
  </g>
  <g>
    <polygon points="4.666666666666666,3.4641016151377544 4.333333333333333,4.04145188432738 3.666666666666667,4.04145188432738 3.3333333333333335,3.4641016151377544 3.6666666666666665,2.886751345948129 4.333333333333333,2.886751345948128 4.666666666666666,3.4641016151377544" fill="#0c08" stroke="#444" stroke-width="0.01"/>
    <g>
      <text x="4.0" y="3.4641016151377544" fill="white" font-size="0.4" font-family="P22 Johnston Underground Regular" text-anchor="middle" dominant-baseline="middle">BTT</text>
    </g>
  </g>
  <g>
    <polygon points="5.666666666666666,4.04145188432738 5.333333333333333,4.618802153517005 4.666666666666667,4.618802153517006 4.333333333333334,4.04145188432738 4.666666666666666,3.4641016151377544 5.333333333333333,3.4641016151377535 5.666666666666666,4.04145188432738" fill="#0c08" stroke="#444" stroke-width="0.01"/>
    <g>
      <text x="5.0" y="4.04145188432738" fill="white" font-size="0.4" font-family="P22 Johnston Underground Regular" text-anchor="middle" dominant-baseline="middle">DGM</text>
    </g>
  </g>
  <g>
    <polygon points="5.666666666666666,2.8867513459481287 5.333333333333333,3.4641016151377544 4.666666666666667,3.4641016151377544 4.333333333333334,2.8867513459481287 4.666666666666666,2.309401076758503 5.333333333333333,2.309401076758503 5.666666666666666,2.8867513459481287" fill="#0c08" stroke="#444" stroke-width="0.01"/>
    <g>
      <text x="5.0" y="2.8867513459481287" fill="white" font-size="0.4" font-family="P22 Johnston Underground Regular" text-anchor="middle" dominant-baseline="middle">TRN</text>
    </g>
  </g>
  <g>
    <polygon points="2.6666666666666665,2.309401076758503 2.3333333333333335,2.8867513459481287 1.666666666666667,2.8867513459481287 1.3333333333333335,2.309401076758503 1.6666666666666665,1.7320508075688774 2.333333333333333,1.732050807568877 2.6666666666666665,2.309401076758503" fill="#8008" stroke="#444" stroke-width="0.01"/>
    <g>
      <text x="2.0" y="2.309401076758503" fill="white" font-size="0.4" font-family="P22 Johnston Underground Regular" text-anchor="middle" dominant-baseline="middle">KRN</text>
    </g>
  </g>
  <g>
    <polygon points="2.6666666666666665,3.4641016151377544 2.3333333333333335,4.04145188432738 1.666666666666667,4.04145188432738 1.3333333333333335,3.4641016151377544 1.6666666666666665,2.886751345948129 2.333333333333333,2.886751345948128 2.6666666666666665,3.4641016151377544" fill="#8008" stroke="#444" stroke-width="0.01"/>
    <g>
      <text x="2.0" y="3.4641016151377544" fill="white" font-size="0.4" font-family="P22 Johnston Underground Regular" text-anchor="middle" dominant-baseline="middle"/>
    </g>
  </g>
  <g>
    <polygon points="1.6666666666666665,2.8867513459481287 1.3333333333333333,3.4641016151377544 0.666666666666667,3.4641016151377544 0.3333333333333335,2.8867513459481287 0.6666666666666665,2.309401076758503 1.3333333333333328,2.309401076758503 1.6666666666666665,2.8867513459481287" fill="#f808" stroke="#444" stroke-width="0.01"/>
    <g>
      <text x="1.0" y="2.8867513459481287" fill="white" font-size="0.4" font-family="P22 Johnston Underground Regular" text-anchor="middle" dominant-baseline="middle">PTT</text>
    </g>
  </g>
  <g>
    <polygon points="3.6666666666666665,1.7320508075688772 3.3333333333333335,2.309401076758503 2.666666666666667,2.309401076758503 2.3333333333333335,1.7320508075688772 2.6666666666666665,1.1547005383792517 3.333333333333333,1.1547005383792512 3.6666666666666665,1.7320508075688772" fill="#8008" stroke="#444" stroke-width="0.01"/>
    <g>
      <text x="3.0" y="1.7320508075688772" fill="white" font-size="0.4" font-family="P22 Johnston Underground Regular" text-anchor="middle" dominant-baseline="middle">ANR</text>
    </g>
  </g>
  <g>
    <polygon points="4.666666666666666,2.309401076758503 4.333333333333333,2.8867513459481287 3.666666666666667,2.8867513459481287 3.3333333333333335,2.309401076758503 3.6666666666666665,1.7320508075688774 4.333333333333333,1.732050807568877 4.666666666666666,2.309401076758503" fill="#f808" stroke="#444" stroke-width="0.01"/>
    <g>
      <text x="4.0" y="2.309401076758503" fill="white" font-size="0.4" font-family="P22 Johnston Underground Regular" text-anchor="middle" dominant-baseline="middle">PLN</text>
    </g>
  </g>
  <g>
    <polygon points="5.666666666666666,5.196152422706631 5.333333333333333,5.773502691896256 4.666666666666667,5.773502691896256 4.333333333333334,5.196152422706631 4.666666666666666,4.618802153517006 5.333333333333333,4.618802153517005 5.666666666666666,5.196152422706631" fill="#f808" stroke="#444" stroke-width="0.01"/>
    <g>
      <text x="5.0" y="5.196152422706631" fill="white" font-size="0.4" font-family="P22 Johnston Underground Regular" text-anchor="middle" dominant-baseline="middle">BDL</text>
    </g>
  </g>
  <g>
    <polygon points="5.666666666666666,6.350852961085883 5.333333333333333,6.928203230275508 4.666666666666667,6.928203230275509 4.333333333333334,6.350852961085883 4.666666666666666,5.773502691896257 5.333333333333333,5.773502691896256 5.666666666666666,6.350852961085883" fill="#8008" stroke="#444" stroke-width="0.01"/>
    <g>
      <text x="5.0" y="6.350852961085883" fill="white" font-size="0.4" font-family="P22 Johnston Underground Regular" text-anchor="middle" dominant-baseline="middle">MNR</text>
    </g>
  </g>
  <g>
    <polygon points="3.6666666666666665,6.350852961085883 3.3333333333333335,6.928203230275508 2.666666666666667,6.928203230275509 2.3333333333333335,6.350852961085883 2.6666666666666665,5.773502691896257 3.333333333333333,5.773502691896256 3.6666666666666665,6.350852961085883" fill="#8008" stroke="#444" stroke-width="0.01"/>
    <g>
      <text x="3.0" y="6.350852961085883" fill="white" font-size="0.4" font-family="P22 Johnston Underground Regular" text-anchor="middle" dominant-baseline="middle">RTN</text>
    </g>
  </g>
  <g>
    <polygon points="4.666666666666666,6.928203230275509 4.333333333333333,7.505553499465134 3.666666666666667,7.505553499465135 3.3333333333333335,6.928203230275509 3.6666666666666665,6.3508529610858835 4.333333333333333,6.350852961085883 4.666666666666666,6.928203230275509" fill="#8008" stroke="#444" stroke-width="0.01"/>
    <g>
      <text x="4.0" y="6.928203230275509" fill="white" font-size="0.4" font-family="P22 Johnston Underground Regular" text-anchor="middle" dominant-baseline="middle"/>
    </g>
  </g>
  <g>
    <polygon points="3.6666666666666665,5.196152422706631 3.3333333333333335,5.773502691896256 2.666666666666667,5.773502691896256 2.3333333333333335,5.196152422706631 2.6666666666666665,4.618802153517006 3.333333333333333,4.618802153517005 3.6666666666666665,5.196152422706631" fill="#8008" stroke="#444" stroke-width="0.01"/>
    <g>
      <text x="3.0" y="5.196152422706631" fill="white" font-size="0.4" font-family="P22 Johnston Underground Regular" text-anchor="middle" dominant-baseline="middle">KGL</text>
    </g>
  </g>
  <g>
    <polygon points="0.33666666666666617,5.190378920014735 -0.3366666666666669,5.190378920014735 -0.6733333333333332,5.773502691896257 -0.33666666666666645,6.356626463777779 0.3300000000000003,6.356626463777779 0.6633333333333336,6.9339767329674045 1.3366666666666667,6.9339767329674045 1.6699999999999997,6.356626463777779 2.336666666666667,6.356626463777779 2.6733333333333333,5.773502691896257 2.336666666666666,5.190378920014735 1.663333333333333,5.190378920014735 1.33,5.767729189204361 0.6699999999999997,5.767729189204361 0.33666666666666617,5.190378920014735" fill="None" stroke="#222" stroke-width="0.07" opacity="0.5"/>
  </g>
  <g>
    <polygon points="1.3366666666666662,3.4583281124458574 0.6633333333333331,3.458328112445858 0.32666666666666677,4.04145188432738 0.66,4.618802153517005 0.32666666666666677,5.196152422706631 0.6633333333333336,5.779276194588153 1.3366666666666667,5.779276194588153 1.6699999999999997,5.201925925398528 2.336666666666667,5.201925925398528 2.6733333333333333,4.618802153517006 2.336666666666666,4.035678381635484 1.6700000000000004,4.035678381635484 1.3366666666666662,3.4583281124458574" fill="None" stroke="#222" stroke-width="0.07" opacity="0.5"/>
  </g>
  <g>
    <polygon points="2.336666666666667,7.511327002157031 2.6733333333333333,6.928203230275509 2.336666666666666,6.345079458393987 1.663333333333333,6.345079458393987 1.33,6.922429727583612 0.6633333333333331,6.922429727583612 0.32666666666666677,7.505553499465134 0.6633333333333336,8.088677271346656 1.3366666666666667,8.088677271346656 1.6699999999999997,7.511327002157031 2.336666666666667,7.511327002157031" fill="None" stroke="#222" stroke-width="0.07" opacity="0.5"/>
  </g>
  <g>
    <polygon points="3.336666666666666,3.4583281124458574 2.663333333333333,3.458328112445858 2.3266666666666667,4.04145188432738 2.6633333333333336,4.6245756562089015 3.3299999999999996,4.6245756562089015 3.6633333333333336,5.201925925398528 4.336666666666667,5.201925925398528 4.673333333333333,4.618802153517006 4.336666666666666,4.035678381635484 3.6700000000000004,4.035678381635484 3.336666666666666,3.4583281124458574" fill="None" stroke="#222" stroke-width="0.07" opacity="0.5"/>
  </g>
  <g>
    <polygon points="3.6733333333333333,2.8867513459481287 3.336666666666667,3.4698751178296505 2.6633333333333336,3.4698751178296505 2.3266666666666667,2.8867513459481287 2.663333333333333,2.303627574066607 3.336666666666666,2.3036275740666063 3.6733333333333333,2.8867513459481287" fill="None" stroke="#222" stroke-width="0.07" opacity="0.5"/>
  </g>
  <g>
    <polygon points="4.673333333333333,5.773502691896257 4.336666666666667,6.356626463777779 3.6633333333333336,6.356626463777779 3.3266666666666667,5.773502691896257 3.663333333333333,5.190378920014735 4.336666666666666,5.190378920014735 4.673333333333333,5.773502691896257" fill="None" stroke="#222" stroke-width="0.07" opacity="0.5"/>
  </g>
  <g>
    <polygon points="3.336666666666667,8.088677271346656 3.6733333333333333,7.505553499465134 3.336666666666666,6.922429727583612 2.663333333333333,6.922429727583612 2.33,7.4997799967732375 1.663333333333333,7.4997799967732375 1.3266666666666667,8.08290376865476 1.6633333333333336,8.666027540536282 2.336666666666667,8.66602754053628 2.67,8.088677271346656 3.336666666666667,8.088677271346656" fill="None" stroke="#222" stroke-width="0.07" opacity="0.5"/>
  </g>
  <g>
    <polygon points="4.673333333333333,8.08290376865476 4.336666666666667,8.66602754053628 3.6633333333333336,8.666027540536282 3.3266666666666667,8.08290376865476 3.663333333333333,7.4997799967732375 4.336666666666666,7.4997799967732375 4.673333333333333,8.08290376865476" fill="None" stroke="#222" stroke-width="0.07" opacity="0.5"/>
  </g>
  <g>
    <polygon points="5.673333333333333,7.505553499465134 5.336666666666667,8.088677271346656 4.663333333333334,8.088677271346656 4.326666666666667,7.505553499465134 4.663333333333333,6.922429727583612 5.336666666666666,6.922429727583612 5.673333333333333,7.505553499465134" fill="None" stroke="#222" stroke-width="0.07" opacity="0.5"/>
  </g>
  <g>
    <polygon points="1.6733333333333333,0.5773502691896257 1.3366666666666667,1.1604740410711476 0.6633333333333336,1.1604740410711476 0.32666666666666677,0.5773502691896258 0.6633333333333331,-0.005773502691896137 1.3366666666666662,-0.0057735026918964705 1.6733333333333333,0.5773502691896257" fill="None" stroke="#222" stroke-width="0.07" opacity="0.5"/>
  </g>
  <g>
    <polygon points="2.6733333333333333,1.1547005383792515 2.336666666666667,1.7378243102607733 1.6633333333333336,1.7378243102607733 1.3266666666666667,1.1547005383792515 1.663333333333333,0.5715767664977296 2.336666666666666,0.5715767664977293 2.6733333333333333,1.1547005383792515" fill="None" stroke="#222" stroke-width="0.07" opacity="0.5"/>
  </g>
  <g>
    <polygon points="4.673333333333333,3.4641016151377544 4.336666666666667,4.047225387019276 3.6633333333333336,4.047225387019276 3.3266666666666667,3.4641016151377544 3.663333333333333,2.8809778432562325 4.336666666666666,2.880977843256232 4.673333333333333,3.4641016151377544" fill="None" stroke="#222" stroke-width="0.07" opacity="0.5"/>
  </g>
  <g>
    <polygon points="5.673333333333333,4.04145188432738 5.336666666666667,4.6245756562089015 4.663333333333334,4.6245756562089015 4.326666666666667,4.04145188432738 4.663333333333333,3.458328112445858 5.336666666666666,3.4583281124458574 5.673333333333333,4.04145188432738" fill="None" stroke="#222" stroke-width="0.07" opacity="0.5"/>
  </g>
  <g>
    <polygon points="5.673333333333333,2.8867513459481287 5.336666666666667,3.4698751178296505 4.663333333333334,3.4698751178296505 4.326666666666667,2.8867513459481287 4.663333333333333,2.303627574066607 5.336666666666666,2.3036275740666063 5.673333333333333,2.8867513459481287" fill="None" stroke="#222" stroke-width="0.07" opacity="0.5"/>
  </g>
  <g>
    <polygon points="2.6733333333333333,2.309401076758503 2.336666666666666,1.7262773048769806 1.663333333333333,1.726277304876981 1.3266666666666667,2.309401076758503 1.6600000000000001,2.886751345948128 1.3266666666666667,3.4641016151377544 1.6633333333333336,4.047225387019276 2.336666666666667,4.047225387019276 2.6733333333333333,3.4641016151377544 2.34,2.886751345948129 2.6733333333333333,2.309401076758503" fill="None" stroke="#222" stroke-width="0.07" opacity="0.5"/>
  </g>
  <g>
    <polygon points="1.6733333333333333,2.8867513459481287 1.3366666666666667,3.4698751178296505 0.6633333333333336,3.4698751178296505 0.32666666666666677,2.8867513459481287 0.6633333333333331,2.303627574066607 1.3366666666666662,2.3036275740666063 1.6733333333333333,2.8867513459481287" fill="None" stroke="#222" stroke-width="0.07" opacity="0.5"/>
  </g>
  <g>
    <polygon points="3.6733333333333333,1.7320508075688772 3.336666666666667,2.315174579450399 2.6633333333333336,2.315174579450399 2.3266666666666667,1.7320508075688772 2.663333333333333,1.1489270356873553 3.336666666666666,1.1489270356873549 3.6733333333333333,1.7320508075688772" fill="None" stroke="#222" stroke-width="0.07" opacity="0.5"/>
  </g>
  <g>
    <polygon points="4.673333333333333,2.309401076758503 4.336666666666667,2.892524848640025 3.6633333333333336,2.892524848640025 3.3266666666666667,2.309401076758503 3.663333333333333,1.726277304876981 4.336666666666666,1.7262773048769806 4.673333333333333,2.309401076758503" fill="None" stroke="#222" stroke-width="0.07" opacity="0.5"/>
  </g>
  <g>
    <polygon points="5.673333333333333,5.196152422706631 5.336666666666667,5.779276194588153 4.663333333333334,5.779276194588153 4.326666666666667,5.196152422706631 4.663333333333333,4.613028650825109 5.336666666666666,4.613028650825109 5.673333333333333,5.196152422706631" fill="None" stroke="#222" stroke-width="0.07" opacity="0.5"/>
  </g>
  <g>
    <polygon points="5.673333333333333,6.350852961085883 5.336666666666667,6.9339767329674045 4.663333333333334,6.9339767329674045 4.326666666666667,6.350852961085883 4.663333333333333,5.767729189204361 5.336666666666666,5.767729189204361 5.673333333333333,6.350852961085883" fill="None" stroke="#222" stroke-width="0.07" opacity="0.5"/>
  </g>
  <g>
    <polygon points="3.336666666666666,5.767729189204361 2.663333333333333,5.767729189204361 2.3266666666666667,6.350852961085883 2.6633333333333336,6.9339767329674045 3.3299999999999996,6.9339767329674045 3.6633333333333336,7.511327002157031 4.336666666666667,7.511327002157031 4.673333333333333,6.928203230275509 4.336666666666666,6.345079458393987 3.6700000000000004,6.345079458393987 3.336666666666666,5.767729189204361" fill="None" stroke="#222" stroke-width="0.07" opacity="0.5"/>
  </g>
  <g>
    <polygon points="3.6733333333333333,5.196152422706631 3.336666666666667,5.779276194588153 2.6633333333333336,5.779276194588153 2.3266666666666667,5.196152422706631 2.663333333333333,4.613028650825109 3.336666666666666,4.613028650825109 3.6733333333333333,5.196152422706631" fill="None" stroke="#222" stroke-width="0.07" opacity="0.5"/>
  </g>
  <g>
    <polygon points="0.32666666666666677,4.04145188432738 0.6600000000000001,4.618802153517005 0.3299999999999998,5.190378920014735 -0.3366666666666669,5.190378920014735 -0.6733333333333332,5.773502691896257 -0.33666666666666645,6.356626463777779 0.3300000000000003,6.356626463777779 0.66,6.928203230275508 0.32666666666666677,7.505553499465134 0.6633333333333336,8.088677271346656 1.3366666666666667,8.088677271346656 1.6699999999999997,7.511327002157031 2.336666666666667,7.511327002157031 2.6733333333333333,6.928203230275509 2.34,6.350852961085884 2.6733333333333333,5.773502691896257 2.34,5.196152422706631 2.6733333333333333,4.618802153517006 2.336666666666666,4.035678381635484 1.6700000000000004,4.035678381635484 1.3366666666666662,3.4583281124458574 0.6633333333333331,3.458328112445858 0.32666666666666677,4.04145188432738" fill="None" stroke="#222" stroke-width="0.14" opacity="0.6"/>
  </g>
  <g>
    <polygon points="3.336666666666666,2.3036275740666063 2.663333333333333,2.303627574066607 2.3266666666666667,2.8867513459481287 2.66,3.464101615137754 2.3266666666666667,4.04145188432738 2.6633333333333336,4.6245756562089015 3.3299999999999996,4.6245756562089015 3.66,5.196152422706631 3.3266666666666667,5.773502691896257 3.6633333333333336,6.356626463777779 4.336666666666667,6.356626463777779 4.673333333333333,5.773502691896257 4.34,5.196152422706631 4.673333333333333,4.618802153517006 4.336666666666666,4.035678381635484 3.6700000000000004,4.035678381635484 3.34,3.464101615137755 3.6733333333333333,2.8867513459481287 3.336666666666666,2.3036275740666063" fill="None" stroke="#222" stroke-width="0.14" opacity="0.6"/>
  </g>
  <g>
    <polygon points="2.663333333333333,6.922429727583612 2.33,7.4997799967732375 1.663333333333333,7.4997799967732375 1.3266666666666667,8.08290376865476 1.6633333333333336,8.666027540536282 2.336666666666667,8.66602754053628 2.67,8.088677271346656 3.33,8.088677271346656 3.6633333333333336,8.666027540536282 4.336666666666667,8.66602754053628 4.669999999999999,8.088677271346656 5.336666666666667,8.088677271346656 5.673333333333333,7.505553499465134 5.336666666666666,6.922429727583612 4.663333333333333,6.922429727583612 4.330000000000001,7.4997799967732375 3.67,7.4997799967732375 3.336666666666666,6.922429727583612 2.663333333333333,6.922429727583612" fill="None" stroke="#222" stroke-width="0.14" opacity="0.6"/>
  </g>
  <g>
    <polygon points="1.3366666666666662,-0.0057735026918964705 0.6633333333333331,-0.005773502691896137 0.32666666666666677,0.5773502691896258 0.6633333333333336,1.1604740410711476 1.3299999999999998,1.1604740410711476 1.6633333333333336,1.7378243102607733 2.336666666666667,1.7378243102607733 2.6733333333333333,1.1547005383792515 2.336666666666666,0.5715767664977293 1.6700000000000002,0.5715767664977296 1.3366666666666662,-0.0057735026918964705" fill="None" stroke="#222" stroke-width="0.14" opacity="0.6"/>
  </g>
  <g>
    <polygon points="5.673333333333333,2.8867513459481287 5.336666666666666,2.3036275740666063 4.663333333333333,2.303627574066607 4.330000000000001,2.880977843256232 3.663333333333333,2.8809778432562325 3.3266666666666667,3.4641016151377544 3.6633333333333336,4.047225387019276 4.330000000000001,4.047225387019276 4.663333333333334,4.6245756562089015 5.336666666666667,4.6245756562089015 5.673333333333333,4.04145188432738 5.34,3.464101615137755 5.673333333333333,2.8867513459481287" fill="None" stroke="#222" stroke-width="0.14" opacity="0.6"/>
  </g>
  <g>
    <polygon points="2.6733333333333333,2.309401076758503 2.336666666666666,1.7262773048769806 1.663333333333333,1.726277304876981 1.33,2.3036275740666063 0.6633333333333331,2.303627574066607 0.32666666666666677,2.8867513459481287 0.6633333333333336,3.4698751178296505 1.3299999999999998,3.4698751178296505 1.6633333333333336,4.047225387019276 2.336666666666667,4.047225387019276 2.6733333333333333,3.4641016151377544 2.34,2.886751345948129 2.6733333333333333,2.309401076758503" fill="None" stroke="#222" stroke-width="0.14" opacity="0.6"/>
  </g>
  <g>
    <polygon points="3.336666666666666,1.1489270356873549 2.663333333333333,1.1489270356873553 2.3266666666666667,1.7320508075688772 2.6633333333333336,2.315174579450399 3.33,2.315174579450399 3.6633333333333336,2.892524848640025 4.336666666666667,2.892524848640025 4.673333333333333,2.309401076758503 4.336666666666666,1.7262773048769806 3.67,1.726277304876981 3.336666666666666,1.1489270356873549" fill="None" stroke="#222" stroke-width="0.14" opacity="0.6"/>
  </g>
  <g>
    <polygon points="5.673333333333333,5.196152422706631 5.336666666666666,4.613028650825109 4.663333333333333,4.613028650825109 4.326666666666667,5.196152422706631 4.66,5.773502691896256 4.326666666666667,6.350852961085883 4.663333333333334,6.9339767329674045 5.336666666666667,6.9339767329674045 5.673333333333333,6.350852961085883 5.34,5.773502691896257 5.673333333333333,5.196152422706631" fill="None" stroke="#222" stroke-width="0.14" opacity="0.6"/>
  </g>
  <g>
    <polygon points="3.6733333333333333,5.196152422706631 3.336666666666666,4.613028650825109 2.663333333333333,4.613028650825109 2.3266666666666667,5.196152422706631 2.66,5.773502691896256 2.3266666666666667,6.350852961085883 2.6633333333333336,6.9339767329674045 3.3299999999999996,6.9339767329674045 3.6633333333333336,7.511327002157031 4.336666666666667,7.511327002157031 4.673333333333333,6.928203230275509 4.336666666666666,6.345079458393987 3.6700000000000004,6.345079458393987 3.34,5.773502691896257 3.6733333333333333,5.196152422706631" fill="None" stroke="#222" stroke-width="0.14" opacity="0.6"/>
  </g>
</svg>
