<?xml version="1.0" ?>
<svg xmlns="http://www.w3.org/2000/svg" height="500" width="300" viewBox="-1.0 -0.5773502691896257 4.0 5.773502691896256">
  <rect x="-1.0" y="-0.5773502691896257" width="4.0" height="5.773502691896256" fill="#8881"/>
  <g>
    <g>
      <polygon points="-0.3333333333333335,-0.5773502691896257 -0.6666666666666667,-1.1102230246251565e-16 -1.333333333333333,0.0 -1.6666666666666665,-0.5773502691896256 -1.3333333333333335,-1.1547005383792512 -0.6666666666666672,-1.1547005383792517 -0.3333333333333335,-0.5773502691896257" fill="None" stroke="#ccc" stroke-width="0.01"/>
      <text x="-1.0" y="-0.5773502691896257" fill="#ccc" font-size="0.3" font-family="P22 Johnston Underground Regular" text-anchor="middle" dominant-baseline="middle">-1.0,-0.5</text>
    </g>
    <g>
      <polygon points="-0.3333333333333335,0.5773502691896257 -0.6666666666666667,1.1547005383792515 -1.333333333333333,1.1547005383792515 -1.6666666666666665,0.5773502691896258 -1.3333333333333335,2.220446049250313e-16 -0.6666666666666672,-2.220446049250313e-16 -0.3333333333333335,0.5773502691896257" fill="None" stroke="#ccc" stroke-width="0.01"/>
      <text x="-1.0" y="0.5773502691896257" fill="#ccc" font-size="0.3" font-family="P22 Johnston Underground Regular" text-anchor="middle" dominant-baseline="middle">-1.0,0.5</text>
    </g>
    <g>
      <polygon points="-0.3333333333333335,1.7320508075688772 -0.6666666666666667,2.309401076758503 -1.333333333333333,2.309401076758503 -1.6666666666666665,1.7320508075688772 -1.3333333333333335,1.1547005383792517 -0.6666666666666672,1.1547005383792512 -0.3333333333333335,1.7320508075688772" fill="None" stroke="#ccc" stroke-width="0.01"/>
      <text x="-1.0" y="1.7320508075688772" fill="#ccc" font-size="0.3" font-family="P22 Johnston Underground Regular" text-anchor="middle" dominant-baseline="middle">-1.0,1.5</text>
    </g>
    <g>
      <polygon points="-0.3333333333333335,2.8867513459481287 -0.6666666666666667,3.4641016151377544 -1.333333333333333,3.4641016151377544 -1.6666666666666665,2.8867513459481287 -1.3333333333333335,2.309401076758503 -0.6666666666666672,2.309401076758503 -0.3333333333333335,2.8867513459481287" fill="None" stroke="#ccc" stroke-width="0.01"/>
      <text x="-1.0" y="2.8867513459481287" fill="#ccc" font-size="0.3" font-family="P22 Johnston Underground Regular" text-anchor="middle" dominant-baseline="middle">-1.0,2.5</text>
    </g>
    <g>
      <polygon points="-0.3333333333333335,4.04145188432738 -0.6666666666666667,4.618802153517005 -1.333333333333333,4.618802153517006 -1.6666666666666665,4.04145188432738 -1.3333333333333335,3.4641016151377544 -0.6666666666666672,3.4641016151377535 -0.3333333333333335,4.04145188432738" fill="None" stroke="#ccc" stroke-width="0.01"/>
      <text x="-1.0" y="4.04145188432738" fill="#ccc" font-size="0.3" font-family="P22 Johnston Underground Regular" text-anchor="middle" dominant-baseline="middle">-1.0,3.5</text>
    </g>
    <g>
      <polygon points="-0.3333333333333335,5.196152422706631 -0.6666666666666667,5.773502691896256 -1.333333333333333,5.773502691896256 -1.6666666666666665,5.196152422706631 -1.3333333333333335,4.618802153517006 -0.6666666666666672,4.618802153517005 -0.3333333333333335,5.196152422706631" fill="None" stroke="#ccc" stroke-width="0.01"/>
      <text x="-1.0" y="5.196152422706631" fill="#ccc" font-size="0.3" font-family="P22 Johnston Underground Regular" text-anchor="middle" dominant-baseline="middle">-1.0,4.5</text>
    </g>
    <g>
      <polygon points="0.6666666666666665,-1.1547005383792515 0.3333333333333333,-0.5773502691896258 -0.3333333333333331,-0.5773502691896257 -0.6666666666666665,-1.1547005383792515 -0.33333333333333354,-1.732050807568877 0.3333333333333328,-1.7320508075688774 0.6666666666666665,-1.1547005383792515" fill="None" stroke="#ccc" stroke-width="0.01"/>
      <text x="0.0" y="-1.1547005383792515" fill="#ccc" font-size="0.3" font-family="P22 Johnston Underground Regular" text-anchor="middle" dominant-baseline="middle">0.0,-1.0</text>
    </g>
    <g>
      <polygon points="0.6666666666666665,0.0 0.3333333333333333,0.5773502691896256 -0.3333333333333331,0.5773502691896257 -0.6666666666666665,8.164311994315686e-17 -0.33333333333333354,-0.5773502691896255 0.3333333333333328,-0.577350269189626 0.6666666666666665,0.0" fill="None" stroke="#ccc" stroke-width="0.01"/>
      <text x="0.0" y="0.0" fill="#ccc" font-size="0.3" font-family="P22 Johnston Underground Regular" text-anchor="middle" dominant-baseline="middle">0.0,0.0</text>
    </g>
    <g>
      <polygon points="0.6666666666666665,1.1547005383792515 0.3333333333333333,1.7320508075688772 -0.3333333333333331,1.7320508075688772 -0.6666666666666665,1.1547005383792515 -0.33333333333333354,0.577350269189626 0.3333333333333328,0.5773502691896255 0.6666666666666665,1.1547005383792515" fill="None" stroke="#ccc" stroke-width="0.01"/>
      <text x="0.0" y="1.1547005383792515" fill="#ccc" font-size="0.3" font-family="P22 Johnston Underground Regular" text-anchor="middle" dominant-baseline="middle">0.0,1.0</text>
    </g>
    <g>
      <polygon points="0.6666666666666665,2.309401076758503 0.3333333333333333,2.8867513459481287 -0.3333333333333331,2.8867513459481287 -0.6666666666666665,2.309401076758503 -0.33333333333333354,1.7320508075688774 0.3333333333333328,1.732050807568877 0.6666666666666665,2.309401076758503" fill="None" stroke="#ccc" stroke-width="0.01"/>
      <text x="0.0" y="2.309401076758503" fill="#ccc" font-size="0.3" font-family="P22 Johnston Underground Regular" text-anchor="middle" dominant-baseline="middle">0.0,2.0</text>
    </g>
    <g>
      <polygon points="0.6666666666666665,3.4641016151377544 0.3333333333333333,4.04145188432738 -0.3333333333333331,4.04145188432738 -0.6666666666666665,3.4641016151377544 -0.33333333333333354,2.886751345948129 0.3333333333333328,2.886751345948128 0.6666666666666665,3.4641016151377544" fill="None" stroke="#ccc" stroke-width="0.01"/>
      <text x="0.0" y="3.4641016151377544" fill="#ccc" font-size="0.3" font-family="P22 Johnston Underground Regular" text-anchor="middle" dominant-baseline="middle">0.0,3.0</text>
    </g>
    <g>
      <polygon points="0.6666666666666665,4.618802153517006 0.3333333333333333,5.196152422706631 -0.3333333333333331,5.196152422706632 -0.6666666666666665,4.618802153517006 -0.33333333333333354,4.041451884327381 0.3333333333333328,4.04145188432738 0.6666666666666665,4.618802153517006" fill="None" stroke="#ccc" stroke-width="0.01"/>
      <text x="0.0" y="4.618802153517006" fill="#ccc" font-size="0.3" font-family="P22 Johnston Underground Regular" text-anchor="middle" dominant-baseline="middle">0.0,4.0</text>
    </g>
    <g>
      <polygon points="1.6666666666666665,-0.5773502691896257 1.3333333333333333,-1.1102230246251565e-16 0.666666666666667,0.0 0.3333333333333335,-0.5773502691896256 0.6666666666666665,-1.1547005383792512 1.3333333333333328,-1.1547005383792517 1.6666666666666665,-0.5773502691896257" fill="None" stroke="#ccc" stroke-width="0.01"/>
      <text x="1.0" y="-0.5773502691896257" fill="#ccc" font-size="0.3" font-family="P22 Johnston Underground Regular" text-anchor="middle" dominant-baseline="middle">1.0,-0.5</text>
    </g>
    <g>
      <polygon points="1.6666666666666665,0.5773502691896257 1.3333333333333333,1.1547005383792515 0.666666666666667,1.1547005383792515 0.3333333333333335,0.5773502691896258 0.6666666666666665,2.220446049250313e-16 1.3333333333333328,-2.220446049250313e-16 1.6666666666666665,0.5773502691896257" fill="None" stroke="#ccc" stroke-width="0.01"/>
      <text x="1.0" y="0.5773502691896257" fill="#ccc" font-size="0.3" font-family="P22 Johnston Underground Regular" text-anchor="middle" dominant-baseline="middle">1.0,0.5</text>
    </g>
    <g>
      <polygon points="1.6666666666666665,1.7320508075688772 1.3333333333333333,2.309401076758503 0.666666666666667,2.309401076758503 0.3333333333333335,1.7320508075688772 0.6666666666666665,1.1547005383792517 1.3333333333333328,1.1547005383792512 1.6666666666666665,1.7320508075688772" fill="None" stroke="#ccc" stroke-width="0.01"/>
      <text x="1.0" y="1.7320508075688772" fill="#ccc" font-size="0.3" font-family="P22 Johnston Underground Regular" text-anchor="middle" dominant-baseline="middle">1.0,1.5</text>
    </g>
    <g>
      <polygon points="1.6666666666666665,2.8867513459481287 1.3333333333333333,3.4641016151377544 0.666666666666667,3.4641016151377544 0.3333333333333335,2.8867513459481287 0.6666666666666665,2.309401076758503 1.3333333333333328,2.309401076758503 1.6666666666666665,2.8867513459481287" fill="None" stroke="#ccc" stroke-width="0.01"/>
      <text x="1.0" y="2.8867513459481287" fill="#ccc" font-size="0.3" font-family="P22 Johnston Underground Regular" text-anchor="middle" dominant-baseline="middle">1.0,2.5</text>
    </g>
    <g>
      <polygon points="1.6666666666666665,4.04145188432738 1.3333333333333333,4.618802153517005 0.666666666666667,4.618802153517006 0.3333333333333335,4.04145188432738 0.6666666666666665,3.4641016151377544 1.3333333333333328,3.4641016151377535 1.6666666666666665,4.04145188432738" fill="None" stroke="#ccc" stroke-width="0.01"/>
      <text x="1.0" y="4.04145188432738" fill="#ccc" font-size="0.3" font-family="P22 Johnston Underground Regular" text-anchor="middle" dominant-baseline="middle">1.0,3.5</text>
    </g>
    <g>
      <polygon points="1.6666666666666665,5.196152422706631 1.3333333333333333,5.773502691896256 0.666666666666667,5.773502691896256 0.3333333333333335,5.196152422706631 0.6666666666666665,4.618802153517006 1.3333333333333328,4.618802153517005 1.6666666666666665,5.196152422706631" fill="None" stroke="#ccc" stroke-width="0.01"/>
      <text x="1.0" y="5.196152422706631" fill="#ccc" font-size="0.3" font-family="P22 Johnston Underground Regular" text-anchor="middle" dominant-baseline="middle">1.0,4.5</text>
    </g>
    <g>
      <polygon points="2.6666666666666665,-1.1547005383792515 2.3333333333333335,-0.5773502691896258 1.666666666666667,-0.5773502691896257 1.3333333333333335,-1.1547005383792515 1.6666666666666665,-1.732050807568877 2.333333333333333,-1.7320508075688774 2.6666666666666665,-1.1547005383792515" fill="None" stroke="#ccc" stroke-width="0.01"/>
      <text x="2.0" y="-1.1547005383792515" fill="#ccc" font-size="0.3" font-family="P22 Johnston Underground Regular" text-anchor="middle" dominant-baseline="middle">2.0,-1.0</text>
    </g>
    <g>
      <polygon points="2.6666666666666665,0.0 2.3333333333333335,0.5773502691896256 1.666666666666667,0.5773502691896257 1.3333333333333335,8.164311994315686e-17 1.6666666666666665,-0.5773502691896255 2.333333333333333,-0.577350269189626 2.6666666666666665,0.0" fill="None" stroke="#ccc" stroke-width="0.01"/>
      <text x="2.0" y="0.0" fill="#ccc" font-size="0.3" font-family="P22 Johnston Underground Regular" text-anchor="middle" dominant-baseline="middle">2.0,0.0</text>
    </g>
    <g>
      <polygon points="2.6666666666666665,1.1547005383792515 2.3333333333333335,1.7320508075688772 1.666666666666667,1.7320508075688772 1.3333333333333335,1.1547005383792515 1.6666666666666665,0.577350269189626 2.333333333333333,0.5773502691896255 2.6666666666666665,1.1547005383792515" fill="None" stroke="#ccc" stroke-width="0.01"/>
      <text x="2.0" y="1.1547005383792515" fill="#ccc" font-size="0.3" font-family="P22 Johnston Underground Regular" text-anchor="middle" dominant-baseline="middle">2.0,1.0</text>
    </g>
    <g>
      <polygon points="2.6666666666666665,2.309401076758503 2.3333333333333335,2.8867513459481287 1.666666666666667,2.8867513459481287 1.3333333333333335,2.309401076758503 1.6666666666666665,1.7320508075688774 2.333333333333333,1.732050807568877 2.6666666666666665,2.309401076758503" fill="None" stroke="#ccc" stroke-width="0.01"/>
      <text x="2.0" y="2.309401076758503" fill="#ccc" font-size="0.3" font-family="P22 Johnston Underground Regular" text-anchor="middle" dominant-baseline="middle">2.0,2.0</text>
    </g>
    <g>
      <polygon points="2.6666666666666665,3.4641016151377544 2.3333333333333335,4.04145188432738 1.666666666666667,4.04145188432738 1.3333333333333335,3.4641016151377544 1.6666666666666665,2.886751345948129 2.333333333333333,2.886751345948128 2.6666666666666665,3.4641016151377544" fill="None" stroke="#ccc" stroke-width="0.01"/>
      <text x="2.0" y="3.4641016151377544" fill="#ccc" font-size="0.3" font-family="P22 Johnston Underground Regular" text-anchor="middle" dominant-baseline="middle">2.0,3.0</text>
    </g>
    <g>
      <polygon points="2.6666666666666665,4.618802153517006 2.3333333333333335,5.196152422706631 1.666666666666667,5.196152422706632 1.3333333333333335,4.618802153517006 1.6666666666666665,4.041451884327381 2.333333333333333,4.04145188432738 2.6666666666666665,4.618802153517006" fill="None" stroke="#ccc" stroke-width="0.01"/>
      <text x="2.0" y="4.618802153517006" fill="#ccc" font-size="0.3" font-family="P22 Johnston Underground Regular" text-anchor="middle" dominant-baseline="middle">2.0,4.0</text>
    </g>
    <g>
      <polygon points="3.6666666666666665,-0.5773502691896257 3.3333333333333335,-1.1102230246251565e-16 2.666666666666667,0.0 2.3333333333333335,-0.5773502691896256 2.6666666666666665,-1.1547005383792512 3.333333333333333,-1.1547005383792517 3.6666666666666665,-0.5773502691896257" fill="None" stroke="#ccc" stroke-width="0.01"/>
      <text x="3.0" y="-0.5773502691896257" fill="#ccc" font-size="0.3" font-family="P22 Johnston Underground Regular" text-anchor="middle" dominant-baseline="middle">3.0,-0.5</text>
    </g>
    <g>
      <polygon points="3.6666666666666665,0.5773502691896257 3.3333333333333335,1.1547005383792515 2.666666666666667,1.1547005383792515 2.3333333333333335,0.5773502691896258 2.6666666666666665,2.220446049250313e-16 3.333333333333333,-2.220446049250313e-16 3.6666666666666665,0.5773502691896257" fill="None" stroke="#ccc" stroke-width="0.01"/>
      <text x="3.0" y="0.5773502691896257" fill="#ccc" font-size="0.3" font-family="P22 Johnston Underground Regular" text-anchor="middle" dominant-baseline="middle">3.0,0.5</text>
    </g>
    <g>
      <polygon points="3.6666666666666665,1.7320508075688772 3.3333333333333335,2.309401076758503 2.666666666666667,2.309401076758503 2.3333333333333335,1.7320508075688772 2.6666666666666665,1.1547005383792517 3.333333333333333,1.1547005383792512 3.6666666666666665,1.7320508075688772" fill="None" stroke="#ccc" stroke-width="0.01"/>
      <text x="3.0" y="1.7320508075688772" fill="#ccc" font-size="0.3" font-family="P22 Johnston Underground Regular" text-anchor="middle" dominant-baseline="middle">3.0,1.5</text>
    </g>
    <g>
      <polygon points="3.6666666666666665,2.8867513459481287 3.3333333333333335,3.4641016151377544 2.666666666666667,3.4641016151377544 2.3333333333333335,2.8867513459481287 2.6666666666666665,2.309401076758503 3.333333333333333,2.309401076758503 3.6666666666666665,2.8867513459481287" fill="None" stroke="#ccc" stroke-width="0.01"/>
      <text x="3.0" y="2.8867513459481287" fill="#ccc" font-size="0.3" font-family="P22 Johnston Underground Regular" text-anchor="middle" dominant-baseline="middle">3.0,2.5</text>
    </g>
    <g>
      <polygon points="3.6666666666666665,4.04145188432738 3.3333333333333335,4.618802153517005 2.666666666666667,4.618802153517006 2.3333333333333335,4.04145188432738 2.6666666666666665,3.4641016151377544 3.333333333333333,3.4641016151377535 3.6666666666666665,4.04145188432738" fill="None" stroke="#ccc" stroke-width="0.01"/>
      <text x="3.0" y="4.04145188432738" fill="#ccc" font-size="0.3" font-family="P22 Johnston Underground Regular" text-anchor="middle" dominant-baseline="middle">3.0,3.5</text>
    </g>
    <g>
      <polygon points="3.6666666666666665,5.196152422706631 3.3333333333333335,5.773502691896256 2.666666666666667,5.773502691896256 2.3333333333333335,5.196152422706631 2.6666666666666665,4.618802153517006 3.333333333333333,4.618802153517005 3.6666666666666665,5.196152422706631" fill="None" stroke="#ccc" stroke-width="0.01"/>
      <text x="3.0" y="5.196152422706631" fill="#ccc" font-size="0.3" font-family="P22 Johnston Underground Regular" text-anchor="middle" dominant-baseline="middle">3.0,4.5</text>
    </g>
  </g>
  <g>
    <polygon points="0.6666666666666665,2.8867513459481287 0.3333333333333333,3.4641016151377544 -0.3333333333333331,3.4641016151377544 -0.6666666666666665,2.8867513459481287 -0.33333333333333354,2.309401076758503 0.3333333333333328,2.309401076758503 0.6666666666666665,2.8867513459481287" fill="#080" stroke="#444" stroke-width="0.01"/>
    <g>
      <text x="0.0" y="2.8867513459481287" fill="white" font-size="0.2" font-family="P22 Johnston Underground Regular" text-anchor="middle" dominant-baseline="middle">Western</text>
    </g>
  </g>
  <g>
    <polygon points="1.6666666666666665,2.309401076758503 1.3333333333333333,2.8867513459481287 0.666666666666667,2.8867513459481287 0.3333333333333335,2.309401076758503 0.6666666666666665,1.7320508075688774 1.3333333333333328,1.732050807568877 1.6666666666666665,2.309401076758503" fill="#080" stroke="#444" stroke-width="0.01"/>
    <g>
      <text x="1.0" y="2.309401076758503" fill="white" font-size="0.2" font-family="P22 Johnston Underground Regular" text-anchor="middle" dominant-baseline="middle">Central</text>
    </g>
  </g>
  <g>
    <polygon points="0.6666666666666665,4.04145188432738 0.3333333333333333,4.618802153517005 -0.3333333333333331,4.618802153517006 -0.6666666666666665,4.04145188432738 -0.33333333333333354,3.4641016151377544 0.3333333333333328,3.4641016151377535 0.6666666666666665,4.04145188432738" fill="#00c" stroke="#444" stroke-width="0.01"/>
    <g>
      <text x="0.0" y="4.04145188432738" fill="white" font-size="0.2" font-family="P22 Johnston Underground Regular" text-anchor="middle" dominant-baseline="middle">Southern</text>
    </g>
  </g>
  <g>
    <polygon points="0.6666666666666665,0.5773502691896257 0.3333333333333333,1.1547005383792515 -0.3333333333333331,1.1547005383792515 -0.6666666666666665,0.5773502691896258 -0.33333333333333354,2.220446049250313e-16 0.3333333333333328,-2.220446049250313e-16 0.6666666666666665,0.5773502691896257" fill="#080" stroke="#444" stroke-width="0.01"/>
    <g>
      <text x="0.0" y="0.5773502691896257" fill="white" font-size="0.2" font-family="P22 Johnston Underground Regular" text-anchor="middle" dominant-baseline="middle">Northern</text>
    </g>
  </g>
  <g>
    <polygon points="2.6666666666666665,1.7320508075688772 2.3333333333333335,2.309401076758503 1.666666666666667,2.309401076758503 1.3333333333333335,1.7320508075688772 1.6666666666666665,1.1547005383792517 2.333333333333333,1.1547005383792512 2.6666666666666665,1.7320508075688772" fill="#080" stroke="#444" stroke-width="0.01"/>
    <g>
      <text x="2.0" y="1.7320508075688772" fill="white" font-size="0.2" font-family="P22 Johnston Underground Regular" text-anchor="middle" dominant-baseline="middle">Eastern</text>
    </g>
  </g>
  <g>
    <polygon points="0.6666666666666665,1.7320508075688772 0.3333333333333333,2.309401076758503 -0.3333333333333331,2.309401076758503 -0.6666666666666665,1.7320508075688772 -0.33333333333333354,1.1547005383792517 0.3333333333333328,1.1547005383792512 0.6666666666666665,1.7320508075688772" fill="#00c" stroke="#444" stroke-width="0.01"/>
    <g>
      <text x="0.0" y="1.7320508075688772" fill="white" font-size="0.2" font-family="P22 Johnston Underground Regular" text-anchor="middle" dominant-baseline="middle">North Western</text>
    </g>
  </g>
  <g>
    <polygon points="1.6666666666666665,1.1547005383792515 1.3333333333333333,1.7320508075688772 0.666666666666667,1.7320508075688772 0.3333333333333335,1.1547005383792515 0.6666666666666665,0.577350269189626 1.3333333333333328,0.5773502691896255 1.6666666666666665,1.1547005383792515" fill="#00c" stroke="#444" stroke-width="0.01"/>
    <g>
      <text x="1.0" y="1.1547005383792515" fill="white" font-size="0.2" font-family="P22 Johnston Underground Regular" text-anchor="middle" dominant-baseline="middle">North Central</text>
    </g>
  </g>
  <g>
    <polygon points="2.6666666666666665,2.8867513459481287 2.3333333333333335,3.4641016151377544 1.666666666666667,3.4641016151377544 1.3333333333333335,2.8867513459481287 1.6666666666666665,2.309401076758503 2.333333333333333,2.309401076758503 2.6666666666666665,2.8867513459481287" fill="#00c" stroke="#444" stroke-width="0.01"/>
    <g>
      <text x="2.0" y="2.8867513459481287" fill="white" font-size="0.2" font-family="P22 Johnston Underground Regular" text-anchor="middle" dominant-baseline="middle">Uva</text>
    </g>
  </g>
  <g>
    <polygon points="1.6666666666666665,3.4641016151377544 1.3333333333333333,4.04145188432738 0.666666666666667,4.04145188432738 0.3333333333333335,3.4641016151377544 0.6666666666666665,2.886751345948129 1.3333333333333328,2.886751345948128 1.6666666666666665,3.4641016151377544" fill="#00c" stroke="#444" stroke-width="0.01"/>
    <g>
      <text x="1.0" y="3.4641016151377544" fill="white" font-size="0.2" font-family="P22 Johnston Underground Regular" text-anchor="middle" dominant-baseline="middle">Sabaragamuwa</text>
    </g>
  </g>
  <g>
    <polygon points="2.336666666666667,2.315174579450399 2.6733333333333333,1.7320508075688772 2.336666666666666,1.1489270356873549 1.663333333333333,1.1489270356873553 1.33,1.7262773048769806 0.6633333333333331,1.726277304876981 0.3300000000000003,2.3036275740666063 -0.3366666666666669,2.303627574066607 -0.6733333333333332,2.8867513459481287 -0.33666666666666645,3.4698751178296505 0.33666666666666667,3.4698751178296505 0.6699999999999999,2.892524848640025 1.3366666666666667,2.892524848640025 1.6700000000000002,2.315174579450399 2.336666666666667,2.315174579450399" fill="None" stroke="#222" stroke-width="0.07" opacity="0.5"/>
  </g>
  <g>
    <polygon points="2.336666666666667,3.4698751178296505 2.6733333333333333,2.8867513459481287 2.336666666666666,2.3036275740666063 1.663333333333333,2.303627574066607 1.33,2.880977843256232 0.6633333333333331,2.8809778432562325 0.33000000000000057,3.4583281124458574 -0.3366666666666669,3.458328112445858 -0.6733333333333332,4.04145188432738 -0.33666666666666645,4.6245756562089015 0.33666666666666667,4.6245756562089015 0.6699999999999997,4.047225387019276 1.3366666666666667,4.047225387019276 1.6700000000000002,3.4698751178296505 2.336666666666667,3.4698751178296505" fill="None" stroke="#222" stroke-width="0.07" opacity="0.5"/>
  </g>
  <g>
    <polygon points="0.6733333333333332,0.5773502691896257 0.33666666666666667,1.1604740410711476 -0.33666666666666645,1.1604740410711476 -0.6733333333333332,0.5773502691896258 -0.3366666666666669,-0.005773502691896137 0.33666666666666617,-0.0057735026918964705 0.6733333333333332,0.5773502691896257" fill="None" stroke="#222" stroke-width="0.07" opacity="0.5"/>
  </g>
  <g>
    <polygon points="1.3366666666666667,1.7378243102607733 1.6733333333333333,1.1547005383792515 1.3366666666666662,0.5715767664977293 0.6633333333333331,0.5715767664977296 0.3300000000000003,1.1489270356873549 -0.3366666666666669,1.1489270356873553 -0.6733333333333332,1.7320508075688772 -0.33666666666666645,2.315174579450399 0.33666666666666667,2.315174579450399 0.6699999999999999,1.7378243102607733 1.3366666666666667,1.7378243102607733" fill="None" stroke="#222" stroke-width="0.07" opacity="0.5"/>
  </g>
</svg>
