<?xml version="1.0" ?>
<svg xmlns="http://www.w3.org/2000/svg" height="500" width="300" viewBox="-1.0 -0.5773502691896257 4.0 5.773502691896256">
  <rect x="-1.0" y="-0.5773502691896257" width="4.0" height="5.773502691896256" fill="#8881"/>
  <g>
    <g>
      <polygon points="-0.3333333333333335,-0.5773502691896257 -0.6666666666666667,-1.1102230246251565e-16 -1.333333333333333,0.0 -1.6666666666666665,-0.5773502691896256 -1.3333333333333335,-1.1547005383792512 -0.6666666666666672,-1.1547005383792517 -0.3333333333333335,-0.5773502691896257" fill="None" stroke="#ccc" stroke-width="0.01"/>
      <text x="-1.0" y="-0.5773502691896257" fill="#ccc" font-size="0.3" font-family="P22 Johnston Underground Regular" text-anchor="middle" dominant-baseline="middle">-1.0,-0.5</text>
    </g>
    <g>
      <polygon points="-0.3333333333333335,0.5773502691896257 -0.6666666666666667,1.1547005383792515 -1.333333333333333,1.1547005383792515 -1.6666666666666665,0.5773502691896258 -1.3333333333333335,2.220446049250313e-16 -0.6666666666666672,-2.220446049250313e-16 -0.3333333333333335,0.5773502691896257" fill="None" stroke="#ccc" stroke-width="0.01"/>
      <text x="-1.0" y="0.5773502691896257" fill="#ccc" font-size="0.3" font-family="P22 Johnston Underground Regular" text-anchor="middle" dominant-baseline="middle">-1.0,0.5</text>
    </g>
    <g>
      <polygon points="-0.3333333333333335,1.7320508075688772 -0.6666666666666667,2.309401076758503 -1.333333333333333,2.309401076758503 -1.6666666666666665,1.7320508075688772 -1.3333333333333335,1.1547005383792517 -0.6666666666666672,1.1547005383792512 -0.3333333333333335,1.7320508075688772" fill="None" stroke="#ccc" stroke-width="0.01"/>
      <text x="-1.0" y="1.7320508075688772" fill="#ccc" font-size="0.3" font-family="P22 Johnston Underground Regular" text-anchor="middle" dominant-baseline="middle">-1.0,1.5</text>
    </g>
    <g>
      <polygon points="-0.3333333333333335,2.8867513459481287 -0.6666666666666667,3.4641016151377544 -1.333333333333333,3.4641016151377544 -1.6666666666666665,2.8867513459481287 -1.3333333333333335,2.309401076758503 -0.6666666666666672,2.309401076758503 -0.3333333333333335,2.8867513459481287" fill="None" stroke="#ccc" stroke-width="0.01"/>
      <text x="-1.0" y="2.8867513459481287" fill="#ccc" font-size="0.3" font-family="P22 Johnston Underground Regular" text-anchor="middle" dominant-baseline="middle">-1.0,2.5</text>
    </g>
    <g>
      <polygon points="-0.3333333333333335,4.04145188432738 -0.6666666666666667,4.618802153517005 -1.333333333333333,4.618802153517006 -1.6666666666666665,4.04145188432738 -1.3333333333333335,3.4641016151377544 -0.6666666666666672,3.4641016151377535 -0.3333333333333335,4.04145188432738" fill="None" stroke="#ccc" stroke-width="0.01"/>
      <text x="-1.0" y="4.04145188432738" fill="#ccc" font-size="0.3" font-family="P22 Johnston Underground Regular" text-anchor="middle" dominant-baseline="middle">-1.0,3.5</text>
    </g>
    <g>
      <polygon points="-0.3333333333333335,5.196152422706631 -0.6666666666666667,5.773502691896256 -1.333333333333333,5.773502691896256 -1.6666666666666665,5.196152422706631 -1.3333333333333335,4.618802153517006 -0.6666666666666672,4.618802153517005 -0.3333333333333335,5.196152422706631" fill="None" stroke="#ccc" stroke-width="0.01"/>
      <text x="-1.0" y="5.196152422706631" fill="#ccc" font-size="0.3" font-family="P22 Johnston Underground Regular" text-anchor="middle" dominant-baseline="middle">-1.0,4.5</text>
    </g>
    <g>
      <polygon points="0.6666666666666665,-1.1547005383792515 0.3333333333333333,-0.5773502691896258 -0.3333333333333331,-0.5773502691896257 -0.6666666666666665,-1.1547005383792515 -0.33333333333333354,-1.732050807568877 0.3333333333333328,-1.7320508075688774 0.6666666666666665,-1.1547005383792515" fill="None" stroke="#ccc" stroke-width="0.01"/>
      <text x="0.0" y="-1.1547005383792515" fill="#ccc" font-size="0.3" font-family="P22 Johnston Underground Regular" text-anchor="middle" dominant-baseline="middle">0.0,-1.0</text>
    </g>
    <g>
      <polygon points="0.6666666666666665,0.0 0.3333333333333333,0.5773502691896256 -0.3333333333333331,0.5773502691896257 -0.6666666666666665,8.164311994315686e-17 -0.33333333333333354,-0.5773502691896255 0.3333333333333328,-0.577350269189626 0.6666666666666665,0.0" fill="None" stroke="#ccc" stroke-width="0.01"/>
      <text x="0.0" y="0.0" fill="#ccc" font-size="0.3" font-family="P22 Johnston Underground Regular" text-anchor="middle" dominant-baseline="middle">0.0,0.0</text>
    </g>
    <g>
      <polygon points="0.6666666666666665,1.1547005383792515 0.3333333333333333,1.7320508075688772 -0.3333333333333331,1.7320508075688772 -0.6666666666666665,1.1547005383792515 -0.33333333333333354,0.577350269189626 0.3333333333333328,0.5773502691896255 0.6666666666666665,1.1547005383792515" fill="None" stroke="#ccc" stroke-width="0.01"/>
      <text x="0.0" y="1.1547005383792515" fill="#ccc" font-size="0.3" font-family="P22 Johnston Underground Regular" text-anchor="middle" dominant-baseline="middle">0.0,1.0</text>
    </g>
    <g>
      <polygon points="0.6666666666666665,2.309401076758503 0.3333333333333333,2.8867513459481287 -0.3333333333333331,2.8867513459481287 -0.6666666666666665,2.309401076758503 -0.33333333333333354,1.7320508075688774 0.3333333333333328,1.732050807568877 0.6666666666666665,2.309401076758503" fill="None" stroke="#ccc" stroke-width="0.01"/>
      <text x="0.0" y="2.309401076758503" fill="#ccc" font-size="0.3" font-family="P22 Johnston Underground Regular" text-anchor="middle" dominant-baseline="middle">0.0,2.0</text>
    </g>
    <g>
      <polygon points="0.6666666666666665,3.4641016151377544 0.3333333333333333,4.04145188432738 -0.3333333333333331,4.04145188432738 -0.6666666666666665,3.4641016151377544 -0.33333333333333354,2.886751345948129 0.3333333333333328,2.886751345948128 0.6666666666666665,3.4641016151377544" fill="None" stroke="#ccc" stroke-width="0.01"/>
      <text x="0.0" y="3.4641016151377544" fill="#ccc" font-size="0.3" font-family="P22 Johnston Underground Regular" text-anchor="middle" dominant-baseline="middle">0.0,3.0</text>
    </g>
    <g>
      <polygon points="0.6666666666666665,4.618802153517006 0.3333333333333333,5.196152422706631 -0.3333333333333331,5.196152422706632 -0.6666666666666665,4.618802153517006 -0.33333333333333354,4.041451884327381 0.3333333333333328,4.04145188432738 0.6666666666666665,4.618802153517006" fill="None" stroke="#ccc" stroke-width="0.01"/>
      <text x="0.0" y="4.618802153517006" fill="#ccc" font-size="0.3" font-family="P22 Johnston Underground Regular" text-anchor="middle" dominant-baseline="middle">0.0,4.0</text>
    </g>
    <g>
      <polygon points="1.6666666666666665,-0.5773502691896257 1.3333333333333333,-1.1102230246251565e-16 0.666666666666667,0.0 0.3333333333333335,-0.5773502691896256 0.6666666666666665,-1.1547005383792512 1.3333333333333328,-1.1547005383792517 1.6666666666666665,-0.5773502691896257" fill="None" stroke="#ccc" stroke-width="0.01"/>
      <text x="1.0" y="-0.5773502691896257" fill="#ccc" font-size="0.3" font-family="P22 Johnston Underground Regular" text-anchor="middle" dominant-baseline="middle">1.0,-0.5</text>
    </g>
    <g>
      <polygon points="1.6666666666666665,0.5773502691896257 1.3333333333333333,1.1547005383792515 0.666666666666667,1.1547005383792515 0.3333333333333335,0.5773502691896258 0.6666666666666665,2.220446049250313e-16 1.3333333333333328,-2.220446049250313e-16 1.6666666666666665,0.5773502691896257" fill="None" stroke="#ccc" stroke-width="0.01"/>
      <text x="1.0" y="0.5773502691896257" fill="#ccc" font-size="0.3" font-family="P22 Johnston Underground Regular" text-anchor="middle" dominant-baseline="middle">1.0,0.5</text>
    </g>
    <g>
      <polygon points="1.6666666666666665,1.7320508075688772 1.3333333333333333,2.309401076758503 0.666666666666667,2.309401076758503 0.3333333333333335,1.7320508075688772 0.6666666666666665,1.1547005383792517 1.3333333333333328,1.1547005383792512 1.6666666666666665,1.7320508075688772" fill="None" stroke="#ccc" stroke-width="0.01"/>
      <text x="1.0" y="1.7320508075688772" fill="#ccc" font-size="0.3" font-family="P22 Johnston Underground Regular" text-anchor="middle" dominant-baseline="middle">1.0,1.5</text>
    </g>
    <g>
      <polygon points="1.6666666666666665,2.8867513459481287 1.3333333333333333,3.4641016151377544 0.666666666666667,3.4641016151377544 0.3333333333333335,2.8867513459481287 0.6666666666666665,2.309401076758503 1.3333333333333328,2.309401076758503 1.6666666666666665,2.8867513459481287" fill="None" stroke="#ccc" stroke-width="0.01"/>
      <text x="1.0" y="2.8867513459481287" fill="#ccc" font-size="0.3" font-family="P22 Johnston Underground Regular" text-anchor="middle" dominant-baseline="middle">1.0,2.5</text>
    </g>
    <g>
      <polygon points="1.6666666666666665,4.04145188432738 1.3333333333333333,4.618802153517005 0.666666666666667,4.618802153517006 0.3333333333333335,4.04145188432738 0.6666666666666665,3.4641016151377544 1.3333333333333328,3.4641016151377535 1.6666666666666665,4.04145188432738" fill="None" stroke="#ccc" stroke-width="0.01"/>
      <text x="1.0" y="4.04145188432738" fill="#ccc" font-size="0.3" font-family="P22 Johnston Underground Regular" text-anchor="middle" dominant-baseline="middle">1.0,3.5</text>
    </g>
    <g>
      <polygon points="1.6666666666666665,5.196152422706631 1.3333333333333333,5.773502691896256 0.666666666666667,5.773502691896256 0.3333333333333335,5.196152422706631 0.6666666666666665,4.618802153517006 1.3333333333333328,4.618802153517005 1.6666666666666665,5.196152422706631" fill="None" stroke="#ccc" stroke-width="0.01"/>
      <text x="1.0" y="5.196152422706631" fill="#ccc" font-size="0.3" font-family="P22 Johnston Underground Regular" text-anchor="middle" dominant-baseline="middle">1.0,4.5</text>
    </g>
    <g>
      <polygon points="2.6666666666666665,-1.1547005383792515 2.3333333333333335,-0.5773502691896258 1.666666666666667,-0.5773502691896257 1.3333333333333335,-1.1547005383792515 1.6666666666666665,-1.732050807568877 2.333333333333333,-1.7320508075688774 2.6666666666666665,-1.1547005383792515" fill="None" stroke="#ccc" stroke-width="0.01"/>
      <text x="2.0" y="-1.1547005383792515" fill="#ccc" font-size="0.3" font-family="P22 Johnston Underground Regular" text-anchor="middle" dominant-baseline="middle">2.0,-1.0</text>
    </g>
    <g>
      <polygon points="2.6666666666666665,0.0 2.3333333333333335,0.5773502691896256 1.666666666666667,0.5773502691896257 1.3333333333333335,8.164311994315686e-17 1.6666666666666665,-0.5773502691896255 2.333333333333333,-0.577350269189626 2.6666666666666665,0.0" fill="None" stroke="#ccc" stroke-width="0.01"/>
      <text x="2.0" y="0.0" fill="#ccc" font-size="0.3" font-family="P22 Johnston Underground Regular" text-anchor="middle" dominant-baseline="middle">2.0,0.0</text>
    </g>
    <g>
      <polygon points="2.6666666666666665,1.1547005383792515 2.3333333333333335,1.7320508075688772 1.666666666666667,1.7320508075688772 1.3333333333333335,1.1547005383792515 1.6666666666666665,0.577350269189626 2.333333333333333,0.5773502691896255 2.6666666666666665,1.1547005383792515" fill="None" stroke="#ccc" stroke-width="0.01"/>
      <text x="2.0" y="1.1547005383792515" fill="#ccc" font-size="0.3" font-family="P22 Johnston Underground Regular" text-anchor="middle" dominant-baseline="middle">2.0,1.0</text>
    </g>
    <g>
      <polygon points="2.6666666666666665,2.309401076758503 2.3333333333333335,2.8867513459481287 1.666666666666667,2.8867513459481287 1.3333333333333335,2.309401076758503 1.6666666666666665,1.7320508075688774 2.333333333333333,1.732050807568877 2.6666666666666665,2.309401076758503" fill="None" stroke="#ccc" stroke-width="0.01"/>
      <text x="2.0" y="2.309401076758503" fill="#ccc" font-size="0.3" font-family="P22 Johnston Underground Regular" text-anchor="middle" dominant-baseline="middle">2.0,2.0</text>
    </g>
    <g>
      <polygon points="2.6666666666666665,3.4641016151377544 2.3333333333333335,4.04145188432738 1.666666666666667,4.04145188432738 1.3333333333333335,3.4641016151377544 1.6666666666666665,2.886751345948129 2.333333333333333,2.886751345948128 2.6666666666666665,3.4641016151377544" fill="None" stroke="#ccc" stroke-width="0.01"/>
      <text x="2.0" y="3.4641016151377544" fill="#ccc" font-size="0.3" font-family="P22 Johnston Underground Regular" text-anchor="middle" dominant-baseline="middle">2.0,3.0</text>
    </g>
    <g>
      <polygon points="2.6666666666666665,4.618802153517006 2.3333333333333335,5.196152422706631 1.666666666666667,5.196152422706632 1.3333333333333335,4.618802153517006 1.6666666666666665,4.041451884327381 2.333333333333333,4.04145188432738 2.6666666666666665,4.618802153517006" fill="None" stroke="#ccc" stroke-width="0.01"/>
      <text x="2.0" y="4.618802153517006" fill="#ccc" font-size="0.3" font-family="P22 Johnston Underground Regular" text-anchor="middle" dominant-baseline="middle">2.0,4.0</text>
    </g>
    <g>
      <polygon points="3.6666666666666665,-0.5773502691896257 3.3333333333333335,-1.1102230246251565e-16 2.666666666666667,0.0 2.3333333333333335,-0.5773502691896256 2.6666666666666665,-1.1547005383792512 3.333333333333333,-1.1547005383792517 3.6666666666666665,-0.5773502691896257" fill="None" stroke="#ccc" stroke-width="0.01"/>
      <text x="3.0" y="-0.5773502691896257" fill="#ccc" font-size="0.3" font-family="P22 Johnston Underground Regular" text-anchor="middle" dominant-baseline="middle">3.0,-0.5</text>
    </g>
    <g>
      <polygon points="3.6666666666666665,0.5773502691896257 3.3333333333333335,1.1547005383792515 2.666666666666667,1.1547005383792515 2.3333333333333335,0.5773502691896258 2.6666666666666665,2.220446049250313e-16 3.333333333333333,-2.220446049250313e-16 3.6666666666666665,0.5773502691896257" fill="None" stroke="#ccc" stroke-width="0.01"/>
      <text x="3.0" y="0.5773502691896257" fill="#ccc" font-size="0.3" font-family="P22 Johnston Underground Regular" text-anchor="middle" dominant-baseline="middle">3.0,0.5</text>
    </g>
    <g>
      <polygon points="3.6666666666666665,1.7320508075688772 3.3333333333333335,2.309401076758503 2.666666666666667,2.309401076758503 2.3333333333333335,1.7320508075688772 2.6666666666666665,1.1547005383792517 3.333333333333333,1.1547005383792512 3.6666666666666665,1.7320508075688772" fill="None" stroke="#ccc" stroke-width="0.01"/>
      <text x="3.0" y="1.7320508075688772" fill="#ccc" font-size="0.3" font-family="P22 Johnston Underground Regular" text-anchor="middle" dominant-baseline="middle">3.0,1.5</text>
    </g>
    <g>
      <polygon points="3.6666666666666665,2.8867513459481287 3.3333333333333335,3.4641016151377544 2.666666666666667,3.4641016151377544 2.3333333333333335,2.8867513459481287 2.6666666666666665,2.309401076758503 3.333333333333333,2.309401076758503 3.6666666666666665,2.8867513459481287" fill="None" stroke="#ccc" stroke-width="0.01"/>
      <text x="3.0" y="2.8867513459481287" fill="#ccc" font-size="0.3" font-family="P22 Johnston Underground Regular" text-anchor="middle" dominant-baseline="middle">3.0,2.5</text>
    </g>
    <g>
      <polygon points="3.6666666666666665,4.04145188432738 3.3333333333333335,4.618802153517005 2.666666666666667,4.618802153517006 2.3333333333333335,4.04145188432738 2.6666666666666665,3.4641016151377544 3.333333333333333,3.4641016151377535 3.6666666666666665,4.04145188432738" fill="None" stroke="#ccc" stroke-width="0.01"/>
      <text x="3.0" y="4.04145188432738" fill="#ccc" font-size="0.3" font-family="P22 Johnston Underground Regular" text-anchor="middle" dominant-baseline="middle">3.0,3.5</text>
    </g>
    <g>
      <polygon points="3.6666666666666665,5.196152422706631 3.3333333333333335,5.773502691896256 2.666666666666667,5.773502691896256 2.3333333333333335,5.196152422706631 2.6666666666666665,4.618802153517006 3.333333333333333,4.618802153517005 3.6666666666666665,5.196152422706631" fill="None" stroke="#ccc" stroke-width="0.01"/>
      <text x="3.0" y="5.196152422706631" fill="#ccc" font-size="0.3" font-family="P22 Johnston Underground Regular" text-anchor="middle" dominant-baseline="middle">3.0,4.5</text>
    </g>
  </g>
  <g>
    <polygon points="0.6666666666666665,2.8867513459481287 0.3333333333333333,3.4641016151377544 -0.3333333333333331,3.4641016151377544 -0.6666666666666665,2.8867513459481287 -0.33333333333333354,2.309401076758503 0.3333333333333328,2.309401076758503 0.6666666666666665,2.8867513459481287" fill="#080" stroke="#444" stroke-width="0.01"/>
    <g>
      <text x="0.0" y="2.8867513459481287" fill="white" font-size="0.21428571428571427" font-family="P22 Johnston Underground Regular" text-anchor="middle" dominant-baseline="middle">Western</text>
      <text x="0.0" y="3.086751345948129" fill="white" font-size="0.2" font-family="P22 Johnston Underground Regular" text-anchor="middle" dominant-baseline="middle">0.0,2.5</text>
    </g>
  </g>
  <g>
    <polygon points="1.6666666666666665,2.309401076758503 1.3333333333333333,2.8867513459481287 0.666666666666667,2.8867513459481287 0.3333333333333335,2.309401076758503 0.6666666666666665,1.7320508075688774 1.3333333333333328,1.732050807568877 1.6666666666666665,2.309401076758503" fill="#080" stroke="#444" stroke-width="0.01"/>
    <g>
      <text x="1.0" y="2.309401076758503" fill="white" font-size="0.21428571428571427" font-family="P22 Johnston Underground Regular" text-anchor="middle" dominant-baseline="middle">Central</text>
      <text x="1.0" y="2.509401076758503" fill="white" font-size="0.2" font-family="P22 Johnston Underground Regular" text-anchor="middle" dominant-baseline="middle">1.0,2.0</text>
    </g>
  </g>
  <g>
    <polygon points="0.6666666666666665,4.04145188432738 0.3333333333333333,4.618802153517005 -0.3333333333333331,4.618802153517006 -0.6666666666666665,4.04145188432738 -0.33333333333333354,3.4641016151377544 0.3333333333333328,3.4641016151377535 0.6666666666666665,4.04145188432738" fill="#00c" stroke="#444" stroke-width="0.01"/>
    <g>
      <text x="0.0" y="4.04145188432738" fill="white" font-size="0.1875" font-family="P22 Johnston Underground Regular" text-anchor="middle" dominant-baseline="middle">Southern</text>
      <text x="0.0" y="4.24145188432738" fill="white" font-size="0.2" font-family="P22 Johnston Underground Regular" text-anchor="middle" dominant-baseline="middle">0.0,3.5</text>
    </g>
  </g>
  <g>
    <polygon points="0.6666666666666665,0.5773502691896257 0.3333333333333333,1.1547005383792515 -0.3333333333333331,1.1547005383792515 -0.6666666666666665,0.5773502691896258 -0.33333333333333354,2.220446049250313e-16 0.3333333333333328,-2.220446049250313e-16 0.6666666666666665,0.5773502691896257" fill="#080" stroke="#444" stroke-width="0.01"/>
    <g>
      <text x="0.0" y="0.5773502691896257" fill="white" font-size="0.1875" font-family="P22 Johnston Underground Regular" text-anchor="middle" dominant-baseline="middle">Northern</text>
      <text x="0.0" y="0.7773502691896257" fill="white" font-size="0.2" font-family="P22 Johnston Underground Regular" text-anchor="middle" dominant-baseline="middle">0.0,0.5</text>
    </g>
  </g>
  <g>
    <polygon points="2.6666666666666665,1.7320508075688772 2.3333333333333335,2.309401076758503 1.666666666666667,2.309401076758503 1.3333333333333335,1.7320508075688772 1.6666666666666665,1.1547005383792517 2.333333333333333,1.1547005383792512 2.6666666666666665,1.7320508075688772" fill="#080" stroke="#444" stroke-width="0.01"/>
    <g>
      <text x="2.0" y="1.7320508075688772" fill="white" font-size="0.21428571428571427" font-family="P22 Johnston Underground Regular" text-anchor="middle" dominant-baseline="middle">Eastern</text>
      <text x="2.0" y="1.9320508075688771" fill="white" font-size="0.2" font-family="P22 Johnston Underground Regular" text-anchor="middle" dominant-baseline="middle">2.0,1.5</text>
    </g>
  </g>
  <g>
    <polygon points="0.6666666666666665,1.7320508075688772 0.3333333333333333,2.309401076758503 -0.3333333333333331,2.309401076758503 -0.6666666666666665,1.7320508075688772 -0.33333333333333354,1.1547005383792517 0.3333333333333328,1.1547005383792512 0.6666666666666665,1.7320508075688772" fill="#00c" stroke="#444" stroke-width="0.01"/>
    <g>
      <text x="0.0" y="1.62490795042602" fill="white" font-size="0.21428571428571427" font-family="P22 Johnston Underground Regular" text-anchor="middle" dominant-baseline="middle">North</text>
      <text x="0.0" y="1.8391936647117344" fill="white" font-size="0.21428571428571427" font-family="P22 Johnston Underground Regular" text-anchor="middle" dominant-baseline="middle">Western</text>
      <text x="0.0" y="2.0391936647117346" fill="white" font-size="0.2" font-family="P22 Johnston Underground Regular" text-anchor="middle" dominant-baseline="middle">0.0,1.5</text>
    </g>
  </g>
  <g>
    <polygon points="1.6666666666666665,1.1547005383792515 1.3333333333333333,1.7320508075688772 0.666666666666667,1.7320508075688772 0.3333333333333335,1.1547005383792515 0.6666666666666665,0.577350269189626 1.3333333333333328,0.5773502691896255 1.6666666666666665,1.1547005383792515" fill="#00c" stroke="#444" stroke-width="0.01"/>
    <g>
      <text x="1.0" y="1.0475576812363943" fill="white" font-size="0.21428571428571427" font-family="P22 Johnston Underground Regular" text-anchor="middle" dominant-baseline="middle">North</text>
      <text x="1.0" y="1.2618433955221087" fill="white" font-size="0.21428571428571427" font-family="P22 Johnston Underground Regular" text-anchor="middle" dominant-baseline="middle">Central</text>
      <text x="1.0" y="1.4618433955221086" fill="white" font-size="0.2" font-family="P22 Johnston Underground Regular" text-anchor="middle" dominant-baseline="middle">1.0,1.0</text>
    </g>
  </g>
  <g>
    <polygon points="2.6666666666666665,2.8867513459481287 2.3333333333333335,3.4641016151377544 1.666666666666667,3.4641016151377544 1.3333333333333335,2.8867513459481287 1.6666666666666665,2.309401076758503 2.333333333333333,2.309401076758503 2.6666666666666665,2.8867513459481287" fill="#00c" stroke="#444" stroke-width="0.01"/>
    <g>
      <text x="2.0" y="2.8867513459481287" fill="white" font-size="0.5" font-family="P22 Johnston Underground Regular" text-anchor="middle" dominant-baseline="middle">Uva</text>
      <text x="2.0" y="3.086751345948129" fill="white" font-size="0.2" font-family="P22 Johnston Underground Regular" text-anchor="middle" dominant-baseline="middle">2.0,2.5</text>
    </g>
  </g>
  <g>
    <polygon points="1.6666666666666665,3.4641016151377544 1.3333333333333333,4.04145188432738 0.666666666666667,4.04145188432738 0.3333333333333335,3.4641016151377544 0.6666666666666665,2.886751345948129 1.3333333333333328,2.886751345948128 1.6666666666666665,3.4641016151377544" fill="#00c" stroke="#444" stroke-width="0.01"/>
    <g>
      <text x="1.0" y="3.4641016151377544" fill="white" font-size="0.125" font-family="P22 Johnston Underground Regular" text-anchor="middle" dominant-baseline="middle">Sabaragamuwa</text>
      <text x="1.0" y="3.6641016151377546" fill="white" font-size="0.2" font-family="P22 Johnston Underground Regular" text-anchor="middle" dominant-baseline="middle">1.0,3.0</text>
    </g>
  </g>
  <g>
    <polygon points="2.333666666666667,2.3099784270276924 2.667333333333333,1.7320508075688772 2.333666666666666,1.1541231881100618 1.6663333333333332,1.154123188110062 1.3330000000000002,1.7314734572996877 0.6663333333333332,1.7314734572996877 0.33300000000000013,2.3088237264893134 -0.33366666666666683,2.3088237264893134 -0.6673333333333331,2.8867513459481287 -0.3336666666666664,3.464678965406944 0.3336666666666666,3.464678965406944 0.6669999999999998,2.887328696217318 1.3336666666666666,2.887328696217318 1.6669999999999998,2.3099784270276924 2.333666666666667,2.3099784270276924" fill="None" stroke="#222" stroke-width="0.1"/>
  </g>
  <g>
    <polygon points="2.333666666666667,3.464678965406944 2.667333333333333,2.8867513459481287 2.333666666666666,2.3088237264893134 1.6663333333333332,2.3088237264893134 1.3330000000000004,2.8861739956789387 0.6663333333333332,2.886173995678939 0.33300000000000063,3.463524264868564 -0.33366666666666683,3.4635242648685645 -0.6673333333333331,4.04145188432738 -0.3336666666666664,4.619379503786195 0.3336666666666666,4.619379503786195 0.6669999999999998,4.042029234596569 1.3336666666666666,4.042029234596569 1.6669999999999998,3.464678965406944 2.333666666666667,3.464678965406944" fill="None" stroke="#222" stroke-width="0.1"/>
  </g>
  <g>
    <polygon points="0.6673333333333331,0.5773502691896257 0.3336666666666666,1.155277888648441 -0.3336666666666664,1.155277888648441 -0.6673333333333331,0.5773502691896258 -0.33366666666666683,-0.0005773502691893695 0.3336666666666661,-0.0005773502691897026 0.6673333333333331,0.5773502691896257" fill="None" stroke="#222" stroke-width="0.1"/>
  </g>
  <g>
    <polygon points="1.3336666666666666,1.7326281578380667 1.6673333333333331,1.1547005383792515 1.3336666666666661,0.576772918920436 0.6663333333333332,0.5767729189204364 0.33300000000000024,1.1541231881100618 -0.33366666666666683,1.154123188110062 -0.6673333333333331,1.7320508075688772 -0.3336666666666664,2.3099784270276924 0.3336666666666666,2.3099784270276924 0.6669999999999998,1.7326281578380667 1.3336666666666666,1.7326281578380667" fill="None" stroke="#222" stroke-width="0.1"/>
  </g>
</svg>
