<?xml version="1.0" ?>
<svg xmlns="http://www.w3.org/2000/svg" height="500" width="300" viewBox="-2.0 -2.0 19.0 32.290163190291665">
  <rect x="-2.0" y="-2.0" width="19.0" height="32.290163190291665" fill="#8881"/>
  <g>
    <polygon points="1.6733333333333333,19.629909152447276 1.3366666666666667,20.213032924328797 0.6633333333333336,20.213032924328797 0.32666666666666677,19.629909152447276 0.6633333333333331,19.046785380565755 1.3366666666666662,19.046785380565755 1.6733333333333333,19.629909152447276" fill="#082c" stroke="black" stroke-width="0.01"/>
    <text x="1.0" y="19.629909152447276" fill="black" font-size="0.14285714285714285" font-family="Arial" text-anchor="middle" dominant-baseline="middle">Colombo North</text>
  </g>
  <g>
    <polygon points="0.6733333333333332,20.207259421636902 0.33666666666666667,20.790383193518423 -0.33666666666666645,20.790383193518423 -0.6733333333333332,20.207259421636902 -0.3366666666666669,19.62413564975538 0.33666666666666617,19.62413564975538 0.6733333333333332,20.207259421636902" fill="#082d" stroke="black" stroke-width="0.01"/>
    <text x="0.0" y="20.207259421636902" fill="black" font-size="0.14285714285714285" font-family="Arial" text-anchor="middle" dominant-baseline="middle">Colombo Central</text>
  </g>
  <g>
    <polygon points="1.6733333333333333,20.784609690826525 1.3366666666666667,21.367733462708046 0.6633333333333336,21.367733462708046 0.32666666666666677,20.784609690826525 0.6633333333333331,20.201485918945004 1.3366666666666662,20.201485918945004 1.6733333333333333,20.784609690826525" fill="#082a" stroke="black" stroke-width="0.01"/>
    <text x="1.0" y="20.784609690826525" fill="black" font-size="0.14285714285714285" font-family="Arial" text-anchor="middle" dominant-baseline="middle">Borella</text>
  </g>
  <g>
    <polygon points="2.6733333333333333,21.36195996001615 2.336666666666667,21.94508373189767 1.6633333333333336,21.94508373189767 1.3266666666666667,21.36195996001615 1.663333333333333,20.77883618813463 2.336666666666666,20.77883618813463 2.6733333333333333,21.36195996001615" fill="#082a" stroke="black" stroke-width="0.01"/>
    <text x="2.0" y="21.36195996001615" fill="black" font-size="0.14285714285714285" font-family="Arial" text-anchor="middle" dominant-baseline="middle">Colombo East</text>
  </g>
  <g>
    <polygon points="0.6733333333333332,21.36195996001615 0.33666666666666667,21.94508373189767 -0.33666666666666645,21.94508373189767 -0.6733333333333332,21.36195996001615 -0.3366666666666669,20.77883618813463 0.33666666666666617,20.77883618813463 0.6733333333333332,21.36195996001615" fill="#082c" stroke="black" stroke-width="0.01"/>
    <text x="0.0" y="21.36195996001615" fill="black" font-size="0.14285714285714285" font-family="Arial" text-anchor="middle" dominant-baseline="middle">Colombo West</text>
  </g>
  <g>
    <polygon points="1.6733333333333333,21.939310229205777 1.3366666666666667,22.522434001087298 0.6633333333333336,22.522434001087298 0.32666666666666677,21.939310229205777 0.6633333333333331,21.356186457324256 1.3366666666666662,21.356186457324256 1.6733333333333333,21.939310229205777" fill="#082a" stroke="black" stroke-width="0.01"/>
    <text x="1.0" y="21.939310229205777" fill="black" font-size="0.14285714285714285" font-family="Arial" text-anchor="middle" dominant-baseline="middle">Dehiwala</text>
  </g>
  <g>
    <polygon points="2.6733333333333333,22.516660498395403 2.336666666666667,23.099784270276924 1.6633333333333336,23.099784270276924 1.3266666666666667,22.516660498395403 1.663333333333333,21.933536726513882 2.336666666666666,21.933536726513882 2.6733333333333333,22.516660498395403" fill="#0828" stroke="black" stroke-width="0.01"/>
    <text x="2.0" y="22.516660498395403" fill="black" font-size="0.14285714285714285" font-family="Arial" text-anchor="middle" dominant-baseline="middle">Ratmalana</text>
  </g>
  <g>
    <polygon points="3.6733333333333333,20.784609690826525 3.336666666666667,21.367733462708046 2.6633333333333336,21.367733462708046 2.3266666666666667,20.784609690826525 2.663333333333333,20.201485918945004 3.336666666666666,20.201485918945004 3.6733333333333333,20.784609690826525" fill="#0829" stroke="black" stroke-width="0.01"/>
    <text x="3.0" y="20.784609690826525" fill="black" font-size="0.14285714285714285" font-family="Arial" text-anchor="middle" dominant-baseline="middle">Kolonnawa</text>
  </g>
  <g>
    <polygon points="3.6733333333333333,21.939310229205777 3.336666666666667,22.522434001087298 2.6633333333333336,22.522434001087298 2.3266666666666667,21.939310229205777 2.663333333333333,21.356186457324256 3.336666666666666,21.356186457324256 3.6733333333333333,21.939310229205777" fill="#0829" stroke="black" stroke-width="0.01"/>
    <text x="3.0" y="21.939310229205777" fill="black" font-size="0.14285714285714285" font-family="Arial" text-anchor="middle" dominant-baseline="middle">Kotte</text>
  </g>
  <g>
    <polygon points="4.673333333333333,21.36195996001615 4.336666666666667,21.94508373189767 3.6633333333333336,21.94508373189767 3.3266666666666667,21.36195996001615 3.663333333333333,20.77883618813463 4.336666666666666,20.77883618813463 4.673333333333333,21.36195996001615" fill="#0288" stroke="black" stroke-width="0.01"/>
    <text x="4.0" y="21.36195996001615" fill="black" font-size="0.14285714285714285" font-family="Arial" text-anchor="middle" dominant-baseline="middle">Kaduwela</text>
  </g>
  <g>
    <polygon points="6.673333333333333,21.36195996001615 6.336666666666667,21.94508373189767 5.663333333333334,21.94508373189767 5.326666666666667,21.36195996001615 5.663333333333333,20.77883618813463 6.336666666666666,20.77883618813463 6.673333333333333,21.36195996001615" fill="#0288" stroke="black" stroke-width="0.01"/>
    <text x="6.0" y="21.36195996001615" fill="black" font-size="0.14285714285714285" font-family="Arial" text-anchor="middle" dominant-baseline="middle">Avissawella</text>
  </g>
  <g>
    <polygon points="5.673333333333333,21.939310229205777 5.336666666666667,22.522434001087298 4.663333333333334,22.522434001087298 4.326666666666667,21.939310229205777 4.663333333333333,21.356186457324256 5.336666666666666,21.356186457324256 5.673333333333333,21.939310229205777" fill="#0288" stroke="black" stroke-width="0.01"/>
    <text x="5.0" y="21.939310229205777" fill="black" font-size="0.14285714285714285" font-family="Arial" text-anchor="middle" dominant-baseline="middle">Homagama</text>
  </g>
  <g>
    <polygon points="4.673333333333333,22.516660498395403 4.336666666666667,23.099784270276924 3.6633333333333336,23.099784270276924 3.3266666666666667,22.516660498395403 3.663333333333333,21.933536726513882 4.336666666666666,21.933536726513882 4.673333333333333,22.516660498395403" fill="#0288" stroke="black" stroke-width="0.01"/>
    <text x="4.0" y="22.516660498395403" fill="black" font-size="0.14285714285714285" font-family="Arial" text-anchor="middle" dominant-baseline="middle">Kesbewa</text>
  </g>
  <g>
    <polygon points="1.6733333333333333,23.09401076758503 1.3366666666666667,23.67713453946655 0.6633333333333336,23.67713453946655 0.32666666666666677,23.09401076758503 0.6633333333333331,22.51088699570351 1.3366666666666662,22.51088699570351 1.6733333333333333,23.09401076758503" fill="#0828" stroke="black" stroke-width="0.01"/>
    <text x="1.0" y="23.09401076758503" fill="black" font-size="0.14285714285714285" font-family="Arial" text-anchor="middle" dominant-baseline="middle">Moratuwa</text>
  </g>
  <g>
    <polygon points="2.6733333333333333,19.05255888325765 2.336666666666667,19.63568265513917 1.6633333333333336,19.63568265513917 1.3266666666666667,19.05255888325765 1.663333333333333,18.46943511137613 2.336666666666666,18.46943511137613 2.6733333333333333,19.05255888325765" fill="#0829" stroke="black" stroke-width="0.01"/>
    <text x="2.0" y="19.05255888325765" fill="black" font-size="0.14285714285714285" font-family="Arial" text-anchor="middle" dominant-baseline="middle">Wattala</text>
  </g>
  <g>
    <polygon points="2.6733333333333333,16.743157806499145 2.336666666666667,17.326281578380666 1.6633333333333336,17.326281578380666 1.3266666666666667,16.743157806499145 1.663333333333333,16.160034034617624 2.336666666666666,16.160034034617624 2.6733333333333333,16.743157806499145" fill="#082a" stroke="black" stroke-width="0.01"/>
    <text x="2.0" y="16.743157806499145" fill="black" font-size="0.14285714285714285" font-family="Arial" text-anchor="middle" dominant-baseline="middle">Negombo</text>
  </g>
  <g>
    <polygon points="3.6733333333333333,17.32050807568877 3.336666666666667,17.903631847570292 2.6633333333333336,17.903631847570292 2.3266666666666667,17.32050807568877 2.663333333333333,16.73738430380725 3.336666666666666,16.73738430380725 3.6733333333333333,17.32050807568877" fill="#0828" stroke="black" stroke-width="0.01"/>
    <text x="3.0" y="17.32050807568877" fill="black" font-size="0.14285714285714285" font-family="Arial" text-anchor="middle" dominant-baseline="middle">Katana</text>
  </g>
  <g>
    <polygon points="4.673333333333333,16.743157806499145 4.336666666666667,17.326281578380666 3.6633333333333336,17.326281578380666 3.3266666666666667,16.743157806499145 3.663333333333333,16.160034034617624 4.336666666666666,16.160034034617624 4.673333333333333,16.743157806499145" fill="#0288" stroke="black" stroke-width="0.01"/>
    <text x="4.0" y="16.743157806499145" fill="black" font-size="0.14285714285714285" font-family="Arial" text-anchor="middle" dominant-baseline="middle">Divulapitiya</text>
  </g>
  <g>
    <polygon points="5.673333333333333,17.32050807568877 5.336666666666667,17.903631847570292 4.663333333333334,17.903631847570292 4.326666666666667,17.32050807568877 4.663333333333333,16.73738430380725 5.336666666666666,16.73738430380725 5.673333333333333,17.32050807568877" fill="#0288" stroke="black" stroke-width="0.01"/>
    <text x="5.0" y="17.32050807568877" fill="black" font-size="0.14285714285714285" font-family="Arial" text-anchor="middle" dominant-baseline="middle">Mirigama</text>
  </g>
  <g>
    <polygon points="4.673333333333333,17.897858344878397 4.336666666666667,18.480982116759918 3.6633333333333336,18.480982116759918 3.3266666666666667,17.897858344878397 3.663333333333333,17.314734572996876 4.336666666666666,17.314734572996876 4.673333333333333,17.897858344878397" fill="#0288" stroke="black" stroke-width="0.01"/>
    <text x="4.0" y="17.897858344878397" fill="black" font-size="0.14285714285714285" font-family="Arial" text-anchor="middle" dominant-baseline="middle">Minuwangoda</text>
  </g>
  <g>
    <polygon points="5.673333333333333,18.475208614068023 5.336666666666667,19.058332385949544 4.663333333333334,19.058332385949544 4.326666666666667,18.475208614068023 4.663333333333333,17.892084842186502 5.336666666666666,17.892084842186502 5.673333333333333,18.475208614068023" fill="#0288" stroke="black" stroke-width="0.01"/>
    <text x="5.0" y="18.475208614068023" fill="black" font-size="0.14285714285714285" font-family="Arial" text-anchor="middle" dominant-baseline="middle">Attanagalla</text>
  </g>
  <g>
    <polygon points="4.673333333333333,19.05255888325765 4.336666666666667,19.63568265513917 3.6633333333333336,19.63568265513917 3.3266666666666667,19.05255888325765 3.663333333333333,18.46943511137613 4.336666666666666,18.46943511137613 4.673333333333333,19.05255888325765" fill="#0288" stroke="black" stroke-width="0.01"/>
    <text x="4.0" y="19.05255888325765" fill="black" font-size="0.14285714285714285" font-family="Arial" text-anchor="middle" dominant-baseline="middle">Gampaha</text>
  </g>
  <g>
    <polygon points="3.6733333333333333,18.475208614068023 3.336666666666667,19.058332385949544 2.6633333333333336,19.058332385949544 2.3266666666666667,18.475208614068023 2.663333333333333,17.892084842186502 3.336666666666666,17.892084842186502 3.6733333333333333,18.475208614068023" fill="#0828" stroke="black" stroke-width="0.01"/>
    <text x="3.0" y="18.475208614068023" fill="black" font-size="0.14285714285714285" font-family="Arial" text-anchor="middle" dominant-baseline="middle">Ja Ela</text>
  </g>
  <g>
    <polygon points="5.673333333333333,19.629909152447276 5.336666666666667,20.213032924328797 4.663333333333334,20.213032924328797 4.326666666666667,19.629909152447276 4.663333333333333,19.046785380565755 5.336666666666666,19.046785380565755 5.673333333333333,19.629909152447276" fill="#0288" stroke="black" stroke-width="0.01"/>
    <text x="5.0" y="19.629909152447276" fill="black" font-size="0.14285714285714285" font-family="Arial" text-anchor="middle" dominant-baseline="middle">Mahara</text>
  </g>
  <g>
    <polygon points="6.673333333333333,20.207259421636902 6.336666666666667,20.790383193518423 5.663333333333334,20.790383193518423 5.326666666666667,20.207259421636902 5.663333333333333,19.62413564975538 6.336666666666666,19.62413564975538 6.673333333333333,20.207259421636902" fill="#0289" stroke="black" stroke-width="0.01"/>
    <text x="6.0" y="20.207259421636902" fill="black" font-size="0.14285714285714285" font-family="Arial" text-anchor="middle" dominant-baseline="middle">Dompe</text>
  </g>
  <g>
    <polygon points="4.673333333333333,20.207259421636902 4.336666666666667,20.790383193518423 3.6633333333333336,20.790383193518423 3.3266666666666667,20.207259421636902 3.663333333333333,19.62413564975538 4.336666666666666,19.62413564975538 4.673333333333333,20.207259421636902" fill="#0288" stroke="black" stroke-width="0.01"/>
    <text x="4.0" y="20.207259421636902" fill="black" font-size="0.14285714285714285" font-family="Arial" text-anchor="middle" dominant-baseline="middle">Biyagama</text>
  </g>
  <g>
    <polygon points="3.6733333333333333,19.629909152447276 3.336666666666667,20.213032924328797 2.6633333333333336,20.213032924328797 2.3266666666666667,19.629909152447276 2.663333333333333,19.046785380565755 3.336666666666666,19.046785380565755 3.6733333333333333,19.629909152447276" fill="#0828" stroke="black" stroke-width="0.01"/>
    <text x="3.0" y="19.629909152447276" fill="black" font-size="0.14285714285714285" font-family="Arial" text-anchor="middle" dominant-baseline="middle">Kelaniya</text>
  </g>
  <g>
    <polygon points="2.6733333333333333,23.671361036774655 2.336666666666667,24.254484808656176 1.6633333333333336,24.254484808656176 1.3266666666666667,23.671361036774655 1.663333333333333,23.088237264893134 2.336666666666666,23.088237264893134 2.6733333333333333,23.671361036774655" fill="#0828" stroke="black" stroke-width="0.01"/>
    <text x="2.0" y="23.671361036774655" fill="black" font-size="0.14285714285714285" font-family="Arial" text-anchor="middle" dominant-baseline="middle">Panadura</text>
  </g>
  <g>
    <polygon points="5.673333333333333,23.09401076758503 5.336666666666667,23.67713453946655 4.663333333333334,23.67713453946655 4.326666666666667,23.09401076758503 4.663333333333333,22.51088699570351 5.336666666666666,22.51088699570351 5.673333333333333,23.09401076758503" fill="#0289" stroke="black" stroke-width="0.01"/>
    <text x="5.0" y="23.09401076758503" fill="black" font-size="0.14285714285714285" font-family="Arial" text-anchor="middle" dominant-baseline="middle">Horana</text>
  </g>
  <g>
    <polygon points="6.673333333333333,23.671361036774655 6.336666666666667,24.254484808656176 5.663333333333334,24.254484808656176 5.326666666666667,23.671361036774655 5.663333333333333,23.088237264893134 6.336666666666666,23.088237264893134 6.673333333333333,23.671361036774655" fill="#0288" stroke="black" stroke-width="0.01"/>
    <text x="6.0" y="23.671361036774655" fill="black" font-size="0.14285714285714285" font-family="Arial" text-anchor="middle" dominant-baseline="middle">Bulathsinhala</text>
  </g>
  <g>
    <polygon points="5.673333333333333,24.24871130596428 5.336666666666667,24.831835077845803 4.663333333333334,24.831835077845803 4.326666666666667,24.24871130596428 4.663333333333333,23.66558753408276 5.336666666666666,23.66558753408276 5.673333333333333,24.24871130596428" fill="#0288" stroke="black" stroke-width="0.01"/>
    <text x="5.0" y="24.24871130596428" fill="black" font-size="0.14285714285714285" font-family="Arial" text-anchor="middle" dominant-baseline="middle">Mathugama</text>
  </g>
  <g>
    <polygon points="4.673333333333333,23.671361036774655 4.336666666666667,24.254484808656176 3.6633333333333336,24.254484808656176 3.3266666666666667,23.671361036774655 3.663333333333333,23.088237264893134 4.336666666666666,23.088237264893134 4.673333333333333,23.671361036774655" fill="#0288" stroke="black" stroke-width="0.01"/>
    <text x="4.0" y="23.671361036774655" fill="black" font-size="0.14285714285714285" font-family="Arial" text-anchor="middle" dominant-baseline="middle">Kalutara</text>
  </g>
  <g>
    <polygon points="4.673333333333333,24.826061575153908 4.336666666666667,25.40918534703543 3.6633333333333336,25.40918534703543 3.3266666666666667,24.826061575153908 3.663333333333333,24.242937803272387 4.336666666666666,24.242937803272387 4.673333333333333,24.826061575153908" fill="#0829" stroke="black" stroke-width="0.01"/>
    <text x="4.0" y="24.826061575153908" fill="black" font-size="0.14285714285714285" font-family="Arial" text-anchor="middle" dominant-baseline="middle">Beruwala</text>
  </g>
  <g>
    <polygon points="7.673333333333333,24.24871130596428 7.336666666666667,24.831835077845803 6.663333333333334,24.831835077845803 6.326666666666667,24.24871130596428 6.663333333333333,23.66558753408276 7.336666666666666,23.66558753408276 7.673333333333333,24.24871130596428" fill="#0288" stroke="black" stroke-width="0.01"/>
    <text x="7.0" y="24.24871130596428" fill="black" font-size="0.14285714285714285" font-family="Arial" text-anchor="middle" dominant-baseline="middle">Agalawatta</text>
  </g>
  <g>
    <polygon points="8.673333333333334,15.588457268119894 8.336666666666666,16.171581040001417 7.663333333333334,16.171581040001417 7.326666666666667,15.588457268119894 7.663333333333333,15.005333496238372 8.336666666666666,15.005333496238372 8.673333333333334,15.588457268119894" fill="#0829" stroke="black" stroke-width="0.01"/>
    <text x="8.0" y="15.588457268119894" fill="black" font-size="0.14285714285714285" font-family="Arial" text-anchor="middle" dominant-baseline="middle">Harispattuwa</text>
  </g>
  <g>
    <polygon points="9.673333333333334,16.16580753730952 9.336666666666666,16.74893130919104 8.663333333333334,16.74893130919104 8.326666666666666,16.16580753730952 8.663333333333334,15.582683765427998 9.336666666666666,15.582683765427996 9.673333333333334,16.16580753730952" fill="#0829" stroke="black" stroke-width="0.01"/>
    <text x="9.0" y="16.16580753730952" fill="black" font-size="0.14285714285714285" font-family="Arial" text-anchor="middle" dominant-baseline="middle">Pathadumbara</text>
  </g>
  <g>
    <polygon points="11.673333333333334,18.475208614068023 11.336666666666666,19.058332385949544 10.663333333333334,19.058332385949544 10.326666666666666,18.475208614068023 10.663333333333334,17.892084842186502 11.336666666666666,17.892084842186502 11.673333333333334,18.475208614068023" fill="#0289" stroke="black" stroke-width="0.01"/>
    <text x="11.0" y="18.475208614068023" fill="black" font-size="0.14285714285714285" font-family="Arial" text-anchor="middle" dominant-baseline="middle">Ududumbara</text>
  </g>
  <g>
    <polygon points="11.673333333333334,17.32050807568877 11.336666666666666,17.903631847570292 10.663333333333334,17.903631847570292 10.326666666666666,17.32050807568877 10.663333333333334,16.73738430380725 11.336666666666666,16.73738430380725 11.673333333333334,17.32050807568877" fill="#0827" stroke="black" stroke-width="0.01"/>
    <text x="11.0" y="17.32050807568877" fill="black" font-size="0.14285714285714285" font-family="Arial" text-anchor="middle" dominant-baseline="middle">Teldeniya</text>
  </g>
  <g>
    <polygon points="10.673333333333334,16.743157806499145 10.336666666666666,17.326281578380666 9.663333333333334,17.326281578380666 9.326666666666666,16.743157806499145 9.663333333333334,16.160034034617624 10.336666666666666,16.160034034617624 10.673333333333334,16.743157806499145" fill="#0828" stroke="black" stroke-width="0.01"/>
    <text x="10.0" y="16.743157806499145" fill="black" font-size="0.14285714285714285" font-family="Arial" text-anchor="middle" dominant-baseline="middle">Kundasale</text>
  </g>
  <g>
    <polygon points="10.673333333333334,19.05255888325765 10.336666666666666,19.63568265513917 9.663333333333334,19.63568265513917 9.326666666666666,19.05255888325765 9.663333333333334,18.46943511137613 10.336666666666666,18.46943511137613 10.673333333333334,19.05255888325765" fill="#0828" stroke="black" stroke-width="0.01"/>
    <text x="10.0" y="19.05255888325765" fill="black" font-size="0.14285714285714285" font-family="Arial" text-anchor="middle" dominant-baseline="middle">Hewaheta</text>
  </g>
  <g>
    <polygon points="10.673333333333334,17.897858344878397 10.336666666666666,18.480982116759918 9.663333333333334,18.480982116759918 9.326666666666666,17.897858344878397 9.663333333333334,17.314734572996876 10.336666666666666,17.314734572996876 10.673333333333334,17.897858344878397" fill="#0829" stroke="black" stroke-width="0.01"/>
    <text x="10.0" y="17.897858344878397" fill="black" font-size="0.14285714285714285" font-family="Arial" text-anchor="middle" dominant-baseline="middle">Senkadagala</text>
  </g>
  <g>
    <polygon points="9.673333333333334,17.32050807568877 9.336666666666666,17.903631847570292 8.663333333333334,17.903631847570292 8.326666666666666,17.32050807568877 8.663333333333334,16.73738430380725 9.336666666666666,16.73738430380725 9.673333333333334,17.32050807568877" fill="#082a" stroke="black" stroke-width="0.01"/>
    <text x="9.0" y="17.32050807568877" fill="black" font-size="0.14285714285714285" font-family="Arial" text-anchor="middle" dominant-baseline="middle">Mahanuwara</text>
  </g>
  <g>
    <polygon points="8.673333333333334,16.743157806499145 8.336666666666666,17.326281578380666 7.663333333333334,17.326281578380666 7.326666666666667,16.743157806499145 7.663333333333333,16.160034034617624 8.336666666666666,16.160034034617624 8.673333333333334,16.743157806499145" fill="#0828" stroke="black" stroke-width="0.01"/>
    <text x="8.0" y="16.743157806499145" fill="black" font-size="0.14285714285714285" font-family="Arial" text-anchor="middle" dominant-baseline="middle">Yatinuwara</text>
  </g>
  <g>
    <polygon points="9.673333333333334,18.475208614068023 9.336666666666666,19.058332385949544 8.663333333333334,19.058332385949544 8.326666666666666,18.475208614068023 8.663333333333334,17.892084842186502 9.336666666666666,17.892084842186502 9.673333333333334,18.475208614068023" fill="#0829" stroke="black" stroke-width="0.01"/>
    <text x="9.0" y="18.475208614068023" fill="black" font-size="0.14285714285714285" font-family="Arial" text-anchor="middle" dominant-baseline="middle">Udunuwara</text>
  </g>
  <g>
    <polygon points="9.673333333333334,19.629909152447276 9.336666666666666,20.213032924328797 8.663333333333334,20.213032924328797 8.326666666666666,19.629909152447276 8.663333333333334,19.046785380565755 9.336666666666666,19.046785380565755 9.673333333333334,19.629909152447276" fill="#0829" stroke="black" stroke-width="0.01"/>
    <text x="9.0" y="19.629909152447276" fill="black" font-size="0.14285714285714285" font-family="Arial" text-anchor="middle" dominant-baseline="middle">Gampola</text>
  </g>
  <g>
    <polygon points="8.673333333333334,20.207259421636902 8.336666666666666,20.790383193518423 7.663333333333334,20.790383193518423 7.326666666666667,20.207259421636902 7.663333333333333,19.62413564975538 8.336666666666666,19.62413564975538 8.673333333333334,20.207259421636902" fill="#0828" stroke="black" stroke-width="0.01"/>
    <text x="8.0" y="20.207259421636902" fill="black" font-size="0.14285714285714285" font-family="Arial" text-anchor="middle" dominant-baseline="middle">Nawalapitiya</text>
  </g>
  <g>
    <polygon points="9.673333333333334,12.701705922171765 9.336666666666666,13.284829694053286 8.663333333333334,13.284829694053288 8.326666666666666,12.701705922171765 8.663333333333334,12.118582150290244 9.336666666666666,12.118582150290242 9.673333333333334,12.701705922171765" fill="#0289" stroke="black" stroke-width="0.01"/>
    <text x="9.0" y="12.701705922171765" fill="black" font-size="0.14285714285714285" font-family="Arial" text-anchor="middle" dominant-baseline="middle">Dambulla</text>
  </g>
  <g>
    <polygon points="9.673333333333334,13.856406460551018 9.336666666666666,14.439530232432539 8.663333333333334,14.43953023243254 8.326666666666666,13.856406460551018 8.663333333333334,13.273282688669497 9.336666666666666,13.273282688669495 9.673333333333334,13.856406460551018" fill="#0289" stroke="black" stroke-width="0.01"/>
    <text x="9.0" y="13.856406460551018" fill="black" font-size="0.14285714285714285" font-family="Arial" text-anchor="middle" dominant-baseline="middle">Laggala</text>
  </g>
  <g>
    <polygon points="9.673333333333334,15.011106998930268 9.336666666666666,15.59423077081179 8.663333333333334,15.59423077081179 8.326666666666666,15.011106998930268 8.663333333333334,14.427983227048745 9.336666666666666,14.427983227048745 9.673333333333334,15.011106998930268" fill="#0828" stroke="black" stroke-width="0.01"/>
    <text x="9.0" y="15.011106998930268" fill="black" font-size="0.14285714285714285" font-family="Arial" text-anchor="middle" dominant-baseline="middle">Rattota</text>
  </g>
  <g>
    <polygon points="9.673333333333334,21.939310229205777 9.336666666666666,22.522434001087298 8.663333333333334,22.522434001087298 8.326666666666666,21.939310229205777 8.663333333333334,21.356186457324256 9.336666666666666,21.356186457324256 9.673333333333334,21.939310229205777" fill="#082b" stroke="black" stroke-width="0.01"/>
    <text x="9.0" y="21.939310229205777" fill="black" font-size="0.14285714285714285" font-family="Arial" text-anchor="middle" dominant-baseline="middle">Nuwara Eliya Maskeliya</text>
  </g>
  <g>
    <polygon points="9.673333333333334,20.784609690826525 9.336666666666666,21.367733462708046 8.663333333333334,21.367733462708046 8.326666666666666,20.784609690826525 8.663333333333334,20.201485918945004 9.336666666666666,20.201485918945004 9.673333333333334,20.784609690826525" fill="#0829" stroke="black" stroke-width="0.01"/>
    <text x="9.0" y="20.784609690826525" fill="black" font-size="0.14285714285714285" font-family="Arial" text-anchor="middle" dominant-baseline="middle">Kothmale</text>
  </g>
  <g>
    <polygon points="10.673333333333334,20.207259421636902 10.336666666666666,20.790383193518423 9.663333333333334,20.790383193518423 9.326666666666666,20.207259421636902 9.663333333333334,19.62413564975538 10.336666666666666,19.62413564975538 10.673333333333334,20.207259421636902" fill="#0288" stroke="black" stroke-width="0.01"/>
    <text x="10.0" y="20.207259421636902" fill="black" font-size="0.14285714285714285" font-family="Arial" text-anchor="middle" dominant-baseline="middle">Hanguranketha</text>
  </g>
  <g>
    <polygon points="11.673333333333334,19.629909152447276 11.336666666666666,20.213032924328797 10.663333333333334,20.213032924328797 10.326666666666666,19.629909152447276 10.663333333333334,19.046785380565755 11.336666666666666,19.046785380565755 11.673333333333334,19.629909152447276" fill="#0828" stroke="black" stroke-width="0.01"/>
    <text x="11.0" y="19.629909152447276" fill="black" font-size="0.14285714285714285" font-family="Arial" text-anchor="middle" dominant-baseline="middle">Walapane</text>
  </g>
  <g>
    <polygon points="4.673333333333333,25.980762113533157 4.336666666666667,26.563885885414678 3.6633333333333336,26.563885885414678 3.3266666666666667,25.980762113533157 3.663333333333333,25.397638341651636 4.336666666666666,25.397638341651636 4.673333333333333,25.980762113533157" fill="#0289" stroke="black" stroke-width="0.01"/>
    <text x="4.0" y="25.980762113533157" fill="black" font-size="0.14285714285714285" font-family="Arial" text-anchor="middle" dominant-baseline="middle">Balapitiya</text>
  </g>
  <g>
    <polygon points="5.673333333333333,26.558112382722783 5.336666666666667,27.141236154604304 4.663333333333334,27.141236154604304 4.326666666666667,26.558112382722783 4.663333333333333,25.97498861084126 5.336666666666666,25.97498861084126 5.673333333333333,26.558112382722783" fill="#0288" stroke="black" stroke-width="0.01"/>
    <text x="5.0" y="26.558112382722783" fill="black" font-size="0.14285714285714285" font-family="Arial" text-anchor="middle" dominant-baseline="middle">Ambalangoda</text>
  </g>
  <g>
    <polygon points="5.673333333333333,25.40341184434353 5.336666666666667,25.98653561622505 4.663333333333334,25.98653561622505 4.326666666666667,25.40341184434353 4.663333333333333,24.82028807246201 5.336666666666666,24.82028807246201 5.673333333333333,25.40341184434353" fill="#028a" stroke="black" stroke-width="0.01"/>
    <text x="5.0" y="25.40341184434353" fill="black" font-size="0.14285714285714285" font-family="Arial" text-anchor="middle" dominant-baseline="middle">Karandeniya</text>
  </g>
  <g>
    <polygon points="6.673333333333333,25.980762113533157 6.336666666666667,26.563885885414678 5.663333333333334,26.563885885414678 5.326666666666667,25.980762113533157 5.663333333333333,25.397638341651636 6.336666666666666,25.397638341651636 6.673333333333333,25.980762113533157" fill="#0289" stroke="black" stroke-width="0.01"/>
    <text x="6.0" y="25.980762113533157" fill="black" font-size="0.14285714285714285" font-family="Arial" text-anchor="middle" dominant-baseline="middle">Bentara Elpitiya</text>
  </g>
  <g>
    <polygon points="7.673333333333333,25.40341184434353 7.336666666666667,25.98653561622505 6.663333333333334,25.98653561622505 6.326666666666667,25.40341184434353 6.663333333333333,24.82028807246201 7.336666666666666,24.82028807246201 7.673333333333333,25.40341184434353" fill="#0289" stroke="black" stroke-width="0.01"/>
    <text x="7.0" y="25.40341184434353" fill="black" font-size="0.14285714285714285" font-family="Arial" text-anchor="middle" dominant-baseline="middle">Hiniduma</text>
  </g>
  <g>
    <polygon points="7.673333333333333,26.558112382722783 7.336666666666667,27.141236154604304 6.663333333333334,27.141236154604304 6.326666666666667,26.558112382722783 6.663333333333333,25.97498861084126 7.336666666666666,25.97498861084126 7.673333333333333,26.558112382722783" fill="#0289" stroke="black" stroke-width="0.01"/>
    <text x="7.0" y="26.558112382722783" fill="black" font-size="0.14285714285714285" font-family="Arial" text-anchor="middle" dominant-baseline="middle">Baddegama</text>
  </g>
  <g>
    <polygon points="4.673333333333333,27.13546265191241 4.336666666666667,27.71858642379393 3.6633333333333336,27.71858642379393 3.3266666666666667,27.13546265191241 3.663333333333333,26.552338880030888 4.336666666666666,26.552338880030888 4.673333333333333,27.13546265191241" fill="#0289" stroke="black" stroke-width="0.01"/>
    <text x="4.0" y="27.13546265191241" fill="black" font-size="0.14285714285714285" font-family="Arial" text-anchor="middle" dominant-baseline="middle">Ratgama</text>
  </g>
  <g>
    <polygon points="5.673333333333333,27.712812921102035 5.336666666666667,28.295936692983556 4.663333333333334,28.295936692983556 4.326666666666667,27.712812921102035 4.663333333333333,27.129689149220514 5.336666666666666,27.129689149220514 5.673333333333333,27.712812921102035" fill="#082a" stroke="black" stroke-width="0.01"/>
    <text x="5.0" y="27.712812921102035" fill="black" font-size="0.14285714285714285" font-family="Arial" text-anchor="middle" dominant-baseline="middle">Galle</text>
  </g>
  <g>
    <polygon points="6.673333333333333,27.13546265191241 6.336666666666667,27.71858642379393 5.663333333333334,27.71858642379393 5.326666666666667,27.13546265191241 5.663333333333333,26.552338880030888 6.336666666666666,26.552338880030888 6.673333333333333,27.13546265191241" fill="#0288" stroke="black" stroke-width="0.01"/>
    <text x="6.0" y="27.13546265191241" fill="black" font-size="0.14285714285714285" font-family="Arial" text-anchor="middle" dominant-baseline="middle">Akmeemana</text>
  </g>
  <g>
    <polygon points="6.673333333333333,28.29016319029166 6.336666666666667,28.873286962173182 5.663333333333334,28.873286962173182 5.326666666666667,28.29016319029166 5.663333333333333,27.70703941841014 6.336666666666666,27.70703941841014 6.673333333333333,28.29016319029166" fill="#0289" stroke="black" stroke-width="0.01"/>
    <text x="6.0" y="28.29016319029166" fill="black" font-size="0.14285714285714285" font-family="Arial" text-anchor="middle" dominant-baseline="middle">Habaraduwa</text>
  </g>
  <g>
    <polygon points="8.673333333333334,24.826061575153908 8.336666666666666,25.40918534703543 7.663333333333334,25.40918534703543 7.326666666666667,24.826061575153908 7.663333333333333,24.242937803272387 8.336666666666666,24.242937803272387 8.673333333333334,24.826061575153908" fill="#0289" stroke="black" stroke-width="0.01"/>
    <text x="8.0" y="24.826061575153908" fill="black" font-size="0.14285714285714285" font-family="Arial" text-anchor="middle" dominant-baseline="middle">Deniyaya</text>
  </g>
  <g>
    <polygon points="8.673333333333334,25.980762113533157 8.336666666666666,26.563885885414678 7.663333333333334,26.563885885414678 7.326666666666667,25.980762113533157 7.663333333333333,25.397638341651636 8.336666666666666,25.397638341651636 8.673333333333334,25.980762113533157" fill="#028a" stroke="black" stroke-width="0.01"/>
    <text x="8.0" y="25.980762113533157" fill="black" font-size="0.14285714285714285" font-family="Arial" text-anchor="middle" dominant-baseline="middle">Hakmana</text>
  </g>
  <g>
    <polygon points="8.673333333333334,27.13546265191241 8.336666666666666,27.71858642379393 7.663333333333334,27.71858642379393 7.326666666666667,27.13546265191241 7.663333333333333,26.552338880030888 8.336666666666666,26.552338880030888 8.673333333333334,27.13546265191241" fill="#028a" stroke="black" stroke-width="0.01"/>
    <text x="8.0" y="27.13546265191241" fill="black" font-size="0.14285714285714285" font-family="Arial" text-anchor="middle" dominant-baseline="middle">Kamburupitiya</text>
  </g>
  <g>
    <polygon points="9.673333333333334,27.712812921102035 9.336666666666666,28.295936692983556 8.663333333333334,28.295936692983556 8.326666666666666,27.712812921102035 8.663333333333334,27.129689149220514 9.336666666666666,27.129689149220514 9.673333333333334,27.712812921102035" fill="#0289" stroke="black" stroke-width="0.01"/>
    <text x="9.0" y="27.712812921102035" fill="black" font-size="0.14285714285714285" font-family="Arial" text-anchor="middle" dominant-baseline="middle">Devinuwara</text>
  </g>
  <g>
    <polygon points="8.673333333333334,28.29016319029166 8.336666666666666,28.873286962173182 7.663333333333334,28.873286962173182 7.326666666666667,28.29016319029166 7.663333333333333,27.70703941841014 8.336666666666666,27.70703941841014 8.673333333333334,28.29016319029166" fill="#0828" stroke="black" stroke-width="0.01"/>
    <text x="8.0" y="28.29016319029166" fill="black" font-size="0.14285714285714285" font-family="Arial" text-anchor="middle" dominant-baseline="middle">Matara</text>
  </g>
  <g>
    <polygon points="7.673333333333333,27.712812921102035 7.336666666666667,28.295936692983556 6.663333333333334,28.295936692983556 6.326666666666667,27.712812921102035 6.663333333333333,27.129689149220514 7.336666666666666,27.129689149220514 7.673333333333333,27.712812921102035" fill="#0288" stroke="black" stroke-width="0.01"/>
    <text x="7.0" y="27.712812921102035" fill="black" font-size="0.14285714285714285" font-family="Arial" text-anchor="middle" dominant-baseline="middle">Weligama</text>
  </g>
  <g>
    <polygon points="9.673333333333334,25.40341184434353 9.336666666666666,25.98653561622505 8.663333333333334,25.98653561622505 8.326666666666666,25.40341184434353 8.663333333333334,24.82028807246201 9.336666666666666,24.82028807246201 9.673333333333334,25.40341184434353" fill="#028a" stroke="black" stroke-width="0.01"/>
    <text x="9.0" y="25.40341184434353" fill="black" font-size="0.14285714285714285" font-family="Arial" text-anchor="middle" dominant-baseline="middle">Mulkirigala</text>
  </g>
  <g>
    <polygon points="9.673333333333334,26.558112382722783 9.336666666666666,27.141236154604304 8.663333333333334,27.141236154604304 8.326666666666666,26.558112382722783 8.663333333333334,25.97498861084126 9.336666666666666,25.97498861084126 9.673333333333334,26.558112382722783" fill="#028a" stroke="black" stroke-width="0.01"/>
    <text x="9.0" y="26.558112382722783" fill="black" font-size="0.14285714285714285" font-family="Arial" text-anchor="middle" dominant-baseline="middle">Beliatta</text>
  </g>
  <g>
    <polygon points="10.673333333333334,25.980762113533157 10.336666666666666,26.563885885414678 9.663333333333334,26.563885885414678 9.326666666666666,25.980762113533157 9.663333333333334,25.397638341651636 10.336666666666666,25.397638341651636 10.673333333333334,25.980762113533157" fill="#028a" stroke="black" stroke-width="0.01"/>
    <text x="10.0" y="25.980762113533157" fill="black" font-size="0.14285714285714285" font-family="Arial" text-anchor="middle" dominant-baseline="middle">Tangalle</text>
  </g>
  <g>
    <polygon points="12.673333333333334,24.826061575153908 12.336666666666666,25.40918534703543 11.663333333333334,25.40918534703543 11.326666666666666,24.826061575153908 11.663333333333334,24.242937803272387 12.336666666666666,24.242937803272387 12.673333333333334,24.826061575153908" fill="#0289" stroke="black" stroke-width="0.01"/>
    <text x="12.0" y="24.826061575153908" fill="black" font-size="0.14285714285714285" font-family="Arial" text-anchor="middle" dominant-baseline="middle">Thissamaharama</text>
  </g>
  <g>
    <polygon points="6.673333333333333,2.8867513459481287 6.336666666666667,3.4698751178296505 5.663333333333334,3.4698751178296505 5.326666666666667,2.8867513459481287 5.663333333333333,2.303627574066607 6.336666666666666,2.3036275740666063 6.673333333333333,2.8867513459481287" fill="#0828" stroke="black" stroke-width="0.01"/>
    <text x="6.0" y="2.8867513459481287" fill="black" font-size="0.14285714285714285" font-family="Arial" text-anchor="middle" dominant-baseline="middle">Kayts</text>
  </g>
  <g>
    <polygon points="2.6733333333333333,1.7320508075688772 2.336666666666667,2.315174579450399 1.6633333333333336,2.315174579450399 1.3266666666666667,1.7320508075688772 1.663333333333333,1.1489270356873553 2.336666666666666,1.1489270356873549 2.6733333333333333,1.7320508075688772" fill="#082b" stroke="black" stroke-width="0.01"/>
    <text x="2.0" y="1.7320508075688772" fill="black" font-size="0.14285714285714285" font-family="Arial" text-anchor="middle" dominant-baseline="middle">Vaddukoddai</text>
  </g>
  <g>
    <polygon points="3.6733333333333333,0.0 3.336666666666667,0.5831237718815219 2.6633333333333336,0.583123771881522 2.3266666666666667,8.245955114258844e-17 2.663333333333333,-0.5831237718815219 3.336666666666666,-0.5831237718815222 3.6733333333333333,0.0" fill="#082b" stroke="black" stroke-width="0.01"/>
    <text x="3.0" y="0.0" fill="black" font-size="0.14285714285714285" font-family="Arial" text-anchor="middle" dominant-baseline="middle">Kankesanthurai</text>
  </g>
  <g>
    <polygon points="3.6733333333333333,1.1547005383792515 3.336666666666667,1.7378243102607733 2.6633333333333336,1.7378243102607733 2.3266666666666667,1.1547005383792515 2.663333333333333,0.5715767664977296 3.336666666666666,0.5715767664977293 3.6733333333333333,1.1547005383792515" fill="#082c" stroke="black" stroke-width="0.01"/>
    <text x="3.0" y="1.1547005383792515" fill="black" font-size="0.14285714285714285" font-family="Arial" text-anchor="middle" dominant-baseline="middle">Manipay</text>
  </g>
  <g>
    <polygon points="4.673333333333333,1.7320508075688772 4.336666666666667,2.315174579450399 3.6633333333333336,2.315174579450399 3.3266666666666667,1.7320508075688772 3.663333333333333,1.1489270356873553 4.336666666666666,1.1489270356873549 4.673333333333333,1.7320508075688772" fill="#082c" stroke="black" stroke-width="0.01"/>
    <text x="4.0" y="1.7320508075688772" fill="black" font-size="0.14285714285714285" font-family="Arial" text-anchor="middle" dominant-baseline="middle">Kopay</text>
  </g>
  <g>
    <polygon points="5.673333333333333,1.1547005383792515 5.336666666666667,1.7378243102607733 4.663333333333334,1.7378243102607733 4.326666666666667,1.1547005383792515 4.663333333333333,0.5715767664977296 5.336666666666666,0.5715767664977293 5.673333333333333,1.1547005383792515" fill="#082c" stroke="black" stroke-width="0.01"/>
    <text x="5.0" y="1.1547005383792515" fill="black" font-size="0.14285714285714285" font-family="Arial" text-anchor="middle" dominant-baseline="middle">Udupiddy</text>
  </g>
  <g>
    <polygon points="6.673333333333333,0.5773502691896257 6.336666666666667,1.1604740410711476 5.663333333333334,1.1604740410711476 5.326666666666667,0.5773502691896258 5.663333333333333,-0.005773502691896137 6.336666666666666,-0.0057735026918964705 6.673333333333333,0.5773502691896257" fill="#082c" stroke="black" stroke-width="0.01"/>
    <text x="6.0" y="0.5773502691896257" fill="black" font-size="0.14285714285714285" font-family="Arial" text-anchor="middle" dominant-baseline="middle">Point Pedro</text>
  </g>
  <g>
    <polygon points="5.673333333333333,2.309401076758503 5.336666666666667,2.892524848640025 4.663333333333334,2.892524848640025 4.326666666666667,2.309401076758503 4.663333333333333,1.726277304876981 5.336666666666666,1.7262773048769806 5.673333333333333,2.309401076758503" fill="#082c" stroke="black" stroke-width="0.01"/>
    <text x="5.0" y="2.309401076758503" fill="black" font-size="0.14285714285714285" font-family="Arial" text-anchor="middle" dominant-baseline="middle">Chavakachcheri</text>
  </g>
  <g>
    <polygon points="4.673333333333333,2.8867513459481287 4.336666666666667,3.4698751178296505 3.6633333333333336,3.4698751178296505 3.3266666666666667,2.8867513459481287 3.663333333333333,2.303627574066607 4.336666666666666,2.3036275740666063 4.673333333333333,2.8867513459481287" fill="#082c" stroke="black" stroke-width="0.01"/>
    <text x="4.0" y="2.8867513459481287" fill="black" font-size="0.14285714285714285" font-family="Arial" text-anchor="middle" dominant-baseline="middle">Nallur</text>
  </g>
  <g>
    <polygon points="3.6733333333333333,2.309401076758503 3.336666666666667,2.892524848640025 2.6633333333333336,2.892524848640025 2.3266666666666667,2.309401076758503 2.663333333333333,1.726277304876981 3.336666666666666,1.7262773048769806 3.6733333333333333,2.309401076758503" fill="#082c" stroke="black" stroke-width="0.01"/>
    <text x="3.0" y="2.309401076758503" fill="black" font-size="0.14285714285714285" font-family="Arial" text-anchor="middle" dominant-baseline="middle">Jaffna</text>
  </g>
  <g>
    <polygon points="6.673333333333333,5.196152422706631 6.336666666666667,5.779276194588153 5.663333333333334,5.779276194588153 5.326666666666667,5.196152422706631 5.663333333333333,4.613028650825109 6.336666666666666,4.613028650825109 6.673333333333333,5.196152422706631" fill="#082b" stroke="black" stroke-width="0.01"/>
    <text x="6.0" y="5.196152422706631" fill="black" font-size="0.14285714285714285" font-family="Arial" text-anchor="middle" dominant-baseline="middle">Kilinochchi</text>
  </g>
  <g>
    <polygon points="5.673333333333333,8.08290376865476 5.336666666666667,8.66602754053628 4.663333333333334,8.666027540536282 4.326666666666667,8.08290376865476 4.663333333333333,7.4997799967732375 5.336666666666666,7.4997799967732375 5.673333333333333,8.08290376865476" fill="#082d" stroke="black" stroke-width="0.01"/>
    <text x="5.0" y="8.08290376865476" fill="black" font-size="0.14285714285714285" font-family="Arial" text-anchor="middle" dominant-baseline="middle">Mannar</text>
  </g>
  <g>
    <polygon points="7.673333333333333,8.08290376865476 7.336666666666667,8.66602754053628 6.663333333333334,8.666027540536282 6.326666666666667,8.08290376865476 6.663333333333333,7.4997799967732375 7.336666666666666,7.4997799967732375 7.673333333333333,8.08290376865476" fill="#082c" stroke="black" stroke-width="0.01"/>
    <text x="7.0" y="8.08290376865476" fill="black" font-size="0.14285714285714285" font-family="Arial" text-anchor="middle" dominant-baseline="middle">Vavuniya</text>
  </g>
  <g>
    <polygon points="7.673333333333333,6.928203230275509 7.336666666666667,7.511327002157031 6.663333333333334,7.511327002157031 6.326666666666667,6.928203230275509 6.663333333333333,6.345079458393987 7.336666666666666,6.345079458393987 7.673333333333333,6.928203230275509" fill="#082c" stroke="black" stroke-width="0.01"/>
    <text x="7.0" y="6.928203230275509" fill="black" font-size="0.14285714285714285" font-family="Arial" text-anchor="middle" dominant-baseline="middle">Mullaitivu</text>
  </g>
  <g>
    <polygon points="13.673333333333334,13.856406460551018 13.336666666666666,14.439530232432539 12.663333333333334,14.43953023243254 12.326666666666666,13.856406460551018 12.663333333333334,13.273282688669497 13.336666666666666,13.273282688669495 13.673333333333334,13.856406460551018" fill="#082d" stroke="black" stroke-width="0.01"/>
    <text x="13.0" y="13.856406460551018" fill="black" font-size="0.14285714285714285" font-family="Arial" text-anchor="middle" dominant-baseline="middle">Kalkudah</text>
  </g>
  <g>
    <polygon points="13.673333333333334,16.16580753730952 13.336666666666666,16.74893130919104 12.663333333333334,16.74893130919104 12.326666666666666,16.16580753730952 12.663333333333334,15.582683765427998 13.336666666666666,15.582683765427996 13.673333333333334,16.16580753730952" fill="#082c" stroke="black" stroke-width="0.01"/>
    <text x="13.0" y="16.16580753730952" fill="black" font-size="0.14285714285714285" font-family="Arial" text-anchor="middle" dominant-baseline="middle">Batticaloa</text>
  </g>
  <g>
    <polygon points="14.673333333333334,16.743157806499145 14.336666666666666,17.326281578380666 13.663333333333334,17.326281578380666 13.326666666666666,16.743157806499145 13.663333333333334,16.160034034617624 14.336666666666666,16.160034034617624 14.673333333333334,16.743157806499145" fill="#082d" stroke="black" stroke-width="0.01"/>
    <text x="14.0" y="16.743157806499145" fill="black" font-size="0.14285714285714285" font-family="Arial" text-anchor="middle" dominant-baseline="middle">Paddiruppu</text>
  </g>
  <g>
    <polygon points="13.673333333333334,17.32050807568877 13.336666666666666,17.903631847570292 12.663333333333334,17.903631847570292 12.326666666666666,17.32050807568877 12.663333333333334,16.73738430380725 13.336666666666666,16.73738430380725 13.673333333333334,17.32050807568877" fill="#0289" stroke="black" stroke-width="0.01"/>
    <text x="13.0" y="17.32050807568877" fill="black" font-size="0.14285714285714285" font-family="Arial" text-anchor="middle" dominant-baseline="middle">Ampara</text>
  </g>
  <g>
    <polygon points="15.673333333333334,18.475208614068023 15.336666666666666,19.058332385949544 14.663333333333334,19.058332385949544 14.326666666666666,18.475208614068023 14.663333333333334,17.892084842186502 15.336666666666666,17.892084842186502 15.673333333333334,18.475208614068023" fill="#082d" stroke="black" stroke-width="0.01"/>
    <text x="15.0" y="18.475208614068023" fill="black" font-size="0.14285714285714285" font-family="Arial" text-anchor="middle" dominant-baseline="middle">Samanthurai</text>
  </g>
  <g>
    <polygon points="15.673333333333334,17.32050807568877 15.336666666666666,17.903631847570292 14.663333333333334,17.903631847570292 14.326666666666666,17.32050807568877 14.663333333333334,16.73738430380725 15.336666666666666,16.73738430380725 15.673333333333334,17.32050807568877" fill="#082e" stroke="black" stroke-width="0.01"/>
    <text x="15.0" y="17.32050807568877" fill="black" font-size="0.14285714285714285" font-family="Arial" text-anchor="middle" dominant-baseline="middle">Kalmunai</text>
  </g>
  <g>
    <polygon points="15.673333333333334,20.784609690826525 15.336666666666666,21.367733462708046 14.663333333333334,21.367733462708046 14.326666666666666,20.784609690826525 14.663333333333334,20.201485918945004 15.336666666666666,20.201485918945004 15.673333333333334,20.784609690826525" fill="#082c" stroke="black" stroke-width="0.01"/>
    <text x="15.0" y="20.784609690826525" fill="black" font-size="0.14285714285714285" font-family="Arial" text-anchor="middle" dominant-baseline="middle">Pothuvil</text>
  </g>
  <g>
    <polygon points="10.673333333333334,9.814954576223638 10.336666666666666,10.398078348105159 9.663333333333334,10.39807834810516 9.326666666666666,9.814954576223638 9.663333333333334,9.231830804342117 10.336666666666666,9.231830804342115 10.673333333333334,9.814954576223638" fill="#0288" stroke="black" stroke-width="0.01"/>
    <text x="10.0" y="9.814954576223638" fill="black" font-size="0.14285714285714285" font-family="Arial" text-anchor="middle" dominant-baseline="middle">Seruvila</text>
  </g>
  <g>
    <polygon points="10.673333333333334,8.660254037844386 10.336666666666666,9.243377809725907 9.663333333333334,9.243377809725908 9.326666666666666,8.660254037844386 9.663333333333334,8.077130265962865 10.336666666666666,8.077130265962863 10.673333333333334,8.660254037844386" fill="#082c" stroke="black" stroke-width="0.01"/>
    <text x="10.0" y="8.660254037844386" fill="black" font-size="0.14285714285714285" font-family="Arial" text-anchor="middle" dominant-baseline="middle">Trincomalee</text>
  </g>
  <g>
    <polygon points="11.673333333333334,10.392304845413262 11.336666666666666,10.975428617294785 10.663333333333334,10.975428617294785 10.326666666666666,10.392304845413262 10.663333333333334,9.80918107353174 11.336666666666666,9.80918107353174 11.673333333333334,10.392304845413262" fill="#082e" stroke="black" stroke-width="0.01"/>
    <text x="11.0" y="10.392304845413262" fill="black" font-size="0.14285714285714285" font-family="Arial" text-anchor="middle" dominant-baseline="middle">Muttur</text>
  </g>
  <g>
    <polygon points="6.673333333333333,12.12435565298214 6.336666666666667,12.707479424863664 5.663333333333334,12.707479424863664 5.326666666666667,12.12435565298214 5.663333333333333,11.541231881100618 6.336666666666666,11.541231881100618 6.673333333333333,12.12435565298214" fill="#0289" stroke="black" stroke-width="0.01"/>
    <text x="6.0" y="12.12435565298214" fill="black" font-size="0.14285714285714285" font-family="Arial" text-anchor="middle" dominant-baseline="middle">Galgamuwa</text>
  </g>
  <g>
    <polygon points="5.673333333333333,12.701705922171765 5.336666666666667,13.284829694053286 4.663333333333334,13.284829694053288 4.326666666666667,12.701705922171765 4.663333333333333,12.118582150290244 5.336666666666666,12.118582150290242 5.673333333333333,12.701705922171765" fill="#0288" stroke="black" stroke-width="0.01"/>
    <text x="5.0" y="12.701705922171765" fill="black" font-size="0.14285714285714285" font-family="Arial" text-anchor="middle" dominant-baseline="middle">Nikaweratiya</text>
  </g>
  <g>
    <polygon points="7.673333333333333,12.701705922171765 7.336666666666667,13.284829694053286 6.663333333333334,13.284829694053288 6.326666666666667,12.701705922171765 6.663333333333333,12.118582150290244 7.336666666666666,12.118582150290242 7.673333333333333,12.701705922171765" fill="#0289" stroke="black" stroke-width="0.01"/>
    <text x="7.0" y="12.701705922171765" fill="black" font-size="0.14285714285714285" font-family="Arial" text-anchor="middle" dominant-baseline="middle">Yapahuwa</text>
  </g>
  <g>
    <polygon points="7.673333333333333,13.856406460551018 7.336666666666667,14.439530232432539 6.663333333333334,14.43953023243254 6.326666666666667,13.856406460551018 6.663333333333333,13.273282688669497 7.336666666666666,13.273282688669495 7.673333333333333,13.856406460551018" fill="#0288" stroke="black" stroke-width="0.01"/>
    <text x="7.0" y="13.856406460551018" fill="black" font-size="0.14285714285714285" font-family="Arial" text-anchor="middle" dominant-baseline="middle">Hiriyala</text>
  </g>
  <g>
    <polygon points="6.673333333333333,13.279056191361391 6.336666666666667,13.862179963242912 5.663333333333334,13.862179963242914 5.326666666666667,13.279056191361391 5.663333333333333,12.69593241947987 6.336666666666666,12.695932419479869 6.673333333333333,13.279056191361391" fill="#0289" stroke="black" stroke-width="0.01"/>
    <text x="6.0" y="13.279056191361391" fill="black" font-size="0.14285714285714285" font-family="Arial" text-anchor="middle" dominant-baseline="middle">Wariyapola</text>
  </g>
  <g>
    <polygon points="5.673333333333333,13.856406460551018 5.336666666666667,14.439530232432539 4.663333333333334,14.43953023243254 4.326666666666667,13.856406460551018 4.663333333333333,13.273282688669497 5.336666666666666,13.273282688669495 5.673333333333333,13.856406460551018" fill="#0288" stroke="black" stroke-width="0.01"/>
    <text x="5.0" y="13.856406460551018" fill="black" font-size="0.14285714285714285" font-family="Arial" text-anchor="middle" dominant-baseline="middle">Panduwasnuwara</text>
  </g>
  <g>
    <polygon points="4.673333333333333,14.433756729740644 4.336666666666667,15.016880501622165 3.6633333333333336,15.016880501622166 3.3266666666666667,14.433756729740644 3.663333333333333,13.850632957859123 4.336666666666666,13.850632957859121 4.673333333333333,14.433756729740644" fill="#0288" stroke="black" stroke-width="0.01"/>
    <text x="4.0" y="14.433756729740644" fill="black" font-size="0.14285714285714285" font-family="Arial" text-anchor="middle" dominant-baseline="middle">Bingiriya</text>
  </g>
  <g>
    <polygon points="4.673333333333333,15.588457268119894 4.336666666666667,16.171581040001417 3.6633333333333336,16.171581040001417 3.3266666666666667,15.588457268119894 3.663333333333333,15.005333496238372 4.336666666666666,15.005333496238372 4.673333333333333,15.588457268119894" fill="#0288" stroke="black" stroke-width="0.01"/>
    <text x="4.0" y="15.588457268119894" fill="black" font-size="0.14285714285714285" font-family="Arial" text-anchor="middle" dominant-baseline="middle">Katugampola</text>
  </g>
  <g>
    <polygon points="5.673333333333333,15.011106998930268 5.336666666666667,15.59423077081179 4.663333333333334,15.59423077081179 4.326666666666667,15.011106998930268 4.663333333333333,14.427983227048745 5.336666666666666,14.427983227048745 5.673333333333333,15.011106998930268" fill="#0288" stroke="black" stroke-width="0.01"/>
    <text x="5.0" y="15.011106998930268" fill="black" font-size="0.14285714285714285" font-family="Arial" text-anchor="middle" dominant-baseline="middle">Kuliyapitiya</text>
  </g>
  <g>
    <polygon points="5.673333333333333,16.16580753730952 5.336666666666667,16.74893130919104 4.663333333333334,16.74893130919104 4.326666666666667,16.16580753730952 4.663333333333333,15.582683765427998 5.336666666666666,15.582683765427996 5.673333333333333,16.16580753730952" fill="#0288" stroke="black" stroke-width="0.01"/>
    <text x="5.0" y="16.16580753730952" fill="black" font-size="0.14285714285714285" font-family="Arial" text-anchor="middle" dominant-baseline="middle">Dambadeniya</text>
  </g>
  <g>
    <polygon points="6.673333333333333,15.588457268119894 6.336666666666667,16.171581040001417 5.663333333333334,16.171581040001417 5.326666666666667,15.588457268119894 5.663333333333333,15.005333496238372 6.336666666666666,15.005333496238372 6.673333333333333,15.588457268119894" fill="#0288" stroke="black" stroke-width="0.01"/>
    <text x="6.0" y="15.588457268119894" fill="black" font-size="0.14285714285714285" font-family="Arial" text-anchor="middle" dominant-baseline="middle">Polgahawela</text>
  </g>
  <g>
    <polygon points="6.673333333333333,14.433756729740644 6.336666666666667,15.016880501622165 5.663333333333334,15.016880501622166 5.326666666666667,14.433756729740644 5.663333333333333,13.850632957859123 6.336666666666666,13.850632957859121 6.673333333333333,14.433756729740644" fill="#0828" stroke="black" stroke-width="0.01"/>
    <text x="6.0" y="14.433756729740644" fill="black" font-size="0.14285714285714285" font-family="Arial" text-anchor="middle" dominant-baseline="middle">Kurunegala</text>
  </g>
  <g>
    <polygon points="7.673333333333333,15.011106998930268 7.336666666666667,15.59423077081179 6.663333333333334,15.59423077081179 6.326666666666667,15.011106998930268 6.663333333333333,14.427983227048745 7.336666666666666,14.427983227048745 7.673333333333333,15.011106998930268" fill="#0828" stroke="black" stroke-width="0.01"/>
    <text x="7.0" y="15.011106998930268" fill="black" font-size="0.14285714285714285" font-family="Arial" text-anchor="middle" dominant-baseline="middle">Mawathagama</text>
  </g>
  <g>
    <polygon points="8.673333333333334,14.433756729740644 8.336666666666666,15.016880501622165 7.663333333333334,15.016880501622166 7.326666666666667,14.433756729740644 7.663333333333333,13.850632957859123 8.336666666666666,13.850632957859121 8.673333333333334,14.433756729740644" fill="#0288" stroke="black" stroke-width="0.01"/>
    <text x="8.0" y="14.433756729740644" fill="black" font-size="0.14285714285714285" font-family="Arial" text-anchor="middle" dominant-baseline="middle">Dodangaslanda</text>
  </g>
  <g>
    <polygon points="4.673333333333333,10.969655114602888 4.336666666666667,11.552778886484411 3.6633333333333336,11.552778886484411 3.3266666666666667,10.969655114602888 3.663333333333333,10.386531342721366 4.336666666666666,10.386531342721366 4.673333333333333,10.969655114602888" fill="#082b" stroke="black" stroke-width="0.01"/>
    <text x="4.0" y="10.969655114602888" fill="black" font-size="0.14285714285714285" font-family="Arial" text-anchor="middle" dominant-baseline="middle">Puttalam</text>
  </g>
  <g>
    <polygon points="4.673333333333333,12.12435565298214 4.336666666666667,12.707479424863664 3.6633333333333336,12.707479424863664 3.3266666666666667,12.12435565298214 3.663333333333333,11.541231881100618 4.336666666666666,11.541231881100618 4.673333333333333,12.12435565298214" fill="#0289" stroke="black" stroke-width="0.01"/>
    <text x="4.0" y="12.12435565298214" fill="black" font-size="0.14285714285714285" font-family="Arial" text-anchor="middle" dominant-baseline="middle">Anamaduwa</text>
  </g>
  <g>
    <polygon points="3.6733333333333333,13.856406460551018 3.336666666666667,14.439530232432539 2.6633333333333336,14.43953023243254 2.3266666666666667,13.856406460551018 2.663333333333333,13.273282688669497 3.336666666666666,13.273282688669495 3.6733333333333333,13.856406460551018" fill="#0288" stroke="black" stroke-width="0.01"/>
    <text x="3.0" y="13.856406460551018" fill="black" font-size="0.14285714285714285" font-family="Arial" text-anchor="middle" dominant-baseline="middle">Chilaw</text>
  </g>
  <g>
    <polygon points="3.6733333333333333,15.011106998930268 3.336666666666667,15.59423077081179 2.6633333333333336,15.59423077081179 2.3266666666666667,15.011106998930268 2.663333333333333,14.427983227048745 3.336666666666666,14.427983227048745 3.6733333333333333,15.011106998930268" fill="#0288" stroke="black" stroke-width="0.01"/>
    <text x="3.0" y="15.011106998930268" fill="black" font-size="0.14285714285714285" font-family="Arial" text-anchor="middle" dominant-baseline="middle">Nattandiya</text>
  </g>
  <g>
    <polygon points="3.6733333333333333,16.16580753730952 3.336666666666667,16.74893130919104 2.6633333333333336,16.74893130919104 2.3266666666666667,16.16580753730952 2.663333333333333,15.582683765427998 3.336666666666666,15.582683765427996 3.6733333333333333,16.16580753730952" fill="#0288" stroke="black" stroke-width="0.01"/>
    <text x="3.0" y="16.16580753730952" fill="black" font-size="0.14285714285714285" font-family="Arial" text-anchor="middle" dominant-baseline="middle">Wennappuwa</text>
  </g>
  <g>
    <polygon points="8.673333333333334,8.660254037844386 8.336666666666666,9.243377809725907 7.663333333333334,9.243377809725908 7.326666666666667,8.660254037844386 7.663333333333333,8.077130265962865 8.336666666666666,8.077130265962863 8.673333333333334,8.660254037844386" fill="#0289" stroke="black" stroke-width="0.01"/>
    <text x="8.0" y="8.660254037844386" fill="black" font-size="0.14285714285714285" font-family="Arial" text-anchor="middle" dominant-baseline="middle">Medawachchiya</text>
  </g>
  <g>
    <polygon points="9.673333333333334,10.392304845413262 9.336666666666666,10.975428617294785 8.663333333333334,10.975428617294785 8.326666666666666,10.392304845413262 8.663333333333334,9.80918107353174 9.336666666666666,9.80918107353174 9.673333333333334,10.392304845413262" fill="#0288" stroke="black" stroke-width="0.01"/>
    <text x="9.0" y="10.392304845413262" fill="black" font-size="0.14285714285714285" font-family="Arial" text-anchor="middle" dominant-baseline="middle">Horowpothana</text>
  </g>
  <g>
    <polygon points="8.673333333333334,10.969655114602888 8.336666666666666,11.552778886484411 7.663333333333334,11.552778886484411 7.326666666666667,10.969655114602888 7.663333333333333,10.386531342721366 8.336666666666666,10.386531342721366 8.673333333333334,10.969655114602888" fill="#0288" stroke="black" stroke-width="0.01"/>
    <text x="8.0" y="10.969655114602888" fill="black" font-size="0.14285714285714285" font-family="Arial" text-anchor="middle" dominant-baseline="middle">Anuradhapura East</text>
  </g>
  <g>
    <polygon points="5.673333333333333,10.392304845413262 5.336666666666667,10.975428617294785 4.663333333333334,10.975428617294785 4.326666666666667,10.392304845413262 4.663333333333333,9.80918107353174 5.336666666666666,9.80918107353174 5.673333333333333,10.392304845413262" fill="#0288" stroke="black" stroke-width="0.01"/>
    <text x="5.0" y="10.392304845413262" fill="black" font-size="0.14285714285714285" font-family="Arial" text-anchor="middle" dominant-baseline="middle">Anuradhapura West</text>
  </g>
  <g>
    <polygon points="5.673333333333333,11.547005383792515 5.336666666666667,12.130129155674037 4.663333333333334,12.130129155674037 4.326666666666667,11.547005383792515 4.663333333333333,10.963881611910992 5.336666666666666,10.963881611910992 5.673333333333333,11.547005383792515" fill="#0288" stroke="black" stroke-width="0.01"/>
    <text x="5.0" y="11.547005383792515" fill="black" font-size="0.14285714285714285" font-family="Arial" text-anchor="middle" dominant-baseline="middle">Kalawewa</text>
  </g>
  <g>
    <polygon points="7.673333333333333,11.547005383792515 7.336666666666667,12.130129155674037 6.663333333333334,12.130129155674037 6.326666666666667,11.547005383792515 6.663333333333333,10.963881611910992 7.336666666666666,10.963881611910992 7.673333333333333,11.547005383792515" fill="#0288" stroke="black" stroke-width="0.01"/>
    <text x="7.0" y="11.547005383792515" fill="black" font-size="0.14285714285714285" font-family="Arial" text-anchor="middle" dominant-baseline="middle">Mihinthale</text>
  </g>
  <g>
    <polygon points="8.673333333333334,12.12435565298214 8.336666666666666,12.707479424863664 7.663333333333334,12.707479424863664 7.326666666666667,12.12435565298214 7.663333333333333,11.541231881100618 8.336666666666666,11.541231881100618 8.673333333333334,12.12435565298214" fill="#0288" stroke="black" stroke-width="0.01"/>
    <text x="8.0" y="12.12435565298214" fill="black" font-size="0.14285714285714285" font-family="Arial" text-anchor="middle" dominant-baseline="middle">Kekirawa</text>
  </g>
  <g>
    <polygon points="9.673333333333334,11.547005383792515 9.336666666666666,12.130129155674037 8.663333333333334,12.130129155674037 8.326666666666666,11.547005383792515 8.663333333333334,10.963881611910992 9.336666666666666,10.963881611910992 9.673333333333334,11.547005383792515" fill="#0828" stroke="black" stroke-width="0.01"/>
    <text x="9.0" y="11.547005383792515" fill="black" font-size="0.14285714285714285" font-family="Arial" text-anchor="middle" dominant-baseline="middle">Minneriya</text>
  </g>
  <g>
    <polygon points="10.673333333333334,12.12435565298214 10.336666666666666,12.707479424863664 9.663333333333334,12.707479424863664 9.326666666666666,12.12435565298214 9.663333333333334,11.541231881100618 10.336666666666666,11.541231881100618 10.673333333333334,12.12435565298214" fill="#0828" stroke="black" stroke-width="0.01"/>
    <text x="10.0" y="12.12435565298214" fill="black" font-size="0.14285714285714285" font-family="Arial" text-anchor="middle" dominant-baseline="middle">Medirigiriya</text>
  </g>
  <g>
    <polygon points="11.673333333333334,13.856406460551018 11.336666666666666,14.439530232432539 10.663333333333334,14.43953023243254 10.326666666666666,13.856406460551018 10.663333333333334,13.273282688669497 11.336666666666666,13.273282688669495 11.673333333333334,13.856406460551018" fill="#082a" stroke="black" stroke-width="0.01"/>
    <text x="11.0" y="13.856406460551018" fill="black" font-size="0.14285714285714285" font-family="Arial" text-anchor="middle" dominant-baseline="middle">Polonnaruwa</text>
  </g>
  <g>
    <polygon points="12.673333333333334,16.743157806499145 12.336666666666666,17.326281578380666 11.663333333333334,17.326281578380666 11.326666666666666,16.743157806499145 11.663333333333334,16.160034034617624 12.336666666666666,16.160034034617624 12.673333333333334,16.743157806499145" fill="#0289" stroke="black" stroke-width="0.01"/>
    <text x="12.0" y="16.743157806499145" fill="black" font-size="0.14285714285714285" font-family="Arial" text-anchor="middle" dominant-baseline="middle">Mahiyanganaya</text>
  </g>
  <g>
    <polygon points="12.673333333333334,19.05255888325765 12.336666666666666,19.63568265513917 11.663333333333334,19.63568265513917 11.326666666666666,19.05255888325765 11.663333333333334,18.46943511137613 12.336666666666666,18.46943511137613 12.673333333333334,19.05255888325765" fill="#0289" stroke="black" stroke-width="0.01"/>
    <text x="12.0" y="19.05255888325765" fill="black" font-size="0.14285714285714285" font-family="Arial" text-anchor="middle" dominant-baseline="middle">Viyaluwa</text>
  </g>
  <g>
    <polygon points="13.673333333333334,20.784609690826525 13.336666666666666,21.367733462708046 12.663333333333334,21.367733462708046 12.326666666666666,20.784609690826525 12.663333333333334,20.201485918945004 13.336666666666666,20.201485918945004 13.673333333333334,20.784609690826525" fill="#0828" stroke="black" stroke-width="0.01"/>
    <text x="13.0" y="20.784609690826525" fill="black" font-size="0.14285714285714285" font-family="Arial" text-anchor="middle" dominant-baseline="middle">Passara</text>
  </g>
  <g>
    <polygon points="12.673333333333334,20.207259421636902 12.336666666666666,20.790383193518423 11.663333333333334,20.790383193518423 11.326666666666666,20.207259421636902 11.663333333333334,19.62413564975538 12.336666666666666,19.62413564975538 12.673333333333334,20.207259421636902" fill="#0828" stroke="black" stroke-width="0.01"/>
    <text x="12.0" y="20.207259421636902" fill="black" font-size="0.14285714285714285" font-family="Arial" text-anchor="middle" dominant-baseline="middle">Badulla</text>
  </g>
  <g>
    <polygon points="11.673333333333334,20.784609690826525 11.336666666666666,21.367733462708046 10.663333333333334,21.367733462708046 10.326666666666666,20.784609690826525 10.663333333333334,20.201485918945004 11.336666666666666,20.201485918945004 11.673333333333334,20.784609690826525" fill="#0288" stroke="black" stroke-width="0.01"/>
    <text x="11.0" y="20.784609690826525" fill="black" font-size="0.14285714285714285" font-family="Arial" text-anchor="middle" dominant-baseline="middle">Uva Paranagama</text>
  </g>
  <g>
    <polygon points="11.673333333333334,21.939310229205777 11.336666666666666,22.522434001087298 10.663333333333334,22.522434001087298 10.326666666666666,21.939310229205777 10.663333333333334,21.356186457324256 11.336666666666666,21.356186457324256 11.673333333333334,21.939310229205777" fill="#0828" stroke="black" stroke-width="0.01"/>
    <text x="11.0" y="21.939310229205777" fill="black" font-size="0.14285714285714285" font-family="Arial" text-anchor="middle" dominant-baseline="middle">Welimada</text>
  </g>
  <g>
    <polygon points="12.673333333333334,21.36195996001615 12.336666666666666,21.94508373189767 11.663333333333334,21.94508373189767 11.326666666666666,21.36195996001615 11.663333333333334,20.77883618813463 12.336666666666666,20.77883618813463 12.673333333333334,21.36195996001615" fill="#0828" stroke="black" stroke-width="0.01"/>
    <text x="12.0" y="21.36195996001615" fill="black" font-size="0.14285714285714285" font-family="Arial" text-anchor="middle" dominant-baseline="middle">Bandarawela</text>
  </g>
  <g>
    <polygon points="10.673333333333334,22.516660498395403 10.336666666666666,23.099784270276924 9.663333333333334,23.099784270276924 9.326666666666666,22.516660498395403 9.663333333333334,21.933536726513882 10.336666666666666,21.933536726513882 10.673333333333334,22.516660498395403" fill="#0829" stroke="black" stroke-width="0.01"/>
    <text x="10.0" y="22.516660498395403" fill="black" font-size="0.14285714285714285" font-family="Arial" text-anchor="middle" dominant-baseline="middle">Haputale</text>
  </g>
  <g>
    <polygon points="13.673333333333334,19.629909152447276 13.336666666666666,20.213032924328797 12.663333333333334,20.213032924328797 12.326666666666666,19.629909152447276 12.663333333333334,19.046785380565755 13.336666666666666,19.046785380565755 13.673333333333334,19.629909152447276" fill="#0289" stroke="black" stroke-width="0.01"/>
    <text x="13.0" y="19.629909152447276" fill="black" font-size="0.14285714285714285" font-family="Arial" text-anchor="middle" dominant-baseline="middle">Bibile</text>
  </g>
  <g>
    <polygon points="14.673333333333334,21.36195996001615 14.336666666666666,21.94508373189767 13.663333333333334,21.94508373189767 13.326666666666666,21.36195996001615 13.663333333333334,20.77883618813463 14.336666666666666,20.77883618813463 14.673333333333334,21.36195996001615" fill="#0289" stroke="black" stroke-width="0.01"/>
    <text x="14.0" y="21.36195996001615" fill="black" font-size="0.14285714285714285" font-family="Arial" text-anchor="middle" dominant-baseline="middle">Monaragala</text>
  </g>
  <g>
    <polygon points="12.673333333333334,23.671361036774655 12.336666666666666,24.254484808656176 11.663333333333334,24.254484808656176 11.326666666666666,23.671361036774655 11.663333333333334,23.088237264893134 12.336666666666666,23.088237264893134 12.673333333333334,23.671361036774655" fill="#028a" stroke="black" stroke-width="0.01"/>
    <text x="12.0" y="23.671361036774655" fill="black" font-size="0.14285714285714285" font-family="Arial" text-anchor="middle" dominant-baseline="middle">Wellawaya</text>
  </g>
  <g>
    <polygon points="7.673333333333333,21.939310229205777 7.336666666666667,22.522434001087298 6.663333333333334,22.522434001087298 6.326666666666667,21.939310229205777 6.663333333333333,21.356186457324256 7.336666666666666,21.356186457324256 7.673333333333333,21.939310229205777" fill="#0289" stroke="black" stroke-width="0.01"/>
    <text x="7.0" y="21.939310229205777" fill="black" font-size="0.14285714285714285" font-family="Arial" text-anchor="middle" dominant-baseline="middle">Eheliyagoda</text>
  </g>
  <g>
    <polygon points="8.673333333333334,22.516660498395403 8.336666666666666,23.099784270276924 7.663333333333334,23.099784270276924 7.326666666666667,22.516660498395403 7.663333333333333,21.933536726513882 8.336666666666666,21.933536726513882 8.673333333333334,22.516660498395403" fill="#0288" stroke="black" stroke-width="0.01"/>
    <text x="8.0" y="22.516660498395403" fill="black" font-size="0.14285714285714285" font-family="Arial" text-anchor="middle" dominant-baseline="middle">Ratnapura</text>
  </g>
  <g>
    <polygon points="9.673333333333334,23.09401076758503 9.336666666666666,23.67713453946655 8.663333333333334,23.67713453946655 8.326666666666666,23.09401076758503 8.663333333333334,22.51088699570351 9.336666666666666,22.51088699570351 9.673333333333334,23.09401076758503" fill="#0288" stroke="black" stroke-width="0.01"/>
    <text x="9.0" y="23.09401076758503" fill="black" font-size="0.14285714285714285" font-family="Arial" text-anchor="middle" dominant-baseline="middle">Pelmadulla</text>
  </g>
  <g>
    <polygon points="10.673333333333334,23.671361036774655 10.336666666666666,24.254484808656176 9.663333333333334,24.254484808656176 9.326666666666666,23.671361036774655 9.663333333333334,23.088237264893134 10.336666666666666,23.088237264893134 10.673333333333334,23.671361036774655" fill="#0288" stroke="black" stroke-width="0.01"/>
    <text x="10.0" y="23.671361036774655" fill="black" font-size="0.14285714285714285" font-family="Arial" text-anchor="middle" dominant-baseline="middle">Rakwana</text>
  </g>
  <g>
    <polygon points="8.673333333333334,23.671361036774655 8.336666666666666,24.254484808656176 7.663333333333334,24.254484808656176 7.326666666666667,23.671361036774655 7.663333333333333,23.088237264893134 8.336666666666666,23.088237264893134 8.673333333333334,23.671361036774655" fill="#0289" stroke="black" stroke-width="0.01"/>
    <text x="8.0" y="23.671361036774655" fill="black" font-size="0.14285714285714285" font-family="Arial" text-anchor="middle" dominant-baseline="middle">Nivithigala</text>
  </g>
  <g>
    <polygon points="7.673333333333333,23.09401076758503 7.336666666666667,23.67713453946655 6.663333333333334,23.67713453946655 6.326666666666667,23.09401076758503 6.663333333333333,22.51088699570351 7.336666666666666,22.51088699570351 7.673333333333333,23.09401076758503" fill="#0289" stroke="black" stroke-width="0.01"/>
    <text x="7.0" y="23.09401076758503" fill="black" font-size="0.14285714285714285" font-family="Arial" text-anchor="middle" dominant-baseline="middle">Kalawana</text>
  </g>
  <g>
    <polygon points="9.673333333333334,24.24871130596428 9.336666666666666,24.831835077845803 8.663333333333334,24.831835077845803 8.326666666666666,24.24871130596428 8.663333333333334,23.66558753408276 9.336666666666666,23.66558753408276 9.673333333333334,24.24871130596428" fill="#0289" stroke="black" stroke-width="0.01"/>
    <text x="9.0" y="24.24871130596428" fill="black" font-size="0.14285714285714285" font-family="Arial" text-anchor="middle" dominant-baseline="middle">Kolonna</text>
  </g>
  <g>
    <polygon points="6.673333333333333,17.897858344878397 6.336666666666667,18.480982116759918 5.663333333333334,18.480982116759918 5.326666666666667,17.897858344878397 5.663333333333333,17.314734572996876 6.336666666666666,17.314734572996876 6.673333333333333,17.897858344878397" fill="#0288" stroke="black" stroke-width="0.01"/>
    <text x="6.0" y="17.897858344878397" fill="black" font-size="0.14285714285714285" font-family="Arial" text-anchor="middle" dominant-baseline="middle">Dedigama</text>
  </g>
  <g>
    <polygon points="6.673333333333333,16.743157806499145 6.336666666666667,17.326281578380666 5.663333333333334,17.326281578380666 5.326666666666667,16.743157806499145 5.663333333333333,16.160034034617624 6.336666666666666,16.160034034617624 6.673333333333333,16.743157806499145" fill="#0288" stroke="black" stroke-width="0.01"/>
    <text x="6.0" y="16.743157806499145" fill="black" font-size="0.14285714285714285" font-family="Arial" text-anchor="middle" dominant-baseline="middle">Galigamuwa</text>
  </g>
  <g>
    <polygon points="7.673333333333333,18.475208614068023 7.336666666666667,19.058332385949544 6.663333333333334,19.058332385949544 6.326666666666667,18.475208614068023 6.663333333333333,17.892084842186502 7.336666666666666,17.892084842186502 7.673333333333333,18.475208614068023" fill="#0288" stroke="black" stroke-width="0.01"/>
    <text x="7.0" y="18.475208614068023" fill="black" font-size="0.14285714285714285" font-family="Arial" text-anchor="middle" dominant-baseline="middle">Kegalle</text>
  </g>
  <g>
    <polygon points="7.673333333333333,16.16580753730952 7.336666666666667,16.74893130919104 6.663333333333334,16.74893130919104 6.326666666666667,16.16580753730952 6.663333333333333,15.582683765427998 7.336666666666666,15.582683765427996 7.673333333333333,16.16580753730952" fill="#0288" stroke="black" stroke-width="0.01"/>
    <text x="7.0" y="16.16580753730952" fill="black" font-size="0.14285714285714285" font-family="Arial" text-anchor="middle" dominant-baseline="middle">Rambukkana</text>
  </g>
  <g>
    <polygon points="8.673333333333334,19.05255888325765 8.336666666666666,19.63568265513917 7.663333333333334,19.63568265513917 7.326666666666667,19.05255888325765 7.663333333333333,18.46943511137613 8.336666666666666,18.46943511137613 8.673333333333334,19.05255888325765" fill="#0829" stroke="black" stroke-width="0.01"/>
    <text x="8.0" y="19.05255888325765" fill="black" font-size="0.14285714285714285" font-family="Arial" text-anchor="middle" dominant-baseline="middle">Mawanella</text>
  </g>
  <g>
    <polygon points="7.673333333333333,19.629909152447276 7.336666666666667,20.213032924328797 6.663333333333334,20.213032924328797 6.326666666666667,19.629909152447276 6.663333333333333,19.046785380565755 7.336666666666666,19.046785380565755 7.673333333333333,19.629909152447276" fill="#0288" stroke="black" stroke-width="0.01"/>
    <text x="7.0" y="19.629909152447276" fill="black" font-size="0.14285714285714285" font-family="Arial" text-anchor="middle" dominant-baseline="middle">Yatiyanthota</text>
  </g>
  <g>
    <polygon points="6.673333333333333,19.05255888325765 6.336666666666667,19.63568265513917 5.663333333333334,19.63568265513917 5.326666666666667,19.05255888325765 5.663333333333333,18.46943511137613 6.336666666666666,18.46943511137613 6.673333333333333,19.05255888325765" fill="#0288" stroke="black" stroke-width="0.01"/>
    <text x="6.0" y="19.05255888325765" fill="black" font-size="0.14285714285714285" font-family="Arial" text-anchor="middle" dominant-baseline="middle">Ruwanwella</text>
  </g>
  <g>
    <polygon points="8.673333333333334,21.36195996001615 8.336666666666666,21.94508373189767 7.663333333333334,21.94508373189767 7.326666666666667,21.36195996001615 7.663333333333333,20.77883618813463 8.336666666666666,20.77883618813463 8.673333333333334,21.36195996001615" fill="#0288" stroke="black" stroke-width="0.01"/>
    <text x="8.0" y="21.36195996001615" fill="black" font-size="0.14285714285714285" font-family="Arial" text-anchor="middle" dominant-baseline="middle">Deraniyagala</text>
  </g>
  <g>
    <polygon points="0.6633333333333331,19.046785380565755 0.3299999999999993,19.62413564975538 -0.3366666666666669,19.62413564975538 -0.6733333333333332,20.207259421636902 -0.3400000000000002,20.784609690826525 -0.6733333333333332,21.36195996001615 -0.33666666666666645,21.94508373189767 0.3299999999999993,21.94508373189767 0.6600000000000008,22.516660498395403 0.32666666666666677,23.09401076758503 0.6633333333333336,23.67713453946655 1.3366666666666667,23.67713453946655 1.6700000000000008,23.099784270276924 2.336666666666667,23.099784270276924 2.670000000000001,22.522434001087298 3.329999999999999,22.522434001087298 3.6633333333333336,23.099784270276924 4.336666666666667,23.099784270276924 4.670000000000001,22.522434001087298 5.336666666666667,22.522434001087298 5.670000000000001,21.94508373189767 6.336666666666667,21.94508373189767 6.673333333333333,21.36195996001615 6.336666666666666,20.77883618813463 5.663333333333333,20.77883618813463 5.329999999999999,21.356186457324256 4.670000000000001,21.356186457324256 4.336666666666666,20.77883618813463 3.670000000000001,20.77883618813463 3.336666666666666,20.201485918945004 2.663333333333333,20.201485918945004 2.329999999999999,20.77883618813463 1.6700000000000008,20.77883618813463 1.34,20.207259421636902 1.6733333333333333,19.629909152447276 1.3366666666666662,19.046785380565755 0.6633333333333331,19.046785380565755" fill="None" stroke="white" stroke-width="0.05"/>
  </g>
  <g>
    <polygon points="1.3266666666666667,16.743157806499145 1.6633333333333336,17.326281578380666 2.329999999999999,17.326281578380666 2.660000000000001,17.897858344878397 2.329999999999999,18.46943511137613 1.663333333333333,18.46943511137613 1.3266666666666667,19.05255888325765 1.6633333333333336,19.63568265513917 2.329999999999999,19.63568265513917 2.6633333333333336,20.213032924328797 3.329999999999999,20.213032924328797 3.6633333333333336,20.790383193518423 4.336666666666667,20.790383193518423 4.670000000000001,20.213032924328797 5.329999999999999,20.213032924328797 5.663333333333334,20.790383193518423 6.336666666666667,20.790383193518423 6.673333333333333,20.207259421636902 6.336666666666666,19.62413564975538 5.670000000000001,19.62413564975538 5.339999999999999,19.05255888325765 5.673333333333333,18.475208614068023 5.339999999999999,17.897858344878397 5.673333333333333,17.32050807568877 5.336666666666666,16.73738430380725 4.670000000000001,16.73738430380725 4.336666666666666,16.160034034617624 3.663333333333333,16.160034034617624 3.329999999999999,16.73738430380725 2.670000000000001,16.73738430380725 2.336666666666666,16.160034034617624 1.663333333333333,16.160034034617624 1.3266666666666667,16.743157806499145" fill="None" stroke="white" stroke-width="0.05"/>
  </g>
  <g/>
  <g>
    <polygon points="7.326666666666667,15.588457268119894 7.66,16.16580753730952 7.326666666666667,16.743157806499145 7.663333333333334,17.326281578380666 8.329999999999998,17.326281578380666 8.660000000000002,17.897858344878397 8.326666666666666,18.475208614068023 8.660000000000002,19.05255888325765 8.329999999999998,19.62413564975538 7.663333333333333,19.62413564975538 7.326666666666667,20.207259421636902 7.663333333333334,20.790383193518423 8.336666666666666,20.790383193518423 8.670000000000002,20.213032924328797 9.336666666666666,20.213032924328797 9.670000000000002,19.63568265513917 10.336666666666666,19.63568265513917 10.670000000000002,19.058332385949544 11.336666666666666,19.058332385949544 11.673333333333334,18.475208614068023 11.339999999999998,17.897858344878397 11.673333333333334,17.32050807568877 11.336666666666666,16.73738430380725 10.670000000000002,16.73738430380725 10.336666666666666,16.160034034617624 9.670000000000002,16.160034034617624 9.336666666666666,15.582683765427996 8.67,15.582683765427998 8.336666666666666,15.005333496238372 7.663333333333333,15.005333496238372 7.326666666666667,15.588457268119894" fill="None" stroke="white" stroke-width="0.05"/>
  </g>
  <g>
    <polygon points="9.673333333333334,12.701705922171765 9.336666666666666,12.118582150290242 8.663333333333334,12.118582150290244 8.326666666666666,12.701705922171765 8.66,13.279056191361391 8.326666666666666,13.856406460551018 8.66,14.433756729740642 8.326666666666666,15.011106998930268 8.663333333333334,15.59423077081179 9.336666666666666,15.59423077081179 9.673333333333334,15.011106998930268 9.34,14.433756729740642 9.673333333333334,13.856406460551018 9.34,13.279056191361391 9.673333333333334,12.701705922171765" fill="None" stroke="white" stroke-width="0.05"/>
  </g>
  <g>
    <polygon points="11.673333333333334,19.629909152447276 11.336666666666666,19.046785380565755 10.663333333333334,19.046785380565755 10.329999999999998,19.62413564975538 9.663333333333334,19.62413564975538 9.33,20.201485918945004 8.663333333333334,20.201485918945004 8.326666666666666,20.784609690826525 8.660000000000002,21.36195996001615 8.326666666666666,21.939310229205777 8.663333333333334,22.522434001087298 9.336666666666666,22.522434001087298 9.673333333333334,21.939310229205777 9.339999999999998,21.36195996001615 9.67,20.790383193518423 10.336666666666666,20.790383193518423 10.670000000000002,20.213032924328797 11.336666666666666,20.213032924328797 11.673333333333334,19.629909152447276" fill="None" stroke="white" stroke-width="0.05"/>
  </g>
  <g>
    <polygon points="4.329999999999999,25.397638341651636 3.663333333333333,25.397638341651636 3.3266666666666667,25.980762113533157 3.660000000000001,26.558112382722783 3.3266666666666667,27.13546265191241 3.6633333333333336,27.71858642379393 4.329999999999999,27.71858642379393 4.663333333333334,28.295936692983556 5.329999999999999,28.295936692983556 5.663333333333334,28.873286962173182 6.336666666666667,28.873286962173182 6.673333333333333,28.29016319029166 6.339999999999999,27.712812921102035 6.670000000000001,27.141236154604304 7.336666666666667,27.141236154604304 7.673333333333333,26.558112382722783 7.339999999999999,25.980762113533157 7.673333333333333,25.40341184434353 7.336666666666666,24.82028807246201 6.663333333333333,24.82028807246201 6.329999999999999,25.397638341651636 5.670000000000001,25.397638341651636 5.336666666666666,24.82028807246201 4.663333333333333,24.82028807246201 4.329999999999999,25.397638341651636" fill="None" stroke="white" stroke-width="0.05"/>
  </g>
  <g>
    <polygon points="8.336666666666666,24.242937803272387 7.663333333333333,24.242937803272387 7.326666666666667,24.826061575153908 7.66,25.40341184434353 7.326666666666667,25.980762113533157 7.660000000000001,26.558112382722783 7.329999999999999,27.129689149220514 6.663333333333333,27.129689149220514 6.326666666666667,27.712812921102035 6.663333333333334,28.295936692983556 7.329999999999999,28.295936692983556 7.663333333333334,28.873286962173182 8.336666666666666,28.873286962173182 8.670000000000002,28.295936692983556 9.336666666666666,28.295936692983556 9.673333333333334,27.712812921102035 9.336666666666666,27.129689149220514 8.670000000000002,27.129689149220514 8.339999999999998,26.558112382722783 8.673333333333334,25.980762113533157 8.34,25.403411844343534 8.673333333333334,24.826061575153908 8.336666666666666,24.242937803272387" fill="None" stroke="white" stroke-width="0.05"/>
  </g>
  <g/>
  <g/>
  <g/>
  <g/>
  <g/>
  <g>
    <polygon points="10.673333333333334,8.660254037844386 10.336666666666666,8.077130265962863 9.663333333333334,8.077130265962865 9.326666666666666,8.660254037844386 9.66,9.237604307034012 9.326666666666666,9.814954576223638 9.663333333333334,10.39807834810516 10.33,10.398078348105159 10.663333333333334,10.975428617294785 11.336666666666666,10.975428617294785 11.673333333333334,10.392304845413262 11.336666666666666,9.80918107353174 10.67,9.80918107353174 10.34,9.23760430703401 10.673333333333334,8.660254037844386" fill="None" stroke="white" stroke-width="0.05"/>
  </g>
  <g>
    <polygon points="6.336666666666666,11.541231881100618 5.663333333333333,11.541231881100618 5.330000000000002,12.118582150290242 4.663333333333333,12.118582150290244 4.326666666666667,12.701705922171765 4.66,13.279056191361391 4.330000000000001,13.850632957859121 3.663333333333333,13.850632957859123 3.3266666666666667,14.433756729740644 3.6599999999999993,15.011106998930268 3.3266666666666667,15.588457268119894 3.6633333333333336,16.171581040001417 4.330000000000002,16.171581040001417 4.663333333333334,16.74893130919104 5.336666666666667,16.74893130919104 5.669999999999998,16.171581040001417 6.336666666666667,16.171581040001417 6.669999999999999,15.59423077081179 7.336666666666667,15.59423077081179 7.669999999999998,15.016880501622166 8.336666666666666,15.016880501622165 8.673333333333334,14.433756729740644 8.336666666666666,13.850632957859121 7.670000000000001,13.850632957859123 7.34,13.279056191361391 7.673333333333333,12.701705922171765 7.336666666666666,12.118582150290242 6.669999999999999,12.118582150290244 6.336666666666666,11.541231881100618" fill="None" stroke="white" stroke-width="0.05"/>
  </g>
  <g/>
  <g/>
  <g/>
  <g/>
  <g/>
  <g>
    <polygon points="6.663333333333333,21.356186457324256 6.326666666666667,21.939310229205777 6.660000000000001,22.516660498395403 6.326666666666667,23.09401076758503 6.663333333333334,23.67713453946655 7.329999999999999,23.67713453946655 7.663333333333334,24.254484808656176 8.329999999999998,24.254484808656176 8.663333333333334,24.831835077845803 9.336666666666666,24.831835077845803 9.670000000000002,24.254484808656176 10.336666666666666,24.254484808656176 10.673333333333334,23.671361036774655 10.336666666666666,23.088237264893134 9.670000000000002,23.088237264893134 9.336666666666666,22.51088699570351 8.670000000000002,22.51088699570351 8.336666666666666,21.933536726513882 7.670000000000001,21.933536726513882 7.336666666666666,21.356186457324256 6.663333333333333,21.356186457324256" fill="None" stroke="white" stroke-width="0.05"/>
  </g>
  <g/>
</svg>
