<?xml version="1.0" ?>
<svg xmlns="http://www.w3.org/2000/svg" height="500" width="300" viewBox="-2.0 -29.13546265191241 19.0 32.29016319029166">
  <rect x="-2.0" y="-29.13546265191241" width="19.0" height="32.29016319029166" fill="#8881"/>
  <g>
    <polygon points="1.6733333333333333,-7.505553499465134 1.3366666666666667,-6.922429727583612 0.6633333333333336,-6.922429727583612 0.32666666666666677,-7.505553499465134 0.6633333333333331,-8.088677271346656 1.3366666666666662,-8.088677271346656 1.6733333333333333,-7.505553499465134" fill="#082c" stroke="black" stroke-width="0.01"/>
    <text x="1.0" y="-7.505553499465134" fill="black" font-size="0.14285714285714285" font-family="Arial" text-anchor="middle" dominant-baseline="middle">Colombo North</text>
  </g>
  <g>
    <polygon points="0.6733333333333332,-6.928203230275509 0.33666666666666667,-6.345079458393987 -0.33666666666666645,-6.345079458393987 -0.6733333333333332,-6.928203230275509 -0.3366666666666669,-7.511327002157031 0.33666666666666617,-7.511327002157031 0.6733333333333332,-6.928203230275509" fill="#082d" stroke="black" stroke-width="0.01"/>
    <text x="0.0" y="-6.928203230275509" fill="black" font-size="0.14285714285714285" font-family="Arial" text-anchor="middle" dominant-baseline="middle">Colombo Central</text>
  </g>
  <g>
    <polygon points="2.6733333333333333,-6.928203230275509 2.336666666666667,-6.345079458393987 1.6633333333333336,-6.345079458393987 1.3266666666666667,-6.928203230275509 1.663333333333333,-7.511327002157031 2.336666666666666,-7.511327002157031 2.6733333333333333,-6.928203230275509" fill="#082a" stroke="black" stroke-width="0.01"/>
    <text x="2.0" y="-6.928203230275509" fill="black" font-size="0.14285714285714285" font-family="Arial" text-anchor="middle" dominant-baseline="middle">Borella</text>
  </g>
  <g>
    <polygon points="2.6733333333333333,-5.773502691896257 2.336666666666667,-5.190378920014735 1.6633333333333336,-5.190378920014735 1.3266666666666667,-5.773502691896257 1.663333333333333,-6.356626463777779 2.336666666666666,-6.356626463777779 2.6733333333333333,-5.773502691896257" fill="#082a" stroke="black" stroke-width="0.01"/>
    <text x="2.0" y="-5.773502691896257" fill="black" font-size="0.14285714285714285" font-family="Arial" text-anchor="middle" dominant-baseline="middle">Colombo East</text>
  </g>
  <g>
    <polygon points="0.6733333333333332,-5.773502691896257 0.33666666666666667,-5.190378920014735 -0.33666666666666645,-5.190378920014735 -0.6733333333333332,-5.773502691896257 -0.3366666666666669,-6.356626463777779 0.33666666666666617,-6.356626463777779 0.6733333333333332,-5.773502691896257" fill="#082c" stroke="black" stroke-width="0.01"/>
    <text x="0.0" y="-5.773502691896257" fill="black" font-size="0.14285714285714285" font-family="Arial" text-anchor="middle" dominant-baseline="middle">Colombo West</text>
  </g>
  <g>
    <polygon points="1.6733333333333333,-5.196152422706631 1.3366666666666667,-4.613028650825109 0.6633333333333336,-4.613028650825109 0.32666666666666677,-5.196152422706631 0.6633333333333331,-5.779276194588153 1.3366666666666662,-5.779276194588153 1.6733333333333333,-5.196152422706631" fill="#082a" stroke="black" stroke-width="0.01"/>
    <text x="1.0" y="-5.196152422706631" fill="black" font-size="0.14285714285714285" font-family="Arial" text-anchor="middle" dominant-baseline="middle">Dehiwala</text>
  </g>
  <g>
    <polygon points="1.6733333333333333,-4.04145188432738 1.3366666666666667,-3.458328112445858 0.6633333333333336,-3.458328112445858 0.32666666666666677,-4.04145188432738 0.6633333333333331,-4.6245756562089015 1.3366666666666662,-4.6245756562089015 1.6733333333333333,-4.04145188432738" fill="#0828" stroke="black" stroke-width="0.01"/>
    <text x="1.0" y="-4.04145188432738" fill="black" font-size="0.14285714285714285" font-family="Arial" text-anchor="middle" dominant-baseline="middle">Ratmalana</text>
  </g>
  <g>
    <polygon points="3.6733333333333333,-6.350852961085883 3.336666666666667,-5.767729189204361 2.6633333333333336,-5.767729189204361 2.3266666666666667,-6.350852961085883 2.663333333333333,-6.9339767329674045 3.336666666666666,-6.9339767329674045 3.6733333333333333,-6.350852961085883" fill="#0829" stroke="black" stroke-width="0.01"/>
    <text x="3.0" y="-6.350852961085883" fill="black" font-size="0.14285714285714285" font-family="Arial" text-anchor="middle" dominant-baseline="middle">Kolonnawa</text>
  </g>
  <g>
    <polygon points="3.6733333333333333,-5.196152422706631 3.336666666666667,-4.613028650825109 2.6633333333333336,-4.613028650825109 2.3266666666666667,-5.196152422706631 2.663333333333333,-5.779276194588153 3.336666666666666,-5.779276194588153 3.6733333333333333,-5.196152422706631" fill="#0829" stroke="black" stroke-width="0.01"/>
    <text x="3.0" y="-5.196152422706631" fill="black" font-size="0.14285714285714285" font-family="Arial" text-anchor="middle" dominant-baseline="middle">Kotte</text>
  </g>
  <g>
    <polygon points="4.673333333333333,-5.773502691896257 4.336666666666667,-5.190378920014735 3.6633333333333336,-5.190378920014735 3.3266666666666667,-5.773502691896257 3.663333333333333,-6.356626463777779 4.336666666666666,-6.356626463777779 4.673333333333333,-5.773502691896257" fill="#0288" stroke="black" stroke-width="0.01"/>
    <text x="4.0" y="-5.773502691896257" fill="black" font-size="0.14285714285714285" font-family="Arial" text-anchor="middle" dominant-baseline="middle">Kaduwela</text>
  </g>
  <g>
    <polygon points="6.673333333333333,-5.773502691896257 6.336666666666667,-5.190378920014735 5.663333333333334,-5.190378920014735 5.326666666666667,-5.773502691896257 5.663333333333333,-6.356626463777779 6.336666666666666,-6.356626463777779 6.673333333333333,-5.773502691896257" fill="#0288" stroke="black" stroke-width="0.01"/>
    <text x="6.0" y="-5.773502691896257" fill="black" font-size="0.14285714285714285" font-family="Arial" text-anchor="middle" dominant-baseline="middle">Avissawella</text>
  </g>
  <g>
    <polygon points="5.673333333333333,-5.196152422706631 5.336666666666667,-4.613028650825109 4.663333333333334,-4.613028650825109 4.326666666666667,-5.196152422706631 4.663333333333333,-5.779276194588153 5.336666666666666,-5.779276194588153 5.673333333333333,-5.196152422706631" fill="#0288" stroke="black" stroke-width="0.01"/>
    <text x="5.0" y="-5.196152422706631" fill="black" font-size="0.14285714285714285" font-family="Arial" text-anchor="middle" dominant-baseline="middle">Homagama</text>
  </g>
  <g>
    <polygon points="4.673333333333333,-5.773502691896257 4.336666666666667,-5.190378920014735 3.6633333333333336,-5.190378920014735 3.3266666666666667,-5.773502691896257 3.663333333333333,-6.356626463777779 4.336666666666666,-6.356626463777779 4.673333333333333,-5.773502691896257" fill="#0288" stroke="black" stroke-width="0.01"/>
    <text x="4.0" y="-5.773502691896257" fill="black" font-size="0.14285714285714285" font-family="Arial" text-anchor="middle" dominant-baseline="middle">Maharagama</text>
  </g>
  <g>
    <polygon points="4.673333333333333,-4.618802153517006 4.336666666666667,-4.035678381635484 3.6633333333333336,-4.035678381635484 3.3266666666666667,-4.618802153517006 3.663333333333333,-5.201925925398528 4.336666666666666,-5.201925925398528 4.673333333333333,-4.618802153517006" fill="#0288" stroke="black" stroke-width="0.01"/>
    <text x="4.0" y="-4.618802153517006" fill="black" font-size="0.14285714285714285" font-family="Arial" text-anchor="middle" dominant-baseline="middle">Kesbewa</text>
  </g>
  <g>
    <polygon points="1.6733333333333333,-4.04145188432738 1.3366666666666667,-3.458328112445858 0.6633333333333336,-3.458328112445858 0.32666666666666677,-4.04145188432738 0.6633333333333331,-4.6245756562089015 1.3366666666666662,-4.6245756562089015 1.6733333333333333,-4.04145188432738" fill="#0828" stroke="black" stroke-width="0.01"/>
    <text x="1.0" y="-4.04145188432738" fill="black" font-size="0.14285714285714285" font-family="Arial" text-anchor="middle" dominant-baseline="middle">Moratuwa</text>
  </g>
  <g>
    <polygon points="2.6733333333333333,-8.08290376865476 2.336666666666667,-7.4997799967732375 1.6633333333333336,-7.4997799967732375 1.3266666666666667,-8.08290376865476 1.663333333333333,-8.66602754053628 2.336666666666666,-8.666027540536282 2.6733333333333333,-8.08290376865476" fill="#0829" stroke="black" stroke-width="0.01"/>
    <text x="2.0" y="-8.08290376865476" fill="black" font-size="0.14285714285714285" font-family="Arial" text-anchor="middle" dominant-baseline="middle">Wattala</text>
  </g>
  <g>
    <polygon points="2.6733333333333333,-10.392304845413262 2.336666666666667,-9.80918107353174 1.6633333333333336,-9.80918107353174 1.3266666666666667,-10.392304845413262 1.663333333333333,-10.975428617294785 2.336666666666666,-10.975428617294785 2.6733333333333333,-10.392304845413262" fill="#082a" stroke="black" stroke-width="0.01"/>
    <text x="2.0" y="-10.392304845413262" fill="black" font-size="0.14285714285714285" font-family="Arial" text-anchor="middle" dominant-baseline="middle">Negombo</text>
  </g>
  <g>
    <polygon points="3.6733333333333333,-9.814954576223638 3.336666666666667,-9.231830804342117 2.6633333333333336,-9.231830804342115 2.3266666666666667,-9.814954576223638 2.663333333333333,-10.398078348105159 3.336666666666666,-10.39807834810516 3.6733333333333333,-9.814954576223638" fill="#0828" stroke="black" stroke-width="0.01"/>
    <text x="3.0" y="-9.814954576223638" fill="black" font-size="0.14285714285714285" font-family="Arial" text-anchor="middle" dominant-baseline="middle">Katana</text>
  </g>
  <g>
    <polygon points="4.673333333333333,-10.392304845413262 4.336666666666667,-9.80918107353174 3.6633333333333336,-9.80918107353174 3.3266666666666667,-10.392304845413262 3.663333333333333,-10.975428617294785 4.336666666666666,-10.975428617294785 4.673333333333333,-10.392304845413262" fill="#0288" stroke="black" stroke-width="0.01"/>
    <text x="4.0" y="-10.392304845413262" fill="black" font-size="0.14285714285714285" font-family="Arial" text-anchor="middle" dominant-baseline="middle">Divulapitiya</text>
  </g>
  <g>
    <polygon points="5.673333333333333,-9.814954576223638 5.336666666666667,-9.231830804342117 4.663333333333334,-9.231830804342115 4.326666666666667,-9.814954576223638 4.663333333333333,-10.398078348105159 5.336666666666666,-10.39807834810516 5.673333333333333,-9.814954576223638" fill="#0288" stroke="black" stroke-width="0.01"/>
    <text x="5.0" y="-9.814954576223638" fill="black" font-size="0.14285714285714285" font-family="Arial" text-anchor="middle" dominant-baseline="middle">Mirigama</text>
  </g>
  <g>
    <polygon points="4.673333333333333,-9.237604307034012 4.336666666666667,-8.65448053515249 3.6633333333333336,-8.654480535152489 3.3266666666666667,-9.237604307034012 3.663333333333333,-9.820728078915533 4.336666666666666,-9.820728078915534 4.673333333333333,-9.237604307034012" fill="#0288" stroke="black" stroke-width="0.01"/>
    <text x="4.0" y="-9.237604307034012" fill="black" font-size="0.14285714285714285" font-family="Arial" text-anchor="middle" dominant-baseline="middle">Minuwangoda</text>
  </g>
  <g>
    <polygon points="5.673333333333333,-8.660254037844386 5.336666666666667,-8.077130265962865 4.663333333333334,-8.077130265962863 4.326666666666667,-8.660254037844386 4.663333333333333,-9.243377809725907 5.336666666666666,-9.243377809725908 5.673333333333333,-8.660254037844386" fill="#0288" stroke="black" stroke-width="0.01"/>
    <text x="5.0" y="-8.660254037844386" fill="black" font-size="0.14285714285714285" font-family="Arial" text-anchor="middle" dominant-baseline="middle">Attanagalla</text>
  </g>
  <g>
    <polygon points="4.673333333333333,-8.08290376865476 4.336666666666667,-7.4997799967732375 3.6633333333333336,-7.4997799967732375 3.3266666666666667,-8.08290376865476 3.663333333333333,-8.66602754053628 4.336666666666666,-8.666027540536282 4.673333333333333,-8.08290376865476" fill="#0288" stroke="black" stroke-width="0.01"/>
    <text x="4.0" y="-8.08290376865476" fill="black" font-size="0.14285714285714285" font-family="Arial" text-anchor="middle" dominant-baseline="middle">Gampaha</text>
  </g>
  <g>
    <polygon points="3.6733333333333333,-8.660254037844386 3.336666666666667,-8.077130265962865 2.6633333333333336,-8.077130265962863 2.3266666666666667,-8.660254037844386 2.663333333333333,-9.243377809725907 3.336666666666666,-9.243377809725908 3.6733333333333333,-8.660254037844386" fill="#0828" stroke="black" stroke-width="0.01"/>
    <text x="3.0" y="-8.660254037844386" fill="black" font-size="0.14285714285714285" font-family="Arial" text-anchor="middle" dominant-baseline="middle">Ja Ela</text>
  </g>
  <g>
    <polygon points="5.673333333333333,-7.505553499465134 5.336666666666667,-6.922429727583612 4.663333333333334,-6.922429727583612 4.326666666666667,-7.505553499465134 4.663333333333333,-8.088677271346656 5.336666666666666,-8.088677271346656 5.673333333333333,-7.505553499465134" fill="#0288" stroke="black" stroke-width="0.01"/>
    <text x="5.0" y="-7.505553499465134" fill="black" font-size="0.14285714285714285" font-family="Arial" text-anchor="middle" dominant-baseline="middle">Mahara</text>
  </g>
  <g>
    <polygon points="6.673333333333333,-6.928203230275509 6.336666666666667,-6.345079458393987 5.663333333333334,-6.345079458393987 5.326666666666667,-6.928203230275509 5.663333333333333,-7.511327002157031 6.336666666666666,-7.511327002157031 6.673333333333333,-6.928203230275509" fill="#0289" stroke="black" stroke-width="0.01"/>
    <text x="6.0" y="-6.928203230275509" fill="black" font-size="0.14285714285714285" font-family="Arial" text-anchor="middle" dominant-baseline="middle">Dompe</text>
  </g>
  <g>
    <polygon points="4.673333333333333,-6.928203230275509 4.336666666666667,-6.345079458393987 3.6633333333333336,-6.345079458393987 3.3266666666666667,-6.928203230275509 3.663333333333333,-7.511327002157031 4.336666666666666,-7.511327002157031 4.673333333333333,-6.928203230275509" fill="#0288" stroke="black" stroke-width="0.01"/>
    <text x="4.0" y="-6.928203230275509" fill="black" font-size="0.14285714285714285" font-family="Arial" text-anchor="middle" dominant-baseline="middle">Biyagama</text>
  </g>
  <g>
    <polygon points="3.6733333333333333,-7.505553499465134 3.336666666666667,-6.922429727583612 2.6633333333333336,-6.922429727583612 2.3266666666666667,-7.505553499465134 2.663333333333333,-8.088677271346656 3.336666666666666,-8.088677271346656 3.6733333333333333,-7.505553499465134" fill="#0828" stroke="black" stroke-width="0.01"/>
    <text x="3.0" y="-7.505553499465134" fill="black" font-size="0.14285714285714285" font-family="Arial" text-anchor="middle" dominant-baseline="middle">Kelaniya</text>
  </g>
  <g>
    <polygon points="2.6733333333333333,-3.4641016151377544 2.336666666666667,-2.8809778432562325 1.6633333333333336,-2.8809778432562325 1.3266666666666667,-3.4641016151377544 1.663333333333333,-4.047225387019276 2.336666666666666,-4.047225387019276 2.6733333333333333,-3.4641016151377544" fill="#0828" stroke="black" stroke-width="0.01"/>
    <text x="2.0" y="-3.4641016151377544" fill="black" font-size="0.14285714285714285" font-family="Arial" text-anchor="middle" dominant-baseline="middle">Panadura</text>
  </g>
  <g>
    <polygon points="4.673333333333333,-3.4641016151377544 4.336666666666667,-2.8809778432562325 3.6633333333333336,-2.8809778432562325 3.3266666666666667,-3.4641016151377544 3.663333333333333,-4.047225387019276 4.336666666666666,-4.047225387019276 4.673333333333333,-3.4641016151377544" fill="#0288" stroke="black" stroke-width="0.01"/>
    <text x="4.0" y="-3.4641016151377544" fill="black" font-size="0.14285714285714285" font-family="Arial" text-anchor="middle" dominant-baseline="middle">Bandaragama</text>
  </g>
  <g>
    <polygon points="6.673333333333333,-4.618802153517006 6.336666666666667,-4.035678381635484 5.663333333333334,-4.035678381635484 5.326666666666667,-4.618802153517006 5.663333333333333,-5.201925925398528 6.336666666666666,-5.201925925398528 6.673333333333333,-4.618802153517006" fill="#0289" stroke="black" stroke-width="0.01"/>
    <text x="6.0" y="-4.618802153517006" fill="black" font-size="0.14285714285714285" font-family="Arial" text-anchor="middle" dominant-baseline="middle">Horana</text>
  </g>
  <g>
    <polygon points="6.673333333333333,-3.4641016151377544 6.336666666666667,-2.8809778432562325 5.663333333333334,-2.8809778432562325 5.326666666666667,-3.4641016151377544 5.663333333333333,-4.047225387019276 6.336666666666666,-4.047225387019276 6.673333333333333,-3.4641016151377544" fill="#0288" stroke="black" stroke-width="0.01"/>
    <text x="6.0" y="-3.4641016151377544" fill="black" font-size="0.14285714285714285" font-family="Arial" text-anchor="middle" dominant-baseline="middle">Bulathsinhala</text>
  </g>
  <g>
    <polygon points="5.673333333333333,-2.8867513459481287 5.336666666666667,-2.303627574066607 4.663333333333334,-2.303627574066607 4.326666666666667,-2.8867513459481287 4.663333333333333,-3.4698751178296505 5.336666666666666,-3.469875117829651 5.673333333333333,-2.8867513459481287" fill="#0288" stroke="black" stroke-width="0.01"/>
    <text x="5.0" y="-2.8867513459481287" fill="black" font-size="0.14285714285714285" font-family="Arial" text-anchor="middle" dominant-baseline="middle">Mathugama</text>
  </g>
  <g>
    <polygon points="4.673333333333333,-3.4641016151377544 4.336666666666667,-2.8809778432562325 3.6633333333333336,-2.8809778432562325 3.3266666666666667,-3.4641016151377544 3.663333333333333,-4.047225387019276 4.336666666666666,-4.047225387019276 4.673333333333333,-3.4641016151377544" fill="#0288" stroke="black" stroke-width="0.01"/>
    <text x="4.0" y="-3.4641016151377544" fill="black" font-size="0.14285714285714285" font-family="Arial" text-anchor="middle" dominant-baseline="middle">Kalutara</text>
  </g>
  <g>
    <polygon points="4.673333333333333,-2.309401076758503 4.336666666666667,-1.726277304876981 3.6633333333333336,-1.726277304876981 3.3266666666666667,-2.309401076758503 3.663333333333333,-2.892524848640025 4.336666666666666,-2.8925248486400252 4.673333333333333,-2.309401076758503" fill="#0829" stroke="black" stroke-width="0.01"/>
    <text x="4.0" y="-2.309401076758503" fill="black" font-size="0.14285714285714285" font-family="Arial" text-anchor="middle" dominant-baseline="middle">Beruwala</text>
  </g>
  <g>
    <polygon points="7.673333333333333,-2.8867513459481287 7.336666666666667,-2.303627574066607 6.663333333333334,-2.303627574066607 6.326666666666667,-2.8867513459481287 6.663333333333333,-3.4698751178296505 7.336666666666666,-3.469875117829651 7.673333333333333,-2.8867513459481287" fill="#0288" stroke="black" stroke-width="0.01"/>
    <text x="7.0" y="-2.8867513459481287" fill="black" font-size="0.14285714285714285" font-family="Arial" text-anchor="middle" dominant-baseline="middle">Agalawatta</text>
  </g>
  <g>
    <polygon points="7.673333333333333,-10.969655114602888 7.336666666666667,-10.386531342721366 6.663333333333334,-10.386531342721366 6.326666666666667,-10.969655114602888 6.663333333333333,-11.552778886484411 7.336666666666666,-11.552778886484411 7.673333333333333,-10.969655114602888" fill="#0288" stroke="black" stroke-width="0.01"/>
    <text x="7.0" y="-10.969655114602888" fill="black" font-size="0.14285714285714285" font-family="Arial" text-anchor="middle" dominant-baseline="middle">Galagedara</text>
  </g>
  <g>
    <polygon points="8.673333333333334,-11.547005383792515 8.336666666666666,-10.963881611910992 7.663333333333334,-10.963881611910992 7.326666666666667,-11.547005383792515 7.663333333333333,-12.130129155674037 8.336666666666666,-12.130129155674037 8.673333333333334,-11.547005383792515" fill="#0829" stroke="black" stroke-width="0.01"/>
    <text x="8.0" y="-11.547005383792515" fill="black" font-size="0.14285714285714285" font-family="Arial" text-anchor="middle" dominant-baseline="middle">Harispattuwa</text>
  </g>
  <g>
    <polygon points="10.673333333333334,-11.547005383792515 10.336666666666666,-10.963881611910992 9.663333333333334,-10.963881611910992 9.326666666666666,-11.547005383792515 9.663333333333334,-12.130129155674037 10.336666666666666,-12.130129155674037 10.673333333333334,-11.547005383792515" fill="#0829" stroke="black" stroke-width="0.01"/>
    <text x="10.0" y="-11.547005383792515" fill="black" font-size="0.14285714285714285" font-family="Arial" text-anchor="middle" dominant-baseline="middle">Pathadumbara</text>
  </g>
  <g>
    <polygon points="11.673333333333334,-10.969655114602888 11.336666666666666,-10.386531342721366 10.663333333333334,-10.386531342721366 10.326666666666666,-10.969655114602888 10.663333333333334,-11.552778886484411 11.336666666666666,-11.552778886484411 11.673333333333334,-10.969655114602888" fill="#0289" stroke="black" stroke-width="0.01"/>
    <text x="11.0" y="-10.969655114602888" fill="black" font-size="0.14285714285714285" font-family="Arial" text-anchor="middle" dominant-baseline="middle">Ududumbara</text>
  </g>
  <g>
    <polygon points="11.673333333333334,-9.814954576223638 11.336666666666666,-9.231830804342117 10.663333333333334,-9.231830804342115 10.326666666666666,-9.814954576223638 10.663333333333334,-10.398078348105159 11.336666666666666,-10.39807834810516 11.673333333333334,-9.814954576223638" fill="#0827" stroke="black" stroke-width="0.01"/>
    <text x="11.0" y="-9.814954576223638" fill="black" font-size="0.14285714285714285" font-family="Arial" text-anchor="middle" dominant-baseline="middle">Teldeniya</text>
  </g>
  <g>
    <polygon points="10.673333333333334,-10.392304845413262 10.336666666666666,-9.80918107353174 9.663333333333334,-9.80918107353174 9.326666666666666,-10.392304845413262 9.663333333333334,-10.975428617294785 10.336666666666666,-10.975428617294785 10.673333333333334,-10.392304845413262" fill="#0828" stroke="black" stroke-width="0.01"/>
    <text x="10.0" y="-10.392304845413262" fill="black" font-size="0.14285714285714285" font-family="Arial" text-anchor="middle" dominant-baseline="middle">Kundasale</text>
  </g>
  <g>
    <polygon points="10.673333333333334,-8.08290376865476 10.336666666666666,-7.4997799967732375 9.663333333333334,-7.4997799967732375 9.326666666666666,-8.08290376865476 9.663333333333334,-8.66602754053628 10.336666666666666,-8.666027540536282 10.673333333333334,-8.08290376865476" fill="#0828" stroke="black" stroke-width="0.01"/>
    <text x="10.0" y="-8.08290376865476" fill="black" font-size="0.14285714285714285" font-family="Arial" text-anchor="middle" dominant-baseline="middle">Hewaheta</text>
  </g>
  <g>
    <polygon points="10.673333333333334,-9.237604307034012 10.336666666666666,-8.65448053515249 9.663333333333334,-8.654480535152489 9.326666666666666,-9.237604307034012 9.663333333333334,-9.820728078915533 10.336666666666666,-9.820728078915534 10.673333333333334,-9.237604307034012" fill="#0829" stroke="black" stroke-width="0.01"/>
    <text x="10.0" y="-9.237604307034012" fill="black" font-size="0.14285714285714285" font-family="Arial" text-anchor="middle" dominant-baseline="middle">Senkadagala</text>
  </g>
  <g>
    <polygon points="9.673333333333334,-9.814954576223638 9.336666666666666,-9.231830804342117 8.663333333333334,-9.231830804342115 8.326666666666666,-9.814954576223638 8.663333333333334,-10.398078348105159 9.336666666666666,-10.39807834810516 9.673333333333334,-9.814954576223638" fill="#082a" stroke="black" stroke-width="0.01"/>
    <text x="9.0" y="-9.814954576223638" fill="black" font-size="0.14285714285714285" font-family="Arial" text-anchor="middle" dominant-baseline="middle">Mahanuwara</text>
  </g>
  <g>
    <polygon points="8.673333333333334,-10.392304845413262 8.336666666666666,-9.80918107353174 7.663333333333334,-9.80918107353174 7.326666666666667,-10.392304845413262 7.663333333333333,-10.975428617294785 8.336666666666666,-10.975428617294785 8.673333333333334,-10.392304845413262" fill="#0828" stroke="black" stroke-width="0.01"/>
    <text x="8.0" y="-10.392304845413262" fill="black" font-size="0.14285714285714285" font-family="Arial" text-anchor="middle" dominant-baseline="middle">Yatinuwara</text>
  </g>
  <g>
    <polygon points="8.673333333333334,-8.08290376865476 8.336666666666666,-7.4997799967732375 7.663333333333334,-7.4997799967732375 7.326666666666667,-8.08290376865476 7.663333333333333,-8.66602754053628 8.336666666666666,-8.666027540536282 8.673333333333334,-8.08290376865476" fill="#0829" stroke="black" stroke-width="0.01"/>
    <text x="8.0" y="-8.08290376865476" fill="black" font-size="0.14285714285714285" font-family="Arial" text-anchor="middle" dominant-baseline="middle">Udunuwara</text>
  </g>
  <g>
    <polygon points="9.673333333333334,-7.505553499465134 9.336666666666666,-6.922429727583612 8.663333333333334,-6.922429727583612 8.326666666666666,-7.505553499465134 8.663333333333334,-8.088677271346656 9.336666666666666,-8.088677271346656 9.673333333333334,-7.505553499465134" fill="#0829" stroke="black" stroke-width="0.01"/>
    <text x="9.0" y="-7.505553499465134" fill="black" font-size="0.14285714285714285" font-family="Arial" text-anchor="middle" dominant-baseline="middle">Gampola</text>
  </g>
  <g>
    <polygon points="8.673333333333334,-6.928203230275509 8.336666666666666,-6.345079458393987 7.663333333333334,-6.345079458393987 7.326666666666667,-6.928203230275509 7.663333333333333,-7.511327002157031 8.336666666666666,-7.511327002157031 8.673333333333334,-6.928203230275509" fill="#0828" stroke="black" stroke-width="0.01"/>
    <text x="8.0" y="-6.928203230275509" fill="black" font-size="0.14285714285714285" font-family="Arial" text-anchor="middle" dominant-baseline="middle">Nawalapitiya</text>
  </g>
  <g>
    <polygon points="8.673333333333334,-13.856406460551018 8.336666666666666,-13.273282688669497 7.663333333333334,-13.273282688669495 7.326666666666667,-13.856406460551018 7.663333333333333,-14.439530232432539 8.336666666666666,-14.43953023243254 8.673333333333334,-13.856406460551018" fill="#0289" stroke="black" stroke-width="0.01"/>
    <text x="8.0" y="-13.856406460551018" fill="black" font-size="0.14285714285714285" font-family="Arial" text-anchor="middle" dominant-baseline="middle">Dambulla</text>
  </g>
  <g>
    <polygon points="9.673333333333334,-13.279056191361391 9.336666666666666,-12.69593241947987 8.663333333333334,-12.695932419479869 8.326666666666666,-13.279056191361391 8.663333333333334,-13.862179963242912 9.336666666666666,-13.862179963242914 9.673333333333334,-13.279056191361391" fill="#0289" stroke="black" stroke-width="0.01"/>
    <text x="9.0" y="-13.279056191361391" fill="black" font-size="0.14285714285714285" font-family="Arial" text-anchor="middle" dominant-baseline="middle">Laggala</text>
  </g>
  <g>
    <polygon points="8.673333333333334,-12.701705922171765 8.336666666666666,-12.118582150290244 7.663333333333334,-12.118582150290242 7.326666666666667,-12.701705922171765 7.663333333333333,-13.284829694053286 8.336666666666666,-13.284829694053288 8.673333333333334,-12.701705922171765" fill="#0829" stroke="black" stroke-width="0.01"/>
    <text x="8.0" y="-12.701705922171765" fill="black" font-size="0.14285714285714285" font-family="Arial" text-anchor="middle" dominant-baseline="middle">Matale</text>
  </g>
  <g>
    <polygon points="9.673333333333334,-12.12435565298214 9.336666666666666,-11.541231881100618 8.663333333333334,-11.541231881100618 8.326666666666666,-12.12435565298214 8.663333333333334,-12.707479424863664 9.336666666666666,-12.707479424863664 9.673333333333334,-12.12435565298214" fill="#0828" stroke="black" stroke-width="0.01"/>
    <text x="9.0" y="-12.12435565298214" fill="black" font-size="0.14285714285714285" font-family="Arial" text-anchor="middle" dominant-baseline="middle">Rattota</text>
  </g>
  <g>
    <polygon points="9.673333333333334,-5.196152422706631 9.336666666666666,-4.613028650825109 8.663333333333334,-4.613028650825109 8.326666666666666,-5.196152422706631 8.663333333333334,-5.779276194588153 9.336666666666666,-5.779276194588153 9.673333333333334,-5.196152422706631" fill="#082b" stroke="black" stroke-width="0.01"/>
    <text x="9.0" y="-5.196152422706631" fill="black" font-size="0.14285714285714285" font-family="Arial" text-anchor="middle" dominant-baseline="middle">Nuwara Eliya Maskeliya</text>
  </g>
  <g>
    <polygon points="9.673333333333334,-6.350852961085883 9.336666666666666,-5.767729189204361 8.663333333333334,-5.767729189204361 8.326666666666666,-6.350852961085883 8.663333333333334,-6.9339767329674045 9.336666666666666,-6.9339767329674045 9.673333333333334,-6.350852961085883" fill="#0829" stroke="black" stroke-width="0.01"/>
    <text x="9.0" y="-6.350852961085883" fill="black" font-size="0.14285714285714285" font-family="Arial" text-anchor="middle" dominant-baseline="middle">Kothmale</text>
  </g>
  <g>
    <polygon points="10.673333333333334,-6.928203230275509 10.336666666666666,-6.345079458393987 9.663333333333334,-6.345079458393987 9.326666666666666,-6.928203230275509 9.663333333333334,-7.511327002157031 10.336666666666666,-7.511327002157031 10.673333333333334,-6.928203230275509" fill="#0288" stroke="black" stroke-width="0.01"/>
    <text x="10.0" y="-6.928203230275509" fill="black" font-size="0.14285714285714285" font-family="Arial" text-anchor="middle" dominant-baseline="middle">Hanguranketha</text>
  </g>
  <g>
    <polygon points="11.673333333333334,-7.505553499465134 11.336666666666666,-6.922429727583612 10.663333333333334,-6.922429727583612 10.326666666666666,-7.505553499465134 10.663333333333334,-8.088677271346656 11.336666666666666,-8.088677271346656 11.673333333333334,-7.505553499465134" fill="#0828" stroke="black" stroke-width="0.01"/>
    <text x="11.0" y="-7.505553499465134" fill="black" font-size="0.14285714285714285" font-family="Arial" text-anchor="middle" dominant-baseline="middle">Walapane</text>
  </g>
  <g>
    <polygon points="4.673333333333333,-1.1547005383792515 4.336666666666667,-0.5715767664977296 3.6633333333333336,-0.5715767664977295 3.3266666666666667,-1.1547005383792515 3.663333333333333,-1.7378243102607733 4.336666666666666,-1.7378243102607738 4.673333333333333,-1.1547005383792515" fill="#0289" stroke="black" stroke-width="0.01"/>
    <text x="4.0" y="-1.1547005383792515" fill="black" font-size="0.14285714285714285" font-family="Arial" text-anchor="middle" dominant-baseline="middle">Balapitiya</text>
  </g>
  <g>
    <polygon points="5.673333333333333,-0.5773502691896257 5.336666666666667,0.005773502691896137 4.663333333333334,0.005773502691896248 4.326666666666667,-0.5773502691896256 4.663333333333333,-1.1604740410711476 5.336666666666666,-1.160474041071148 5.673333333333333,-0.5773502691896257" fill="#0288" stroke="black" stroke-width="0.01"/>
    <text x="5.0" y="-0.5773502691896257" fill="black" font-size="0.14285714285714285" font-family="Arial" text-anchor="middle" dominant-baseline="middle">Ambalangoda</text>
  </g>
  <g>
    <polygon points="5.673333333333333,-1.7320508075688772 5.336666666666667,-1.1489270356873553 4.663333333333334,-1.1489270356873553 4.326666666666667,-1.7320508075688772 4.663333333333333,-2.315174579450399 5.336666666666666,-2.3151745794503995 5.673333333333333,-1.7320508075688772" fill="#028a" stroke="black" stroke-width="0.01"/>
    <text x="5.0" y="-1.7320508075688772" fill="black" font-size="0.14285714285714285" font-family="Arial" text-anchor="middle" dominant-baseline="middle">Karandeniya</text>
  </g>
  <g>
    <polygon points="5.673333333333333,-1.7320508075688772 5.336666666666667,-1.1489270356873553 4.663333333333334,-1.1489270356873553 4.326666666666667,-1.7320508075688772 4.663333333333333,-2.315174579450399 5.336666666666666,-2.3151745794503995 5.673333333333333,-1.7320508075688772" fill="#0289" stroke="black" stroke-width="0.01"/>
    <text x="5.0" y="-1.7320508075688772" fill="black" font-size="0.14285714285714285" font-family="Arial" text-anchor="middle" dominant-baseline="middle">Bentara Elpitiya</text>
  </g>
  <g>
    <polygon points="7.673333333333333,-1.7320508075688772 7.336666666666667,-1.1489270356873553 6.663333333333334,-1.1489270356873553 6.326666666666667,-1.7320508075688772 6.663333333333333,-2.315174579450399 7.336666666666666,-2.3151745794503995 7.673333333333333,-1.7320508075688772" fill="#0289" stroke="black" stroke-width="0.01"/>
    <text x="7.0" y="-1.7320508075688772" fill="black" font-size="0.14285714285714285" font-family="Arial" text-anchor="middle" dominant-baseline="middle">Hiniduma</text>
  </g>
  <g>
    <polygon points="7.673333333333333,-0.5773502691896257 7.336666666666667,0.005773502691896137 6.663333333333334,0.005773502691896248 6.326666666666667,-0.5773502691896256 6.663333333333333,-1.1604740410711476 7.336666666666666,-1.160474041071148 7.673333333333333,-0.5773502691896257" fill="#0289" stroke="black" stroke-width="0.01"/>
    <text x="7.0" y="-0.5773502691896257" fill="black" font-size="0.14285714285714285" font-family="Arial" text-anchor="middle" dominant-baseline="middle">Baddegama</text>
  </g>
  <g>
    <polygon points="4.673333333333333,0.0 4.336666666666667,0.5831237718815219 3.6633333333333336,0.583123771881522 3.3266666666666667,8.245955114258844e-17 3.663333333333333,-0.5831237718815219 4.336666666666666,-0.5831237718815222 4.673333333333333,0.0" fill="#0289" stroke="black" stroke-width="0.01"/>
    <text x="4.0" y="0.0" fill="black" font-size="0.14285714285714285" font-family="Arial" text-anchor="middle" dominant-baseline="middle">Ratgama</text>
  </g>
  <g>
    <polygon points="5.673333333333333,0.5773502691896257 5.336666666666667,1.1604740410711476 4.663333333333334,1.1604740410711476 4.326666666666667,0.5773502691896258 4.663333333333333,-0.005773502691896137 5.336666666666666,-0.0057735026918964705 5.673333333333333,0.5773502691896257" fill="#082a" stroke="black" stroke-width="0.01"/>
    <text x="5.0" y="0.5773502691896257" fill="black" font-size="0.14285714285714285" font-family="Arial" text-anchor="middle" dominant-baseline="middle">Galle</text>
  </g>
  <g>
    <polygon points="6.673333333333333,0.0 6.336666666666667,0.5831237718815219 5.663333333333334,0.583123771881522 5.326666666666667,8.245955114258844e-17 5.663333333333333,-0.5831237718815219 6.336666666666666,-0.5831237718815222 6.673333333333333,0.0" fill="#0288" stroke="black" stroke-width="0.01"/>
    <text x="6.0" y="0.0" fill="black" font-size="0.14285714285714285" font-family="Arial" text-anchor="middle" dominant-baseline="middle">Akmeemana</text>
  </g>
  <g>
    <polygon points="6.673333333333333,1.1547005383792515 6.336666666666667,1.7378243102607733 5.663333333333334,1.7378243102607733 5.326666666666667,1.1547005383792515 5.663333333333333,0.5715767664977296 6.336666666666666,0.5715767664977293 6.673333333333333,1.1547005383792515" fill="#0289" stroke="black" stroke-width="0.01"/>
    <text x="6.0" y="1.1547005383792515" fill="black" font-size="0.14285714285714285" font-family="Arial" text-anchor="middle" dominant-baseline="middle">Habaraduwa</text>
  </g>
  <g>
    <polygon points="8.673333333333334,-2.309401076758503 8.336666666666666,-1.726277304876981 7.663333333333334,-1.726277304876981 7.326666666666667,-2.309401076758503 7.663333333333333,-2.892524848640025 8.336666666666666,-2.8925248486400252 8.673333333333334,-2.309401076758503" fill="#0289" stroke="black" stroke-width="0.01"/>
    <text x="8.0" y="-2.309401076758503" fill="black" font-size="0.14285714285714285" font-family="Arial" text-anchor="middle" dominant-baseline="middle">Deniyaya</text>
  </g>
  <g>
    <polygon points="8.673333333333334,-1.1547005383792515 8.336666666666666,-0.5715767664977296 7.663333333333334,-0.5715767664977295 7.326666666666667,-1.1547005383792515 7.663333333333333,-1.7378243102607733 8.336666666666666,-1.7378243102607738 8.673333333333334,-1.1547005383792515" fill="#028a" stroke="black" stroke-width="0.01"/>
    <text x="8.0" y="-1.1547005383792515" fill="black" font-size="0.14285714285714285" font-family="Arial" text-anchor="middle" dominant-baseline="middle">Hakmana</text>
  </g>
  <g>
    <polygon points="7.673333333333333,-0.5773502691896257 7.336666666666667,0.005773502691896137 6.663333333333334,0.005773502691896248 6.326666666666667,-0.5773502691896256 6.663333333333333,-1.1604740410711476 7.336666666666666,-1.160474041071148 7.673333333333333,-0.5773502691896257" fill="#0289" stroke="black" stroke-width="0.01"/>
    <text x="7.0" y="-0.5773502691896257" fill="black" font-size="0.14285714285714285" font-family="Arial" text-anchor="middle" dominant-baseline="middle">Akuressa</text>
  </g>
  <g>
    <polygon points="8.673333333333334,0.0 8.336666666666666,0.5831237718815219 7.663333333333334,0.583123771881522 7.326666666666667,8.245955114258844e-17 7.663333333333333,-0.5831237718815219 8.336666666666666,-0.5831237718815222 8.673333333333334,0.0" fill="#028a" stroke="black" stroke-width="0.01"/>
    <text x="8.0" y="0.0" fill="black" font-size="0.14285714285714285" font-family="Arial" text-anchor="middle" dominant-baseline="middle">Kamburupitiya</text>
  </g>
  <g>
    <polygon points="9.673333333333334,0.5773502691896257 9.336666666666666,1.1604740410711476 8.663333333333334,1.1604740410711476 8.326666666666666,0.5773502691896258 8.663333333333334,-0.005773502691896137 9.336666666666666,-0.0057735026918964705 9.673333333333334,0.5773502691896257" fill="#0289" stroke="black" stroke-width="0.01"/>
    <text x="9.0" y="0.5773502691896257" fill="black" font-size="0.14285714285714285" font-family="Arial" text-anchor="middle" dominant-baseline="middle">Devinuwara</text>
  </g>
  <g>
    <polygon points="8.673333333333334,1.1547005383792515 8.336666666666666,1.7378243102607733 7.663333333333334,1.7378243102607733 7.326666666666667,1.1547005383792515 7.663333333333333,0.5715767664977296 8.336666666666666,0.5715767664977293 8.673333333333334,1.1547005383792515" fill="#0828" stroke="black" stroke-width="0.01"/>
    <text x="8.0" y="1.1547005383792515" fill="black" font-size="0.14285714285714285" font-family="Arial" text-anchor="middle" dominant-baseline="middle">Matara</text>
  </g>
  <g>
    <polygon points="7.673333333333333,0.5773502691896257 7.336666666666667,1.1604740410711476 6.663333333333334,1.1604740410711476 6.326666666666667,0.5773502691896258 6.663333333333333,-0.005773502691896137 7.336666666666666,-0.0057735026918964705 7.673333333333333,0.5773502691896257" fill="#0288" stroke="black" stroke-width="0.01"/>
    <text x="7.0" y="0.5773502691896257" fill="black" font-size="0.14285714285714285" font-family="Arial" text-anchor="middle" dominant-baseline="middle">Weligama</text>
  </g>
  <g>
    <polygon points="9.673333333333334,-1.7320508075688772 9.336666666666666,-1.1489270356873553 8.663333333333334,-1.1489270356873553 8.326666666666666,-1.7320508075688772 8.663333333333334,-2.315174579450399 9.336666666666666,-2.3151745794503995 9.673333333333334,-1.7320508075688772" fill="#028a" stroke="black" stroke-width="0.01"/>
    <text x="9.0" y="-1.7320508075688772" fill="black" font-size="0.14285714285714285" font-family="Arial" text-anchor="middle" dominant-baseline="middle">Mulkirigala</text>
  </g>
  <g>
    <polygon points="9.673333333333334,-0.5773502691896257 9.336666666666666,0.005773502691896137 8.663333333333334,0.005773502691896248 8.326666666666666,-0.5773502691896256 8.663333333333334,-1.1604740410711476 9.336666666666666,-1.160474041071148 9.673333333333334,-0.5773502691896257" fill="#028a" stroke="black" stroke-width="0.01"/>
    <text x="9.0" y="-0.5773502691896257" fill="black" font-size="0.14285714285714285" font-family="Arial" text-anchor="middle" dominant-baseline="middle">Beliatta</text>
  </g>
  <g>
    <polygon points="10.673333333333334,-1.1547005383792515 10.336666666666666,-0.5715767664977296 9.663333333333334,-0.5715767664977295 9.326666666666666,-1.1547005383792515 9.663333333333334,-1.7378243102607733 10.336666666666666,-1.7378243102607738 10.673333333333334,-1.1547005383792515" fill="#028a" stroke="black" stroke-width="0.01"/>
    <text x="10.0" y="-1.1547005383792515" fill="black" font-size="0.14285714285714285" font-family="Arial" text-anchor="middle" dominant-baseline="middle">Tangalle</text>
  </g>
  <g>
    <polygon points="12.673333333333334,-2.309401076758503 12.336666666666666,-1.726277304876981 11.663333333333334,-1.726277304876981 11.326666666666666,-2.309401076758503 11.663333333333334,-2.892524848640025 12.336666666666666,-2.8925248486400252 12.673333333333334,-2.309401076758503" fill="#0289" stroke="black" stroke-width="0.01"/>
    <text x="12.0" y="-2.309401076758503" fill="black" font-size="0.14285714285714285" font-family="Arial" text-anchor="middle" dominant-baseline="middle">Thissamaharama</text>
  </g>
  <g>
    <polygon points="6.673333333333333,-24.24871130596428 6.336666666666667,-23.66558753408276 5.663333333333334,-23.66558753408276 5.326666666666667,-24.24871130596428 5.663333333333333,-24.831835077845803 6.336666666666666,-24.831835077845803 6.673333333333333,-24.24871130596428" fill="#0828" stroke="black" stroke-width="0.01"/>
    <text x="6.0" y="-24.24871130596428" fill="black" font-size="0.14285714285714285" font-family="Arial" text-anchor="middle" dominant-baseline="middle">Kayts</text>
  </g>
  <g>
    <polygon points="2.6733333333333333,-25.40341184434353 2.336666666666667,-24.82028807246201 1.6633333333333336,-24.82028807246201 1.3266666666666667,-25.40341184434353 1.663333333333333,-25.98653561622505 2.336666666666666,-25.98653561622505 2.6733333333333333,-25.40341184434353" fill="#082b" stroke="black" stroke-width="0.01"/>
    <text x="2.0" y="-25.40341184434353" fill="black" font-size="0.14285714285714285" font-family="Arial" text-anchor="middle" dominant-baseline="middle">Vaddukoddai</text>
  </g>
  <g>
    <polygon points="3.6733333333333333,-27.13546265191241 3.336666666666667,-26.552338880030888 2.6633333333333336,-26.552338880030888 2.3266666666666667,-27.13546265191241 2.663333333333333,-27.71858642379393 3.336666666666666,-27.71858642379393 3.6733333333333333,-27.13546265191241" fill="#082b" stroke="black" stroke-width="0.01"/>
    <text x="3.0" y="-27.13546265191241" fill="black" font-size="0.14285714285714285" font-family="Arial" text-anchor="middle" dominant-baseline="middle">Kankesanthurai</text>
  </g>
  <g>
    <polygon points="3.6733333333333333,-25.980762113533157 3.336666666666667,-25.397638341651636 2.6633333333333336,-25.397638341651636 2.3266666666666667,-25.980762113533157 2.663333333333333,-26.563885885414678 3.336666666666666,-26.563885885414678 3.6733333333333333,-25.980762113533157" fill="#082c" stroke="black" stroke-width="0.01"/>
    <text x="3.0" y="-25.980762113533157" fill="black" font-size="0.14285714285714285" font-family="Arial" text-anchor="middle" dominant-baseline="middle">Manipay</text>
  </g>
  <g>
    <polygon points="4.673333333333333,-25.40341184434353 4.336666666666667,-24.82028807246201 3.6633333333333336,-24.82028807246201 3.3266666666666667,-25.40341184434353 3.663333333333333,-25.98653561622505 4.336666666666666,-25.98653561622505 4.673333333333333,-25.40341184434353" fill="#082c" stroke="black" stroke-width="0.01"/>
    <text x="4.0" y="-25.40341184434353" fill="black" font-size="0.14285714285714285" font-family="Arial" text-anchor="middle" dominant-baseline="middle">Kopay</text>
  </g>
  <g>
    <polygon points="5.673333333333333,-25.980762113533157 5.336666666666667,-25.397638341651636 4.663333333333334,-25.397638341651636 4.326666666666667,-25.980762113533157 4.663333333333333,-26.563885885414678 5.336666666666666,-26.563885885414678 5.673333333333333,-25.980762113533157" fill="#082c" stroke="black" stroke-width="0.01"/>
    <text x="5.0" y="-25.980762113533157" fill="black" font-size="0.14285714285714285" font-family="Arial" text-anchor="middle" dominant-baseline="middle">Udupiddy</text>
  </g>
  <g>
    <polygon points="6.673333333333333,-26.558112382722783 6.336666666666667,-25.97498861084126 5.663333333333334,-25.97498861084126 5.326666666666667,-26.558112382722783 5.663333333333333,-27.141236154604304 6.336666666666666,-27.141236154604304 6.673333333333333,-26.558112382722783" fill="#082c" stroke="black" stroke-width="0.01"/>
    <text x="6.0" y="-26.558112382722783" fill="black" font-size="0.14285714285714285" font-family="Arial" text-anchor="middle" dominant-baseline="middle">Point Pedro</text>
  </g>
  <g>
    <polygon points="5.673333333333333,-24.826061575153908 5.336666666666667,-24.242937803272387 4.663333333333334,-24.242937803272387 4.326666666666667,-24.826061575153908 4.663333333333333,-25.40918534703543 5.336666666666666,-25.40918534703543 5.673333333333333,-24.826061575153908" fill="#082c" stroke="black" stroke-width="0.01"/>
    <text x="5.0" y="-24.826061575153908" fill="black" font-size="0.14285714285714285" font-family="Arial" text-anchor="middle" dominant-baseline="middle">Chavakachcheri</text>
  </g>
  <g>
    <polygon points="4.673333333333333,-24.24871130596428 4.336666666666667,-23.66558753408276 3.6633333333333336,-23.66558753408276 3.3266666666666667,-24.24871130596428 3.663333333333333,-24.831835077845803 4.336666666666666,-24.831835077845803 4.673333333333333,-24.24871130596428" fill="#082c" stroke="black" stroke-width="0.01"/>
    <text x="4.0" y="-24.24871130596428" fill="black" font-size="0.14285714285714285" font-family="Arial" text-anchor="middle" dominant-baseline="middle">Nallur</text>
  </g>
  <g>
    <polygon points="3.6733333333333333,-24.826061575153908 3.336666666666667,-24.242937803272387 2.6633333333333336,-24.242937803272387 2.3266666666666667,-24.826061575153908 2.663333333333333,-25.40918534703543 3.336666666666666,-25.40918534703543 3.6733333333333333,-24.826061575153908" fill="#082c" stroke="black" stroke-width="0.01"/>
    <text x="3.0" y="-24.826061575153908" fill="black" font-size="0.14285714285714285" font-family="Arial" text-anchor="middle" dominant-baseline="middle">Jaffna</text>
  </g>
  <g>
    <polygon points="6.673333333333333,-21.939310229205777 6.336666666666667,-21.356186457324256 5.663333333333334,-21.356186457324256 5.326666666666667,-21.939310229205777 5.663333333333333,-22.522434001087298 6.336666666666666,-22.522434001087298 6.673333333333333,-21.939310229205777" fill="#082b" stroke="black" stroke-width="0.01"/>
    <text x="6.0" y="-21.939310229205777" fill="black" font-size="0.14285714285714285" font-family="Arial" text-anchor="middle" dominant-baseline="middle">Kilinochchi</text>
  </g>
  <g>
    <polygon points="5.673333333333333,-19.05255888325765 5.336666666666667,-18.46943511137613 4.663333333333334,-18.46943511137613 4.326666666666667,-19.05255888325765 4.663333333333333,-19.63568265513917 5.336666666666666,-19.63568265513917 5.673333333333333,-19.05255888325765" fill="#082d" stroke="black" stroke-width="0.01"/>
    <text x="5.0" y="-19.05255888325765" fill="black" font-size="0.14285714285714285" font-family="Arial" text-anchor="middle" dominant-baseline="middle">Mannar</text>
  </g>
  <g>
    <polygon points="7.673333333333333,-19.05255888325765 7.336666666666667,-18.46943511137613 6.663333333333334,-18.46943511137613 6.326666666666667,-19.05255888325765 6.663333333333333,-19.63568265513917 7.336666666666666,-19.63568265513917 7.673333333333333,-19.05255888325765" fill="#082c" stroke="black" stroke-width="0.01"/>
    <text x="7.0" y="-19.05255888325765" fill="black" font-size="0.14285714285714285" font-family="Arial" text-anchor="middle" dominant-baseline="middle">Vavuniya</text>
  </g>
  <g>
    <polygon points="7.673333333333333,-20.207259421636902 7.336666666666667,-19.62413564975538 6.663333333333334,-19.62413564975538 6.326666666666667,-20.207259421636902 6.663333333333333,-20.790383193518423 7.336666666666666,-20.790383193518423 7.673333333333333,-20.207259421636902" fill="#082c" stroke="black" stroke-width="0.01"/>
    <text x="7.0" y="-20.207259421636902" fill="black" font-size="0.14285714285714285" font-family="Arial" text-anchor="middle" dominant-baseline="middle">Mullaitivu</text>
  </g>
  <g>
    <polygon points="13.673333333333334,-13.279056191361391 13.336666666666666,-12.69593241947987 12.663333333333334,-12.695932419479869 12.326666666666666,-13.279056191361391 12.663333333333334,-13.862179963242912 13.336666666666666,-13.862179963242914 13.673333333333334,-13.279056191361391" fill="#082d" stroke="black" stroke-width="0.01"/>
    <text x="13.0" y="-13.279056191361391" fill="black" font-size="0.14285714285714285" font-family="Arial" text-anchor="middle" dominant-baseline="middle">Kalkudah</text>
  </g>
  <g>
    <polygon points="13.673333333333334,-10.969655114602888 13.336666666666666,-10.386531342721366 12.663333333333334,-10.386531342721366 12.326666666666666,-10.969655114602888 12.663333333333334,-11.552778886484411 13.336666666666666,-11.552778886484411 13.673333333333334,-10.969655114602888" fill="#082c" stroke="black" stroke-width="0.01"/>
    <text x="13.0" y="-10.969655114602888" fill="black" font-size="0.14285714285714285" font-family="Arial" text-anchor="middle" dominant-baseline="middle">Batticaloa</text>
  </g>
  <g>
    <polygon points="14.673333333333334,-10.392304845413262 14.336666666666666,-9.80918107353174 13.663333333333334,-9.80918107353174 13.326666666666666,-10.392304845413262 13.663333333333334,-10.975428617294785 14.336666666666666,-10.975428617294785 14.673333333333334,-10.392304845413262" fill="#082d" stroke="black" stroke-width="0.01"/>
    <text x="14.0" y="-10.392304845413262" fill="black" font-size="0.14285714285714285" font-family="Arial" text-anchor="middle" dominant-baseline="middle">Paddiruppu</text>
  </g>
  <g>
    <polygon points="13.673333333333334,-9.814954576223638 13.336666666666666,-9.231830804342117 12.663333333333334,-9.231830804342115 12.326666666666666,-9.814954576223638 12.663333333333334,-10.398078348105159 13.336666666666666,-10.39807834810516 13.673333333333334,-9.814954576223638" fill="#0289" stroke="black" stroke-width="0.01"/>
    <text x="13.0" y="-9.814954576223638" fill="black" font-size="0.14285714285714285" font-family="Arial" text-anchor="middle" dominant-baseline="middle">Ampara</text>
  </g>
  <g>
    <polygon points="15.673333333333334,-8.660254037844386 15.336666666666666,-8.077130265962865 14.663333333333334,-8.077130265962863 14.326666666666666,-8.660254037844386 14.663333333333334,-9.243377809725907 15.336666666666666,-9.243377809725908 15.673333333333334,-8.660254037844386" fill="#082d" stroke="black" stroke-width="0.01"/>
    <text x="15.0" y="-8.660254037844386" fill="black" font-size="0.14285714285714285" font-family="Arial" text-anchor="middle" dominant-baseline="middle">Samanthurai</text>
  </g>
  <g>
    <polygon points="15.673333333333334,-9.814954576223638 15.336666666666666,-9.231830804342117 14.663333333333334,-9.231830804342115 14.326666666666666,-9.814954576223638 14.663333333333334,-10.398078348105159 15.336666666666666,-10.39807834810516 15.673333333333334,-9.814954576223638" fill="#082e" stroke="black" stroke-width="0.01"/>
    <text x="15.0" y="-9.814954576223638" fill="black" font-size="0.14285714285714285" font-family="Arial" text-anchor="middle" dominant-baseline="middle">Kalmunai</text>
  </g>
  <g>
    <polygon points="15.673333333333334,-6.350852961085883 15.336666666666666,-5.767729189204361 14.663333333333334,-5.767729189204361 14.326666666666666,-6.350852961085883 14.663333333333334,-6.9339767329674045 15.336666666666666,-6.9339767329674045 15.673333333333334,-6.350852961085883" fill="#082c" stroke="black" stroke-width="0.01"/>
    <text x="15.0" y="-6.350852961085883" fill="black" font-size="0.14285714285714285" font-family="Arial" text-anchor="middle" dominant-baseline="middle">Pothuvil</text>
  </g>
  <g>
    <polygon points="10.673333333333334,-17.32050807568877 10.336666666666666,-16.73738430380725 9.663333333333334,-16.73738430380725 9.326666666666666,-17.32050807568877 9.663333333333334,-17.903631847570292 10.336666666666666,-17.903631847570292 10.673333333333334,-17.32050807568877" fill="#0288" stroke="black" stroke-width="0.01"/>
    <text x="10.0" y="-17.32050807568877" fill="black" font-size="0.14285714285714285" font-family="Arial" text-anchor="middle" dominant-baseline="middle">Seruvila</text>
  </g>
  <g>
    <polygon points="10.673333333333334,-18.475208614068023 10.336666666666666,-17.892084842186502 9.663333333333334,-17.892084842186502 9.326666666666666,-18.475208614068023 9.663333333333334,-19.058332385949544 10.336666666666666,-19.058332385949544 10.673333333333334,-18.475208614068023" fill="#082c" stroke="black" stroke-width="0.01"/>
    <text x="10.0" y="-18.475208614068023" fill="black" font-size="0.14285714285714285" font-family="Arial" text-anchor="middle" dominant-baseline="middle">Trincomalee</text>
  </g>
  <g>
    <polygon points="11.673333333333334,-16.743157806499145 11.336666666666666,-16.160034034617624 10.663333333333334,-16.160034034617624 10.326666666666666,-16.743157806499145 10.663333333333334,-17.326281578380666 11.336666666666666,-17.326281578380666 11.673333333333334,-16.743157806499145" fill="#082e" stroke="black" stroke-width="0.01"/>
    <text x="11.0" y="-16.743157806499145" fill="black" font-size="0.14285714285714285" font-family="Arial" text-anchor="middle" dominant-baseline="middle">Muttur</text>
  </g>
  <g>
    <polygon points="6.673333333333333,-15.011106998930268 6.336666666666667,-14.427983227048745 5.663333333333334,-14.427983227048745 5.326666666666667,-15.011106998930268 5.663333333333333,-15.59423077081179 6.336666666666666,-15.59423077081179 6.673333333333333,-15.011106998930268" fill="#0289" stroke="black" stroke-width="0.01"/>
    <text x="6.0" y="-15.011106998930268" fill="black" font-size="0.14285714285714285" font-family="Arial" text-anchor="middle" dominant-baseline="middle">Galgamuwa</text>
  </g>
  <g>
    <polygon points="5.673333333333333,-14.433756729740644 5.336666666666667,-13.850632957859123 4.663333333333334,-13.850632957859121 4.326666666666667,-14.433756729740644 4.663333333333333,-15.016880501622165 5.336666666666666,-15.016880501622166 5.673333333333333,-14.433756729740644" fill="#0288" stroke="black" stroke-width="0.01"/>
    <text x="5.0" y="-14.433756729740644" fill="black" font-size="0.14285714285714285" font-family="Arial" text-anchor="middle" dominant-baseline="middle">Nikaweratiya</text>
  </g>
  <g>
    <polygon points="7.673333333333333,-14.433756729740644 7.336666666666667,-13.850632957859123 6.663333333333334,-13.850632957859121 6.326666666666667,-14.433756729740644 6.663333333333333,-15.016880501622165 7.336666666666666,-15.016880501622166 7.673333333333333,-14.433756729740644" fill="#0289" stroke="black" stroke-width="0.01"/>
    <text x="7.0" y="-14.433756729740644" fill="black" font-size="0.14285714285714285" font-family="Arial" text-anchor="middle" dominant-baseline="middle">Yapahuwa</text>
  </g>
  <g>
    <polygon points="7.673333333333333,-13.279056191361391 7.336666666666667,-12.69593241947987 6.663333333333334,-12.695932419479869 6.326666666666667,-13.279056191361391 6.663333333333333,-13.862179963242912 7.336666666666666,-13.862179963242914 7.673333333333333,-13.279056191361391" fill="#0288" stroke="black" stroke-width="0.01"/>
    <text x="7.0" y="-13.279056191361391" fill="black" font-size="0.14285714285714285" font-family="Arial" text-anchor="middle" dominant-baseline="middle">Hiriyala</text>
  </g>
  <g>
    <polygon points="6.673333333333333,-13.856406460551018 6.336666666666667,-13.273282688669497 5.663333333333334,-13.273282688669495 5.326666666666667,-13.856406460551018 5.663333333333333,-14.439530232432539 6.336666666666666,-14.43953023243254 6.673333333333333,-13.856406460551018" fill="#0289" stroke="black" stroke-width="0.01"/>
    <text x="6.0" y="-13.856406460551018" fill="black" font-size="0.14285714285714285" font-family="Arial" text-anchor="middle" dominant-baseline="middle">Wariyapola</text>
  </g>
  <g>
    <polygon points="5.673333333333333,-13.279056191361391 5.336666666666667,-12.69593241947987 4.663333333333334,-12.695932419479869 4.326666666666667,-13.279056191361391 4.663333333333333,-13.862179963242912 5.336666666666666,-13.862179963242914 5.673333333333333,-13.279056191361391" fill="#0288" stroke="black" stroke-width="0.01"/>
    <text x="5.0" y="-13.279056191361391" fill="black" font-size="0.14285714285714285" font-family="Arial" text-anchor="middle" dominant-baseline="middle">Panduwasnuwara</text>
  </g>
  <g>
    <polygon points="4.673333333333333,-12.701705922171765 4.336666666666667,-12.118582150290244 3.6633333333333336,-12.118582150290242 3.3266666666666667,-12.701705922171765 3.663333333333333,-13.284829694053286 4.336666666666666,-13.284829694053288 4.673333333333333,-12.701705922171765" fill="#0288" stroke="black" stroke-width="0.01"/>
    <text x="4.0" y="-12.701705922171765" fill="black" font-size="0.14285714285714285" font-family="Arial" text-anchor="middle" dominant-baseline="middle">Bingiriya</text>
  </g>
  <g>
    <polygon points="4.673333333333333,-11.547005383792515 4.336666666666667,-10.963881611910992 3.6633333333333336,-10.963881611910992 3.3266666666666667,-11.547005383792515 3.663333333333333,-12.130129155674037 4.336666666666666,-12.130129155674037 4.673333333333333,-11.547005383792515" fill="#0288" stroke="black" stroke-width="0.01"/>
    <text x="4.0" y="-11.547005383792515" fill="black" font-size="0.14285714285714285" font-family="Arial" text-anchor="middle" dominant-baseline="middle">Katugampola</text>
  </g>
  <g>
    <polygon points="5.673333333333333,-12.12435565298214 5.336666666666667,-11.541231881100618 4.663333333333334,-11.541231881100618 4.326666666666667,-12.12435565298214 4.663333333333333,-12.707479424863664 5.336666666666666,-12.707479424863664 5.673333333333333,-12.12435565298214" fill="#0288" stroke="black" stroke-width="0.01"/>
    <text x="5.0" y="-12.12435565298214" fill="black" font-size="0.14285714285714285" font-family="Arial" text-anchor="middle" dominant-baseline="middle">Kuliyapitiya</text>
  </g>
  <g>
    <polygon points="5.673333333333333,-10.969655114602888 5.336666666666667,-10.386531342721366 4.663333333333334,-10.386531342721366 4.326666666666667,-10.969655114602888 4.663333333333333,-11.552778886484411 5.336666666666666,-11.552778886484411 5.673333333333333,-10.969655114602888" fill="#0288" stroke="black" stroke-width="0.01"/>
    <text x="5.0" y="-10.969655114602888" fill="black" font-size="0.14285714285714285" font-family="Arial" text-anchor="middle" dominant-baseline="middle">Dambadeniya</text>
  </g>
  <g>
    <polygon points="6.673333333333333,-11.547005383792515 6.336666666666667,-10.963881611910992 5.663333333333334,-10.963881611910992 5.326666666666667,-11.547005383792515 5.663333333333333,-12.130129155674037 6.336666666666666,-12.130129155674037 6.673333333333333,-11.547005383792515" fill="#0288" stroke="black" stroke-width="0.01"/>
    <text x="6.0" y="-11.547005383792515" fill="black" font-size="0.14285714285714285" font-family="Arial" text-anchor="middle" dominant-baseline="middle">Polgahawela</text>
  </g>
  <g>
    <polygon points="6.673333333333333,-12.701705922171765 6.336666666666667,-12.118582150290244 5.663333333333334,-12.118582150290242 5.326666666666667,-12.701705922171765 5.663333333333333,-13.284829694053286 6.336666666666666,-13.284829694053288 6.673333333333333,-12.701705922171765" fill="#0828" stroke="black" stroke-width="0.01"/>
    <text x="6.0" y="-12.701705922171765" fill="black" font-size="0.14285714285714285" font-family="Arial" text-anchor="middle" dominant-baseline="middle">Kurunegala</text>
  </g>
  <g>
    <polygon points="7.673333333333333,-12.12435565298214 7.336666666666667,-11.541231881100618 6.663333333333334,-11.541231881100618 6.326666666666667,-12.12435565298214 6.663333333333333,-12.707479424863664 7.336666666666666,-12.707479424863664 7.673333333333333,-12.12435565298214" fill="#0828" stroke="black" stroke-width="0.01"/>
    <text x="7.0" y="-12.12435565298214" fill="black" font-size="0.14285714285714285" font-family="Arial" text-anchor="middle" dominant-baseline="middle">Mawathagama</text>
  </g>
  <g>
    <polygon points="8.673333333333334,-12.701705922171765 8.336666666666666,-12.118582150290244 7.663333333333334,-12.118582150290242 7.326666666666667,-12.701705922171765 7.663333333333333,-13.284829694053286 8.336666666666666,-13.284829694053288 8.673333333333334,-12.701705922171765" fill="#0288" stroke="black" stroke-width="0.01"/>
    <text x="8.0" y="-12.701705922171765" fill="black" font-size="0.14285714285714285" font-family="Arial" text-anchor="middle" dominant-baseline="middle">Dodangaslanda</text>
  </g>
  <g>
    <polygon points="4.673333333333333,-16.16580753730952 4.336666666666667,-15.582683765427998 3.6633333333333336,-15.582683765427996 3.3266666666666667,-16.16580753730952 3.663333333333333,-16.74893130919104 4.336666666666666,-16.74893130919104 4.673333333333333,-16.16580753730952" fill="#082b" stroke="black" stroke-width="0.01"/>
    <text x="4.0" y="-16.16580753730952" fill="black" font-size="0.14285714285714285" font-family="Arial" text-anchor="middle" dominant-baseline="middle">Puttalam</text>
  </g>
  <g>
    <polygon points="4.673333333333333,-15.011106998930268 4.336666666666667,-14.427983227048745 3.6633333333333336,-14.427983227048745 3.3266666666666667,-15.011106998930268 3.663333333333333,-15.59423077081179 4.336666666666666,-15.59423077081179 4.673333333333333,-15.011106998930268" fill="#0289" stroke="black" stroke-width="0.01"/>
    <text x="4.0" y="-15.011106998930268" fill="black" font-size="0.14285714285714285" font-family="Arial" text-anchor="middle" dominant-baseline="middle">Anamaduwa</text>
  </g>
  <g>
    <polygon points="3.6733333333333333,-13.279056191361391 3.336666666666667,-12.69593241947987 2.6633333333333336,-12.695932419479869 2.3266666666666667,-13.279056191361391 2.663333333333333,-13.862179963242912 3.336666666666666,-13.862179963242914 3.6733333333333333,-13.279056191361391" fill="#0288" stroke="black" stroke-width="0.01"/>
    <text x="3.0" y="-13.279056191361391" fill="black" font-size="0.14285714285714285" font-family="Arial" text-anchor="middle" dominant-baseline="middle">Chilaw</text>
  </g>
  <g>
    <polygon points="2.6733333333333333,-11.547005383792515 2.336666666666667,-10.963881611910992 1.6633333333333336,-10.963881611910992 1.3266666666666667,-11.547005383792515 1.663333333333333,-12.130129155674037 2.336666666666666,-12.130129155674037 2.6733333333333333,-11.547005383792515" fill="#0288" stroke="black" stroke-width="0.01"/>
    <text x="2.0" y="-11.547005383792515" fill="black" font-size="0.14285714285714285" font-family="Arial" text-anchor="middle" dominant-baseline="middle">Nattandiya</text>
  </g>
  <g>
    <polygon points="3.6733333333333333,-10.969655114602888 3.336666666666667,-10.386531342721366 2.6633333333333336,-10.386531342721366 2.3266666666666667,-10.969655114602888 2.663333333333333,-11.552778886484411 3.336666666666666,-11.552778886484411 3.6733333333333333,-10.969655114602888" fill="#0288" stroke="black" stroke-width="0.01"/>
    <text x="3.0" y="-10.969655114602888" fill="black" font-size="0.14285714285714285" font-family="Arial" text-anchor="middle" dominant-baseline="middle">Wennappuwa</text>
  </g>
  <g>
    <polygon points="8.673333333333334,-18.475208614068023 8.336666666666666,-17.892084842186502 7.663333333333334,-17.892084842186502 7.326666666666667,-18.475208614068023 7.663333333333333,-19.058332385949544 8.336666666666666,-19.058332385949544 8.673333333333334,-18.475208614068023" fill="#0289" stroke="black" stroke-width="0.01"/>
    <text x="8.0" y="-18.475208614068023" fill="black" font-size="0.14285714285714285" font-family="Arial" text-anchor="middle" dominant-baseline="middle">Medawachchiya</text>
  </g>
  <g>
    <polygon points="9.673333333333334,-16.743157806499145 9.336666666666666,-16.160034034617624 8.663333333333334,-16.160034034617624 8.326666666666666,-16.743157806499145 8.663333333333334,-17.326281578380666 9.336666666666666,-17.326281578380666 9.673333333333334,-16.743157806499145" fill="#0288" stroke="black" stroke-width="0.01"/>
    <text x="9.0" y="-16.743157806499145" fill="black" font-size="0.14285714285714285" font-family="Arial" text-anchor="middle" dominant-baseline="middle">Horowpothana</text>
  </g>
  <g>
    <polygon points="7.673333333333333,-15.588457268119894 7.336666666666667,-15.005333496238372 6.663333333333334,-15.005333496238372 6.326666666666667,-15.588457268119894 6.663333333333333,-16.171581040001417 7.336666666666666,-16.171581040001417 7.673333333333333,-15.588457268119894" fill="#0288" stroke="black" stroke-width="0.01"/>
    <text x="7.0" y="-15.588457268119894" fill="black" font-size="0.14285714285714285" font-family="Arial" text-anchor="middle" dominant-baseline="middle">Anuradhapura East</text>
  </g>
  <g>
    <polygon points="5.673333333333333,-16.743157806499145 5.336666666666667,-16.160034034617624 4.663333333333334,-16.160034034617624 4.326666666666667,-16.743157806499145 4.663333333333333,-17.326281578380666 5.336666666666666,-17.326281578380666 5.673333333333333,-16.743157806499145" fill="#0288" stroke="black" stroke-width="0.01"/>
    <text x="5.0" y="-16.743157806499145" fill="black" font-size="0.14285714285714285" font-family="Arial" text-anchor="middle" dominant-baseline="middle">Anuradhapura West</text>
  </g>
  <g>
    <polygon points="6.673333333333333,-16.16580753730952 6.336666666666667,-15.582683765427998 5.663333333333334,-15.582683765427996 5.326666666666667,-16.16580753730952 5.663333333333333,-16.74893130919104 6.336666666666666,-16.74893130919104 6.673333333333333,-16.16580753730952" fill="#0288" stroke="black" stroke-width="0.01"/>
    <text x="6.0" y="-16.16580753730952" fill="black" font-size="0.14285714285714285" font-family="Arial" text-anchor="middle" dominant-baseline="middle">Kalawewa</text>
  </g>
  <g>
    <polygon points="7.673333333333333,-15.588457268119894 7.336666666666667,-15.005333496238372 6.663333333333334,-15.005333496238372 6.326666666666667,-15.588457268119894 6.663333333333333,-16.171581040001417 7.336666666666666,-16.171581040001417 7.673333333333333,-15.588457268119894" fill="#0288" stroke="black" stroke-width="0.01"/>
    <text x="7.0" y="-15.588457268119894" fill="black" font-size="0.14285714285714285" font-family="Arial" text-anchor="middle" dominant-baseline="middle">Mihinthale</text>
  </g>
  <g>
    <polygon points="8.673333333333334,-15.011106998930268 8.336666666666666,-14.427983227048745 7.663333333333334,-14.427983227048745 7.326666666666667,-15.011106998930268 7.663333333333333,-15.59423077081179 8.336666666666666,-15.59423077081179 8.673333333333334,-15.011106998930268" fill="#0288" stroke="black" stroke-width="0.01"/>
    <text x="8.0" y="-15.011106998930268" fill="black" font-size="0.14285714285714285" font-family="Arial" text-anchor="middle" dominant-baseline="middle">Kekirawa</text>
  </g>
  <g>
    <polygon points="9.673333333333334,-14.433756729740644 9.336666666666666,-13.850632957859123 8.663333333333334,-13.850632957859121 8.326666666666666,-14.433756729740644 8.663333333333334,-15.016880501622165 9.336666666666666,-15.016880501622166 9.673333333333334,-14.433756729740644" fill="#0828" stroke="black" stroke-width="0.01"/>
    <text x="9.0" y="-14.433756729740644" fill="black" font-size="0.14285714285714285" font-family="Arial" text-anchor="middle" dominant-baseline="middle">Minneriya</text>
  </g>
  <g>
    <polygon points="10.673333333333334,-15.011106998930268 10.336666666666666,-14.427983227048745 9.663333333333334,-14.427983227048745 9.326666666666666,-15.011106998930268 9.663333333333334,-15.59423077081179 10.336666666666666,-15.59423077081179 10.673333333333334,-15.011106998930268" fill="#0828" stroke="black" stroke-width="0.01"/>
    <text x="10.0" y="-15.011106998930268" fill="black" font-size="0.14285714285714285" font-family="Arial" text-anchor="middle" dominant-baseline="middle">Medirigiriya</text>
  </g>
  <g>
    <polygon points="11.673333333333334,-13.279056191361391 11.336666666666666,-12.69593241947987 10.663333333333334,-12.695932419479869 10.326666666666666,-13.279056191361391 10.663333333333334,-13.862179963242912 11.336666666666666,-13.862179963242914 11.673333333333334,-13.279056191361391" fill="#082a" stroke="black" stroke-width="0.01"/>
    <text x="11.0" y="-13.279056191361391" fill="black" font-size="0.14285714285714285" font-family="Arial" text-anchor="middle" dominant-baseline="middle">Polonnaruwa</text>
  </g>
  <g>
    <polygon points="12.673333333333334,-10.392304845413262 12.336666666666666,-9.80918107353174 11.663333333333334,-9.80918107353174 11.326666666666666,-10.392304845413262 11.663333333333334,-10.975428617294785 12.336666666666666,-10.975428617294785 12.673333333333334,-10.392304845413262" fill="#0289" stroke="black" stroke-width="0.01"/>
    <text x="12.0" y="-10.392304845413262" fill="black" font-size="0.14285714285714285" font-family="Arial" text-anchor="middle" dominant-baseline="middle">Mahiyanganaya</text>
  </g>
  <g>
    <polygon points="12.673333333333334,-8.08290376865476 12.336666666666666,-7.4997799967732375 11.663333333333334,-7.4997799967732375 11.326666666666666,-8.08290376865476 11.663333333333334,-8.66602754053628 12.336666666666666,-8.666027540536282 12.673333333333334,-8.08290376865476" fill="#0289" stroke="black" stroke-width="0.01"/>
    <text x="12.0" y="-8.08290376865476" fill="black" font-size="0.14285714285714285" font-family="Arial" text-anchor="middle" dominant-baseline="middle">Viyaluwa</text>
  </g>
  <g>
    <polygon points="13.673333333333334,-6.350852961085883 13.336666666666666,-5.767729189204361 12.663333333333334,-5.767729189204361 12.326666666666666,-6.350852961085883 12.663333333333334,-6.9339767329674045 13.336666666666666,-6.9339767329674045 13.673333333333334,-6.350852961085883" fill="#0828" stroke="black" stroke-width="0.01"/>
    <text x="13.0" y="-6.350852961085883" fill="black" font-size="0.14285714285714285" font-family="Arial" text-anchor="middle" dominant-baseline="middle">Passara</text>
  </g>
  <g>
    <polygon points="12.673333333333334,-6.928203230275509 12.336666666666666,-6.345079458393987 11.663333333333334,-6.345079458393987 11.326666666666666,-6.928203230275509 11.663333333333334,-7.511327002157031 12.336666666666666,-7.511327002157031 12.673333333333334,-6.928203230275509" fill="#0828" stroke="black" stroke-width="0.01"/>
    <text x="12.0" y="-6.928203230275509" fill="black" font-size="0.14285714285714285" font-family="Arial" text-anchor="middle" dominant-baseline="middle">Badulla</text>
  </g>
  <g>
    <polygon points="12.673333333333334,-5.773502691896257 12.336666666666666,-5.190378920014735 11.663333333333334,-5.190378920014735 11.326666666666666,-5.773502691896257 11.663333333333334,-6.356626463777779 12.336666666666666,-6.356626463777779 12.673333333333334,-5.773502691896257" fill="#0828" stroke="black" stroke-width="0.01"/>
    <text x="12.0" y="-5.773502691896257" fill="black" font-size="0.14285714285714285" font-family="Arial" text-anchor="middle" dominant-baseline="middle">Hali Ela</text>
  </g>
  <g>
    <polygon points="11.673333333333334,-6.350852961085883 11.336666666666666,-5.767729189204361 10.663333333333334,-5.767729189204361 10.326666666666666,-6.350852961085883 10.663333333333334,-6.9339767329674045 11.336666666666666,-6.9339767329674045 11.673333333333334,-6.350852961085883" fill="#0288" stroke="black" stroke-width="0.01"/>
    <text x="11.0" y="-6.350852961085883" fill="black" font-size="0.14285714285714285" font-family="Arial" text-anchor="middle" dominant-baseline="middle">Uva Paranagama</text>
  </g>
  <g>
    <polygon points="11.673333333333334,-5.196152422706631 11.336666666666666,-4.613028650825109 10.663333333333334,-4.613028650825109 10.326666666666666,-5.196152422706631 10.663333333333334,-5.779276194588153 11.336666666666666,-5.779276194588153 11.673333333333334,-5.196152422706631" fill="#0828" stroke="black" stroke-width="0.01"/>
    <text x="11.0" y="-5.196152422706631" fill="black" font-size="0.14285714285714285" font-family="Arial" text-anchor="middle" dominant-baseline="middle">Welimada</text>
  </g>
  <g>
    <polygon points="12.673333333333334,-5.773502691896257 12.336666666666666,-5.190378920014735 11.663333333333334,-5.190378920014735 11.326666666666666,-5.773502691896257 11.663333333333334,-6.356626463777779 12.336666666666666,-6.356626463777779 12.673333333333334,-5.773502691896257" fill="#0828" stroke="black" stroke-width="0.01"/>
    <text x="12.0" y="-5.773502691896257" fill="black" font-size="0.14285714285714285" font-family="Arial" text-anchor="middle" dominant-baseline="middle">Bandarawela</text>
  </g>
  <g>
    <polygon points="11.673333333333334,-4.04145188432738 11.336666666666666,-3.458328112445858 10.663333333333334,-3.458328112445858 10.326666666666666,-4.04145188432738 10.663333333333334,-4.6245756562089015 11.336666666666666,-4.6245756562089015 11.673333333333334,-4.04145188432738" fill="#0829" stroke="black" stroke-width="0.01"/>
    <text x="11.0" y="-4.04145188432738" fill="black" font-size="0.14285714285714285" font-family="Arial" text-anchor="middle" dominant-baseline="middle">Haputale</text>
  </g>
  <g>
    <polygon points="13.673333333333334,-8.660254037844386 13.336666666666666,-8.077130265962865 12.663333333333334,-8.077130265962863 12.326666666666666,-8.660254037844386 12.663333333333334,-9.243377809725907 13.336666666666666,-9.243377809725908 13.673333333333334,-8.660254037844386" fill="#0289" stroke="black" stroke-width="0.01"/>
    <text x="13.0" y="-8.660254037844386" fill="black" font-size="0.14285714285714285" font-family="Arial" text-anchor="middle" dominant-baseline="middle">Bibile</text>
  </g>
  <g>
    <polygon points="14.673333333333334,-5.773502691896257 14.336666666666666,-5.190378920014735 13.663333333333334,-5.190378920014735 13.326666666666666,-5.773502691896257 13.663333333333334,-6.356626463777779 14.336666666666666,-6.356626463777779 14.673333333333334,-5.773502691896257" fill="#0289" stroke="black" stroke-width="0.01"/>
    <text x="14.0" y="-5.773502691896257" fill="black" font-size="0.14285714285714285" font-family="Arial" text-anchor="middle" dominant-baseline="middle">Monaragala</text>
  </g>
  <g>
    <polygon points="12.673333333333334,-3.4641016151377544 12.336666666666666,-2.8809778432562325 11.663333333333334,-2.8809778432562325 11.326666666666666,-3.4641016151377544 11.663333333333334,-4.047225387019276 12.336666666666666,-4.047225387019276 12.673333333333334,-3.4641016151377544" fill="#028a" stroke="black" stroke-width="0.01"/>
    <text x="12.0" y="-3.4641016151377544" fill="black" font-size="0.14285714285714285" font-family="Arial" text-anchor="middle" dominant-baseline="middle">Wellawaya</text>
  </g>
  <g>
    <polygon points="7.673333333333333,-5.196152422706631 7.336666666666667,-4.613028650825109 6.663333333333334,-4.613028650825109 6.326666666666667,-5.196152422706631 6.663333333333333,-5.779276194588153 7.336666666666666,-5.779276194588153 7.673333333333333,-5.196152422706631" fill="#0289" stroke="black" stroke-width="0.01"/>
    <text x="7.0" y="-5.196152422706631" fill="black" font-size="0.14285714285714285" font-family="Arial" text-anchor="middle" dominant-baseline="middle">Eheliyagoda</text>
  </g>
  <g>
    <polygon points="8.673333333333334,-4.618802153517006 8.336666666666666,-4.035678381635484 7.663333333333334,-4.035678381635484 7.326666666666667,-4.618802153517006 7.663333333333333,-5.201925925398528 8.336666666666666,-5.201925925398528 8.673333333333334,-4.618802153517006" fill="#0288" stroke="black" stroke-width="0.01"/>
    <text x="8.0" y="-4.618802153517006" fill="black" font-size="0.14285714285714285" font-family="Arial" text-anchor="middle" dominant-baseline="middle">Ratnapura</text>
  </g>
  <g>
    <polygon points="9.673333333333334,-4.04145188432738 9.336666666666666,-3.458328112445858 8.663333333333334,-3.458328112445858 8.326666666666666,-4.04145188432738 8.663333333333334,-4.6245756562089015 9.336666666666666,-4.6245756562089015 9.673333333333334,-4.04145188432738" fill="#0288" stroke="black" stroke-width="0.01"/>
    <text x="9.0" y="-4.04145188432738" fill="black" font-size="0.14285714285714285" font-family="Arial" text-anchor="middle" dominant-baseline="middle">Pelmadulla</text>
  </g>
  <g>
    <polygon points="9.673333333333334,-4.04145188432738 9.336666666666666,-3.458328112445858 8.663333333333334,-3.458328112445858 8.326666666666666,-4.04145188432738 8.663333333333334,-4.6245756562089015 9.336666666666666,-4.6245756562089015 9.673333333333334,-4.04145188432738" fill="#0288" stroke="black" stroke-width="0.01"/>
    <text x="9.0" y="-4.04145188432738" fill="black" font-size="0.14285714285714285" font-family="Arial" text-anchor="middle" dominant-baseline="middle">Balangoda</text>
  </g>
  <g>
    <polygon points="10.673333333333334,-3.4641016151377544 10.336666666666666,-2.8809778432562325 9.663333333333334,-2.8809778432562325 9.326666666666666,-3.4641016151377544 9.663333333333334,-4.047225387019276 10.336666666666666,-4.047225387019276 10.673333333333334,-3.4641016151377544" fill="#0288" stroke="black" stroke-width="0.01"/>
    <text x="10.0" y="-3.4641016151377544" fill="black" font-size="0.14285714285714285" font-family="Arial" text-anchor="middle" dominant-baseline="middle">Rakwana</text>
  </g>
  <g>
    <polygon points="8.673333333333334,-3.4641016151377544 8.336666666666666,-2.8809778432562325 7.663333333333334,-2.8809778432562325 7.326666666666667,-3.4641016151377544 7.663333333333333,-4.047225387019276 8.336666666666666,-4.047225387019276 8.673333333333334,-3.4641016151377544" fill="#0289" stroke="black" stroke-width="0.01"/>
    <text x="8.0" y="-3.4641016151377544" fill="black" font-size="0.14285714285714285" font-family="Arial" text-anchor="middle" dominant-baseline="middle">Nivithigala</text>
  </g>
  <g>
    <polygon points="7.673333333333333,-4.04145188432738 7.336666666666667,-3.458328112445858 6.663333333333334,-3.458328112445858 6.326666666666667,-4.04145188432738 6.663333333333333,-4.6245756562089015 7.336666666666666,-4.6245756562089015 7.673333333333333,-4.04145188432738" fill="#0289" stroke="black" stroke-width="0.01"/>
    <text x="7.0" y="-4.04145188432738" fill="black" font-size="0.14285714285714285" font-family="Arial" text-anchor="middle" dominant-baseline="middle">Kalawana</text>
  </g>
  <g>
    <polygon points="10.673333333333334,-2.309401076758503 10.336666666666666,-1.726277304876981 9.663333333333334,-1.726277304876981 9.326666666666666,-2.309401076758503 9.663333333333334,-2.892524848640025 10.336666666666666,-2.8925248486400252 10.673333333333334,-2.309401076758503" fill="#0289" stroke="black" stroke-width="0.01"/>
    <text x="10.0" y="-2.309401076758503" fill="black" font-size="0.14285714285714285" font-family="Arial" text-anchor="middle" dominant-baseline="middle">Kolonna</text>
  </g>
  <g>
    <polygon points="6.673333333333333,-9.237604307034012 6.336666666666667,-8.65448053515249 5.663333333333334,-8.654480535152489 5.326666666666667,-9.237604307034012 5.663333333333333,-9.820728078915533 6.336666666666666,-9.820728078915534 6.673333333333333,-9.237604307034012" fill="#0288" stroke="black" stroke-width="0.01"/>
    <text x="6.0" y="-9.237604307034012" fill="black" font-size="0.14285714285714285" font-family="Arial" text-anchor="middle" dominant-baseline="middle">Dedigama</text>
  </g>
  <g>
    <polygon points="6.673333333333333,-9.237604307034012 6.336666666666667,-8.65448053515249 5.663333333333334,-8.654480535152489 5.326666666666667,-9.237604307034012 5.663333333333333,-9.820728078915533 6.336666666666666,-9.820728078915534 6.673333333333333,-9.237604307034012" fill="#0288" stroke="black" stroke-width="0.01"/>
    <text x="6.0" y="-9.237604307034012" fill="black" font-size="0.14285714285714285" font-family="Arial" text-anchor="middle" dominant-baseline="middle">Galigamuwa</text>
  </g>
  <g>
    <polygon points="7.673333333333333,-8.660254037844386 7.336666666666667,-8.077130265962865 6.663333333333334,-8.077130265962863 6.326666666666667,-8.660254037844386 6.663333333333333,-9.243377809725907 7.336666666666666,-9.243377809725908 7.673333333333333,-8.660254037844386" fill="#0288" stroke="black" stroke-width="0.01"/>
    <text x="7.0" y="-8.660254037844386" fill="black" font-size="0.14285714285714285" font-family="Arial" text-anchor="middle" dominant-baseline="middle">Kegalle</text>
  </g>
  <g>
    <polygon points="7.673333333333333,-10.969655114602888 7.336666666666667,-10.386531342721366 6.663333333333334,-10.386531342721366 6.326666666666667,-10.969655114602888 6.663333333333333,-11.552778886484411 7.336666666666666,-11.552778886484411 7.673333333333333,-10.969655114602888" fill="#0288" stroke="black" stroke-width="0.01"/>
    <text x="7.0" y="-10.969655114602888" fill="black" font-size="0.14285714285714285" font-family="Arial" text-anchor="middle" dominant-baseline="middle">Rambukkana</text>
  </g>
  <g>
    <polygon points="8.673333333333334,-8.08290376865476 8.336666666666666,-7.4997799967732375 7.663333333333334,-7.4997799967732375 7.326666666666667,-8.08290376865476 7.663333333333333,-8.66602754053628 8.336666666666666,-8.666027540536282 8.673333333333334,-8.08290376865476" fill="#0829" stroke="black" stroke-width="0.01"/>
    <text x="8.0" y="-8.08290376865476" fill="black" font-size="0.14285714285714285" font-family="Arial" text-anchor="middle" dominant-baseline="middle">Mawanella</text>
  </g>
  <g>
    <polygon points="7.673333333333333,-8.660254037844386 7.336666666666667,-8.077130265962865 6.663333333333334,-8.077130265962863 6.326666666666667,-8.660254037844386 6.663333333333333,-9.243377809725907 7.336666666666666,-9.243377809725908 7.673333333333333,-8.660254037844386" fill="#0288" stroke="black" stroke-width="0.01"/>
    <text x="7.0" y="-8.660254037844386" fill="black" font-size="0.14285714285714285" font-family="Arial" text-anchor="middle" dominant-baseline="middle">Aranayaka</text>
  </g>
  <g>
    <polygon points="7.673333333333333,-7.505553499465134 7.336666666666667,-6.922429727583612 6.663333333333334,-6.922429727583612 6.326666666666667,-7.505553499465134 6.663333333333333,-8.088677271346656 7.336666666666666,-8.088677271346656 7.673333333333333,-7.505553499465134" fill="#0288" stroke="black" stroke-width="0.01"/>
    <text x="7.0" y="-7.505553499465134" fill="black" font-size="0.14285714285714285" font-family="Arial" text-anchor="middle" dominant-baseline="middle">Yatiyanthota</text>
  </g>
  <g>
    <polygon points="6.673333333333333,-8.08290376865476 6.336666666666667,-7.4997799967732375 5.663333333333334,-7.4997799967732375 5.326666666666667,-8.08290376865476 5.663333333333333,-8.66602754053628 6.336666666666666,-8.666027540536282 6.673333333333333,-8.08290376865476" fill="#0288" stroke="black" stroke-width="0.01"/>
    <text x="6.0" y="-8.08290376865476" fill="black" font-size="0.14285714285714285" font-family="Arial" text-anchor="middle" dominant-baseline="middle">Ruwanwella</text>
  </g>
  <g>
    <polygon points="8.673333333333334,-5.773502691896257 8.336666666666666,-5.190378920014735 7.663333333333334,-5.190378920014735 7.326666666666667,-5.773502691896257 7.663333333333333,-6.356626463777779 8.336666666666666,-6.356626463777779 8.673333333333334,-5.773502691896257" fill="#0288" stroke="black" stroke-width="0.01"/>
    <text x="8.0" y="-5.773502691896257" fill="black" font-size="0.14285714285714285" font-family="Arial" text-anchor="middle" dominant-baseline="middle">Deraniyagala</text>
  </g>
  <g>
    <polygon points="2.336666666666666,-7.511327002157031 1.6699999999999997,-7.511327002157031 1.3366666666666662,-8.088677271346656 0.6633333333333331,-8.088677271346656 0.3300000000000003,-7.511327002157031 -0.3366666666666669,-7.511327002157031 -0.6733333333333332,-6.928203230275509 -0.33999999999999997,-6.3508529610858835 -0.6733333333333332,-5.773502691896257 -0.33666666666666645,-5.190378920014735 0.3299999999999998,-5.190378920014735 0.66,-4.618802153517006 0.32666666666666677,-4.04145188432738 0.6633333333333336,-3.458328112445858 1.3366666666666667,-3.458328112445858 1.6733333333333333,-4.04145188432738 1.3399999999999999,-4.618802153517005 1.6700000000000004,-5.190378920014735 2.3299999999999996,-5.190378920014735 2.6633333333333336,-4.613028650825109 3.33,-4.613028650825109 3.6633333333333336,-4.035678381635484 4.336666666666667,-4.035678381635484 4.669999999999999,-4.613028650825109 5.336666666666667,-4.613028650825109 5.67,-5.190378920014735 6.336666666666667,-5.190378920014735 6.673333333333333,-5.773502691896257 6.336666666666666,-6.356626463777779 5.663333333333333,-6.356626463777779 5.33,-5.779276194588153 4.67,-5.779276194588153 4.336666666666666,-6.356626463777779 3.67,-6.356626463777779 3.336666666666666,-6.9339767329674045 2.6700000000000004,-6.9339767329674045 2.336666666666666,-7.511327002157031" fill="None" stroke="white" stroke-width="0.05"/>
  </g>
  <g>
    <polygon points="1.3266666666666667,-10.392304845413262 1.6633333333333336,-9.80918107353174 2.3300000000000014,-9.80918107353174 2.66,-9.237604307034012 2.33,-8.666027540536282 1.663333333333333,-8.66602754053628 1.3266666666666667,-8.08290376865476 1.6633333333333336,-7.4997799967732375 2.33,-7.4997799967732375 2.6633333333333336,-6.922429727583612 3.33,-6.922429727583612 3.6633333333333336,-6.345079458393987 4.336666666666667,-6.345079458393987 4.669999999999999,-6.922429727583612 5.330000000000001,-6.922429727583612 5.663333333333334,-6.345079458393987 6.336666666666667,-6.345079458393987 6.673333333333333,-6.928203230275509 6.336666666666666,-7.511327002157031 5.669999999999999,-7.511327002157031 5.34,-8.08290376865476 5.673333333333333,-8.660254037844386 5.34,-9.237604307034012 5.673333333333333,-9.814954576223638 5.336666666666666,-10.39807834810516 4.669999999999999,-10.398078348105159 4.336666666666666,-10.975428617294785 3.663333333333333,-10.975428617294785 3.3300000000000014,-10.39807834810516 2.67,-10.398078348105159 2.336666666666666,-10.975428617294785 1.663333333333333,-10.975428617294785 1.3266666666666667,-10.392304845413262" fill="None" stroke="white" stroke-width="0.05"/>
  </g>
  <g/>
  <g>
    <polygon points="7.663333333333333,-12.130129155674037 7.330000000000001,-11.552778886484411 6.663333333333333,-11.552778886484411 6.326666666666667,-10.969655114602888 6.663333333333334,-10.386531342721366 7.330000000000001,-10.386531342721366 7.663333333333334,-9.80918107353174 8.33,-9.80918107353174 8.663333333333334,-9.231830804342115 9.329999999999998,-9.231830804342117 9.66,-8.660254037844386 9.33,-8.088677271346656 8.67,-8.088677271346656 8.336666666666666,-8.666027540536282 7.663333333333333,-8.66602754053628 7.326666666666667,-8.08290376865476 7.66,-7.505553499465135 7.326666666666667,-6.928203230275509 7.663333333333334,-6.345079458393987 8.336666666666666,-6.345079458393987 8.67,-6.922429727583612 9.336666666666666,-6.922429727583612 9.67,-7.4997799967732375 10.336666666666666,-7.4997799967732375 10.673333333333334,-8.08290376865476 10.34,-8.660254037844386 10.67,-9.231830804342115 11.336666666666666,-9.231830804342117 11.673333333333334,-9.814954576223638 11.34,-10.392304845413262 11.673333333333334,-10.969655114602888 11.336666666666666,-11.552778886484411 10.67,-11.552778886484411 10.336666666666666,-12.130129155674037 9.663333333333334,-12.130129155674037 9.326666666666666,-11.547005383792515 9.66,-10.969655114602888 9.33,-10.39807834810516 8.67,-10.398078348105159 8.34,-10.969655114602888 8.673333333333334,-11.547005383792515 8.336666666666666,-12.130129155674037 7.663333333333333,-12.130129155674037" fill="None" stroke="white" stroke-width="0.05"/>
  </g>
  <g>
    <polygon points="7.663333333333333,-14.439530232432539 7.326666666666667,-13.856406460551018 7.66,-13.279056191361391 7.326666666666667,-12.701705922171765 7.663333333333334,-12.118582150290242 8.33,-12.118582150290244 8.663333333333334,-11.541231881100618 9.336666666666666,-11.541231881100618 9.673333333333334,-12.12435565298214 9.34,-12.701705922171767 9.673333333333334,-13.279056191361391 9.336666666666666,-13.862179963242914 8.670000000000002,-13.862179963242912 8.336666666666666,-14.43953023243254 7.663333333333333,-14.439530232432539" fill="None" stroke="white" stroke-width="0.05"/>
  </g>
  <g>
    <polygon points="11.673333333333334,-7.505553499465134 11.336666666666666,-8.088677271346656 10.663333333333334,-8.088677271346656 10.33,-7.511327002157031 9.663333333333334,-7.511327002157031 9.33,-6.9339767329674045 8.663333333333334,-6.9339767329674045 8.326666666666666,-6.350852961085883 8.66,-5.773502691896256 8.326666666666666,-5.196152422706631 8.663333333333334,-4.613028650825109 9.336666666666666,-4.613028650825109 9.673333333333334,-5.196152422706631 9.34,-5.773502691896256 9.67,-6.345079458393987 10.336666666666666,-6.345079458393987 10.67,-6.922429727583612 11.336666666666666,-6.922429727583612 11.673333333333334,-7.505553499465134" fill="None" stroke="white" stroke-width="0.05"/>
  </g>
  <g>
    <polygon points="4.663333333333333,-2.315174579450399 4.330000000000001,-1.7378243102607738 3.663333333333333,-1.7378243102607733 3.3266666666666667,-1.1547005383792515 3.66,-0.5773502691896261 3.3266666666666667,8.245955114258844e-17 3.6633333333333336,0.583123771881522 4.33,0.5831237718815219 4.663333333333334,1.1604740410711476 5.33,1.1604740410711476 5.663333333333334,1.7378243102607733 6.336666666666667,1.7378243102607733 6.673333333333333,1.1547005383792515 6.34,0.5773502691896263 6.67,0.0057735026918962476 7.336666666666667,0.005773502691896137 7.673333333333333,-0.5773502691896257 7.34,-1.154700538379251 7.673333333333333,-1.7320508075688772 7.336666666666666,-2.3151745794503995 6.663333333333333,-2.315174579450399 6.326666666666667,-1.7320508075688772 6.66,-1.1547005383792521 6.330000000000001,-0.5831237718815222 5.67,-0.5831237718815219 5.34,-1.154700538379251 5.673333333333333,-1.7320508075688772 5.336666666666666,-2.3151745794503995 4.663333333333333,-2.315174579450399" fill="None" stroke="white" stroke-width="0.05"/>
  </g>
  <g>
    <polygon points="8.336666666666666,-2.8925248486400252 7.663333333333333,-2.892524848640025 7.326666666666667,-2.309401076758503 7.66,-1.7320508075688779 7.330000000000001,-1.160474041071148 6.663333333333333,-1.1604740410711476 6.326666666666667,-0.5773502691896256 6.66,-7.22081347673968e-16 6.326666666666667,0.5773502691896258 6.663333333333334,1.1604740410711476 7.33,1.1604740410711476 7.663333333333334,1.7378243102607733 8.336666666666666,1.7378243102607733 8.67,1.1604740410711476 9.336666666666666,1.1604740410711476 9.673333333333334,0.5773502691896257 9.336666666666666,-0.0057735026918964705 8.67,-0.005773502691896141 8.34,-0.5773502691896258 8.673333333333334,-1.1547005383792515 8.34,-1.7320508075688774 8.673333333333334,-2.309401076758503 8.336666666666666,-2.8925248486400252" fill="None" stroke="white" stroke-width="0.05"/>
  </g>
  <g/>
  <g/>
  <g/>
  <g/>
  <g/>
  <g>
    <polygon points="10.673333333333334,-18.475208614068023 10.336666666666666,-19.058332385949544 9.663333333333334,-19.058332385949544 9.326666666666666,-18.475208614068023 9.660000000000002,-17.897858344878397 9.326666666666666,-17.32050807568877 9.663333333333334,-16.73738430380725 10.329999999999998,-16.73738430380725 10.663333333333334,-16.160034034617624 11.336666666666666,-16.160034034617624 11.673333333333334,-16.743157806499145 11.336666666666666,-17.326281578380666 10.670000000000002,-17.326281578380666 10.339999999999998,-17.897858344878397 10.673333333333334,-18.475208614068023" fill="None" stroke="white" stroke-width="0.05"/>
  </g>
  <g>
    <polygon points="6.336666666666666,-15.59423077081179 5.663333333333333,-15.59423077081179 5.330000000000002,-15.016880501622166 4.663333333333333,-15.016880501622165 4.326666666666667,-14.433756729740644 4.66,-13.856406460551018 4.330000000000001,-13.284829694053288 3.663333333333333,-13.284829694053286 3.3266666666666667,-12.701705922171765 3.6599999999999993,-12.12435565298214 3.3266666666666667,-11.547005383792515 3.6633333333333336,-10.963881611910992 4.330000000000001,-10.963881611910992 4.663333333333334,-10.386531342721366 5.336666666666667,-10.386531342721366 5.669999999999999,-10.963881611910992 6.336666666666667,-10.963881611910992 6.669999999999999,-11.541231881100618 7.336666666666667,-11.541231881100618 7.669999999999998,-12.118582150290242 8.336666666666666,-12.118582150290244 8.673333333333334,-12.701705922171765 8.336666666666666,-13.284829694053288 7.670000000000001,-13.284829694053286 7.34,-13.856406460551018 7.673333333333333,-14.433756729740644 7.336666666666666,-15.016880501622166 6.669999999999999,-15.016880501622165 6.336666666666666,-15.59423077081179" fill="None" stroke="white" stroke-width="0.05"/>
  </g>
  <g/>
  <g/>
  <g/>
  <g/>
  <g/>
  <g>
    <polygon points="6.326666666666667,-5.196152422706631 6.66,-4.618802153517006 6.326666666666667,-4.04145188432738 6.663333333333334,-3.458328112445858 7.330000000000001,-3.458328112445858 7.663333333333334,-2.8809778432562325 8.336666666666666,-2.8809778432562325 8.67,-3.458328112445858 9.33,-3.458328112445858 9.66,-2.8867513459481287 9.326666666666666,-2.309401076758503 9.663333333333334,-1.726277304876981 10.336666666666666,-1.726277304876981 10.673333333333334,-2.309401076758503 10.34,-2.886751345948129 10.673333333333334,-3.4641016151377544 10.336666666666666,-4.047225387019276 9.67,-4.047225387019276 9.336666666666666,-4.6245756562089015 8.67,-4.6245756562089015 8.336666666666666,-5.201925925398528 7.669999999999999,-5.201925925398528 7.336666666666666,-5.779276194588153 6.663333333333333,-5.779276194588153 6.326666666666667,-5.196152422706631" fill="None" stroke="white" stroke-width="0.05"/>
  </g>
  <g/>
</svg>
