<?xml version="1.0" ?>
<svg xmlns="http://www.w3.org/2000/svg" height="500" width="300" viewBox="-2.0 -2.0 8.0 10.928203230275509">
  <rect x="-2.0" y="-2.0" width="8.0" height="10.928203230275509" fill="#8881"/>
  <g>
    <polygon points="1.6666666666666665,3.4641016151377544 1.3333333333333333,4.04145188432738 0.666666666666667,4.04145188432738 0.3333333333333335,3.4641016151377544 0.6666666666666665,2.886751345948129 1.3333333333333328,2.886751345948128 1.6666666666666665,3.4641016151377544" fill="red" stroke="#ccc" stroke-width="0.01"/>
    <text x="1.0" y="3.4641016151377544" fill="black" font-size="0.14285714285714285" font-family="Arial" text-anchor="middle" dominant-baseline="middle">Western (1.00, 3.00)</text>
  </g>
  <g>
    <polygon points="0.6666666666666665,5.196152422706631 0.3333333333333333,5.773502691896256 -0.3333333333333331,5.773502691896256 -0.6666666666666665,5.196152422706631 -0.33333333333333354,4.618802153517006 0.3333333333333328,4.618802153517005 0.6666666666666665,5.196152422706631" fill="red" stroke="#ccc" stroke-width="0.01"/>
    <text x="0.0" y="5.196152422706631" fill="black" font-size="0.14285714285714285" font-family="Arial" text-anchor="middle" dominant-baseline="middle">Western (0.00, 4.50)</text>
  </g>
  <g>
    <polygon points="0.6666666666666665,4.04145188432738 0.3333333333333333,4.618802153517005 -0.3333333333333331,4.618802153517006 -0.6666666666666665,4.04145188432738 -0.33333333333333354,3.4641016151377544 0.3333333333333328,3.4641016151377535 0.6666666666666665,4.04145188432738" fill="red" stroke="#ccc" stroke-width="0.01"/>
    <text x="0.0" y="4.04145188432738" fill="black" font-size="0.14285714285714285" font-family="Arial" text-anchor="middle" dominant-baseline="middle">Western (0.00, 3.50)</text>
  </g>
  <g>
    <polygon points="1.6666666666666665,5.773502691896257 1.3333333333333333,6.350852961085883 0.666666666666667,6.350852961085883 0.3333333333333335,5.773502691896257 0.6666666666666665,5.196152422706632 1.3333333333333328,5.196152422706631 1.6666666666666665,5.773502691896257" fill="red" stroke="#ccc" stroke-width="0.01"/>
    <text x="1.0" y="5.773502691896257" fill="black" font-size="0.14285714285714285" font-family="Arial" text-anchor="middle" dominant-baseline="middle">Western (1.00, 5.00)</text>
  </g>
  <g>
    <polygon points="1.6666666666666665,4.618802153517006 1.3333333333333333,5.196152422706631 0.666666666666667,5.196152422706632 0.3333333333333335,4.618802153517006 0.6666666666666665,4.041451884327381 1.3333333333333328,4.04145188432738 1.6666666666666665,4.618802153517006" fill="red" stroke="#ccc" stroke-width="0.01"/>
    <text x="1.0" y="4.618802153517006" fill="black" font-size="0.14285714285714285" font-family="Arial" text-anchor="middle" dominant-baseline="middle">Western (1.00, 4.00)</text>
  </g>
  <g>
    <polygon points="0.6666666666666665,6.350852961085883 0.3333333333333333,6.928203230275508 -0.3333333333333331,6.928203230275509 -0.6666666666666665,6.350852961085883 -0.33333333333333354,5.773502691896257 0.3333333333333328,5.773502691896256 0.6666666666666665,6.350852961085883" fill="red" stroke="#ccc" stroke-width="0.01"/>
    <text x="0.0" y="6.350852961085883" fill="black" font-size="0.14285714285714285" font-family="Arial" text-anchor="middle" dominant-baseline="middle">Western (0.00, 5.50)</text>
  </g>
  <g>
    <polygon points="3.6666666666666665,3.4641016151377544 3.3333333333333335,4.04145188432738 2.666666666666667,4.04145188432738 2.3333333333333335,3.4641016151377544 2.6666666666666665,2.886751345948129 3.333333333333333,2.886751345948128 3.6666666666666665,3.4641016151377544" fill="red" stroke="#ccc" stroke-width="0.01"/>
    <text x="3.0" y="3.4641016151377544" fill="black" font-size="0.14285714285714285" font-family="Arial" text-anchor="middle" dominant-baseline="middle">Central (3.00, 3.00)</text>
  </g>
  <g>
    <polygon points="2.6666666666666665,2.8867513459481287 2.3333333333333335,3.4641016151377544 1.666666666666667,3.4641016151377544 1.3333333333333335,2.8867513459481287 1.6666666666666665,2.309401076758503 2.333333333333333,2.309401076758503 2.6666666666666665,2.8867513459481287" fill="red" stroke="#ccc" stroke-width="0.01"/>
    <text x="2.0" y="2.8867513459481287" fill="black" font-size="0.14285714285714285" font-family="Arial" text-anchor="middle" dominant-baseline="middle">Central (2.00, 2.50)</text>
  </g>
  <g>
    <polygon points="3.6666666666666665,2.309401076758503 3.3333333333333335,2.8867513459481287 2.666666666666667,2.8867513459481287 2.3333333333333335,2.309401076758503 2.6666666666666665,1.7320508075688774 3.333333333333333,1.732050807568877 3.6666666666666665,2.309401076758503" fill="red" stroke="#ccc" stroke-width="0.01"/>
    <text x="3.0" y="2.309401076758503" fill="black" font-size="0.14285714285714285" font-family="Arial" text-anchor="middle" dominant-baseline="middle">Central (3.00, 2.00)</text>
  </g>
  <g>
    <polygon points="3.6666666666666665,5.773502691896257 3.3333333333333335,6.350852961085883 2.666666666666667,6.350852961085883 2.3333333333333335,5.773502691896257 2.6666666666666665,5.196152422706632 3.333333333333333,5.196152422706631 3.6666666666666665,5.773502691896257" fill="red" stroke="#ccc" stroke-width="0.01"/>
    <text x="3.0" y="5.773502691896257" fill="black" font-size="0.14285714285714285" font-family="Arial" text-anchor="middle" dominant-baseline="middle">Southern (3.00, 5.00)</text>
  </g>
  <g>
    <polygon points="2.6666666666666665,6.350852961085883 2.3333333333333335,6.928203230275508 1.666666666666667,6.928203230275509 1.3333333333333335,6.350852961085883 1.6666666666666665,5.773502691896257 2.333333333333333,5.773502691896256 2.6666666666666665,6.350852961085883" fill="red" stroke="#ccc" stroke-width="0.01"/>
    <text x="2.0" y="6.350852961085883" fill="black" font-size="0.14285714285714285" font-family="Arial" text-anchor="middle" dominant-baseline="middle">Southern (2.00, 5.50)</text>
  </g>
  <g>
    <polygon points="1.6666666666666665,6.928203230275509 1.3333333333333333,7.505553499465134 0.666666666666667,7.505553499465135 0.3333333333333335,6.928203230275509 0.6666666666666665,6.3508529610858835 1.3333333333333328,6.350852961085883 1.6666666666666665,6.928203230275509" fill="red" stroke="#ccc" stroke-width="0.01"/>
    <text x="1.0" y="6.928203230275509" fill="black" font-size="0.14285714285714285" font-family="Arial" text-anchor="middle" dominant-baseline="middle">Southern (1.00, 6.00)</text>
  </g>
  <g>
    <polygon points="1.6666666666666665,0.0 1.3333333333333333,0.5773502691896256 0.666666666666667,0.5773502691896257 0.3333333333333335,8.164311994315686e-17 0.6666666666666665,-0.5773502691896255 1.3333333333333328,-0.577350269189626 1.6666666666666665,0.0" fill="red" stroke="#ccc" stroke-width="0.01"/>
    <text x="1.0" y="0.0" fill="black" font-size="0.14285714285714285" font-family="Arial" text-anchor="middle" dominant-baseline="middle">Northern (1.00, 0.00)</text>
  </g>
  <g>
    <polygon points="4.666666666666666,4.04145188432738 4.333333333333333,4.618802153517005 3.666666666666667,4.618802153517006 3.3333333333333335,4.04145188432738 3.6666666666666665,3.4641016151377544 4.333333333333333,3.4641016151377535 4.666666666666666,4.04145188432738" fill="red" stroke="#ccc" stroke-width="0.01"/>
    <text x="4.0" y="4.04145188432738" fill="black" font-size="0.14285714285714285" font-family="Arial" text-anchor="middle" dominant-baseline="middle">Eastern (4.00, 3.50)</text>
  </g>
  <g>
    <polygon points="2.6666666666666665,0.5773502691896257 2.3333333333333335,1.1547005383792515 1.666666666666667,1.1547005383792515 1.3333333333333335,0.5773502691896258 1.6666666666666665,2.220446049250313e-16 2.333333333333333,-2.220446049250313e-16 2.6666666666666665,0.5773502691896257" fill="red" stroke="#ccc" stroke-width="0.01"/>
    <text x="2.0" y="0.5773502691896257" fill="black" font-size="0.14285714285714285" font-family="Arial" text-anchor="middle" dominant-baseline="middle">Eastern (2.00, 0.50)</text>
  </g>
  <g>
    <polygon points="1.6666666666666665,2.309401076758503 1.3333333333333333,2.8867513459481287 0.666666666666667,2.8867513459481287 0.3333333333333335,2.309401076758503 0.6666666666666665,1.7320508075688774 1.3333333333333328,1.732050807568877 1.6666666666666665,2.309401076758503" fill="red" stroke="#ccc" stroke-width="0.01"/>
    <text x="1.0" y="2.309401076758503" fill="black" font-size="0.14285714285714285" font-family="Arial" text-anchor="middle" dominant-baseline="middle">North Western (1.00, 2.00)</text>
  </g>
  <g>
    <polygon points="0.6666666666666665,2.8867513459481287 0.3333333333333333,3.4641016151377544 -0.3333333333333331,3.4641016151377544 -0.6666666666666665,2.8867513459481287 -0.33333333333333354,2.309401076758503 0.3333333333333328,2.309401076758503 0.6666666666666665,2.8867513459481287" fill="red" stroke="#ccc" stroke-width="0.01"/>
    <text x="0.0" y="2.8867513459481287" fill="black" font-size="0.14285714285714285" font-family="Arial" text-anchor="middle" dominant-baseline="middle">North Western (0.00, 2.50)</text>
  </g>
  <g>
    <polygon points="0.6666666666666665,1.7320508075688772 0.3333333333333333,2.309401076758503 -0.3333333333333331,2.309401076758503 -0.6666666666666665,1.7320508075688772 -0.33333333333333354,1.1547005383792517 0.3333333333333328,1.1547005383792512 0.6666666666666665,1.7320508075688772" fill="red" stroke="#ccc" stroke-width="0.01"/>
    <text x="0.0" y="1.7320508075688772" fill="black" font-size="0.14285714285714285" font-family="Arial" text-anchor="middle" dominant-baseline="middle">North Western (0.00, 1.50)</text>
  </g>
  <g>
    <polygon points="2.6666666666666665,1.7320508075688772 2.3333333333333335,2.309401076758503 1.666666666666667,2.309401076758503 1.3333333333333335,1.7320508075688772 1.6666666666666665,1.1547005383792517 2.333333333333333,1.1547005383792512 2.6666666666666665,1.7320508075688772" fill="red" stroke="#ccc" stroke-width="0.01"/>
    <text x="2.0" y="1.7320508075688772" fill="black" font-size="0.14285714285714285" font-family="Arial" text-anchor="middle" dominant-baseline="middle">North Central (2.00, 1.50)</text>
  </g>
  <g>
    <polygon points="3.6666666666666665,4.618802153517006 3.3333333333333335,5.196152422706631 2.666666666666667,5.196152422706632 2.3333333333333335,4.618802153517006 2.6666666666666665,4.041451884327381 3.333333333333333,4.04145188432738 3.6666666666666665,4.618802153517006" fill="red" stroke="#ccc" stroke-width="0.01"/>
    <text x="3.0" y="4.618802153517006" fill="black" font-size="0.14285714285714285" font-family="Arial" text-anchor="middle" dominant-baseline="middle">Uva (3.00, 4.00)</text>
  </g>
  <g>
    <polygon points="2.6666666666666665,5.196152422706631 2.3333333333333335,5.773502691896256 1.666666666666667,5.773502691896256 1.3333333333333335,5.196152422706631 1.6666666666666665,4.618802153517006 2.333333333333333,4.618802153517005 2.6666666666666665,5.196152422706631" fill="red" stroke="#ccc" stroke-width="0.01"/>
    <text x="2.0" y="5.196152422706631" fill="black" font-size="0.14285714285714285" font-family="Arial" text-anchor="middle" dominant-baseline="middle">Sabaragamuwa (2.00, 4.50)</text>
  </g>
  <g>
    <polygon points="2.6666666666666665,4.04145188432738 2.3333333333333335,4.618802153517005 1.666666666666667,4.618802153517006 1.3333333333333335,4.04145188432738 1.6666666666666665,3.4641016151377544 2.333333333333333,3.4641016151377535 2.6666666666666665,4.04145188432738" fill="red" stroke="#ccc" stroke-width="0.01"/>
    <text x="2.0" y="4.04145188432738" fill="black" font-size="0.14285714285714285" font-family="Arial" text-anchor="middle" dominant-baseline="middle">Sabaragamuwa (2.00, 3.50)</text>
  </g>
  <g>
    <polygon points="1.3366666666666662,2.880977843256232 0.6633333333333331,2.8809778432562325 0.33000000000000057,3.4583281124458574 -0.3366666666666669,3.458328112445858 -0.6733333333333332,4.04145188432738 -0.33999999999999997,4.618802153517005 -0.6733333333333332,5.196152422706631 -0.33999999999999997,5.773502691896256 -0.6733333333333332,6.350852961085883 -0.33666666666666645,6.9339767329674045 0.33666666666666667,6.9339767329674045 0.6699999999999997,6.356626463777779 1.3366666666666667,6.356626463777779 1.6733333333333333,5.773502691896257 1.3399999999999999,5.196152422706632 1.6733333333333333,4.618802153517006 1.3399999999999999,4.041451884327381 1.6733333333333333,3.4641016151377544 1.3366666666666662,2.880977843256232" fill="None" stroke="#eee" stroke-width="0.05"/>
  </g>
  <g>
    <polygon points="3.6733333333333333,2.309401076758503 3.336666666666666,1.7262773048769806 2.663333333333333,1.726277304876981 2.33,2.3036275740666063 1.663333333333333,2.303627574066607 1.3266666666666667,2.8867513459481287 1.6633333333333336,3.4698751178296505 2.33,3.4698751178296505 2.6633333333333336,4.047225387019276 3.336666666666667,4.047225387019276 3.6733333333333333,3.4641016151377544 3.34,2.886751345948129 3.6733333333333333,2.309401076758503" fill="None" stroke="#eee" stroke-width="0.05"/>
  </g>
  <g>
    <polygon points="3.336666666666667,6.356626463777779 3.6733333333333333,5.773502691896257 3.336666666666666,5.190378920014735 2.663333333333333,5.190378920014735 2.33,5.767729189204361 1.663333333333333,5.767729189204361 1.3299999999999996,6.345079458393987 0.6633333333333331,6.345079458393987 0.32666666666666677,6.928203230275509 0.6633333333333336,7.511327002157031 1.3366666666666667,7.511327002157031 1.6700000000000004,6.9339767329674045 2.336666666666667,6.9339767329674045 2.67,6.356626463777779 3.336666666666667,6.356626463777779" fill="None" stroke="#eee" stroke-width="0.05"/>
  </g>
  <g>
    <polygon points="1.6733333333333333,0.0 1.3366666666666667,0.5831237718815219 0.6633333333333336,0.583123771881522 0.32666666666666677,8.245955114258844e-17 0.6633333333333331,-0.5831237718815219 1.3366666666666662,-0.5831237718815222 1.6733333333333333,0.0" fill="None" stroke="#eee" stroke-width="0.05"/>
  </g>
  <g/>
  <g>
    <polygon points="0.33666666666666617,1.1489270356873549 -0.3366666666666669,1.1489270356873553 -0.6733333333333332,1.7320508075688772 -0.33999999999999997,2.3094010767585025 -0.6733333333333332,2.8867513459481287 -0.33666666666666645,3.4698751178296505 0.33666666666666667,3.4698751178296505 0.6699999999999999,2.892524848640025 1.3366666666666667,2.892524848640025 1.6733333333333333,2.309401076758503 1.3366666666666662,1.7262773048769806 0.6699999999999999,1.726277304876981 0.33666666666666617,1.1489270356873549" fill="None" stroke="#eee" stroke-width="0.05"/>
  </g>
  <g>
    <polygon points="2.6733333333333333,1.7320508075688772 2.336666666666667,2.315174579450399 1.6633333333333336,2.315174579450399 1.3266666666666667,1.7320508075688772 1.663333333333333,1.1489270356873553 2.336666666666666,1.1489270356873549 2.6733333333333333,1.7320508075688772" fill="None" stroke="#eee" stroke-width="0.05"/>
  </g>
  <g>
    <polygon points="3.6733333333333333,4.618802153517006 3.336666666666667,5.201925925398528 2.6633333333333336,5.201925925398528 2.3266666666666667,4.618802153517006 2.663333333333333,4.035678381635484 3.336666666666666,4.035678381635484 3.6733333333333333,4.618802153517006" fill="None" stroke="#eee" stroke-width="0.05"/>
  </g>
  <g>
    <polygon points="2.6733333333333333,4.04145188432738 2.336666666666666,3.4583281124458574 1.663333333333333,3.458328112445858 1.3266666666666667,4.04145188432738 1.6600000000000001,4.618802153517005 1.3266666666666667,5.196152422706631 1.6633333333333336,5.779276194588153 2.336666666666667,5.779276194588153 2.6733333333333333,5.196152422706631 2.34,4.618802153517006 2.6733333333333333,4.04145188432738" fill="None" stroke="#eee" stroke-width="0.05"/>
  </g>
</svg>
