<?xml version="1.0" ?>
<svg xmlns="http://www.w3.org/2000/svg" height="500" width="300" viewBox="-1.0 -1.7320508075688772 5.0 9.237604307034012">
  <rect x="-1.0" y="-1.7320508075688772" width="5.0" height="9.237604307034012" fill="#8881"/>
  <g>
    <g>
      <polygon points="-0.3333333333333335,-1.7320508075688772 -0.6666666666666667,-1.1547005383792515 -1.333333333333333,-1.1547005383792515 -1.6666666666666665,-1.7320508075688772 -1.3333333333333335,-2.309401076758503 -0.6666666666666672,-2.309401076758503 -0.3333333333333335,-1.7320508075688772" fill="None" stroke="#ccc" stroke-width="0.01"/>
      <text x="-1.0" y="-1.7320508075688772" fill="#ccc" font-size="0.3" font-family="P22 Johnston Underground Regular" text-anchor="middle" dominant-baseline="middle">-1.0,-1.5</text>
    </g>
    <g>
      <polygon points="-0.3333333333333335,-0.5773502691896257 -0.6666666666666667,-1.1102230246251565e-16 -1.333333333333333,0.0 -1.6666666666666665,-0.5773502691896256 -1.3333333333333335,-1.1547005383792512 -0.6666666666666672,-1.1547005383792517 -0.3333333333333335,-0.5773502691896257" fill="None" stroke="#ccc" stroke-width="0.01"/>
      <text x="-1.0" y="-0.5773502691896257" fill="#ccc" font-size="0.3" font-family="P22 Johnston Underground Regular" text-anchor="middle" dominant-baseline="middle">-1.0,-0.5</text>
    </g>
    <g>
      <polygon points="-0.3333333333333335,0.5773502691896257 -0.6666666666666667,1.1547005383792515 -1.333333333333333,1.1547005383792515 -1.6666666666666665,0.5773502691896258 -1.3333333333333335,2.220446049250313e-16 -0.6666666666666672,-2.220446049250313e-16 -0.3333333333333335,0.5773502691896257" fill="None" stroke="#ccc" stroke-width="0.01"/>
      <text x="-1.0" y="0.5773502691896257" fill="#ccc" font-size="0.3" font-family="P22 Johnston Underground Regular" text-anchor="middle" dominant-baseline="middle">-1.0,0.5</text>
    </g>
    <g>
      <polygon points="-0.3333333333333335,1.7320508075688772 -0.6666666666666667,2.309401076758503 -1.333333333333333,2.309401076758503 -1.6666666666666665,1.7320508075688772 -1.3333333333333335,1.1547005383792517 -0.6666666666666672,1.1547005383792512 -0.3333333333333335,1.7320508075688772" fill="None" stroke="#ccc" stroke-width="0.01"/>
      <text x="-1.0" y="1.7320508075688772" fill="#ccc" font-size="0.3" font-family="P22 Johnston Underground Regular" text-anchor="middle" dominant-baseline="middle">-1.0,1.5</text>
    </g>
    <g>
      <polygon points="-0.3333333333333335,2.8867513459481287 -0.6666666666666667,3.4641016151377544 -1.333333333333333,3.4641016151377544 -1.6666666666666665,2.8867513459481287 -1.3333333333333335,2.309401076758503 -0.6666666666666672,2.309401076758503 -0.3333333333333335,2.8867513459481287" fill="None" stroke="#ccc" stroke-width="0.01"/>
      <text x="-1.0" y="2.8867513459481287" fill="#ccc" font-size="0.3" font-family="P22 Johnston Underground Regular" text-anchor="middle" dominant-baseline="middle">-1.0,2.5</text>
    </g>
    <g>
      <polygon points="-0.3333333333333335,4.04145188432738 -0.6666666666666667,4.618802153517005 -1.333333333333333,4.618802153517006 -1.6666666666666665,4.04145188432738 -1.3333333333333335,3.4641016151377544 -0.6666666666666672,3.4641016151377535 -0.3333333333333335,4.04145188432738" fill="None" stroke="#ccc" stroke-width="0.01"/>
      <text x="-1.0" y="4.04145188432738" fill="#ccc" font-size="0.3" font-family="P22 Johnston Underground Regular" text-anchor="middle" dominant-baseline="middle">-1.0,3.5</text>
    </g>
    <g>
      <polygon points="-0.3333333333333335,5.196152422706631 -0.6666666666666667,5.773502691896256 -1.333333333333333,5.773502691896256 -1.6666666666666665,5.196152422706631 -1.3333333333333335,4.618802153517006 -0.6666666666666672,4.618802153517005 -0.3333333333333335,5.196152422706631" fill="None" stroke="#ccc" stroke-width="0.01"/>
      <text x="-1.0" y="5.196152422706631" fill="#ccc" font-size="0.3" font-family="P22 Johnston Underground Regular" text-anchor="middle" dominant-baseline="middle">-1.0,4.5</text>
    </g>
    <g>
      <polygon points="-0.3333333333333335,6.350852961085883 -0.6666666666666667,6.928203230275508 -1.333333333333333,6.928203230275509 -1.6666666666666665,6.350852961085883 -1.3333333333333335,5.773502691896257 -0.6666666666666672,5.773502691896256 -0.3333333333333335,6.350852961085883" fill="None" stroke="#ccc" stroke-width="0.01"/>
      <text x="-1.0" y="6.350852961085883" fill="#ccc" font-size="0.3" font-family="P22 Johnston Underground Regular" text-anchor="middle" dominant-baseline="middle">-1.0,5.5</text>
    </g>
    <g>
      <polygon points="-0.3333333333333335,7.505553499465134 -0.6666666666666667,8.08290376865476 -1.333333333333333,8.08290376865476 -1.6666666666666665,7.505553499465134 -1.3333333333333335,6.928203230275509 -0.6666666666666672,6.928203230275508 -0.3333333333333335,7.505553499465134" fill="None" stroke="#ccc" stroke-width="0.01"/>
      <text x="-1.0" y="7.505553499465134" fill="#ccc" font-size="0.3" font-family="P22 Johnston Underground Regular" text-anchor="middle" dominant-baseline="middle">-1.0,6.5</text>
    </g>
    <g>
      <polygon points="0.6666666666666665,-2.309401076758503 0.3333333333333333,-1.7320508075688772 -0.3333333333333331,-1.7320508075688772 -0.6666666666666665,-2.309401076758503 -0.33333333333333354,-2.886751345948128 0.3333333333333328,-2.886751345948129 0.6666666666666665,-2.309401076758503" fill="None" stroke="#ccc" stroke-width="0.01"/>
      <text x="0.0" y="-2.309401076758503" fill="#ccc" font-size="0.3" font-family="P22 Johnston Underground Regular" text-anchor="middle" dominant-baseline="middle">0.0,-2.0</text>
    </g>
    <g>
      <polygon points="0.6666666666666665,-1.1547005383792515 0.3333333333333333,-0.5773502691896258 -0.3333333333333331,-0.5773502691896257 -0.6666666666666665,-1.1547005383792515 -0.33333333333333354,-1.732050807568877 0.3333333333333328,-1.7320508075688774 0.6666666666666665,-1.1547005383792515" fill="None" stroke="#ccc" stroke-width="0.01"/>
      <text x="0.0" y="-1.1547005383792515" fill="#ccc" font-size="0.3" font-family="P22 Johnston Underground Regular" text-anchor="middle" dominant-baseline="middle">0.0,-1.0</text>
    </g>
    <g>
      <polygon points="0.6666666666666665,0.0 0.3333333333333333,0.5773502691896256 -0.3333333333333331,0.5773502691896257 -0.6666666666666665,8.164311994315686e-17 -0.33333333333333354,-0.5773502691896255 0.3333333333333328,-0.577350269189626 0.6666666666666665,0.0" fill="None" stroke="#ccc" stroke-width="0.01"/>
      <text x="0.0" y="0.0" fill="#ccc" font-size="0.3" font-family="P22 Johnston Underground Regular" text-anchor="middle" dominant-baseline="middle">0.0,0.0</text>
    </g>
    <g>
      <polygon points="0.6666666666666665,1.1547005383792515 0.3333333333333333,1.7320508075688772 -0.3333333333333331,1.7320508075688772 -0.6666666666666665,1.1547005383792515 -0.33333333333333354,0.577350269189626 0.3333333333333328,0.5773502691896255 0.6666666666666665,1.1547005383792515" fill="None" stroke="#ccc" stroke-width="0.01"/>
      <text x="0.0" y="1.1547005383792515" fill="#ccc" font-size="0.3" font-family="P22 Johnston Underground Regular" text-anchor="middle" dominant-baseline="middle">0.0,1.0</text>
    </g>
    <g>
      <polygon points="0.6666666666666665,2.309401076758503 0.3333333333333333,2.8867513459481287 -0.3333333333333331,2.8867513459481287 -0.6666666666666665,2.309401076758503 -0.33333333333333354,1.7320508075688774 0.3333333333333328,1.732050807568877 0.6666666666666665,2.309401076758503" fill="None" stroke="#ccc" stroke-width="0.01"/>
      <text x="0.0" y="2.309401076758503" fill="#ccc" font-size="0.3" font-family="P22 Johnston Underground Regular" text-anchor="middle" dominant-baseline="middle">0.0,2.0</text>
    </g>
    <g>
      <polygon points="0.6666666666666665,3.4641016151377544 0.3333333333333333,4.04145188432738 -0.3333333333333331,4.04145188432738 -0.6666666666666665,3.4641016151377544 -0.33333333333333354,2.886751345948129 0.3333333333333328,2.886751345948128 0.6666666666666665,3.4641016151377544" fill="None" stroke="#ccc" stroke-width="0.01"/>
      <text x="0.0" y="3.4641016151377544" fill="#ccc" font-size="0.3" font-family="P22 Johnston Underground Regular" text-anchor="middle" dominant-baseline="middle">0.0,3.0</text>
    </g>
    <g>
      <polygon points="0.6666666666666665,4.618802153517006 0.3333333333333333,5.196152422706631 -0.3333333333333331,5.196152422706632 -0.6666666666666665,4.618802153517006 -0.33333333333333354,4.041451884327381 0.3333333333333328,4.04145188432738 0.6666666666666665,4.618802153517006" fill="None" stroke="#ccc" stroke-width="0.01"/>
      <text x="0.0" y="4.618802153517006" fill="#ccc" font-size="0.3" font-family="P22 Johnston Underground Regular" text-anchor="middle" dominant-baseline="middle">0.0,4.0</text>
    </g>
    <g>
      <polygon points="0.6666666666666665,5.773502691896257 0.3333333333333333,6.350852961085883 -0.3333333333333331,6.350852961085883 -0.6666666666666665,5.773502691896257 -0.33333333333333354,5.196152422706632 0.3333333333333328,5.196152422706631 0.6666666666666665,5.773502691896257" fill="None" stroke="#ccc" stroke-width="0.01"/>
      <text x="0.0" y="5.773502691896257" fill="#ccc" font-size="0.3" font-family="P22 Johnston Underground Regular" text-anchor="middle" dominant-baseline="middle">0.0,5.0</text>
    </g>
    <g>
      <polygon points="0.6666666666666665,6.928203230275509 0.3333333333333333,7.505553499465134 -0.3333333333333331,7.505553499465135 -0.6666666666666665,6.928203230275509 -0.33333333333333354,6.3508529610858835 0.3333333333333328,6.350852961085883 0.6666666666666665,6.928203230275509" fill="None" stroke="#ccc" stroke-width="0.01"/>
      <text x="0.0" y="6.928203230275509" fill="#ccc" font-size="0.3" font-family="P22 Johnston Underground Regular" text-anchor="middle" dominant-baseline="middle">0.0,6.0</text>
    </g>
    <g>
      <polygon points="1.6666666666666665,-1.7320508075688772 1.3333333333333333,-1.1547005383792515 0.666666666666667,-1.1547005383792515 0.3333333333333335,-1.7320508075688772 0.6666666666666665,-2.309401076758503 1.3333333333333328,-2.309401076758503 1.6666666666666665,-1.7320508075688772" fill="None" stroke="#ccc" stroke-width="0.01"/>
      <text x="1.0" y="-1.7320508075688772" fill="#ccc" font-size="0.3" font-family="P22 Johnston Underground Regular" text-anchor="middle" dominant-baseline="middle">1.0,-1.5</text>
    </g>
    <g>
      <polygon points="1.6666666666666665,-0.5773502691896257 1.3333333333333333,-1.1102230246251565e-16 0.666666666666667,0.0 0.3333333333333335,-0.5773502691896256 0.6666666666666665,-1.1547005383792512 1.3333333333333328,-1.1547005383792517 1.6666666666666665,-0.5773502691896257" fill="None" stroke="#ccc" stroke-width="0.01"/>
      <text x="1.0" y="-0.5773502691896257" fill="#ccc" font-size="0.3" font-family="P22 Johnston Underground Regular" text-anchor="middle" dominant-baseline="middle">1.0,-0.5</text>
    </g>
    <g>
      <polygon points="1.6666666666666665,0.5773502691896257 1.3333333333333333,1.1547005383792515 0.666666666666667,1.1547005383792515 0.3333333333333335,0.5773502691896258 0.6666666666666665,2.220446049250313e-16 1.3333333333333328,-2.220446049250313e-16 1.6666666666666665,0.5773502691896257" fill="None" stroke="#ccc" stroke-width="0.01"/>
      <text x="1.0" y="0.5773502691896257" fill="#ccc" font-size="0.3" font-family="P22 Johnston Underground Regular" text-anchor="middle" dominant-baseline="middle">1.0,0.5</text>
    </g>
    <g>
      <polygon points="1.6666666666666665,1.7320508075688772 1.3333333333333333,2.309401076758503 0.666666666666667,2.309401076758503 0.3333333333333335,1.7320508075688772 0.6666666666666665,1.1547005383792517 1.3333333333333328,1.1547005383792512 1.6666666666666665,1.7320508075688772" fill="None" stroke="#ccc" stroke-width="0.01"/>
      <text x="1.0" y="1.7320508075688772" fill="#ccc" font-size="0.3" font-family="P22 Johnston Underground Regular" text-anchor="middle" dominant-baseline="middle">1.0,1.5</text>
    </g>
    <g>
      <polygon points="1.6666666666666665,2.8867513459481287 1.3333333333333333,3.4641016151377544 0.666666666666667,3.4641016151377544 0.3333333333333335,2.8867513459481287 0.6666666666666665,2.309401076758503 1.3333333333333328,2.309401076758503 1.6666666666666665,2.8867513459481287" fill="None" stroke="#ccc" stroke-width="0.01"/>
      <text x="1.0" y="2.8867513459481287" fill="#ccc" font-size="0.3" font-family="P22 Johnston Underground Regular" text-anchor="middle" dominant-baseline="middle">1.0,2.5</text>
    </g>
    <g>
      <polygon points="1.6666666666666665,4.04145188432738 1.3333333333333333,4.618802153517005 0.666666666666667,4.618802153517006 0.3333333333333335,4.04145188432738 0.6666666666666665,3.4641016151377544 1.3333333333333328,3.4641016151377535 1.6666666666666665,4.04145188432738" fill="None" stroke="#ccc" stroke-width="0.01"/>
      <text x="1.0" y="4.04145188432738" fill="#ccc" font-size="0.3" font-family="P22 Johnston Underground Regular" text-anchor="middle" dominant-baseline="middle">1.0,3.5</text>
    </g>
    <g>
      <polygon points="1.6666666666666665,5.196152422706631 1.3333333333333333,5.773502691896256 0.666666666666667,5.773502691896256 0.3333333333333335,5.196152422706631 0.6666666666666665,4.618802153517006 1.3333333333333328,4.618802153517005 1.6666666666666665,5.196152422706631" fill="None" stroke="#ccc" stroke-width="0.01"/>
      <text x="1.0" y="5.196152422706631" fill="#ccc" font-size="0.3" font-family="P22 Johnston Underground Regular" text-anchor="middle" dominant-baseline="middle">1.0,4.5</text>
    </g>
    <g>
      <polygon points="1.6666666666666665,6.350852961085883 1.3333333333333333,6.928203230275508 0.666666666666667,6.928203230275509 0.3333333333333335,6.350852961085883 0.6666666666666665,5.773502691896257 1.3333333333333328,5.773502691896256 1.6666666666666665,6.350852961085883" fill="None" stroke="#ccc" stroke-width="0.01"/>
      <text x="1.0" y="6.350852961085883" fill="#ccc" font-size="0.3" font-family="P22 Johnston Underground Regular" text-anchor="middle" dominant-baseline="middle">1.0,5.5</text>
    </g>
    <g>
      <polygon points="1.6666666666666665,7.505553499465134 1.3333333333333333,8.08290376865476 0.666666666666667,8.08290376865476 0.3333333333333335,7.505553499465134 0.6666666666666665,6.928203230275509 1.3333333333333328,6.928203230275508 1.6666666666666665,7.505553499465134" fill="None" stroke="#ccc" stroke-width="0.01"/>
      <text x="1.0" y="7.505553499465134" fill="#ccc" font-size="0.3" font-family="P22 Johnston Underground Regular" text-anchor="middle" dominant-baseline="middle">1.0,6.5</text>
    </g>
    <g>
      <polygon points="2.6666666666666665,-2.309401076758503 2.3333333333333335,-1.7320508075688772 1.666666666666667,-1.7320508075688772 1.3333333333333335,-2.309401076758503 1.6666666666666665,-2.886751345948128 2.333333333333333,-2.886751345948129 2.6666666666666665,-2.309401076758503" fill="None" stroke="#ccc" stroke-width="0.01"/>
      <text x="2.0" y="-2.309401076758503" fill="#ccc" font-size="0.3" font-family="P22 Johnston Underground Regular" text-anchor="middle" dominant-baseline="middle">2.0,-2.0</text>
    </g>
    <g>
      <polygon points="2.6666666666666665,-1.1547005383792515 2.3333333333333335,-0.5773502691896258 1.666666666666667,-0.5773502691896257 1.3333333333333335,-1.1547005383792515 1.6666666666666665,-1.732050807568877 2.333333333333333,-1.7320508075688774 2.6666666666666665,-1.1547005383792515" fill="None" stroke="#ccc" stroke-width="0.01"/>
      <text x="2.0" y="-1.1547005383792515" fill="#ccc" font-size="0.3" font-family="P22 Johnston Underground Regular" text-anchor="middle" dominant-baseline="middle">2.0,-1.0</text>
    </g>
    <g>
      <polygon points="2.6666666666666665,0.0 2.3333333333333335,0.5773502691896256 1.666666666666667,0.5773502691896257 1.3333333333333335,8.164311994315686e-17 1.6666666666666665,-0.5773502691896255 2.333333333333333,-0.577350269189626 2.6666666666666665,0.0" fill="None" stroke="#ccc" stroke-width="0.01"/>
      <text x="2.0" y="0.0" fill="#ccc" font-size="0.3" font-family="P22 Johnston Underground Regular" text-anchor="middle" dominant-baseline="middle">2.0,0.0</text>
    </g>
    <g>
      <polygon points="2.6666666666666665,1.1547005383792515 2.3333333333333335,1.7320508075688772 1.666666666666667,1.7320508075688772 1.3333333333333335,1.1547005383792515 1.6666666666666665,0.577350269189626 2.333333333333333,0.5773502691896255 2.6666666666666665,1.1547005383792515" fill="None" stroke="#ccc" stroke-width="0.01"/>
      <text x="2.0" y="1.1547005383792515" fill="#ccc" font-size="0.3" font-family="P22 Johnston Underground Regular" text-anchor="middle" dominant-baseline="middle">2.0,1.0</text>
    </g>
    <g>
      <polygon points="2.6666666666666665,2.309401076758503 2.3333333333333335,2.8867513459481287 1.666666666666667,2.8867513459481287 1.3333333333333335,2.309401076758503 1.6666666666666665,1.7320508075688774 2.333333333333333,1.732050807568877 2.6666666666666665,2.309401076758503" fill="None" stroke="#ccc" stroke-width="0.01"/>
      <text x="2.0" y="2.309401076758503" fill="#ccc" font-size="0.3" font-family="P22 Johnston Underground Regular" text-anchor="middle" dominant-baseline="middle">2.0,2.0</text>
    </g>
    <g>
      <polygon points="2.6666666666666665,3.4641016151377544 2.3333333333333335,4.04145188432738 1.666666666666667,4.04145188432738 1.3333333333333335,3.4641016151377544 1.6666666666666665,2.886751345948129 2.333333333333333,2.886751345948128 2.6666666666666665,3.4641016151377544" fill="None" stroke="#ccc" stroke-width="0.01"/>
      <text x="2.0" y="3.4641016151377544" fill="#ccc" font-size="0.3" font-family="P22 Johnston Underground Regular" text-anchor="middle" dominant-baseline="middle">2.0,3.0</text>
    </g>
    <g>
      <polygon points="2.6666666666666665,4.618802153517006 2.3333333333333335,5.196152422706631 1.666666666666667,5.196152422706632 1.3333333333333335,4.618802153517006 1.6666666666666665,4.041451884327381 2.333333333333333,4.04145188432738 2.6666666666666665,4.618802153517006" fill="None" stroke="#ccc" stroke-width="0.01"/>
      <text x="2.0" y="4.618802153517006" fill="#ccc" font-size="0.3" font-family="P22 Johnston Underground Regular" text-anchor="middle" dominant-baseline="middle">2.0,4.0</text>
    </g>
    <g>
      <polygon points="2.6666666666666665,5.773502691896257 2.3333333333333335,6.350852961085883 1.666666666666667,6.350852961085883 1.3333333333333335,5.773502691896257 1.6666666666666665,5.196152422706632 2.333333333333333,5.196152422706631 2.6666666666666665,5.773502691896257" fill="None" stroke="#ccc" stroke-width="0.01"/>
      <text x="2.0" y="5.773502691896257" fill="#ccc" font-size="0.3" font-family="P22 Johnston Underground Regular" text-anchor="middle" dominant-baseline="middle">2.0,5.0</text>
    </g>
    <g>
      <polygon points="2.6666666666666665,6.928203230275509 2.3333333333333335,7.505553499465134 1.666666666666667,7.505553499465135 1.3333333333333335,6.928203230275509 1.6666666666666665,6.3508529610858835 2.333333333333333,6.350852961085883 2.6666666666666665,6.928203230275509" fill="None" stroke="#ccc" stroke-width="0.01"/>
      <text x="2.0" y="6.928203230275509" fill="#ccc" font-size="0.3" font-family="P22 Johnston Underground Regular" text-anchor="middle" dominant-baseline="middle">2.0,6.0</text>
    </g>
    <g>
      <polygon points="3.6666666666666665,-1.7320508075688772 3.3333333333333335,-1.1547005383792515 2.666666666666667,-1.1547005383792515 2.3333333333333335,-1.7320508075688772 2.6666666666666665,-2.309401076758503 3.333333333333333,-2.309401076758503 3.6666666666666665,-1.7320508075688772" fill="None" stroke="#ccc" stroke-width="0.01"/>
      <text x="3.0" y="-1.7320508075688772" fill="#ccc" font-size="0.3" font-family="P22 Johnston Underground Regular" text-anchor="middle" dominant-baseline="middle">3.0,-1.5</text>
    </g>
    <g>
      <polygon points="3.6666666666666665,-0.5773502691896257 3.3333333333333335,-1.1102230246251565e-16 2.666666666666667,0.0 2.3333333333333335,-0.5773502691896256 2.6666666666666665,-1.1547005383792512 3.333333333333333,-1.1547005383792517 3.6666666666666665,-0.5773502691896257" fill="None" stroke="#ccc" stroke-width="0.01"/>
      <text x="3.0" y="-0.5773502691896257" fill="#ccc" font-size="0.3" font-family="P22 Johnston Underground Regular" text-anchor="middle" dominant-baseline="middle">3.0,-0.5</text>
    </g>
    <g>
      <polygon points="3.6666666666666665,0.5773502691896257 3.3333333333333335,1.1547005383792515 2.666666666666667,1.1547005383792515 2.3333333333333335,0.5773502691896258 2.6666666666666665,2.220446049250313e-16 3.333333333333333,-2.220446049250313e-16 3.6666666666666665,0.5773502691896257" fill="None" stroke="#ccc" stroke-width="0.01"/>
      <text x="3.0" y="0.5773502691896257" fill="#ccc" font-size="0.3" font-family="P22 Johnston Underground Regular" text-anchor="middle" dominant-baseline="middle">3.0,0.5</text>
    </g>
    <g>
      <polygon points="3.6666666666666665,1.7320508075688772 3.3333333333333335,2.309401076758503 2.666666666666667,2.309401076758503 2.3333333333333335,1.7320508075688772 2.6666666666666665,1.1547005383792517 3.333333333333333,1.1547005383792512 3.6666666666666665,1.7320508075688772" fill="None" stroke="#ccc" stroke-width="0.01"/>
      <text x="3.0" y="1.7320508075688772" fill="#ccc" font-size="0.3" font-family="P22 Johnston Underground Regular" text-anchor="middle" dominant-baseline="middle">3.0,1.5</text>
    </g>
    <g>
      <polygon points="3.6666666666666665,2.8867513459481287 3.3333333333333335,3.4641016151377544 2.666666666666667,3.4641016151377544 2.3333333333333335,2.8867513459481287 2.6666666666666665,2.309401076758503 3.333333333333333,2.309401076758503 3.6666666666666665,2.8867513459481287" fill="None" stroke="#ccc" stroke-width="0.01"/>
      <text x="3.0" y="2.8867513459481287" fill="#ccc" font-size="0.3" font-family="P22 Johnston Underground Regular" text-anchor="middle" dominant-baseline="middle">3.0,2.5</text>
    </g>
    <g>
      <polygon points="3.6666666666666665,4.04145188432738 3.3333333333333335,4.618802153517005 2.666666666666667,4.618802153517006 2.3333333333333335,4.04145188432738 2.6666666666666665,3.4641016151377544 3.333333333333333,3.4641016151377535 3.6666666666666665,4.04145188432738" fill="None" stroke="#ccc" stroke-width="0.01"/>
      <text x="3.0" y="4.04145188432738" fill="#ccc" font-size="0.3" font-family="P22 Johnston Underground Regular" text-anchor="middle" dominant-baseline="middle">3.0,3.5</text>
    </g>
    <g>
      <polygon points="3.6666666666666665,5.196152422706631 3.3333333333333335,5.773502691896256 2.666666666666667,5.773502691896256 2.3333333333333335,5.196152422706631 2.6666666666666665,4.618802153517006 3.333333333333333,4.618802153517005 3.6666666666666665,5.196152422706631" fill="None" stroke="#ccc" stroke-width="0.01"/>
      <text x="3.0" y="5.196152422706631" fill="#ccc" font-size="0.3" font-family="P22 Johnston Underground Regular" text-anchor="middle" dominant-baseline="middle">3.0,4.5</text>
    </g>
    <g>
      <polygon points="3.6666666666666665,6.350852961085883 3.3333333333333335,6.928203230275508 2.666666666666667,6.928203230275509 2.3333333333333335,6.350852961085883 2.6666666666666665,5.773502691896257 3.333333333333333,5.773502691896256 3.6666666666666665,6.350852961085883" fill="None" stroke="#ccc" stroke-width="0.01"/>
      <text x="3.0" y="6.350852961085883" fill="#ccc" font-size="0.3" font-family="P22 Johnston Underground Regular" text-anchor="middle" dominant-baseline="middle">3.0,5.5</text>
    </g>
    <g>
      <polygon points="3.6666666666666665,7.505553499465134 3.3333333333333335,8.08290376865476 2.666666666666667,8.08290376865476 2.3333333333333335,7.505553499465134 2.6666666666666665,6.928203230275509 3.333333333333333,6.928203230275508 3.6666666666666665,7.505553499465134" fill="None" stroke="#ccc" stroke-width="0.01"/>
      <text x="3.0" y="7.505553499465134" fill="#ccc" font-size="0.3" font-family="P22 Johnston Underground Regular" text-anchor="middle" dominant-baseline="middle">3.0,6.5</text>
    </g>
    <g>
      <polygon points="4.666666666666666,-2.309401076758503 4.333333333333333,-1.7320508075688772 3.666666666666667,-1.7320508075688772 3.3333333333333335,-2.309401076758503 3.6666666666666665,-2.886751345948128 4.333333333333333,-2.886751345948129 4.666666666666666,-2.309401076758503" fill="None" stroke="#ccc" stroke-width="0.01"/>
      <text x="4.0" y="-2.309401076758503" fill="#ccc" font-size="0.3" font-family="P22 Johnston Underground Regular" text-anchor="middle" dominant-baseline="middle">4.0,-2.0</text>
    </g>
    <g>
      <polygon points="4.666666666666666,-1.1547005383792515 4.333333333333333,-0.5773502691896258 3.666666666666667,-0.5773502691896257 3.3333333333333335,-1.1547005383792515 3.6666666666666665,-1.732050807568877 4.333333333333333,-1.7320508075688774 4.666666666666666,-1.1547005383792515" fill="None" stroke="#ccc" stroke-width="0.01"/>
      <text x="4.0" y="-1.1547005383792515" fill="#ccc" font-size="0.3" font-family="P22 Johnston Underground Regular" text-anchor="middle" dominant-baseline="middle">4.0,-1.0</text>
    </g>
    <g>
      <polygon points="4.666666666666666,0.0 4.333333333333333,0.5773502691896256 3.666666666666667,0.5773502691896257 3.3333333333333335,8.164311994315686e-17 3.6666666666666665,-0.5773502691896255 4.333333333333333,-0.577350269189626 4.666666666666666,0.0" fill="None" stroke="#ccc" stroke-width="0.01"/>
      <text x="4.0" y="0.0" fill="#ccc" font-size="0.3" font-family="P22 Johnston Underground Regular" text-anchor="middle" dominant-baseline="middle">4.0,0.0</text>
    </g>
    <g>
      <polygon points="4.666666666666666,1.1547005383792515 4.333333333333333,1.7320508075688772 3.666666666666667,1.7320508075688772 3.3333333333333335,1.1547005383792515 3.6666666666666665,0.577350269189626 4.333333333333333,0.5773502691896255 4.666666666666666,1.1547005383792515" fill="None" stroke="#ccc" stroke-width="0.01"/>
      <text x="4.0" y="1.1547005383792515" fill="#ccc" font-size="0.3" font-family="P22 Johnston Underground Regular" text-anchor="middle" dominant-baseline="middle">4.0,1.0</text>
    </g>
    <g>
      <polygon points="4.666666666666666,2.309401076758503 4.333333333333333,2.8867513459481287 3.666666666666667,2.8867513459481287 3.3333333333333335,2.309401076758503 3.6666666666666665,1.7320508075688774 4.333333333333333,1.732050807568877 4.666666666666666,2.309401076758503" fill="None" stroke="#ccc" stroke-width="0.01"/>
      <text x="4.0" y="2.309401076758503" fill="#ccc" font-size="0.3" font-family="P22 Johnston Underground Regular" text-anchor="middle" dominant-baseline="middle">4.0,2.0</text>
    </g>
    <g>
      <polygon points="4.666666666666666,3.4641016151377544 4.333333333333333,4.04145188432738 3.666666666666667,4.04145188432738 3.3333333333333335,3.4641016151377544 3.6666666666666665,2.886751345948129 4.333333333333333,2.886751345948128 4.666666666666666,3.4641016151377544" fill="None" stroke="#ccc" stroke-width="0.01"/>
      <text x="4.0" y="3.4641016151377544" fill="#ccc" font-size="0.3" font-family="P22 Johnston Underground Regular" text-anchor="middle" dominant-baseline="middle">4.0,3.0</text>
    </g>
    <g>
      <polygon points="4.666666666666666,4.618802153517006 4.333333333333333,5.196152422706631 3.666666666666667,5.196152422706632 3.3333333333333335,4.618802153517006 3.6666666666666665,4.041451884327381 4.333333333333333,4.04145188432738 4.666666666666666,4.618802153517006" fill="None" stroke="#ccc" stroke-width="0.01"/>
      <text x="4.0" y="4.618802153517006" fill="#ccc" font-size="0.3" font-family="P22 Johnston Underground Regular" text-anchor="middle" dominant-baseline="middle">4.0,4.0</text>
    </g>
    <g>
      <polygon points="4.666666666666666,5.773502691896257 4.333333333333333,6.350852961085883 3.666666666666667,6.350852961085883 3.3333333333333335,5.773502691896257 3.6666666666666665,5.196152422706632 4.333333333333333,5.196152422706631 4.666666666666666,5.773502691896257" fill="None" stroke="#ccc" stroke-width="0.01"/>
      <text x="4.0" y="5.773502691896257" fill="#ccc" font-size="0.3" font-family="P22 Johnston Underground Regular" text-anchor="middle" dominant-baseline="middle">4.0,5.0</text>
    </g>
    <g>
      <polygon points="4.666666666666666,6.928203230275509 4.333333333333333,7.505553499465134 3.666666666666667,7.505553499465135 3.3333333333333335,6.928203230275509 3.6666666666666665,6.3508529610858835 4.333333333333333,6.350852961085883 4.666666666666666,6.928203230275509" fill="None" stroke="#ccc" stroke-width="0.01"/>
      <text x="4.0" y="6.928203230275509" fill="#ccc" font-size="0.3" font-family="P22 Johnston Underground Regular" text-anchor="middle" dominant-baseline="middle">4.0,6.0</text>
    </g>
  </g>
  <g>
    <polygon points="0.6666666666666665,4.04145188432738 0.3333333333333333,4.618802153517005 -0.3333333333333331,4.618802153517006 -0.6666666666666665,4.04145188432738 -0.33333333333333354,3.4641016151377544 0.3333333333333328,3.4641016151377535 0.6666666666666665,4.04145188432738" fill="#080" stroke="#444" stroke-width="0.01"/>
    <g>
      <text x="0.0" y="4.04145188432738" fill="white" font-size="0.21428571428571427" font-family="P22 Johnston Underground Regular" text-anchor="middle" dominant-baseline="middle">Colombo</text>
      <text x="0.0" y="4.24145188432738" fill="white" font-size="0.2" font-family="P22 Johnston Underground Regular" text-anchor="middle" dominant-baseline="middle">0.0,3.5</text>
    </g>
  </g>
  <g>
    <polygon points="0.6666666666666665,2.8867513459481287 0.3333333333333333,3.4641016151377544 -0.3333333333333331,3.4641016151377544 -0.6666666666666665,2.8867513459481287 -0.33333333333333354,2.309401076758503 0.3333333333333328,2.309401076758503 0.6666666666666665,2.8867513459481287" fill="#080" stroke="#444" stroke-width="0.01"/>
    <g>
      <text x="0.0" y="2.8867513459481287" fill="white" font-size="0.21428571428571427" font-family="P22 Johnston Underground Regular" text-anchor="middle" dominant-baseline="middle">Gampaha</text>
      <text x="0.0" y="3.086751345948129" fill="white" font-size="0.2" font-family="P22 Johnston Underground Regular" text-anchor="middle" dominant-baseline="middle">0.0,2.5</text>
    </g>
  </g>
  <g>
    <polygon points="0.6666666666666665,5.196152422706631 0.3333333333333333,5.773502691896256 -0.3333333333333331,5.773502691896256 -0.6666666666666665,5.196152422706631 -0.33333333333333354,4.618802153517006 0.3333333333333328,4.618802153517005 0.6666666666666665,5.196152422706631" fill="#00c" stroke="#444" stroke-width="0.01"/>
    <g>
      <text x="0.0" y="5.196152422706631" fill="white" font-size="0.1875" font-family="P22 Johnston Underground Regular" text-anchor="middle" dominant-baseline="middle">Kalutara</text>
      <text x="0.0" y="5.396152422706631" fill="white" font-size="0.2" font-family="P22 Johnston Underground Regular" text-anchor="middle" dominant-baseline="middle">0.0,4.5</text>
    </g>
  </g>
  <g>
    <polygon points="1.6666666666666665,3.4641016151377544 1.3333333333333333,4.04145188432738 0.666666666666667,4.04145188432738 0.3333333333333335,3.4641016151377544 0.6666666666666665,2.886751345948129 1.3333333333333328,2.886751345948128 1.6666666666666665,3.4641016151377544" fill="#080" stroke="#444" stroke-width="0.01"/>
    <g>
      <text x="1.0" y="3.4641016151377544" fill="white" font-size="0.3" font-family="P22 Johnston Underground Regular" text-anchor="middle" dominant-baseline="middle">Kandy</text>
      <text x="1.0" y="3.6641016151377546" fill="white" font-size="0.2" font-family="P22 Johnston Underground Regular" text-anchor="middle" dominant-baseline="middle">1.0,3.0</text>
    </g>
  </g>
  <g>
    <polygon points="2.6666666666666665,2.8867513459481287 2.3333333333333335,3.4641016151377544 1.666666666666667,3.4641016151377544 1.3333333333333335,2.8867513459481287 1.6666666666666665,2.309401076758503 2.333333333333333,2.309401076758503 2.6666666666666665,2.8867513459481287" fill="#00c" stroke="#444" stroke-width="0.01"/>
    <g>
      <text x="2.0" y="2.8867513459481287" fill="white" font-size="0.25" font-family="P22 Johnston Underground Regular" text-anchor="middle" dominant-baseline="middle">Matale</text>
      <text x="2.0" y="3.086751345948129" fill="white" font-size="0.2" font-family="P22 Johnston Underground Regular" text-anchor="middle" dominant-baseline="middle">2.0,2.5</text>
    </g>
  </g>
  <g>
    <polygon points="2.6666666666666665,4.04145188432738 2.3333333333333335,4.618802153517005 1.666666666666667,4.618802153517006 1.3333333333333335,4.04145188432738 1.6666666666666665,3.4641016151377544 2.333333333333333,3.4641016151377535 2.6666666666666665,4.04145188432738" fill="#080" stroke="#444" stroke-width="0.01"/>
    <g>
      <text x="2.0" y="4.04145188432738" fill="white" font-size="0.125" font-family="P22 Johnston Underground Regular" text-anchor="middle" dominant-baseline="middle">Nuwara-Eliya</text>
      <text x="2.0" y="4.24145188432738" fill="white" font-size="0.2" font-family="P22 Johnston Underground Regular" text-anchor="middle" dominant-baseline="middle">2.0,3.5</text>
    </g>
  </g>
  <g>
    <polygon points="1.6666666666666665,5.773502691896257 1.3333333333333333,6.350852961085883 0.666666666666667,6.350852961085883 0.3333333333333335,5.773502691896257 0.6666666666666665,5.196152422706632 1.3333333333333328,5.196152422706631 1.6666666666666665,5.773502691896257" fill="#00c" stroke="#444" stroke-width="0.01"/>
    <g>
      <text x="1.0" y="5.773502691896257" fill="white" font-size="0.3" font-family="P22 Johnston Underground Regular" text-anchor="middle" dominant-baseline="middle">Galle</text>
      <text x="1.0" y="5.9735026918962575" fill="white" font-size="0.2" font-family="P22 Johnston Underground Regular" text-anchor="middle" dominant-baseline="middle">1.0,5.0</text>
    </g>
  </g>
  <g>
    <polygon points="2.6666666666666665,6.350852961085883 2.3333333333333335,6.928203230275508 1.666666666666667,6.928203230275509 1.3333333333333335,6.350852961085883 1.6666666666666665,5.773502691896257 2.333333333333333,5.773502691896256 2.6666666666666665,6.350852961085883" fill="#00c" stroke="#444" stroke-width="0.01"/>
    <g>
      <text x="2.0" y="6.350852961085883" fill="white" font-size="0.25" font-family="P22 Johnston Underground Regular" text-anchor="middle" dominant-baseline="middle">Matara</text>
      <text x="2.0" y="6.550852961085883" fill="white" font-size="0.2" font-family="P22 Johnston Underground Regular" text-anchor="middle" dominant-baseline="middle">2.0,5.5</text>
    </g>
  </g>
  <g>
    <polygon points="3.6666666666666665,5.773502691896257 3.3333333333333335,6.350852961085883 2.666666666666667,6.350852961085883 2.3333333333333335,5.773502691896257 2.6666666666666665,5.196152422706632 3.333333333333333,5.196152422706631 3.6666666666666665,5.773502691896257" fill="#00c" stroke="#444" stroke-width="0.01"/>
    <g>
      <text x="3.0" y="5.773502691896257" fill="white" font-size="0.15" font-family="P22 Johnston Underground Regular" text-anchor="middle" dominant-baseline="middle">Hambantota</text>
      <text x="3.0" y="5.9735026918962575" fill="white" font-size="0.2" font-family="P22 Johnston Underground Regular" text-anchor="middle" dominant-baseline="middle">3.0,5.0</text>
    </g>
  </g>
  <g>
    <polygon points="0.6666666666666665,-0.5773502691896257 0.3333333333333333,-1.1102230246251565e-16 -0.3333333333333331,0.0 -0.6666666666666665,-0.5773502691896256 -0.33333333333333354,-1.1547005383792512 0.3333333333333328,-1.1547005383792517 0.6666666666666665,-0.5773502691896257" fill="#080" stroke="#444" stroke-width="0.01"/>
    <g>
      <text x="0.0" y="-0.5773502691896257" fill="white" font-size="0.25" font-family="P22 Johnston Underground Regular" text-anchor="middle" dominant-baseline="middle">Jaffna</text>
      <text x="0.0" y="-0.3773502691896257" fill="white" font-size="0.2" font-family="P22 Johnston Underground Regular" text-anchor="middle" dominant-baseline="middle">0.0,-0.5</text>
    </g>
  </g>
  <g>
    <polygon points="1.6666666666666665,0.0 1.3333333333333333,0.5773502691896256 0.666666666666667,0.5773502691896257 0.3333333333333335,8.164311994315686e-17 0.6666666666666665,-0.5773502691896255 1.3333333333333328,-0.577350269189626 1.6666666666666665,0.0" fill="#080" stroke="#444" stroke-width="0.01"/>
    <g>
      <text x="1.0" y="0.0" fill="white" font-size="0.3" font-family="P22 Johnston Underground Regular" text-anchor="middle" dominant-baseline="middle">Vanni</text>
      <text x="1.0" y="0.2" fill="white" font-size="0.2" font-family="P22 Johnston Underground Regular" text-anchor="middle" dominant-baseline="middle">1.0,0.0</text>
    </g>
  </g>
  <g>
    <polygon points="3.6666666666666665,1.1547005383792515 3.3333333333333335,1.7320508075688772 2.666666666666667,1.7320508075688772 2.3333333333333335,1.1547005383792515 2.6666666666666665,0.577350269189626 3.333333333333333,0.5773502691896255 3.6666666666666665,1.1547005383792515" fill="#080" stroke="#444" stroke-width="0.01"/>
    <g>
      <text x="3.0" y="1.1547005383792515" fill="white" font-size="0.15" font-family="P22 Johnston Underground Regular" text-anchor="middle" dominant-baseline="middle">Batticaloa</text>
      <text x="3.0" y="1.3547005383792514" fill="white" font-size="0.2" font-family="P22 Johnston Underground Regular" text-anchor="middle" dominant-baseline="middle">3.0,1.0</text>
    </g>
  </g>
  <g>
    <polygon points="3.6666666666666665,2.309401076758503 3.3333333333333335,2.8867513459481287 2.666666666666667,2.8867513459481287 2.3333333333333335,2.309401076758503 2.6666666666666665,1.7320508075688774 3.333333333333333,1.732050807568877 3.6666666666666665,2.309401076758503" fill="#080" stroke="#444" stroke-width="0.01"/>
    <g>
      <text x="3.0" y="2.309401076758503" fill="white" font-size="0.13636363636363635" font-family="P22 Johnston Underground Regular" text-anchor="middle" dominant-baseline="middle">Digamadulla</text>
      <text x="3.0" y="2.509401076758503" fill="white" font-size="0.2" font-family="P22 Johnston Underground Regular" text-anchor="middle" dominant-baseline="middle">3.0,2.0</text>
    </g>
  </g>
  <g>
    <polygon points="2.6666666666666665,0.5773502691896257 2.3333333333333335,1.1547005383792515 1.666666666666667,1.1547005383792515 1.3333333333333335,0.5773502691896258 1.6666666666666665,2.220446049250313e-16 2.333333333333333,-2.220446049250313e-16 2.6666666666666665,0.5773502691896257" fill="#080" stroke="#444" stroke-width="0.01"/>
    <g>
      <text x="2.0" y="0.5773502691896257" fill="white" font-size="0.13636363636363635" font-family="P22 Johnston Underground Regular" text-anchor="middle" dominant-baseline="middle">Trincomalee</text>
      <text x="2.0" y="0.7773502691896257" fill="white" font-size="0.2" font-family="P22 Johnston Underground Regular" text-anchor="middle" dominant-baseline="middle">2.0,0.5</text>
    </g>
  </g>
  <g>
    <polygon points="1.6666666666666665,2.309401076758503 1.3333333333333333,2.8867513459481287 0.666666666666667,2.8867513459481287 0.3333333333333335,2.309401076758503 0.6666666666666665,1.7320508075688774 1.3333333333333328,1.732050807568877 1.6666666666666665,2.309401076758503" fill="#00c" stroke="#444" stroke-width="0.01"/>
    <g>
      <text x="1.0" y="2.309401076758503" fill="white" font-size="0.15" font-family="P22 Johnston Underground Regular" text-anchor="middle" dominant-baseline="middle">Kurunegala</text>
      <text x="1.0" y="2.509401076758503" fill="white" font-size="0.2" font-family="P22 Johnston Underground Regular" text-anchor="middle" dominant-baseline="middle">1.0,2.0</text>
    </g>
  </g>
  <g>
    <polygon points="0.6666666666666665,1.7320508075688772 0.3333333333333333,2.309401076758503 -0.3333333333333331,2.309401076758503 -0.6666666666666665,1.7320508075688772 -0.33333333333333354,1.1547005383792517 0.3333333333333328,1.1547005383792512 0.6666666666666665,1.7320508075688772" fill="#080" stroke="#444" stroke-width="0.01"/>
    <g>
      <text x="0.0" y="1.7320508075688772" fill="white" font-size="0.1875" font-family="P22 Johnston Underground Regular" text-anchor="middle" dominant-baseline="middle">Puttalam</text>
      <text x="0.0" y="1.9320508075688771" fill="white" font-size="0.2" font-family="P22 Johnston Underground Regular" text-anchor="middle" dominant-baseline="middle">0.0,1.5</text>
    </g>
  </g>
  <g>
    <polygon points="1.6666666666666665,1.1547005383792515 1.3333333333333333,1.7320508075688772 0.666666666666667,1.7320508075688772 0.3333333333333335,1.1547005383792515 0.6666666666666665,0.577350269189626 1.3333333333333328,0.5773502691896255 1.6666666666666665,1.1547005383792515" fill="#00c" stroke="#444" stroke-width="0.01"/>
    <g>
      <text x="1.0" y="1.1547005383792515" fill="white" font-size="0.125" font-family="P22 Johnston Underground Regular" text-anchor="middle" dominant-baseline="middle">Anuradhapura</text>
      <text x="1.0" y="1.3547005383792514" fill="white" font-size="0.2" font-family="P22 Johnston Underground Regular" text-anchor="middle" dominant-baseline="middle">1.0,1.0</text>
    </g>
  </g>
  <g>
    <polygon points="2.6666666666666665,1.7320508075688772 2.3333333333333335,2.309401076758503 1.666666666666667,2.309401076758503 1.3333333333333335,1.7320508075688772 1.6666666666666665,1.1547005383792517 2.333333333333333,1.1547005383792512 2.6666666666666665,1.7320508075688772" fill="#080" stroke="#444" stroke-width="0.01"/>
    <g>
      <text x="2.0" y="1.7320508075688772" fill="white" font-size="0.13636363636363635" font-family="P22 Johnston Underground Regular" text-anchor="middle" dominant-baseline="middle">Polonnaruwa</text>
      <text x="2.0" y="1.9320508075688771" fill="white" font-size="0.2" font-family="P22 Johnston Underground Regular" text-anchor="middle" dominant-baseline="middle">2.0,1.5</text>
    </g>
  </g>
  <g>
    <polygon points="3.6666666666666665,3.4641016151377544 3.3333333333333335,4.04145188432738 2.666666666666667,4.04145188432738 2.3333333333333335,3.4641016151377544 2.6666666666666665,2.886751345948129 3.333333333333333,2.886751345948128 3.6666666666666665,3.4641016151377544" fill="#080" stroke="#444" stroke-width="0.01"/>
    <g>
      <text x="3.0" y="3.4641016151377544" fill="white" font-size="0.21428571428571427" font-family="P22 Johnston Underground Regular" text-anchor="middle" dominant-baseline="middle">Badulla</text>
      <text x="3.0" y="3.6641016151377546" fill="white" font-size="0.2" font-family="P22 Johnston Underground Regular" text-anchor="middle" dominant-baseline="middle">3.0,3.0</text>
    </g>
  </g>
  <g>
    <polygon points="3.6666666666666665,4.618802153517006 3.3333333333333335,5.196152422706631 2.666666666666667,5.196152422706632 2.3333333333333335,4.618802153517006 2.6666666666666665,4.041451884327381 3.333333333333333,4.04145188432738 3.6666666666666665,4.618802153517006" fill="#00c" stroke="#444" stroke-width="0.01"/>
    <g>
      <text x="3.0" y="4.618802153517006" fill="white" font-size="0.15" font-family="P22 Johnston Underground Regular" text-anchor="middle" dominant-baseline="middle">Moneragala</text>
      <text x="3.0" y="4.818802153517006" fill="white" font-size="0.2" font-family="P22 Johnston Underground Regular" text-anchor="middle" dominant-baseline="middle">3.0,4.0</text>
    </g>
  </g>
  <g>
    <polygon points="2.6666666666666665,5.196152422706631 2.3333333333333335,5.773502691896256 1.666666666666667,5.773502691896256 1.3333333333333335,5.196152422706631 1.6666666666666665,4.618802153517006 2.333333333333333,4.618802153517005 2.6666666666666665,5.196152422706631" fill="#00c" stroke="#444" stroke-width="0.01"/>
    <g>
      <text x="2.0" y="5.196152422706631" fill="white" font-size="0.16666666666666666" font-family="P22 Johnston Underground Regular" text-anchor="middle" dominant-baseline="middle">Ratnapura</text>
      <text x="2.0" y="5.396152422706631" fill="white" font-size="0.2" font-family="P22 Johnston Underground Regular" text-anchor="middle" dominant-baseline="middle">2.0,4.5</text>
    </g>
  </g>
  <g>
    <polygon points="1.6666666666666665,4.618802153517006 1.3333333333333333,5.196152422706631 0.666666666666667,5.196152422706632 0.3333333333333335,4.618802153517006 0.6666666666666665,4.041451884327381 1.3333333333333328,4.04145188432738 1.6666666666666665,4.618802153517006" fill="#00c" stroke="#444" stroke-width="0.01"/>
    <g>
      <text x="1.0" y="4.618802153517006" fill="white" font-size="0.21428571428571427" font-family="P22 Johnston Underground Regular" text-anchor="middle" dominant-baseline="middle">Kegalle</text>
      <text x="1.0" y="4.818802153517006" fill="white" font-size="0.2" font-family="P22 Johnston Underground Regular" text-anchor="middle" dominant-baseline="middle">1.0,4.0</text>
    </g>
  </g>
  <g>
    <polygon points="0.6673333333333331,2.8867513459481287 0.3336666666666661,2.3088237264893134 -0.33366666666666683,2.3088237264893134 -0.6673333333333331,2.8867513459481287 -0.33399999999999996,3.464101615137754 -0.6673333333333331,4.04145188432738 -0.33399999999999985,4.618802153517006 -0.6673333333333331,5.196152422706631 -0.3336666666666664,5.774080042165446 0.3336666666666666,5.774080042165446 0.6673333333333331,5.196152422706631 0.33399999999999985,4.618802153517006 0.6673333333333331,4.04145188432738 0.33399999999999985,3.4641016151377544 0.6673333333333331,2.8867513459481287" fill="None" stroke="#222" stroke-width="0.1"/>
  </g>
  <g>
    <polygon points="2.667333333333333,2.8867513459481287 2.333666666666666,2.3088237264893134 1.6663333333333332,2.3088237264893134 1.3330000000000004,2.8861739956789387 0.6663333333333332,2.886173995678939 0.3326666666666669,3.4641016151377544 0.6663333333333337,4.042029234596569 1.3330000000000002,4.042029234596569 1.6663333333333337,4.619379503786195 2.333666666666667,4.619379503786195 2.667333333333333,4.04145188432738 2.3339999999999996,3.464101615137755 2.667333333333333,2.8867513459481287" fill="None" stroke="#222" stroke-width="0.1"/>
  </g>
  <g>
    <polygon points="1.3336666666666661,5.195575072437441 0.6663333333333332,5.1955750724374425 0.3326666666666669,5.773502691896257 0.6663333333333337,6.351430311355072 1.3330000000000002,6.351430311355072 1.6663333333333337,6.928780580544698 2.333666666666667,6.928780580544698 2.667,6.351430311355072 3.333666666666667,6.351430311355072 3.667333333333333,5.773502691896257 3.333666666666666,5.195575072437441 2.666333333333333,5.1955750724374425 2.3330000000000006,5.772925341627067 1.6669999999999998,5.772925341627068 1.3336666666666661,5.195575072437441" fill="None" stroke="#222" stroke-width="0.1"/>
  </g>
  <g>
    <polygon points="0.3336666666666661,-1.1552778886484412 -0.33366666666666683,-1.155277888648441 -0.6673333333333331,-0.5773502691896256 -0.3336666666666664,0.0005773502691894805 0.3330000000000001,0.0005773502691894805 0.6663333333333337,0.5779276194588152 1.3336666666666666,0.5779276194588152 1.6673333333333331,0.0 1.3336666666666661,-0.5779276194588154 0.6669999999999999,-0.5779276194588152 0.3336666666666661,-1.1552778886484412" fill="None" stroke="#222" stroke-width="0.1"/>
  </g>
  <g>
    <polygon points="2.333666666666666,-0.0005773502691897026 1.6663333333333332,-0.0005773502691893695 1.3326666666666669,0.5773502691896258 1.6663333333333337,1.155277888648441 2.333,1.155277888648441 2.6660000000000004,1.7320508075688767 2.332666666666667,2.309401076758503 2.6663333333333337,2.887328696217318 3.333666666666667,2.887328696217318 3.667333333333333,2.309401076758503 3.3339999999999996,1.7320508075688779 3.667333333333333,1.1547005383792515 3.333666666666666,0.576772918920436 2.667,0.5767729189204364 2.333666666666666,-0.0005773502691897026" fill="None" stroke="#222" stroke-width="0.1"/>
  </g>
  <g>
    <polygon points="0.3336666666666661,1.1541231881100618 -0.33366666666666683,1.154123188110062 -0.6673333333333331,1.7320508075688772 -0.3336666666666664,2.3099784270276924 0.33300000000000013,2.3099784270276924 0.6663333333333337,2.887328696217318 1.3336666666666666,2.887328696217318 1.6673333333333331,2.309401076758503 1.3336666666666661,1.7314734572996877 0.6669999999999998,1.7314734572996877 0.3336666666666661,1.1541231881100618" fill="None" stroke="#222" stroke-width="0.1"/>
  </g>
  <g>
    <polygon points="1.3336666666666661,0.576772918920436 0.6663333333333332,0.5767729189204364 0.3326666666666669,1.1547005383792515 0.6663333333333337,1.7326281578380667 1.3330000000000002,1.7326281578380667 1.6663333333333337,2.3099784270276924 2.333666666666667,2.3099784270276924 2.667333333333333,1.7320508075688772 2.333666666666666,1.1541231881100618 1.6669999999999998,1.154123188110062 1.3336666666666661,0.576772918920436" fill="None" stroke="#222" stroke-width="0.1"/>
  </g>
  <g>
    <polygon points="3.667333333333333,3.4641016151377544 3.333666666666666,2.8861739956789387 2.666333333333333,2.886173995678939 2.332666666666667,3.4641016151377544 2.6660000000000004,4.04145188432738 2.332666666666667,4.618802153517006 2.6663333333333337,5.1967297729758215 3.333666666666667,5.1967297729758215 3.667333333333333,4.618802153517006 3.3339999999999996,4.041451884327381 3.667333333333333,3.4641016151377544" fill="None" stroke="#222" stroke-width="0.1"/>
  </g>
  <g>
    <polygon points="1.3336666666666661,4.04087453405819 0.6663333333333332,4.040874534058191 0.3326666666666669,4.618802153517006 0.6663333333333337,5.1967297729758215 1.3330000000000006,5.1967297729758215 1.6663333333333337,5.774080042165446 2.333666666666667,5.774080042165446 2.667333333333333,5.196152422706631 2.333666666666666,4.6182248032478155 1.6669999999999998,4.618224803247816 1.3336666666666661,4.04087453405819" fill="None" stroke="#222" stroke-width="0.1"/>
  </g>
</svg>
