<?xml version="1.0" ?>
<svg xmlns="http://www.w3.org/2000/svg" height="500" width="300" viewBox="-1.0 -1.7320508075688772 5.0 9.814954576223636">
  <rect x="-1.0" y="-1.7320508075688772" width="5.0" height="9.814954576223636" fill="#8881"/>
  <g/>
  <g>
    <polygon points="0.6666666666666665,5.196152422706631 0.3333333333333333,5.773502691896256 -0.3333333333333331,5.773502691896256 -0.6666666666666665,5.196152422706631 -0.33333333333333354,4.618802153517006 0.3333333333333328,4.618802153517005 0.6666666666666665,5.196152422706631" fill="hsl(0,75%,65.0%)" stroke="#444" stroke-width="0.01"/>
    <g>
      <text x="0.0" y="5.196152422706631" fill="black" font-size="0.21428571428571427" font-family="P22 Johnston Underground Regular" text-anchor="middle" dominant-baseline="middle">Colombo</text>
    </g>
  </g>
  <g>
    <polygon points="0.6666666666666665,4.04145188432738 0.3333333333333333,4.618802153517005 -0.3333333333333331,4.618802153517006 -0.6666666666666665,4.04145188432738 -0.33333333333333354,3.4641016151377544 0.3333333333333328,3.4641016151377535 0.6666666666666665,4.04145188432738" fill="hsl(0,75%,65.0%)" stroke="#444" stroke-width="0.01"/>
    <g>
      <text x="0.0" y="4.04145188432738" fill="black" font-size="0.21428571428571427" font-family="P22 Johnston Underground Regular" text-anchor="middle" dominant-baseline="middle">Gampaha</text>
    </g>
  </g>
  <g>
    <polygon points="1.6666666666666665,5.773502691896257 1.3333333333333333,6.350852961085883 0.666666666666667,6.350852961085883 0.3333333333333335,5.773502691896257 0.6666666666666665,5.196152422706632 1.3333333333333328,5.196152422706631 1.6666666666666665,5.773502691896257" fill="hsl(0,75%,65.0%)" stroke="#444" stroke-width="0.01"/>
    <g>
      <text x="1.0" y="5.773502691896257" fill="black" font-size="0.1875" font-family="P22 Johnston Underground Regular" text-anchor="middle" dominant-baseline="middle">Kalutara</text>
    </g>
  </g>
  <g>
    <polygon points="1.6666666666666665,3.4641016151377544 1.3333333333333333,4.04145188432738 0.666666666666667,4.04145188432738 0.3333333333333335,3.4641016151377544 0.6666666666666665,2.886751345948129 1.3333333333333328,2.886751345948128 1.6666666666666665,3.4641016151377544" fill="hsl(0,75%,65.0%)" stroke="#444" stroke-width="0.01"/>
    <g>
      <text x="1.0" y="3.4641016151377544" fill="black" font-size="0.3" font-family="P22 Johnston Underground Regular" text-anchor="middle" dominant-baseline="middle">Kandy</text>
    </g>
  </g>
  <g>
    <polygon points="2.6666666666666665,2.8867513459481287 2.3333333333333335,3.4641016151377544 1.666666666666667,3.4641016151377544 1.3333333333333335,2.8867513459481287 1.6666666666666665,2.309401076758503 2.333333333333333,2.309401076758503 2.6666666666666665,2.8867513459481287" fill="hsl(0,75%,65.0%)" stroke="#444" stroke-width="0.01"/>
    <g>
      <text x="2.0" y="2.8867513459481287" fill="black" font-size="0.25" font-family="P22 Johnston Underground Regular" text-anchor="middle" dominant-baseline="middle">Matale</text>
    </g>
  </g>
  <g>
    <polygon points="2.6666666666666665,4.04145188432738 2.3333333333333335,4.618802153517005 1.666666666666667,4.618802153517006 1.3333333333333335,4.04145188432738 1.6666666666666665,3.4641016151377544 2.333333333333333,3.4641016151377535 2.6666666666666665,4.04145188432738" fill="hsl(240,75%,65.0%)" stroke="#444" stroke-width="0.01"/>
    <g>
      <text x="2.0" y="4.04145188432738" fill="black" font-size="0.125" font-family="P22 Johnston Underground Regular" text-anchor="middle" dominant-baseline="middle">Nuwara-Eliya</text>
    </g>
  </g>
  <g>
    <polygon points="0.6666666666666665,6.350852961085883 0.3333333333333333,6.928203230275508 -0.3333333333333331,6.928203230275509 -0.6666666666666665,6.350852961085883 -0.33333333333333354,5.773502691896257 0.3333333333333328,5.773502691896256 0.6666666666666665,6.350852961085883" fill="hsl(0,75%,65.0%)" stroke="#444" stroke-width="0.01"/>
    <g>
      <text x="0.0" y="6.350852961085883" fill="black" font-size="0.3" font-family="P22 Johnston Underground Regular" text-anchor="middle" dominant-baseline="middle">Galle</text>
    </g>
  </g>
  <g>
    <polygon points="1.6666666666666665,6.928203230275509 1.3333333333333333,7.505553499465134 0.666666666666667,7.505553499465135 0.3333333333333335,6.928203230275509 0.6666666666666665,6.3508529610858835 1.3333333333333328,6.350852961085883 1.6666666666666665,6.928203230275509" fill="hsl(0,75%,65.0%)" stroke="#444" stroke-width="0.01"/>
    <g>
      <text x="1.0" y="6.928203230275509" fill="black" font-size="0.25" font-family="P22 Johnston Underground Regular" text-anchor="middle" dominant-baseline="middle">Matara</text>
    </g>
  </g>
  <g>
    <polygon points="2.6666666666666665,6.350852961085883 2.3333333333333335,6.928203230275508 1.666666666666667,6.928203230275509 1.3333333333333335,6.350852961085883 1.6666666666666665,5.773502691896257 2.333333333333333,5.773502691896256 2.6666666666666665,6.350852961085883" fill="hsl(0,75%,65.0%)" stroke="#444" stroke-width="0.01"/>
    <g>
      <text x="2.0" y="6.350852961085883" fill="black" font-size="0.15" font-family="P22 Johnston Underground Regular" text-anchor="middle" dominant-baseline="middle">Hambantota</text>
    </g>
  </g>
  <g>
    <polygon points="0.6666666666666665,-0.5773502691896257 0.3333333333333333,-1.1102230246251565e-16 -0.3333333333333331,0.0 -0.6666666666666665,-0.5773502691896256 -0.33333333333333354,-1.1547005383792512 0.3333333333333328,-1.1547005383792517 0.6666666666666665,-0.5773502691896257" fill="hsl(240,75%,65.0%)" stroke="#444" stroke-width="0.01"/>
    <g>
      <text x="0.0" y="-0.5773502691896257" fill="black" font-size="0.25" font-family="P22 Johnston Underground Regular" text-anchor="middle" dominant-baseline="middle">Jaffna</text>
    </g>
  </g>
  <g>
    <polygon points="1.6666666666666665,0.0 1.3333333333333333,0.5773502691896256 0.666666666666667,0.5773502691896257 0.3333333333333335,8.164311994315686e-17 0.6666666666666665,-0.5773502691896255 1.3333333333333328,-0.577350269189626 1.6666666666666665,0.0" fill="hsl(240,75%,65.0%)" stroke="#444" stroke-width="0.01"/>
    <g>
      <text x="1.0" y="0.0" fill="black" font-size="0.3" font-family="P22 Johnston Underground Regular" text-anchor="middle" dominant-baseline="middle">Vanni</text>
    </g>
  </g>
  <g>
    <polygon points="3.6666666666666665,1.1547005383792515 3.3333333333333335,1.7320508075688772 2.666666666666667,1.7320508075688772 2.3333333333333335,1.1547005383792515 2.6666666666666665,0.577350269189626 3.333333333333333,0.5773502691896255 3.6666666666666665,1.1547005383792515" fill="hsl(240,75%,65.0%)" stroke="#444" stroke-width="0.01"/>
    <g>
      <text x="3.0" y="1.1547005383792515" fill="black" font-size="0.15" font-family="P22 Johnston Underground Regular" text-anchor="middle" dominant-baseline="middle">Batticaloa</text>
    </g>
  </g>
  <g>
    <polygon points="3.6666666666666665,2.309401076758503 3.3333333333333335,2.8867513459481287 2.666666666666667,2.8867513459481287 2.3333333333333335,2.309401076758503 2.6666666666666665,1.7320508075688774 3.333333333333333,1.732050807568877 3.6666666666666665,2.309401076758503" fill="hsl(240,75%,65.0%)" stroke="#444" stroke-width="0.01"/>
    <g>
      <text x="3.0" y="2.309401076758503" fill="black" font-size="0.13636363636363635" font-family="P22 Johnston Underground Regular" text-anchor="middle" dominant-baseline="middle">Digamadulla</text>
    </g>
  </g>
  <g>
    <polygon points="2.6666666666666665,0.5773502691896257 2.3333333333333335,1.1547005383792515 1.666666666666667,1.1547005383792515 1.3333333333333335,0.5773502691896258 1.6666666666666665,2.220446049250313e-16 2.333333333333333,-2.220446049250313e-16 2.6666666666666665,0.5773502691896257" fill="hsl(240,75%,65.0%)" stroke="#444" stroke-width="0.01"/>
    <g>
      <text x="2.0" y="0.5773502691896257" fill="black" font-size="0.13636363636363635" font-family="P22 Johnston Underground Regular" text-anchor="middle" dominant-baseline="middle">Trincomalee</text>
    </g>
  </g>
  <g>
    <polygon points="1.6666666666666665,2.309401076758503 1.3333333333333333,2.8867513459481287 0.666666666666667,2.8867513459481287 0.3333333333333335,2.309401076758503 0.6666666666666665,1.7320508075688774 1.3333333333333328,1.732050807568877 1.6666666666666665,2.309401076758503" fill="hsl(0,75%,65.0%)" stroke="#444" stroke-width="0.01"/>
    <g>
      <text x="1.0" y="2.309401076758503" fill="black" font-size="0.15" font-family="P22 Johnston Underground Regular" text-anchor="middle" dominant-baseline="middle">Kurunegala</text>
    </g>
  </g>
  <g>
    <polygon points="0.6666666666666665,2.8867513459481287 0.3333333333333333,3.4641016151377544 -0.3333333333333331,3.4641016151377544 -0.6666666666666665,2.8867513459481287 -0.33333333333333354,2.309401076758503 0.3333333333333328,2.309401076758503 0.6666666666666665,2.8867513459481287" fill="hsl(0,75%,65.0%)" stroke="#444" stroke-width="0.01"/>
    <g>
      <text x="0.0" y="2.8867513459481287" fill="black" font-size="0.1875" font-family="P22 Johnston Underground Regular" text-anchor="middle" dominant-baseline="middle">Puttalam</text>
    </g>
  </g>
  <g>
    <polygon points="1.6666666666666665,1.1547005383792515 1.3333333333333333,1.7320508075688772 0.666666666666667,1.7320508075688772 0.3333333333333335,1.1547005383792515 0.6666666666666665,0.577350269189626 1.3333333333333328,0.5773502691896255 1.6666666666666665,1.1547005383792515" fill="hsl(0,75%,65.0%)" stroke="#444" stroke-width="0.01"/>
    <g>
      <text x="1.0" y="1.1547005383792515" fill="black" font-size="0.125" font-family="P22 Johnston Underground Regular" text-anchor="middle" dominant-baseline="middle">Anuradhapura</text>
    </g>
  </g>
  <g>
    <polygon points="2.6666666666666665,1.7320508075688772 2.3333333333333335,2.309401076758503 1.666666666666667,2.309401076758503 1.3333333333333335,1.7320508075688772 1.6666666666666665,1.1547005383792517 2.333333333333333,1.1547005383792512 2.6666666666666665,1.7320508075688772" fill="hsl(0,75%,65.0%)" stroke="#444" stroke-width="0.01"/>
    <g>
      <text x="2.0" y="1.7320508075688772" fill="black" font-size="0.13636363636363635" font-family="P22 Johnston Underground Regular" text-anchor="middle" dominant-baseline="middle">Polonnaruwa</text>
    </g>
  </g>
  <g>
    <polygon points="3.6666666666666665,3.4641016151377544 3.3333333333333335,4.04145188432738 2.666666666666667,4.04145188432738 2.3333333333333335,3.4641016151377544 2.6666666666666665,2.886751345948129 3.333333333333333,2.886751345948128 3.6666666666666665,3.4641016151377544" fill="hsl(0,75%,65.0%)" stroke="#444" stroke-width="0.01"/>
    <g>
      <text x="3.0" y="3.4641016151377544" fill="black" font-size="0.21428571428571427" font-family="P22 Johnston Underground Regular" text-anchor="middle" dominant-baseline="middle">Badulla</text>
    </g>
  </g>
  <g>
    <polygon points="3.6666666666666665,4.618802153517006 3.3333333333333335,5.196152422706631 2.666666666666667,5.196152422706632 2.3333333333333335,4.618802153517006 2.6666666666666665,4.041451884327381 3.333333333333333,4.04145188432738 3.6666666666666665,4.618802153517006" fill="hsl(0,75%,65.0%)" stroke="#444" stroke-width="0.01"/>
    <g>
      <text x="3.0" y="4.618802153517006" fill="black" font-size="0.15" font-family="P22 Johnston Underground Regular" text-anchor="middle" dominant-baseline="middle">Moneragala</text>
    </g>
  </g>
  <g>
    <polygon points="2.6666666666666665,5.196152422706631 2.3333333333333335,5.773502691896256 1.666666666666667,5.773502691896256 1.3333333333333335,5.196152422706631 1.6666666666666665,4.618802153517006 2.333333333333333,4.618802153517005 2.6666666666666665,5.196152422706631" fill="hsl(0,75%,65.0%)" stroke="#444" stroke-width="0.01"/>
    <g>
      <text x="2.0" y="5.196152422706631" fill="black" font-size="0.16666666666666666" font-family="P22 Johnston Underground Regular" text-anchor="middle" dominant-baseline="middle">Ratnapura</text>
    </g>
  </g>
  <g>
    <polygon points="1.6666666666666665,4.618802153517006 1.3333333333333333,5.196152422706631 0.666666666666667,5.196152422706632 0.3333333333333335,4.618802153517006 0.6666666666666665,4.041451884327381 1.3333333333333328,4.04145188432738 1.6666666666666665,4.618802153517006" fill="hsl(0,75%,65.0%)" stroke="#444" stroke-width="0.01"/>
    <g>
      <text x="1.0" y="4.618802153517006" fill="black" font-size="0.21428571428571427" font-family="P22 Johnston Underground Regular" text-anchor="middle" dominant-baseline="middle">Kegalle</text>
    </g>
  </g>
  <g>
    <polygon points="0.6733333333333332,5.196152422706631 0.33666666666666667,5.779276194588153 -0.33666666666666645,5.779276194588153 -0.6733333333333332,5.196152422706631 -0.3366666666666669,4.613028650825109 0.33666666666666617,4.613028650825109 0.6733333333333332,5.196152422706631" fill="None" stroke="#222" stroke-width="0.08"/>
  </g>
  <g>
    <polygon points="0.6733333333333332,4.04145188432738 0.33666666666666667,4.6245756562089015 -0.33666666666666645,4.6245756562089015 -0.6733333333333332,4.04145188432738 -0.3366666666666669,3.458328112445858 0.33666666666666617,3.4583281124458574 0.6733333333333332,4.04145188432738" fill="None" stroke="#222" stroke-width="0.08"/>
  </g>
  <g>
    <polygon points="1.6733333333333333,5.773502691896257 1.3366666666666667,6.356626463777779 0.6633333333333336,6.356626463777779 0.32666666666666677,5.773502691896257 0.6633333333333331,5.190378920014735 1.3366666666666662,5.190378920014735 1.6733333333333333,5.773502691896257" fill="None" stroke="#222" stroke-width="0.08"/>
  </g>
  <g>
    <polygon points="1.6733333333333333,3.4641016151377544 1.3366666666666667,4.047225387019276 0.6633333333333336,4.047225387019276 0.32666666666666677,3.4641016151377544 0.6633333333333331,2.8809778432562325 1.3366666666666662,2.880977843256232 1.6733333333333333,3.4641016151377544" fill="None" stroke="#222" stroke-width="0.08"/>
  </g>
  <g>
    <polygon points="2.6733333333333333,2.8867513459481287 2.336666666666667,3.4698751178296505 1.6633333333333336,3.4698751178296505 1.3266666666666667,2.8867513459481287 1.663333333333333,2.303627574066607 2.336666666666666,2.3036275740666063 2.6733333333333333,2.8867513459481287" fill="None" stroke="#222" stroke-width="0.08"/>
  </g>
  <g>
    <polygon points="2.6733333333333333,4.04145188432738 2.336666666666667,4.6245756562089015 1.6633333333333336,4.6245756562089015 1.3266666666666667,4.04145188432738 1.663333333333333,3.458328112445858 2.336666666666666,3.4583281124458574 2.6733333333333333,4.04145188432738" fill="None" stroke="#222" stroke-width="0.08"/>
  </g>
  <g>
    <polygon points="0.6733333333333332,6.350852961085883 0.33666666666666667,6.9339767329674045 -0.33666666666666645,6.9339767329674045 -0.6733333333333332,6.350852961085883 -0.3366666666666669,5.767729189204361 0.33666666666666617,5.767729189204361 0.6733333333333332,6.350852961085883" fill="None" stroke="#222" stroke-width="0.08"/>
  </g>
  <g>
    <polygon points="1.6733333333333333,6.928203230275509 1.3366666666666667,7.511327002157031 0.6633333333333336,7.511327002157031 0.32666666666666677,6.928203230275509 0.6633333333333331,6.345079458393987 1.3366666666666662,6.345079458393987 1.6733333333333333,6.928203230275509" fill="None" stroke="#222" stroke-width="0.08"/>
  </g>
  <g>
    <polygon points="2.6733333333333333,6.350852961085883 2.336666666666667,6.9339767329674045 1.6633333333333336,6.9339767329674045 1.3266666666666667,6.350852961085883 1.663333333333333,5.767729189204361 2.336666666666666,5.767729189204361 2.6733333333333333,6.350852961085883" fill="None" stroke="#222" stroke-width="0.08"/>
  </g>
  <g>
    <polygon points="0.6733333333333332,-0.5773502691896257 0.33666666666666667,0.005773502691896137 -0.33666666666666645,0.005773502691896248 -0.6733333333333332,-0.5773502691896256 -0.3366666666666669,-1.1604740410711476 0.33666666666666617,-1.160474041071148 0.6733333333333332,-0.5773502691896257" fill="None" stroke="#222" stroke-width="0.08"/>
  </g>
  <g>
    <polygon points="1.6733333333333333,0.0 1.3366666666666667,0.5831237718815219 0.6633333333333336,0.583123771881522 0.32666666666666677,8.245955114258844e-17 0.6633333333333331,-0.5831237718815219 1.3366666666666662,-0.5831237718815222 1.6733333333333333,0.0" fill="None" stroke="#222" stroke-width="0.08"/>
  </g>
  <g>
    <polygon points="3.6733333333333333,1.1547005383792515 3.336666666666667,1.7378243102607733 2.6633333333333336,1.7378243102607733 2.3266666666666667,1.1547005383792515 2.663333333333333,0.5715767664977296 3.336666666666666,0.5715767664977293 3.6733333333333333,1.1547005383792515" fill="None" stroke="#222" stroke-width="0.08"/>
  </g>
  <g>
    <polygon points="3.6733333333333333,2.309401076758503 3.336666666666667,2.892524848640025 2.6633333333333336,2.892524848640025 2.3266666666666667,2.309401076758503 2.663333333333333,1.726277304876981 3.336666666666666,1.7262773048769806 3.6733333333333333,2.309401076758503" fill="None" stroke="#222" stroke-width="0.08"/>
  </g>
  <g>
    <polygon points="2.6733333333333333,0.5773502691896257 2.336666666666667,1.1604740410711476 1.6633333333333336,1.1604740410711476 1.3266666666666667,0.5773502691896258 1.663333333333333,-0.005773502691896137 2.336666666666666,-0.0057735026918964705 2.6733333333333333,0.5773502691896257" fill="None" stroke="#222" stroke-width="0.08"/>
  </g>
  <g>
    <polygon points="1.6733333333333333,2.309401076758503 1.3366666666666667,2.892524848640025 0.6633333333333336,2.892524848640025 0.32666666666666677,2.309401076758503 0.6633333333333331,1.726277304876981 1.3366666666666662,1.7262773048769806 1.6733333333333333,2.309401076758503" fill="None" stroke="#222" stroke-width="0.08"/>
  </g>
  <g>
    <polygon points="0.6733333333333332,2.8867513459481287 0.33666666666666667,3.4698751178296505 -0.33666666666666645,3.4698751178296505 -0.6733333333333332,2.8867513459481287 -0.3366666666666669,2.303627574066607 0.33666666666666617,2.3036275740666063 0.6733333333333332,2.8867513459481287" fill="None" stroke="#222" stroke-width="0.08"/>
  </g>
  <g>
    <polygon points="1.6733333333333333,1.1547005383792515 1.3366666666666667,1.7378243102607733 0.6633333333333336,1.7378243102607733 0.32666666666666677,1.1547005383792515 0.6633333333333331,0.5715767664977296 1.3366666666666662,0.5715767664977293 1.6733333333333333,1.1547005383792515" fill="None" stroke="#222" stroke-width="0.08"/>
  </g>
  <g>
    <polygon points="2.6733333333333333,1.7320508075688772 2.336666666666667,2.315174579450399 1.6633333333333336,2.315174579450399 1.3266666666666667,1.7320508075688772 1.663333333333333,1.1489270356873553 2.336666666666666,1.1489270356873549 2.6733333333333333,1.7320508075688772" fill="None" stroke="#222" stroke-width="0.08"/>
  </g>
  <g>
    <polygon points="3.6733333333333333,3.4641016151377544 3.336666666666667,4.047225387019276 2.6633333333333336,4.047225387019276 2.3266666666666667,3.4641016151377544 2.663333333333333,2.8809778432562325 3.336666666666666,2.880977843256232 3.6733333333333333,3.4641016151377544" fill="None" stroke="#222" stroke-width="0.08"/>
  </g>
  <g>
    <polygon points="3.6733333333333333,4.618802153517006 3.336666666666667,5.201925925398528 2.6633333333333336,5.201925925398528 2.3266666666666667,4.618802153517006 2.663333333333333,4.035678381635484 3.336666666666666,4.035678381635484 3.6733333333333333,4.618802153517006" fill="None" stroke="#222" stroke-width="0.08"/>
  </g>
  <g>
    <polygon points="2.6733333333333333,5.196152422706631 2.336666666666667,5.779276194588153 1.6633333333333336,5.779276194588153 1.3266666666666667,5.196152422706631 1.663333333333333,4.613028650825109 2.336666666666666,4.613028650825109 2.6733333333333333,5.196152422706631" fill="None" stroke="#222" stroke-width="0.08"/>
  </g>
  <g>
    <polygon points="1.6733333333333333,4.618802153517006 1.3366666666666667,5.201925925398528 0.6633333333333336,5.201925925398528 0.32666666666666677,4.618802153517006 0.6633333333333331,4.035678381635484 1.3366666666666662,4.035678381635484 1.6733333333333333,4.618802153517006" fill="None" stroke="#222" stroke-width="0.08"/>
  </g>
</svg>
